<svg width="404" height="404" viewBox="0 0 404 404" fill="none" xmlns="http://www.w3.org/2000/svg">
<path d="M125.745 320.463C125.684 320.104 125.826 319.685 125.452 319.412C124.089 315.372 122.801 311.332 122.195 307.095C121.72 303.803 121.215 300.53 120.877 297.197C119.907 287.678 119.867 278.138 119.867 268.594C119.699 268.41 119.585 268.182 119.539 267.937C119.453 265.412 119.852 262.887 119.786 260.362C119.783 260.208 119.81 260.055 119.868 259.912C119.925 259.769 120.011 259.639 120.119 259.529C120.427 259.361 120.769 259.265 121.119 259.249C121.469 259.233 121.818 259.298 122.139 259.438C131.017 262.16 139.991 264.564 148.879 267.266C149.505 267.458 150.177 267.559 150.677 268.049C150.861 268.392 150.947 268.78 150.924 269.17C150.965 270.119 150.955 271.069 150.95 272.018C150.904 272.654 150.95 273.301 150.899 273.937C150.556 276.553 150.667 279.199 150.439 281.82C150.359 282.739 150.505 283.668 150.328 284.582C149.773 285.592 148.667 285.976 147.773 286.552C143.736 289.217 140.191 292.56 137.294 296.435C140.839 291.894 145.216 288.07 150.192 285.168C150.725 284.666 151.288 284.197 151.879 283.764C154.429 281.931 156.929 280.007 159.423 278.123C159.995 277.65 160.615 277.237 161.272 276.891C161.438 276.86 161.595 276.794 161.733 276.696C161.871 276.598 161.985 276.472 162.07 276.326C163.096 275.302 164.257 274.422 165.519 273.71C165.687 273.678 165.845 273.61 165.983 273.51C166.121 273.409 166.235 273.279 166.317 273.129C168.276 271.276 170.528 269.806 172.665 268.185C176.068 265.604 179.517 263.079 182.896 260.464C183.382 260.014 183.945 259.655 184.557 259.403C184.725 259.382 184.886 259.321 185.026 259.227C185.167 259.132 185.283 259.005 185.365 258.858C186.484 257.749 187.722 256.769 189.057 255.934C189.255 255.697 189.484 255.488 189.739 255.312C192.905 253.525 195.026 250.717 197.086 247.838C198.909 245.313 200.924 242.889 202.828 240.405C204.646 237.991 206.101 235.314 208.075 233.007C208.22 232.919 208.344 232.801 208.438 232.661C208.532 232.52 208.595 232.361 208.621 232.194C209.145 230.94 209.879 229.786 210.792 228.78C211.061 228.516 211.238 228.172 211.297 227.8C212.772 225.048 212.812 221.977 213.226 218.993C213.312 218.166 213.464 217.347 213.681 216.544C214.039 215.372 214.691 215.074 215.746 215.726C216.923 216.414 217.899 217.397 218.579 218.579C218.705 219.119 218.367 219.483 218.074 219.882C216.741 221.826 215.433 223.79 214.095 225.73C215.862 223.063 218.079 220.68 219.483 217.781C219.852 217.162 220.287 216.584 220.781 216.059C220.923 215.971 221.045 215.853 221.137 215.714C221.23 215.574 221.291 215.416 221.316 215.251C222.168 213.482 223.235 211.825 224.493 210.317C224.765 210.117 224.953 209.824 225.023 209.494C225.152 209.175 225.358 208.894 225.624 208.676C225.874 208.445 226.039 208.138 226.094 207.802C227.691 204.993 229.444 202.275 231.346 199.661C231.492 199.574 231.617 199.455 231.713 199.314C231.809 199.172 231.873 199.012 231.901 198.843C232.103 198.116 232.638 197.571 232.967 196.914C233.279 196.433 233.617 195.968 233.977 195.52C234.416 194.844 234.926 194.354 235.81 194.677C236.693 195 237.547 195.359 237.527 196.52C236.123 197.692 235.618 199.444 234.739 200.944C232.76 204.323 230.745 207.681 228.588 210.948C226.432 214.216 224.452 217.392 222.256 220.543C223.821 218.523 225.159 216.382 226.553 214.266C228.613 211.145 230.628 207.999 232.522 204.772C232.705 204.419 232.962 204.109 233.275 203.863C233.583 203.681 233.81 203.186 234.032 203.186C235.042 203.186 234.264 202.373 234.578 202.085C234.618 201.974 234.674 201.868 234.744 201.772C235.163 200.803 236.406 200.257 236.163 198.954C236.343 198.112 236.752 197.336 237.345 196.712C237.804 196.399 238.173 196.844 238.592 196.874C238.894 197.173 239.128 197.533 239.279 197.929C239.424 198.286 239.608 198.625 239.83 198.939C240.688 201.747 239.89 204.408 239.082 207.055C238.814 207.938 238.724 208.994 237.688 209.453C237.513 209.441 237.348 209.37 237.219 209.251C235.784 208.019 234.446 208.085 233.259 209.559C231.744 211.448 230.734 213.665 229.437 215.71C229.246 216.154 228.972 216.557 228.629 216.897C227.114 217.74 226.508 219.215 226.048 220.776C225.997 220.881 225.938 220.982 225.871 221.079C225.633 221.401 225.508 221.794 225.518 222.195C225.346 222.992 224.69 223.533 224.447 224.29C227.043 220.053 229.528 215.751 232.022 211.458C232.313 210.924 232.651 210.417 233.032 209.943C234.825 207.853 236.37 208.024 237.633 210.479C238.107 212.499 237.204 214.256 236.39 215.907C233.052 222.664 230.548 229.77 227.609 236.693C225.765 241.031 223.771 245.278 221.549 249.444C221.355 249.889 221.089 250.299 220.761 250.656C220.475 250.857 220.269 251.152 220.18 251.49C219.259 253.41 217.996 255.147 216.453 256.615C214.802 258.191 212.943 259.534 210.928 260.605C210.36 260.845 209.862 261.228 209.484 261.716C207.388 264.746 205.217 267.72 203.273 270.851C200.076 275.81 196.758 280.689 193.471 285.587C193.092 286.183 192.63 286.72 192.097 287.183C191.82 287.399 191.63 287.707 191.562 288.052C189.486 291.284 187.128 294.309 184.79 297.344C182.184 300.73 179.49 304.05 176.71 307.302C176.234 307.939 175.653 308.491 174.993 308.933C173.846 308.858 173.957 309.858 173.664 310.509C173.208 311.366 172.589 312.126 171.841 312.746C168.003 316.559 164.337 320.559 160.08 323.937C157.934 325.639 155.686 327.174 153.404 328.674C153.121 328.861 152.838 329.118 152.439 328.962C149.945 330.093 147.5 331.33 144.804 331.992C140.708 333.002 136.855 332.588 133.36 330.254C130.381 328.27 128.346 325.407 126.795 322.205C126.477 321.629 126.326 320.917 125.745 320.463Z" fill="#F9BBB8"/>
<path d="M286.643 319.927C286.573 319.926 286.503 319.94 286.439 319.969C286.375 319.999 286.318 320.041 286.273 320.095C286.227 320.149 286.195 320.212 286.176 320.28C286.158 320.348 286.156 320.419 286.168 320.488C285.032 322.42 283.556 324.131 281.81 325.538C279.679 327.153 277.157 328.173 274.503 328.492C268.675 329.315 263.524 327.568 258.595 324.74C258.445 324.587 258.357 324.383 258.348 324.169C258.359 323.945 258.31 323.722 258.206 323.523C258.146 323.841 258.413 324.199 258.07 324.447C257.126 324.331 256.505 323.195 255.394 323.604C251.409 320.765 247.384 317.988 243.597 314.862C238.142 310.259 232.935 305.37 227.997 300.217C223.866 296.012 219.887 291.674 216.059 287.203C212.751 283.315 209.494 279.406 206.323 275.386C205.924 274.881 205.424 274.376 205.495 273.649C206.727 271.301 208.575 269.341 209.822 267.023C211.479 263.948 214.413 262.347 216.988 260.322C217.675 259.782 218.387 259.256 219.099 258.741C219.746 258.61 220.15 259.019 220.559 259.408C220.782 259.67 221.089 259.848 221.427 259.913C222.302 260.289 223.103 260.82 223.791 261.478C223.881 261.621 224.001 261.743 224.142 261.836C224.283 261.929 224.442 261.992 224.609 262.019C227.44 263.586 230.152 265.358 232.724 267.321C232.942 267.591 233.251 267.77 233.593 267.826C234.483 268.186 235.291 268.724 235.966 269.407C236.055 269.551 236.174 269.674 236.315 269.768C236.457 269.861 236.617 269.922 236.784 269.947C239.093 271.158 241.282 272.587 243.319 274.215C243.545 274.479 243.856 274.657 244.198 274.72C248.056 277.032 251.864 279.431 255.479 282.113C255.688 282.378 255.986 282.558 256.318 282.618C256.652 282.712 256.948 282.908 257.166 283.178C257.259 283.315 257.379 283.43 257.519 283.517C257.659 283.604 257.816 283.661 257.979 283.683C258.497 283.878 258.993 284.126 259.459 284.426C260.287 284.618 260.317 284.032 260.348 283.491C260.317 282.479 260.369 281.465 260.504 280.461C260.573 280.206 260.607 279.943 260.605 279.679C260.641 274.563 261.045 269.457 260.878 264.342C260.954 262.63 261.12 262.393 262.676 261.857L288.168 253.111C288.794 252.899 289.441 252.666 290.006 253.277C290.88 255.843 290.607 258.56 291.016 261.181C291.339 263.201 291.143 265.221 291.491 267.19C291.569 267.638 291.533 268.098 291.385 268.528L291.415 275.952C290.648 276.179 290.643 275.634 290.632 275.154C290.602 273.922 290.632 272.689 290.632 271.77C290.683 273.164 290.587 274.871 290.728 276.583C290.914 277.986 290.793 279.412 290.375 280.764C290.093 281.564 290.063 282.432 290.289 283.249C291.072 285.936 290.673 288.673 290.713 291.385C290.739 292.955 290.951 294.551 290.385 296.096C290.244 296.48 290.466 296.869 290.582 297.248C291.044 298.577 291.155 300.003 290.905 301.389C290.617 307.545 289.542 313.509 286.901 319.134C286.8 319.394 286.714 319.658 286.643 319.927Z" fill="#F9BBB8"/>
<path d="M373.226 109.494V110.292L372.958 110.55C369.721 113.918 366.393 117.175 363.07 120.493C361.661 121.912 361.504 121.912 360.111 120.518C354.02 114.445 347.945 108.365 341.885 102.278C340.582 100.98 340.628 101.03 339.335 102.303C334.75 106.813 330.295 111.454 325.66 115.938C324.013 117.524 322.416 119.163 320.867 120.857C320.246 121.543 319.635 121.867 318.847 121.094C316.115 118.347 313.317 115.66 310.651 112.847C310.949 111.464 311.863 110.358 312.348 109.045C313.065 107.116 313.459 105.101 314.161 103.177C314.525 103.024 314.848 102.784 315.1 102.48C319.234 98.3253 323.379 94.1775 327.533 90.0365C328.543 89.0265 328.543 88.9861 327.508 87.9458C321.62 82.0474 315.728 76.1558 309.833 70.2708C309.555 69.988 309.267 69.7153 308.995 69.4275C307.899 68.2811 307.884 67.9125 308.995 66.7863C310.752 64.9936 312.53 63.2513 314.322 61.4485C315.6 60.1708 316.873 58.8881 318.155 57.6155C319.61 56.1662 319.67 56.1611 321.079 57.5802L338.855 75.3259C340.552 77.0227 340.552 77.0227 342.208 75.3663L360.065 57.5044C361.535 56.0349 361.661 56.0298 363.095 57.5044C366.191 60.6455 369.403 63.6654 372.387 66.9176C372.623 67.1163 372.798 67.377 372.892 67.6701C372.917 68.0564 372.822 68.4409 372.62 68.771C370.928 70.9879 368.797 72.7807 366.857 74.7653C363.1 78.6033 359.237 82.3403 355.485 86.1783C354.823 86.8865 354.116 87.5511 353.369 88.168C352.677 88.7134 352.687 89.2336 353.313 89.8042C353.541 90.0163 353.748 90.2436 353.965 90.4607L371.448 107.944C371.903 108.433 372.411 108.87 372.963 109.247L373.226 109.494Z" fill="#B3B3B3"/>
<path d="M33.5873 163.766C31.2778 161.41 28.9683 159.053 26.6587 156.696C25.1134 155.131 23.5631 153.57 21.9875 152.04C21.4825 151.535 21.3562 151.212 21.9269 150.646C25.1723 147.441 28.401 144.214 31.6128 140.966C32.1178 140.461 32.5723 140.062 33.3197 140.198C33.7384 140.286 34.1051 140.537 34.3398 140.895C40.4705 147.106 46.6921 153.227 52.8228 159.438C53.6661 160.292 54.1257 159.873 54.7468 159.252C60.4988 153.469 66.281 147.722 72.0279 141.94C72.3057 141.693 72.4673 141.324 72.8511 141.203C73.2046 141.279 73.3056 141.587 73.4318 141.864C75.5742 146.603 79.0236 150.632 83.3753 153.479C83.6278 153.651 83.9106 153.798 83.9459 154.156C83.4409 154.999 82.5925 155.535 81.9259 156.217C76.9769 161.186 72.0195 166.146 67.0537 171.099C65.8215 172.331 65.8215 172.361 67.0537 173.624L85.3044 191.9C86.678 193.273 86.678 193.329 85.3044 194.728C82.2171 197.818 79.1282 200.906 76.0376 203.99C74.8509 205.176 74.6994 205.176 73.4874 203.99C67.3062 197.818 61.13 191.644 54.9589 185.466C53.8681 184.375 53.858 184.375 52.7925 185.441C46.6315 191.546 40.4604 197.667 34.3398 203.848C34.1184 204.104 33.8363 204.299 33.5196 204.418C33.2029 204.536 32.8615 204.573 32.5268 204.525C29.2241 201.178 25.9181 197.83 22.6086 194.48C21.2956 193.152 21.2805 193.147 22.649 191.779C25.9719 188.442 29.2999 185.111 32.6329 181.785C32.9712 181.441 33.2692 181.063 33.5873 180.704C33.7944 180.421 33.9812 180.133 34.2135 179.871C36.279 177.583 38.5464 175.492 40.6977 173.306C41.7077 172.25 41.7077 172.25 40.6977 171.215C38.5717 169.049 36.3598 166.963 34.2893 164.746C34.0519 164.418 33.6934 164.185 33.5873 163.766Z" fill="#E7E7E6"/>
<path d="M196.112 36.9562C196.819 36.4512 197.147 37.0774 197.526 37.4612C200.369 40.2892 203.232 43.1071 206.03 45.9856C206.762 46.7381 207.182 46.8138 207.858 45.9301C208.572 45.0928 209.337 44.3018 210.151 43.5616C210.358 43.395 210.262 43.092 210.429 42.9051C212.312 40.9255 214.297 39.0469 216.201 37.0825C216.903 36.3603 217.554 36.3452 218.221 37.0825C219.549 38.4914 220.943 39.8347 222.306 41.2083C223.089 41.9961 223.033 42.6476 222.099 43.602C219.69 46.0563 217.236 48.4652 214.812 50.9043C212.944 52.788 212.933 52.4193 214.812 54.3181C217.236 56.7573 219.68 59.1762 222.099 61.6154C223.165 62.691 223.16 62.9031 222.099 63.9838C220.832 65.2716 219.574 66.5543 218.266 67.8168C217.256 68.8268 217.034 68.8268 215.999 67.7764C214.191 65.9685 212.333 64.2414 210.575 62.3628C210.358 62.1406 210.141 61.9184 209.919 61.7012C209.212 60.9134 208.333 60.3074 207.666 59.4792C207.161 58.8682 206.687 58.8631 206.151 59.4792C203.833 62.0042 201.303 64.3373 198.92 66.8017C196.678 69.1247 196.713 69.155 194.461 66.9078C193.501 65.9432 192.516 64.9938 191.577 64.0091C190.638 63.0243 190.693 62.5345 191.617 61.6558C192.728 60.5902 193.814 59.4994 194.895 58.4036C195.266 58.1032 195.604 57.7646 195.905 57.3936C195.977 57.2936 196.056 57.1991 196.142 57.1108C197.379 56.0452 198.465 54.8231 199.652 53.7071C200.43 52.9799 200.404 52.3688 199.702 51.581C198.445 50.1569 197.016 48.9096 195.662 47.5713C194.36 46.0917 192.9 44.7686 191.542 43.3445C190.683 42.4355 190.683 41.9911 191.617 41.1578C192.824 40.0822 193.824 38.7944 195.067 37.7541C195.384 37.45 195.735 37.1824 196.112 36.9562Z" fill="#E4EDFF" fill-opacity="0.9"/>
<path d="M263.898 35.3752C265.413 34.6632 266.337 33.2694 267.433 32.1129C267.877 31.6483 267.281 31.2443 266.958 30.9161C265.443 29.4011 263.928 27.8356 262.368 26.3408C261.802 25.8004 261.691 25.4065 262.332 24.851C263.023 24.2351 263.679 23.5809 264.297 22.8916C264.842 22.3008 265.307 22.3311 265.842 22.8916C267.357 24.4672 268.978 25.9873 270.498 27.5881C271.109 28.2295 271.508 28.1941 272.084 27.5881C273.664 25.9368 275.321 24.3561 276.917 22.7149C277.346 22.2705 277.679 22.1745 278.073 22.7149C278.124 22.7856 278.204 22.8361 278.255 22.9068C278.972 23.841 280.532 24.4975 280.477 25.5025C280.431 26.3711 279.078 27.1791 278.28 27.9972C277.27 29.0072 276.26 29.9869 275.296 30.9969C275.043 31.2544 274.513 31.5675 274.937 31.9614C276.169 33.1229 277.093 34.6379 278.699 35.3904C278.916 35.5924 279.068 35.8499 279.275 36.062C281.376 37.7992 281.376 37.7992 279.421 39.7536C277.376 41.7736 277.376 41.7736 275.331 39.7536C274.366 38.789 273.422 37.7942 272.422 36.865C271.513 36.0216 270.766 36.0166 269.897 36.865C268.564 38.1527 267.226 39.4354 265.988 40.809C265.337 41.5312 264.746 41.5413 264.08 40.8999C263.413 40.2586 262.878 39.7283 262.297 39.1223C261.317 38.1123 261.327 37.8144 262.337 36.8599C262.59 36.6175 262.842 36.3549 263.085 36.1125C263.313 35.8231 263.587 35.5739 263.898 35.3752Z" fill="#B3B3B3"/>
<path d="M290.91 301.444C291.023 299.889 290.69 298.333 289.951 296.96C289.823 296.678 289.796 296.36 289.875 296.061C290.981 292.45 290.234 288.754 290.259 285.107C290.259 284.097 289.643 282.901 289.875 281.83C290.713 277.972 290.219 274.083 290.38 270.215C290.38 270.053 290.38 269.851 290.885 269.826C290.885 271.462 290.885 273.094 290.885 274.725C290.885 275.189 290.592 275.841 291.39 276.007C291.749 279.775 291.638 283.552 291.622 287.329C291.622 287.794 291.779 288.304 291.41 288.718C291.042 289.132 291.117 289.627 291.127 290.097C291.173 292.622 290.996 295.197 291.239 297.748C291.32 298.087 291.279 298.445 291.122 298.758C291.077 299.667 291.385 300.596 290.91 301.444Z" fill="#F8BCB5"/>
<path d="M291.163 298.773C290.789 295.849 290.9 292.915 290.91 289.981C290.91 289.522 290.617 288.855 291.451 288.719C291.451 291.612 291.451 294.506 291.405 297.4C291.385 297.864 291.562 298.374 291.163 298.773Z" fill="#F9BBB8"/>
<path d="M255.995 326.255C257.207 330.383 258.419 334.505 259.631 338.623L265.524 358.6C266.069 359.454 266.472 360.39 266.716 361.373C266.978 362.716 266.67 363.135 265.276 363.246C264.837 363.277 264.398 363.246 263.953 363.246C224.105 363.246 184.258 363.246 144.41 363.246C143.526 363.246 142.445 363.671 141.824 362.56C142.243 362.417 142.69 362.379 143.127 362.449C183.936 362.449 224.74 362.393 265.544 362.449C265.544 362.449 265.579 362.383 265.6 362.348C265.771 362.312 265.549 362.07 265.64 362.221C265.67 362.272 265.64 362.287 265.549 362.317C265.087 362.442 264.604 362.471 264.13 362.403H143.42C142.936 362.352 142.449 362.352 141.966 362.403C141.163 362.565 140.809 362.206 140.653 361.494C140.55 361.215 140.538 360.91 140.619 360.623C140.7 360.337 140.869 360.083 141.102 359.898C142.693 356.232 143.895 352.419 145.294 348.687C147.147 343.758 148.97 338.825 150.808 333.896C151.191 333.596 151.656 333.42 152.141 333.391C158.335 332.736 164.376 331.055 170.018 328.417C176.048 325.639 181.354 321.505 185.522 316.337C190.294 310.575 193.779 304.01 196.95 297.253C198.228 294.546 199.435 291.804 200.833 289.173C201.54 287.84 201.843 287.83 202.742 289.072C206.045 293.536 209.469 297.899 213.064 302.136C218.182 308.159 224.359 313.194 231.29 316.993C236.744 320.058 242.497 322.558 248.46 324.452C250.429 325.068 252.404 325.705 254.414 326.21C254.927 326.367 255.473 326.383 255.995 326.255Z" fill="#0066AE"/>
<path d="M141.804 362.626C142.355 362.782 142.933 362.823 143.501 362.747H264.574C266.63 362.747 266.625 362.747 266.089 360.757C265.892 360.04 265.721 359.318 265.534 358.596C266.317 359.712 267.554 359.348 268.564 359.348C272.129 359.348 275.689 359.606 279.245 359.712C284.153 359.863 289.057 360.277 293.965 360.474C297.95 360.636 301.939 360.873 305.904 361.272C310.211 361.706 314.534 362.05 318.842 362.479C322.417 362.833 325.984 363.223 329.543 363.651C334.331 364.199 339.072 365.109 343.723 366.373C344.42 366.642 345.095 366.964 345.743 367.337C346.45 367.66 347.233 368.08 347.172 368.893C347.111 369.706 346.384 370.16 345.703 370.458C342.875 371.7 339.834 372.241 336.835 372.857C334.31 373.362 331.739 373.675 329.184 374.018C326.491 374.382 323.797 374.709 321.104 374.998C317.625 375.372 314.14 375.705 310.651 376.008C309.257 376.139 307.853 376.124 306.449 376.261C303.222 376.579 299.965 376.599 296.733 376.851C291.743 377.245 286.744 377.432 281.749 377.68C277.361 377.902 272.972 378.028 268.584 378.185C262.256 378.442 255.924 378.488 249.601 378.74C244.708 378.937 239.824 378.74 234.956 378.942C218.958 379.523 202.954 379.164 186.981 379.124C181.704 379.124 176.406 379.19 171.139 378.871C167.746 378.664 164.362 378.871 160.984 378.654C155.848 378.351 150.702 378.336 145.566 378.104C141.753 377.927 137.941 377.705 134.123 377.599C129.436 377.444 124.752 377.178 120.069 376.801C115.569 376.442 111.059 376.185 106.58 375.72C102.101 375.256 97.5203 374.882 93.0107 374.256C88.8495 373.675 84.6782 373.175 80.5675 372.311C78.3199 371.921 76.132 371.242 74.058 370.291C73.4975 370.014 72.8309 369.786 72.8056 368.933C72.7804 368.08 73.2652 367.751 73.8661 367.418C75.9819 366.344 78.2508 365.603 80.5927 365.221C83.5958 364.625 86.6157 364.12 89.6524 363.706C93.0309 363.247 96.4346 362.974 99.8231 362.54C103.298 362.09 106.802 362.004 110.277 361.53C112.923 361.181 115.609 361.1 118.276 360.949C123.402 360.661 128.537 360.525 133.653 360.09C136.178 359.873 138.663 359.969 141.162 359.914L140.875 361.217C140.718 362.02 140.728 362.701 141.804 362.626Z" fill="#F4F4F4"/>
<path d="M255.995 326.255C255.874 326.856 255.49 326.886 254.985 326.76C250.99 325.584 247.001 324.412 243.092 322.963C238.141 321.085 233.37 318.764 228.836 316.029C222.704 312.391 217.238 307.732 212.676 302.253C208.904 297.753 205.252 293.163 201.732 288.229C201.227 289.102 200.722 289.845 200.364 290.653C197.905 296.081 195.476 301.53 192.516 306.712C189.102 312.691 185.113 318.241 179.78 322.695C174.19 327.361 167.711 330.27 160.711 332.144C157.461 333.029 154.141 333.641 150.788 333.972C151.33 332.312 151.869 330.654 152.404 328.997C155.918 326.785 159.254 324.304 162.383 321.574C166.282 318.131 169.947 314.432 173.351 310.499C173.676 309.807 174.205 309.231 174.866 308.848C180.739 302.194 186.232 295.214 191.319 287.941C191.557 287.709 191.592 287.34 191.87 287.143C195.814 281.79 199.394 276.235 203.01 270.68C203.48 270.412 203.778 270.735 204.02 271.028C204.706 271.765 205.252 272.621 205.631 273.553C206.136 274.942 207.186 275.967 208.08 277.088C217.063 288.463 226.884 299.15 237.461 309.06C242.658 313.878 248.066 318.423 254.096 322.22C254.66 322.551 255.113 323.041 255.399 323.629C255.597 324.494 255.796 325.37 255.995 326.255Z" fill="#3265B0"/>
<path d="M258.055 324.442C258.052 324.229 258.01 324.018 257.929 323.821C257.722 323.538 257.424 323.316 257.606 322.912C257.641 322.836 257.868 322.75 257.909 322.786C258.202 323.028 258.565 323.235 258.575 323.689C258.575 324.038 258.575 324.386 258.575 324.735C258.47 324.742 258.364 324.718 258.272 324.666C258.179 324.614 258.104 324.536 258.055 324.442Z" fill="#F8BFAE"/>
<path d="M120.539 259.57C118.205 258.505 115.686 258.055 113.251 257.298C111.509 256.762 111.504 256.818 112.161 255.182C116.463 244.385 121.003 233.694 126.23 223.301C130.103 215.605 135.093 208.899 142.516 204.308C145.719 202.382 149.182 200.925 152.798 199.98C157.02 198.824 161.338 198.874 165.645 198.718C169.953 198.561 174.361 198.465 178.725 198.349C180.745 199.622 182.962 200.47 185.108 201.465C189.872 203.654 194.793 205.488 199.829 206.949C203.869 208.136 208.03 208.939 212.211 208.338C214.297 208.086 216.312 207.424 218.14 206.389C219.968 205.354 221.573 203.967 222.862 202.308C223.225 201.807 223.507 201.252 223.695 200.662C224.2 199.288 224.008 198.955 222.624 198.576C221.867 198.369 221.059 198.283 220.508 197.622C221.013 196.986 221.756 197.299 222.357 197.278C225.967 197.182 229.578 197.167 233.189 197.127L232.113 198.97C231.931 199.238 231.861 199.576 231.583 199.788L226.296 207.964C226.109 208.232 226.038 208.575 225.791 208.797L225.23 209.575C225.023 209.828 224.962 210.181 224.725 210.398L221.528 215.373C221.417 215.681 221.245 215.964 221.023 216.206L219.741 217.847C219.18 217.989 219.397 219.16 218.468 218.802C217.662 217.671 216.647 216.704 215.479 215.953C214.66 215.448 214.307 215.504 214.06 216.544C213.555 218.64 213.433 220.786 213.145 222.902C212.969 224.73 212.406 226.499 211.494 228.094C211.359 228.39 211.19 228.67 210.989 228.927C210.277 230.058 209.56 231.184 208.848 232.31C208.671 232.593 208.6 232.947 208.292 233.144C206.459 235.573 204.964 238.244 203.015 240.592C202.177 240.845 202.248 239.996 201.894 239.663C201.463 239.191 201.121 238.646 200.884 238.052C197.783 234.371 197.48 229.811 196.884 225.341C196.884 225.255 196.884 225.165 196.884 225.079C196.814 224.483 196.945 223.715 196.263 223.468C195.582 223.22 195.183 223.892 194.708 224.256C193.91 224.877 193.344 225.735 192.552 226.361C192.47 226.397 192.382 226.415 192.293 226.414C192.205 226.413 192.117 226.394 192.036 226.357C191.955 226.32 191.883 226.267 191.824 226.201C191.765 226.135 191.72 226.057 191.693 225.973C191.38 225.266 190.764 224.816 190.259 224.271C188.522 221.448 186.633 218.716 184.881 215.913C184.765 215.585 184.595 215.279 184.376 215.009C184.175 214.732 183.991 214.444 183.825 214.145C183.656 213.844 183.453 213.562 183.219 213.307C181.906 211.09 180.326 209.05 179.023 206.828C178.892 206.49 178.69 206.183 178.432 205.929C177.837 205.118 177.288 204.275 176.785 203.404C176.104 202.313 175.452 202.197 174.574 203.076C173.952 203.697 173.311 204.293 172.67 204.889C172.067 205.476 171.695 206.262 171.624 207.101C171.453 208.893 171.624 210.701 172.129 212.428C172.168 212.972 172.297 213.504 172.513 214.004C172.644 214.509 172.958 214.953 173.109 215.458C173.179 215.792 173.312 216.11 173.503 216.393C173.557 216.499 173.601 216.611 173.634 216.726C173.697 217.151 173.789 217.571 173.907 217.983C174.185 221.756 176.275 224.856 177.725 228.189C179.129 231.416 180.386 234.699 181.714 237.961C183.648 242.728 185.633 247.486 187.926 252.101C188.408 252.872 188.843 253.671 189.229 254.495C189.377 254.735 189.463 255.008 189.478 255.289C189.493 255.571 189.437 255.852 189.315 256.106L185.552 259.035C185.391 259.378 185.012 259.419 184.744 259.611L166.489 273.337C166.327 273.675 165.948 273.71 165.691 273.912L162.262 276.528C162.09 276.846 161.711 276.882 161.464 277.104C158.599 279.235 155.737 281.366 152.879 283.497C152.601 283.704 152.374 284.002 151.98 284.002C151.475 283.543 151.475 282.886 151.419 282.3C151.263 279.856 150.813 277.442 150.692 274.993C150.692 274.68 150.778 274.387 150.763 274.084C150.712 273.412 150.884 272.725 150.662 272.064V269.251C151.167 268.14 150.818 266.984 150.859 265.847C150.632 264.332 150.586 262.817 150.354 261.302C150.354 256.424 150.323 251.541 150.354 246.657C150.515 245.188 150.596 243.708 150.758 242.234C150.749 241.846 150.777 241.459 150.839 241.077C150.894 240.234 150.839 239.39 150.869 238.552C150.899 237.274 151.333 236.027 151.374 234.77C151.374 233.957 151.374 233.144 151.374 232.336C151.488 231.944 151.578 231.546 151.642 231.144C151.855 230.554 151.933 229.924 151.869 229.3C151.892 229.638 151.878 229.976 151.828 230.31C151.631 230.967 151.535 231.649 151.359 232.33C151.333 233.295 151.359 234.265 151.328 235.234C151.002 236.459 150.832 237.719 150.823 238.986C150.823 239.648 150.823 240.31 150.798 240.971C150.556 241.789 150.712 242.643 150.576 243.471C150.576 243.607 150.525 243.743 150.495 243.88C150.372 244.423 150.335 244.982 150.384 245.536C150.388 245.918 150.36 246.3 150.303 246.678C150.303 251.465 150.303 256.273 150.303 261.035C150.404 261.893 150.354 262.762 150.531 263.61C150.707 264.459 150.657 265.297 150.813 266.135C150.717 266.812 151.126 267.569 150.475 268.155C145.839 266.809 141.203 265.462 136.567 264.115C131.563 262.651 126.568 261.171 121.559 259.712C121.224 259.63 120.883 259.583 120.539 259.57Z" fill="#0066AE"/>
<path d="M238.43 196.884C249.813 196.379 259.782 199.803 268.114 207.641C271.18 210.525 273.508 213.974 275.644 217.605C278.937 223.195 281.704 229.043 284.385 234.921C286.825 240.244 289.037 245.662 291.253 251.081C291.602 251.935 291.708 252.596 290.531 252.758C290.242 252.855 289.97 253 289.728 253.187C287.759 253.47 285.976 254.348 284.113 254.965C278.053 256.985 272.028 259.08 265.988 261.151C264.751 261.58 263.519 262.035 262.267 262.413C261.418 262.671 260.994 263.12 261.257 264.029C260.989 265.544 261.211 267.095 261.13 268.625C261.029 270.645 261.156 272.665 260.751 274.685C260.721 277.679 260.191 280.639 260.014 283.623C260.039 283.891 259.971 284.159 259.821 284.382C259.671 284.604 259.448 284.768 259.191 284.845C258.858 284.381 258.292 284.265 257.853 283.957C257.585 283.775 257.232 283.709 257.04 283.411L256.252 282.906C255.989 282.714 255.646 282.649 255.434 282.401L244.076 274.998C243.824 274.791 243.475 274.73 243.258 274.468L236.693 270.216C236.416 270.034 236.062 269.973 235.87 269.665L233.502 268.105C233.239 267.908 232.891 267.847 232.679 267.6L224.513 262.297C224.24 262.12 223.897 262.05 223.695 261.792L221.326 260.217C221.064 260.02 220.725 259.954 220.498 259.712C220.069 259.464 219.74 258.994 219.155 259.08C217.948 258.535 216.534 258.232 216.18 256.641C217.69 255.128 218.974 253.405 219.993 251.525C220.134 251.234 220.304 250.957 220.498 250.697C223.806 244.94 226.437 238.87 228.921 232.734C231.204 227.104 233.386 221.433 236.062 215.963C236.91 214.236 237.643 212.428 237.446 210.408C237.244 210.1 237.153 209.797 237.501 209.52C238.809 208.111 239.016 206.252 239.456 204.515C239.9 202.662 240.147 200.728 239.557 198.819C239.351 198.562 239.181 198.278 239.052 197.975C238.865 197.516 238.451 197.324 238.43 196.884Z" fill="#0066AE"/>
<path d="M189.284 256.071C189.284 254.556 188.087 253.546 187.688 252.228C188.325 250.844 189.476 249.849 190.511 248.814C193.89 245.435 197.076 241.86 200.48 238.512C200.664 238.263 200.919 238.076 201.212 237.977C201.674 238.922 202.271 239.794 202.985 240.567C200.894 243.319 198.652 245.966 196.753 248.844C194.779 251.844 192.183 254.086 189.284 256.071Z" fill="#C1847F"/>
<path d="M216.14 256.54C216.791 257.772 218.321 257.924 219.114 258.979C217.7 260.345 216.135 261.545 214.448 262.555C212.428 263.873 211.1 265.731 209.792 267.67C208.484 269.609 207.216 271.751 205.611 273.553C204.833 273.089 204.601 272.2 204.02 271.574C203.717 271.241 203.56 270.715 203.01 270.695C205.124 267.584 207.24 264.475 209.358 261.368C209.612 261.01 209.962 260.732 210.368 260.565C212.544 259.57 214.337 258.055 216.14 256.54Z" fill="#C1847F"/>
<path d="M233.436 204.02C231.204 207.555 228.982 211.064 226.73 214.569C225.402 216.64 224.038 218.69 222.665 220.73C222.458 221.033 222.129 221.584 221.776 221.346C221.21 220.967 221.831 220.584 222.038 220.266C225.19 215.508 228.401 210.787 231.401 205.929C233.133 203.121 234.785 200.268 236.315 197.344C236.577 196.839 236.82 196.546 237.39 196.637C237.32 197.541 236.522 198.126 236.355 198.985C236.072 200.091 235.345 200.944 234.754 201.889C234.424 202.661 233.98 203.379 233.436 204.02Z" fill="#F38886"/>
<path d="M237.466 209.408C237.466 209.706 237.426 210.004 237.411 210.297C237.274 210.191 237.087 210.12 237.012 209.979C236.204 208.555 234.911 208.383 233.754 209.539C232.83 210.453 232.275 211.615 231.628 212.706C229.416 216.453 227.245 220.22 225.063 223.977C224.969 224.177 224.851 224.363 224.71 224.533C224.493 224.745 224.442 225.336 223.952 224.992C223.599 224.745 223.952 224.437 224.043 224.174C224.356 223.402 225.078 222.856 225.26 222.008C225.487 221.68 225.417 221.2 225.801 220.952C226.639 219.518 227.215 217.922 228.427 216.705C229.674 214.605 230.952 212.519 232.153 210.388C233.163 208.565 234.623 207.777 236.294 208.201C236.597 208.242 236.877 208.383 237.09 208.602C237.302 208.82 237.435 209.105 237.466 209.408Z" fill="#F28788"/>
<path d="M150.02 285.042C150.106 285.133 150.192 285.229 150.283 285.32C148.879 286.587 147.202 287.461 145.687 288.577C142.975 290.597 140.723 293.006 138.486 295.48C138.163 295.839 137.89 296.243 137.572 296.601C137.36 296.844 137.183 297.389 136.794 297.106C136.405 296.824 136.83 296.374 137.047 296.096C138.138 294.778 139.203 293.42 140.405 292.208C142.979 289.624 145.843 287.347 148.94 285.421C149.236 285.158 149.624 285.022 150.02 285.042Z" fill="#F28886"/>
<path d="M218.438 218.776C219.054 218.715 218.902 217.63 219.705 217.822C219.483 219.382 218.246 220.347 217.478 221.594C216.6 223.003 215.569 224.316 214.595 225.659C214.378 225.962 214.221 226.386 213.428 226.225C214.913 223.543 216.887 221.296 218.438 218.776Z" fill="#F18B89"/>
<path d="M228.412 216.706C227.563 218.14 226.993 219.736 225.786 220.953C226.089 219.17 226.624 217.56 228.412 216.706Z" fill="#F8B7AE"/>
<path d="M150.49 268.09C150.52 267.403 150.546 266.711 150.576 266.019C150.48 265.797 150.344 265.514 150.682 265.433C151.02 265.353 150.934 265.757 151.056 265.938C151.086 266.842 151.116 267.751 151.136 268.66C151.136 269.009 151.187 269.408 150.631 269.201C150.586 268.827 150.54 268.458 150.49 268.09Z" fill="#1F3340"/>
<path d="M234.765 201.873C235.118 200.816 235.66 199.833 236.365 198.97C236.477 199.192 236.704 199.601 236.689 199.616C235.8 200.162 235.795 201.464 234.765 201.873Z" fill="#F8B6AE"/>
<path d="M174.897 308.828C174.493 309.464 173.98 310.023 173.382 310.479C173.559 309.904 173.685 309.308 173.917 308.752C174.276 307.899 174.543 309.091 174.897 308.828Z" fill="#EBB9C4"/>
<path d="M233.436 204.02C233.71 203.221 234.165 202.495 234.764 201.899C235.012 203.01 234.32 203.551 233.436 204.02Z" fill="#F8B6AE"/>
<path d="M150.586 328.295C149.631 328.553 149.429 328.017 149.071 327.532C149.939 327.204 150.182 327.745 150.586 328.295Z" fill="#F8BEAB"/>
<path d="M150.834 273.912L150.596 273.851L150.626 272.008C150.883 272.608 150.955 273.271 150.834 273.912Z" fill="#93CCEE"/>
<path d="M225.79 220.953C225.776 221.156 225.721 221.355 225.628 221.536C225.535 221.717 225.406 221.878 225.25 222.009C225.301 221.589 225.053 221.019 225.79 220.953Z" fill="#F8B7AE"/>
<path d="M231.583 199.768C231.595 199.598 231.65 199.434 231.743 199.291C231.836 199.148 231.963 199.031 232.113 198.95C232.149 199.359 232.118 199.728 231.583 199.768Z" fill="#BBB2C8"/>
<path d="M208.262 233.118C208.289 232.948 208.352 232.784 208.448 232.641C208.544 232.497 208.67 232.375 208.818 232.285C208.863 232.714 208.833 233.093 208.262 233.118Z" fill="#C3B8D1"/>
<path d="M191.9 287.123C191.886 287.293 191.828 287.456 191.732 287.596C191.635 287.736 191.503 287.848 191.35 287.921C191.35 287.527 191.395 287.163 191.9 287.123Z" fill="#ADA4C5"/>
<path d="M239.027 197.864C239.182 197.943 239.311 198.064 239.401 198.213C239.49 198.362 239.535 198.534 239.532 198.708C238.981 198.647 238.996 198.263 239.027 197.864Z" fill="#BDB4CD"/>
<path d="M210.958 228.902C210.962 228.731 211.01 228.563 211.099 228.417C211.187 228.271 211.313 228.15 211.463 228.068C211.494 228.467 211.484 228.841 210.958 228.902Z" fill="#B5ACCB"/>
<path d="M224.725 210.373C224.726 210.203 224.773 210.036 224.862 209.891C224.951 209.745 225.079 209.628 225.23 209.55C225.26 209.949 225.23 210.317 224.725 210.373Z" fill="#ADADD2"/>
<path d="M165.64 273.876C165.721 273.727 165.835 273.597 165.973 273.497C166.111 273.398 166.27 273.33 166.438 273.301C166.468 273.876 166.085 273.907 165.64 273.876Z" fill="#CBB2CE"/>
<path d="M225.771 208.777C225.772 208.605 225.819 208.437 225.908 208.29C225.997 208.144 226.124 208.024 226.276 207.943C226.326 208.352 226.301 208.726 225.771 208.777Z" fill="#C2B1C8"/>
<path d="M220.993 216.18C221.007 216.011 221.06 215.849 221.148 215.704C221.236 215.56 221.355 215.437 221.498 215.347C221.564 215.761 221.549 216.14 220.993 216.18Z" fill="#C0B5D1"/>
<path d="M184.714 259.57C184.799 259.421 184.915 259.292 185.054 259.193C185.194 259.093 185.353 259.025 185.522 258.994C185.527 259.57 185.153 259.62 184.714 259.57Z" fill="#CDB7D0"/>
<path d="M220.463 250.581C220.508 250.98 220.241 251.202 219.958 251.409C219.933 251.015 219.953 250.647 220.463 250.581Z" fill="#BBABC6"/>
<path d="M161.434 277.068C161.506 276.912 161.618 276.777 161.758 276.676C161.897 276.576 162.06 276.512 162.231 276.492C162.231 277.053 161.848 277.078 161.434 277.068Z" fill="#C9B2CD"/>
<path d="M271.039 296.405C269.241 293.814 267.468 291.208 265.009 289.163C263.377 287.836 261.656 286.623 259.858 285.532C260.671 285.067 261.146 285.477 261.636 285.78C265.625 288.199 268.95 291.573 271.311 295.597C271.407 295.93 271.69 296.324 271.039 296.405Z" fill="#F28887"/>
<path d="M260.742 280.78C260.585 278.76 260.938 276.74 260.555 274.72L261.236 264.039C261.464 269.387 260.979 274.72 260.979 280.063C260.995 280.192 260.982 280.324 260.941 280.448C260.9 280.572 260.832 280.685 260.742 280.78Z" fill="#EAD7DA"/>
<path d="M232.648 267.523C232.817 267.532 232.98 267.583 233.124 267.671C233.268 267.759 233.387 267.882 233.472 268.028C233.057 268.089 232.699 268.049 232.648 267.523Z" fill="#B3AFD2"/>
<path d="M235.835 269.614C236.005 269.637 236.168 269.699 236.31 269.794C236.453 269.89 236.572 270.016 236.658 270.165C236.239 270.205 235.86 270.175 235.835 269.614Z" fill="#C4B7CE"/>
<path d="M271.039 296.405C271.347 296.208 271.306 295.9 271.311 295.597C271.382 295.642 271.443 295.703 271.489 295.773C271.535 295.844 271.566 295.924 271.579 296.007C271.593 296.09 271.588 296.176 271.566 296.257C271.545 296.339 271.506 296.415 271.453 296.48C271.342 296.642 271.155 296.551 271.039 296.405Z" fill="#F19F9C"/>
<path d="M220.468 259.596C220.639 259.595 220.807 259.642 220.953 259.732C221.099 259.821 221.218 259.948 221.296 260.101C220.897 260.141 220.523 260.121 220.468 259.596Z" fill="#BFAEC9"/>
<path d="M243.238 274.417C243.41 274.423 243.577 274.476 243.721 274.569C243.865 274.662 243.981 274.793 244.056 274.947C243.662 274.962 243.294 274.932 243.238 274.417Z" fill="#BAAACA"/>
<path d="M223.665 261.691C223.832 261.701 223.995 261.752 224.138 261.84C224.28 261.928 224.399 262.051 224.483 262.196C224.074 262.252 223.715 262.242 223.665 261.691Z" fill="#CCB3CE"/>
<path d="M255.414 282.351C255.582 282.36 255.744 282.411 255.887 282.5C256.03 282.588 256.149 282.71 256.232 282.856C255.823 282.916 255.47 282.871 255.414 282.351Z" fill="#BAACCC"/>
<path d="M257.045 283.386C257.213 283.41 257.373 283.471 257.514 283.565C257.655 283.66 257.772 283.785 257.858 283.931C257.419 283.967 257.045 283.946 257.045 283.386Z" fill="#C6ADCE"/>
<path d="M257 101.288C257 101.111 257 100.929 256.974 100.752C256.559 98.5019 256.542 96.1961 256.924 93.9398C258.1 85.9961 261.974 79.5978 268.337 74.6942C269.396 73.8443 270.591 73.1785 271.872 72.7247C274.801 71.4067 277.75 70.1543 280.962 69.6947C291.456 68.1797 300.349 71.2097 307.469 79.0877C313.024 85.1982 315.171 92.4904 314.666 100.646C314.615 101.479 314.504 102.308 314.418 103.136C313.777 105.661 313.161 108.186 312.034 110.534C311.646 111.357 311.186 112.145 310.762 112.953C306.894 119.165 301.591 123.598 294.561 125.785C285.976 128.451 277.861 127.325 270.276 122.568C269.819 122.25 269.296 122.04 268.746 121.952C268.196 121.865 267.633 121.903 267.1 122.063C265.271 122.568 263.418 122.917 261.585 123.391C260.888 123.573 260.742 123.472 260.873 122.735C261.262 120.483 261.575 118.22 261.923 115.963C262.007 115.688 262.034 115.4 262.004 115.114C261.973 114.829 261.886 114.552 261.747 114.301C260.111 111.843 258.845 109.158 257.989 106.332C257.459 105.459 256.813 102.303 257 101.288Z" fill="#739FD4"/>
<path d="M85.5118 107.141C88.8398 105.707 92.2435 104.616 95.9098 104.379C104.555 103.874 111.812 106.808 117.701 113.105C120.551 116.14 122.595 119.842 123.644 123.872C123.748 124.292 123.945 124.684 124.221 125.017C124.498 125.351 124.846 125.617 125.24 125.796C126.796 126.604 128.3 127.508 129.967 128.457C128.603 129.578 127.356 130.689 126.018 131.669C125.57 131.972 125.196 132.371 124.922 132.836C124.647 133.302 124.48 133.823 124.432 134.361C123.165 144.062 118.094 151.187 109.328 155.399C100.98 159.409 92.597 158.909 84.4463 154.541L83.8605 154.238C78.9126 151.158 75.0429 146.617 72.7858 141.244C72.2808 140.961 72.2505 140.421 72.0384 139.976C71.9896 139.852 71.9474 139.726 71.9122 139.598C70.9022 136.926 70.6901 134.078 70.6446 131.305C70.5182 125.086 72.5829 119.021 76.4774 114.171C78.6085 111.444 81.3052 109.444 84.1483 107.581C84.5663 107.339 85.0312 107.189 85.5118 107.141Z" fill="#0066AE"/>
<path d="M141.804 362.625C141.339 362.767 140.743 362.944 140.466 362.55C140.188 362.156 140.602 361.671 140.824 361.257C141.026 362.353 141.834 362.317 142.688 362.317C183.27 362.317 223.853 362.317 264.438 362.317H266.286C265.718 362.571 265.089 362.657 264.474 362.565C224.198 362.565 183.924 362.565 143.652 362.565C143.036 362.59 142.41 362.59 141.804 362.625Z" fill="#3B72B9"/>
<path d="M189.794 338.017C191.425 337.865 192.95 337.259 194.546 336.951C194.58 336.979 194.607 337.014 194.626 337.054C194.645 337.094 194.654 337.137 194.654 337.181C194.654 337.225 194.645 337.268 194.626 337.308C194.607 337.348 194.58 337.383 194.546 337.411C193.228 338.098 191.774 338.259 190.334 338.502C189.88 338.653 189.577 338.633 189.794 338.017Z" fill="#18374F"/>
<path d="M197.682 336.365C198.783 335.492 200.253 335.987 201.424 335.355C201.463 335.385 201.494 335.421 201.517 335.464C201.539 335.506 201.553 335.553 201.555 335.601C201.558 335.649 201.551 335.697 201.533 335.742C201.516 335.787 201.489 335.827 201.455 335.86C200.313 336.603 198.93 336.365 197.702 336.87C197.665 336.841 197.634 336.803 197.612 336.76C197.591 336.718 197.578 336.671 197.576 336.623C197.575 336.575 197.583 336.527 197.601 336.482C197.619 336.438 197.647 336.398 197.682 336.365Z" fill="#183B52"/>
<path d="M183.966 339.588C184.82 339.678 185.481 338.992 186.335 339.047C186.466 339.305 186.229 339.391 186.108 339.552C185.527 340.173 184.759 340.108 184.012 340.128C183.962 340.104 183.919 340.068 183.888 340.023C183.857 339.978 183.838 339.926 183.833 339.871C183.829 339.816 183.838 339.761 183.862 339.711C183.885 339.662 183.921 339.619 183.966 339.588Z" fill="#173848"/>
<path d="M217.256 332.886C216.65 333.391 215.918 333.133 215.236 333.209C214.782 333.356 214.454 333.351 214.676 332.704L216.191 332.628C216.585 332.573 217.034 332.224 217.256 332.886Z" fill="#1C3247"/>
<path d="M213.615 333.668L212.075 333.739C211.752 333.865 211.459 333.931 211.484 333.416C212.044 333.052 212.681 333.204 213.287 333.158C213.575 333.062 213.943 332.906 214.095 333.244C214.246 333.582 213.767 333.527 213.615 333.668Z" fill="#18344C"/>
<path d="M206.232 334.31L207.691 334.214C208.11 334.098 208.494 334.017 208.277 334.684L206.762 334.795C206.338 334.916 205.944 334.992 206.232 334.31Z" fill="#1B3548"/>
<path d="M219.933 332.598L218.175 332.669C217.701 332.754 217.67 332.557 217.867 332.194L219.382 332.113C219.817 331.967 220.18 331.931 219.933 332.598Z" fill="#19353C"/>
<path d="M219.932 332.598C219.932 332.194 219.635 332.174 219.362 332.093C219.871 331.81 220.441 331.655 221.023 331.639C221.195 331.795 221.442 331.866 221.564 332.083C221.093 332.432 220.518 332.613 219.932 332.598Z" fill="#18436C"/>
<path d="M208.277 334.688C208.277 334.284 207.974 334.269 207.691 334.219C207.924 334.025 208.195 333.884 208.487 333.803C208.779 333.722 209.084 333.703 209.383 333.749C209.445 333.817 209.483 333.902 209.492 333.993C209.501 334.084 209.481 334.176 209.434 334.254C209.284 334.406 209.103 334.524 208.903 334.599C208.704 334.674 208.49 334.705 208.277 334.688Z" fill="#1F4172"/>
<path d="M213.615 333.668L213.903 333.274L213.287 333.158C213.699 332.869 214.192 332.715 214.696 332.719C214.696 333.113 214.978 333.153 215.256 333.224C215.028 333.408 214.765 333.542 214.482 333.619C214.2 333.695 213.904 333.712 213.615 333.668Z" fill="#1E436E"/>
<path d="M204.131 335.32C203.945 335.491 203.726 335.62 203.486 335.7C203.247 335.78 202.994 335.809 202.742 335.785C202.605 335.638 202.497 335.467 202.424 335.28C202.905 334.945 203.481 334.777 204.066 334.8C204.005 334.967 204.096 334.8 204.126 334.921C204.156 335.042 203.439 335.244 204.131 335.32Z" fill="#1C406A"/>
<path d="M183.966 339.587L184.012 340.092C183.925 340.184 183.826 340.264 183.719 340.329C183.381 340.476 182.87 340.834 182.709 340.425C182.466 339.88 183.163 339.86 183.492 339.663C183.644 339.61 183.805 339.584 183.966 339.587Z" fill="#19416C"/>
<path d="M204.131 335.32C203.429 335.229 203.964 334.986 204.065 334.815L205.075 334.764C205.272 334.648 205.504 334.608 205.631 334.805C205.757 335.002 205.6 335.183 205.393 335.279L204.131 335.32Z" fill="#173644"/>
<path d="M195.546 336.87C195.687 336.715 195.86 336.593 196.054 336.513C196.248 336.434 196.458 336.399 196.667 336.41C196.734 336.475 196.777 336.56 196.787 336.653C196.797 336.745 196.774 336.838 196.723 336.915C196.577 337.069 196.4 337.19 196.204 337.271C196.009 337.352 195.798 337.391 195.586 337.385C195.519 337.319 195.477 337.23 195.47 337.135C195.463 337.041 195.49 336.946 195.546 336.87Z" fill="#1A426D"/>
<path d="M189.794 338.017C189.794 338.406 190.062 338.451 190.345 338.522C190.039 338.807 189.637 338.968 189.218 338.971C189.037 338.81 188.784 338.734 188.683 338.466C188.828 338.32 189.001 338.204 189.192 338.127C189.383 338.05 189.588 338.012 189.794 338.017Z" fill="#1F4670"/>
<path d="M209.434 334.275L209.383 333.77L210.621 333.714C211.1 333.623 211.126 333.851 210.939 334.219L209.434 334.275Z" fill="#1D323E"/>
<path d="M205.388 335.269C205.697 334.845 205.353 334.82 205.07 334.764C205.224 334.616 205.406 334.5 205.605 334.424C205.805 334.349 206.018 334.315 206.232 334.325C206.186 334.734 206.499 334.744 206.762 334.83C206.355 335.104 205.879 335.256 205.388 335.269Z" fill="#224C7B"/>
<path d="M217.867 332.194C217.853 332.297 217.877 332.402 217.933 332.489C217.99 332.576 218.075 332.64 218.175 332.669C218.06 332.79 217.913 332.875 217.75 332.914C217.588 332.952 217.418 332.943 217.261 332.886C216.963 332.543 216.539 332.76 216.19 332.644C216.714 332.385 217.284 332.232 217.867 332.194Z" fill="#1C426F"/>
<path d="M202.424 335.284C202.722 335.335 203.005 335.39 202.742 335.789L201.455 335.845L201.424 335.34L202.424 335.284Z" fill="#183849"/>
<path d="M187.067 338.981C187.177 338.79 187.346 338.641 187.548 338.556C187.751 338.47 187.975 338.453 188.188 338.506C188.411 338.663 187.734 338.9 188.234 339.011C187.929 339.297 187.53 339.461 187.113 339.471C187.05 339.407 187.011 339.323 187.003 339.234C186.994 339.145 187.017 339.055 187.067 338.981Z" fill="#1B406D"/>
<path d="M188.233 339.027C187.511 338.921 188.107 338.688 188.188 338.522L188.693 338.486C188.971 338.537 189.259 338.572 189.228 338.991L188.233 339.027Z" fill="#202F43"/>
<path d="M210.938 334.173C210.957 334.065 210.935 333.953 210.877 333.86C210.818 333.766 210.726 333.698 210.62 333.668C210.732 333.563 210.867 333.483 211.013 333.435C211.16 333.387 211.315 333.372 211.469 333.391C211.59 333.643 211.837 333.653 212.059 333.714C211.912 333.861 211.738 333.978 211.545 334.057C211.353 334.135 211.146 334.175 210.938 334.173Z" fill="#21446F"/>
<path d="M196.723 336.916C196.723 336.744 196.687 336.577 196.667 336.411L197.677 336.365C197.677 336.522 197.677 336.683 197.677 336.845L196.723 336.916Z" fill="#17343A"/>
<path d="M195.546 336.87C195.546 337.042 195.546 337.214 195.587 337.375H194.577C194.577 337.224 194.577 337.067 194.577 336.916L195.546 336.87Z" fill="#19323E"/>
<path d="M187.067 338.981L187.113 339.486L186.103 339.527L186.33 339.022L187.067 338.981Z" fill="#1B3237"/>
<path d="M221.564 332.104C221.256 332.104 221.023 332.023 221.023 331.659C221.326 331.659 221.826 331.422 221.564 332.104Z" fill="#133E50"/>
<path d="M209.332 80.1287C209.745 80.3613 210.224 80.4468 210.691 80.3711C213.499 81.0529 216.377 81.4468 219.028 82.7497C223.099 84.7444 226.992 86.9361 229.679 90.7438C229.871 91.0115 230.022 91.2488 230.391 91.2185C234.335 91.0872 237.067 93.3345 239.607 95.9352C242.673 99.0763 244.425 102.919 245.667 107.045C247.336 112.765 247.898 118.75 247.324 124.68C246.869 130.033 246.712 135.426 247.995 140.719C249.207 145.688 251.459 150.026 255.737 153.086C257.403 154.283 259.393 154.798 261.201 155.697C264.736 157.444 265.125 160.656 262.019 163.1C258.095 166.186 253.626 166.948 248.707 165.822C249.056 168.17 247.723 169.63 246.006 170.766C243.439 172.528 240.541 173.75 237.488 174.358C234.435 174.965 231.29 174.946 228.245 174.301C227.74 174.2 227.361 174.064 226.881 174.594C222.498 179.387 217.185 181.048 210.873 179.139C210.705 179.119 210.535 179.119 210.368 179.139C210.299 179.16 210.226 179.162 210.156 179.146C210.086 179.13 210.022 179.097 209.969 179.048C209.783 178.873 209.67 178.634 209.653 178.379C209.636 178.124 209.716 177.873 209.878 177.675C211.337 177.134 212.908 177.129 214.423 176.826C225.937 174.533 234.088 165.211 236.077 153.697C237.101 148.01 237.521 142.231 237.33 136.456C236.9 125.74 235.017 115.352 229.755 105.818C228.406 103.389 228.426 103.394 226.487 105.475C222.356 109.832 217.561 113.508 212.282 116.368C211.992 116.572 211.658 116.703 211.307 116.751C211.172 116.738 211.046 116.676 210.953 116.576C210.86 116.477 210.806 116.347 210.802 116.211C210.827 115.723 211.024 115.26 211.357 114.903C214.958 110.075 217.064 104.621 218.185 98.743C213.413 105.757 208.565 112.615 203.318 119.423C205.227 119.998 207.141 120.266 208.489 121.726C208.949 122.589 209.767 123.14 210.393 123.857C210.469 123.953 210.528 124.063 210.565 124.18C210.61 124.352 210.635 124.528 210.681 124.685C210.842 125.281 210.842 125.932 210.272 126.2C209.701 126.468 209.443 125.836 209.095 125.528C208.545 125.023 208.085 124.382 207.297 124.246C205.809 123.378 204.174 122.791 202.475 122.513C202.049 122.418 201.605 122.451 201.198 122.607C200.791 122.763 200.439 123.036 200.187 123.392C196.76 127.709 193.109 131.842 189.249 135.775C189.057 135.962 188.875 136.153 188.683 136.335C187.385 137.567 186.981 137.537 186.107 136.002C185.187 134.333 183.89 132.901 182.319 131.822C180.748 130.743 178.946 130.045 177.058 129.785C173.255 129.144 169.937 131.159 168.589 134.785C167.417 137.956 167.968 140.966 169.387 143.875C170.865 147.009 173.203 149.658 176.129 151.516C177.207 152.288 178.447 152.806 179.755 153.031C180.131 153.05 180.49 153.196 180.772 153.446C181.055 153.695 181.244 154.033 181.31 154.404C182.406 158.49 183.466 162.59 184.668 166.65C185.042 167.923 184.895 169.281 185.002 170.594C185.303 173.359 185.414 176.142 185.335 178.922C185.299 179.482 185.4 180.099 184.764 180.437C179.477 184.537 169.276 183.396 166.983 173.054C164.362 174.599 161.564 175.165 158.635 174.331C154.696 173.21 152.227 170.579 151.369 166.575C151.116 165.383 150.646 165.095 149.47 165.156C146.147 165.327 142.844 165.13 139.925 163.262C136.481 161.055 134.496 157.05 137.638 152.748C139.451 150.258 141.582 148.001 143.384 145.506C148.293 138.729 151.161 131.073 152.949 122.953C153.959 118.408 154.197 113.671 155.934 109.318C162.367 93.2082 173.674 82.8002 191.142 79.9166C196.778 78.9874 202.475 79.1995 208.136 80.0378C208.565 80.0883 208.938 80.0984 209.332 80.1287Z" fill="#1B2E36"/>
<path d="M210.125 179.073L210.368 179.169C209.985 180.515 209.815 181.912 209.863 183.31C210.105 188.996 212.509 193.385 217.564 196.178C218.474 196.78 219.457 197.265 220.488 197.622C221.533 197.935 222.569 198.278 223.629 198.551C224.296 198.718 224.422 199.056 224.306 199.703C223.876 202.056 222.437 203.717 220.619 205.096C215.988 208.601 210.792 209.525 205.146 208.5C196.056 206.843 187.663 203.162 179.391 199.187C179.043 199.016 178.639 198.869 178.699 198.349C180.103 197.698 180.659 196.329 181.325 195.107C183.211 191.839 184.293 188.169 184.481 184.401C184.532 183.078 185.103 181.79 184.754 180.437C185.259 177.043 184.754 173.665 184.628 170.276C184.471 165.766 182.684 161.636 181.699 157.318C181.648 157.106 181.563 156.899 181.527 156.682C181.214 154.788 180.815 152.975 178.285 153.066C172.392 150.258 168.629 145.728 167.68 139.224C166.943 134.234 170.463 129.573 174.891 129.407C180.098 129.21 183.981 131.563 186.466 136.073C187.072 137.158 187.35 137.133 188.148 136.355C192.406 132.13 196.405 127.651 200.121 122.943C200.626 122.296 200.965 121.902 202.086 122.119C203.993 122.4 205.824 123.063 207.469 124.069C208.13 124.49 208.715 125.019 209.201 125.634C209.56 126.008 209.908 126.584 210.479 126.139C210.695 125.983 210.841 125.748 210.884 125.485C210.928 125.222 210.866 124.953 210.711 124.735C210.588 124.504 210.514 124.249 210.494 123.988L210.438 124.038L210.484 123.983C209.731 123.311 209.075 122.544 208.317 121.877C206.752 120.524 204.833 120.089 202.661 119.746C208.181 112.565 213.357 105.278 218.463 97.9248C217.654 104.096 215.304 109.965 211.63 114.989C211.337 115.311 211.103 115.682 210.938 116.085C210.868 116.158 210.821 116.249 210.8 116.348C210.779 116.447 210.787 116.55 210.822 116.645C210.898 116.787 211.1 116.731 211.246 116.645C213.937 115.113 216.537 113.427 219.034 111.595C222.435 109.083 225.552 106.208 228.331 103.02C229.833 105.096 231.086 107.342 232.063 109.712C236.32 119.539 237.82 129.912 237.648 140.517C237.552 146.476 237.173 152.44 235.279 158.126C231.623 169.089 224.038 175.604 212.59 177.523C211.721 177.669 210.842 177.725 209.969 177.821C208.535 178.523 207.03 178.088 205.565 178.038C204.381 177.939 203.206 177.74 202.055 177.442C200.92 177.234 199.796 176.967 198.687 176.644C200.235 178.334 202.033 179.775 204.02 180.917C205.188 181.628 206.435 182.199 207.737 182.618C209.075 183.032 209.252 182.881 209.317 181.497C209.343 180.624 209.07 179.609 210.125 179.073Z" fill="#F9BBB8"/>
<path d="M285.603 188.683C285.345 188.471 285.128 188.324 284.951 188.148C282.856 186.057 280.795 183.941 278.664 181.891C277.881 181.133 278.331 180.709 278.871 180.174C282.775 176.28 286.643 172.351 290.587 168.498C291.516 167.594 291.476 167.079 290.587 166.195C286.608 162.307 282.729 158.327 278.76 154.439C278.023 153.717 278.088 153.363 278.79 152.697C280.831 150.747 282.827 148.751 284.78 146.707C285.431 146.031 285.82 146.076 286.456 146.707C290.42 150.747 294.45 154.686 298.399 158.716C299.177 159.509 299.606 159.489 300.374 158.716C304.293 154.717 308.292 150.793 312.216 146.798C312.954 146.051 313.373 146.041 314.095 146.798C316.039 148.844 318.044 150.838 320.079 152.788C320.715 153.399 320.685 153.732 320.079 154.338C316.039 158.333 312.045 162.418 307.959 166.372C307.146 167.17 307.237 167.579 307.994 168.321C311.928 172.185 315.777 176.134 319.731 179.982C320.675 180.901 320.589 181.431 319.68 182.28C317.751 184.088 315.883 185.971 314.07 187.895C313.332 188.683 312.908 188.592 312.196 187.895C308.267 183.901 304.268 179.972 300.349 175.972C299.566 175.174 299.132 175.225 298.379 175.972C294.455 179.967 290.476 183.911 286.512 187.87C286.229 188.148 285.926 188.395 285.603 188.683Z" fill="#E4EDFF" fill-opacity="0.9"/>
<path d="M318.781 210.03C318.392 210.469 318.2 210.707 317.988 210.919C316.978 211.929 316.024 212.939 314.989 213.903C314.428 214.408 314.484 214.792 314.989 215.297C316.044 216.307 317.034 217.363 318.089 218.362C318.529 218.782 318.594 219.044 318.13 219.529C316.256 221.574 316.296 221.574 314.342 219.681C313.499 218.867 312.827 217.418 311.736 217.443C310.726 217.469 310.085 218.888 309.242 219.65C309.141 219.741 309.05 219.837 308.959 219.933C307.252 221.64 306.984 221.579 305.469 219.59C305.04 219.034 305.05 218.766 305.53 218.317C306.54 217.347 307.504 216.297 308.56 215.343C309.146 214.802 309.186 214.418 308.56 213.853C307.494 212.843 306.54 211.787 305.454 210.793C304.909 210.288 304.949 209.939 305.454 209.394C307.237 207.515 307.212 207.495 309.085 209.363C309.706 209.99 310.368 210.575 310.943 211.242C311.519 211.909 311.953 211.994 312.62 211.277C313.559 210.227 314.64 209.293 315.589 208.247C316.034 207.778 316.312 207.813 316.756 208.247C317.387 208.894 318.089 209.429 318.781 210.03Z" fill="#B3B3B3"/>
<path d="M267.075 70.6347C258.838 74.9575 254.035 81.8002 252.217 90.8347C252.096 91.4407 252.217 92.1325 251.627 92.7688C251.066 91.6073 251.813 90.6276 251.712 89.6328C252.828 84.8594 255.069 80.4217 258.247 76.6896C260.508 74.099 263.203 71.9219 266.211 70.2559C266.524 70.0792 266.893 69.7762 267.251 70.1751C267.302 70.2408 267.145 70.4832 267.075 70.6347Z" fill="#4379BC"/>
<path d="M143.647 53.8832C143.567 54.3226 143.203 54.5347 142.935 54.8124C139.35 58.403 135.795 62.0238 132.154 65.5538C131.144 66.5133 131.25 67.0688 132.189 67.9677C135.891 71.5683 139.491 75.2649 143.173 78.8807C143.824 79.517 143.89 79.8907 143.198 80.527C141.309 82.3147 139.476 84.163 137.673 86.0467C137.037 86.7082 136.663 86.7183 135.992 86.0467C132.275 82.2743 128.497 78.5676 124.791 74.7852C124.048 74.0277 123.639 74.063 122.917 74.7852C119.271 78.4969 115.539 82.1329 111.908 85.8649C111.07 86.7284 110.615 86.6628 109.838 85.8295C108.095 83.9661 106.272 82.1784 104.439 80.3957C103.712 79.6887 104.161 79.2645 104.661 78.7696C108.282 75.1538 111.868 71.5027 115.539 67.9374C116.494 67.0082 116.549 66.4678 115.539 65.5184C111.923 62.0238 108.424 58.408 104.828 54.9134C104.076 54.1711 103.929 53.7267 104.778 52.9389C106.621 51.2269 108.409 49.4493 110.11 47.601C110.883 46.7678 111.282 47.0001 111.944 47.6717C115.569 51.3481 119.256 54.9639 122.862 58.6555C123.644 59.4534 124.074 59.418 124.836 58.6555C128.417 54.9993 132.083 51.4289 135.653 47.7677C136.552 46.8486 137.264 46.9698 137.956 47.8131C139.471 49.6766 141.36 51.1916 143.006 52.9136C143.3 53.1756 143.522 53.5098 143.647 53.8832Z" fill="#B3B3B3"/>
<path d="M100.576 236.845C100.303 237.159 100.071 237.431 99.8436 237.674C97.4449 240.077 95.0663 242.501 92.6272 244.865C91.9808 245.491 91.9151 245.845 92.6272 246.506C95.0714 248.864 97.4196 251.319 99.8638 253.677C100.586 254.374 100.591 254.798 99.8638 255.455C98.7805 256.427 97.7505 257.457 96.7783 258.54C96.0965 259.303 95.6471 259.348 94.9047 258.571C92.6171 256.182 90.2183 253.899 87.9206 251.501C87.1833 250.738 86.7035 250.783 85.9864 251.501C83.6533 253.904 81.2445 256.237 78.9164 258.636C78.3306 259.232 77.9468 259.343 77.3257 258.671C76.2601 257.5 75.134 256.374 73.9624 255.303C73.2907 254.687 73.3968 254.293 73.9927 253.717C76.3914 251.374 78.7195 248.965 81.1283 246.647C81.8606 245.935 81.9161 245.456 81.1283 244.713C78.7195 242.385 76.4015 239.966 73.9927 237.643C73.3109 236.982 73.3412 236.573 73.9927 235.957C75.1289 234.916 76.2197 233.815 77.2651 232.684C77.8509 232.053 78.2347 232.038 78.8558 232.684C81.1889 235.088 83.6079 237.411 85.9258 239.825C86.7136 240.638 87.2085 240.567 87.9458 239.795C90.2436 237.416 92.6272 235.123 94.935 232.725C95.5612 232.078 95.9753 231.997 96.6167 232.725C97.6873 233.896 98.8488 234.977 99.9648 236.108C100.181 236.343 100.385 236.589 100.576 236.845Z" fill="#B3B3B3"/>
<path d="M107.616 207.929C107.414 207.757 107.176 207.57 106.959 207.363C105.833 206.242 104.742 205.09 103.576 204.01C103 203.474 103.101 203.151 103.611 202.651C105.969 200.338 108.262 197.955 110.651 195.672C111.438 194.915 111.337 194.496 110.615 193.799C108.297 191.567 106.07 189.254 103.752 187.011C103.005 186.299 103.076 185.911 103.793 185.274C104.909 184.264 105.954 183.199 106.974 182.098C107.535 181.492 107.898 181.537 108.459 182.098C110.797 184.497 113.206 186.825 115.529 189.228C116.145 189.865 116.483 189.834 117.079 189.228C119.382 186.855 121.761 184.557 124.058 182.184C124.68 181.542 125.109 181.562 125.685 182.158C126.695 183.199 127.705 184.254 128.775 185.234C129.502 185.895 129.497 186.37 128.775 187.057C126.467 189.294 124.23 191.602 121.917 193.849C121.225 194.516 121.145 194.915 121.892 195.627C124.215 197.854 126.437 200.172 128.745 202.424C129.432 203.091 129.533 203.565 128.775 204.242C127.755 205.152 126.788 206.122 125.882 207.146C125.174 207.949 124.7 208.024 123.912 207.186C121.821 204.979 119.584 202.909 117.498 200.697C116.61 199.753 116.059 199.621 115.105 200.646C113.004 202.904 110.772 205.04 108.58 207.211C108.338 207.484 108.121 207.853 107.616 207.929Z" fill="#E4EDFF" fill-opacity="0.9"/>
<path d="M201.212 237.976C201.179 238.104 201.125 238.225 201.051 238.335C196.6 242.967 192.144 247.598 187.683 252.227C185.982 249.349 184.77 246.238 183.482 243.173C180.588 236.269 178.008 229.229 174.675 222.508C173.989 221.03 173.617 219.425 173.584 217.796C173.761 216.039 175.099 215.241 176.614 216.009C178.129 216.776 178.72 218.215 179.492 219.544C181.805 223.498 184.078 227.472 186.481 231.371C184.497 228.038 182.618 224.639 180.608 221.316C179.967 220.261 179.371 219.185 178.78 218.099C178.476 217.512 178.069 216.983 177.578 216.539C176.185 215.312 175.472 215.281 173.867 216.367C173.797 216.424 173.715 216.463 173.627 216.481C173.539 216.5 173.448 216.497 173.362 216.473H173.311C173.187 216.178 173.017 215.906 172.806 215.665C172.69 215.125 172.195 214.726 172.24 214.125C172.033 213.59 172.16 212.963 171.761 212.484C171.326 210.782 170.933 209.08 171.135 207.287C171.135 206.674 171.31 206.073 171.64 205.555C172.68 204.252 173.75 202.969 175.296 202.197C175.394 202.128 175.507 202.083 175.626 202.064C175.744 202.045 175.866 202.053 175.981 202.087C176.096 202.122 176.202 202.182 176.29 202.263C176.379 202.344 176.448 202.444 176.493 202.555C177.189 203.666 177.902 204.767 178.609 205.868C178.731 206.168 178.902 206.446 179.114 206.691L183.35 213.256C183.537 213.529 183.603 213.877 183.901 214.074L184.406 214.862C184.593 215.125 184.663 215.463 184.936 215.675L190.33 224.099C191.961 226.8 193.996 229.214 195.784 231.81C194.87 230.366 193.809 229.027 192.885 227.593C192.607 227.169 192.122 226.821 192.299 226.205C193.06 225.141 193.986 224.205 195.041 223.432C196.395 222.478 196.844 222.624 197.061 224.286C197.223 225.629 197.511 226.972 197.566 228.326C197.77 231.839 199.042 235.206 201.212 237.976Z" fill="#F9BBB7"/>
<path d="M173.377 216.468C175.134 214.65 177.149 214.877 178.614 217.226C180.326 219.978 181.876 222.821 183.512 225.619C184.552 227.396 185.643 229.154 186.668 230.936C186.875 231.3 187.466 231.84 186.906 232.169C186.446 232.441 186.254 231.694 186.057 231.366C183.775 227.523 181.512 223.659 179.27 219.806C178.765 218.973 178.311 218.125 177.755 217.342C176.311 215.352 174.665 215.544 173.589 217.796C173.245 217.392 173.392 216.918 173.377 216.468Z" fill="#F28886"/>
<path d="M150.111 261.181V246.365C150.158 246.321 150.214 246.289 150.276 246.272C150.338 246.256 150.403 246.254 150.465 246.269L150.606 246.405V261.383C150.763 261.6 150.637 261.706 150.44 261.777C150.116 261.691 150.253 261.358 150.111 261.181Z" fill="#1A313F"/>
<path d="M192.405 226.19C193.708 228.052 195.008 229.917 196.304 231.785C196.44 231.982 196.748 232.184 196.491 232.457C196.443 232.504 196.384 232.538 196.32 232.558C196.257 232.578 196.189 232.583 196.123 232.571C196.057 232.56 195.994 232.533 195.941 232.493C195.887 232.453 195.844 232.401 195.814 232.341C194.057 229.679 191.981 227.24 190.395 224.463C190.345 224.372 190.395 224.21 190.431 224.084C191.491 224.387 191.587 225.614 192.405 226.19Z" fill="#F28A88"/>
<path d="M150.637 238.951C150.479 237.676 150.633 236.381 151.086 235.178C151.364 235.143 151.162 234.578 151.591 234.719C151.588 235.983 151.418 237.241 151.086 238.461C150.899 238.582 151.086 239.072 150.637 238.951Z" fill="#183656"/>
<path d="M150.329 261.721L150.601 261.383C150.912 262.878 151.068 264.401 151.066 265.928L150.682 265.63L150.586 266.014C150.187 265.246 150.354 264.408 150.313 263.6C150.133 262.986 150.138 262.332 150.329 261.721Z" fill="#1D3E6A"/>
<path d="M150.313 243.692C150.359 242.794 150.162 241.869 150.581 241.006C150.622 241.046 150.666 241.083 150.712 241.117C151.061 241.375 150.51 241.935 151.051 242.127C151.045 243.563 150.9 244.996 150.616 246.404H150.541C150.132 245.516 150.429 244.586 150.313 243.692Z" fill="#0A3967"/>
<path d="M151.626 230.113C151.657 229.371 151.46 228.598 151.975 227.911C152.303 228.931 152.303 230.028 151.975 231.047C151.228 230.966 151.576 230.487 151.626 230.113Z" fill="#1C3D5C"/>
<path d="M151.596 234.719L151.091 235.179C151.126 234.144 151.156 233.108 151.192 232.073C151.223 232.034 151.264 232.002 151.31 231.983C151.356 231.963 151.406 231.955 151.457 231.959C151.507 231.964 151.555 231.981 151.597 232.008C151.639 232.036 151.673 232.074 151.697 232.118C151.656 232.982 151.626 233.851 151.596 234.719Z" fill="#1C3347"/>
<path d="M150.637 238.951L151.096 238.446C151.096 239.31 151.096 240.173 151.071 241.037C150.93 241.199 150.793 241.199 150.667 241.037L150.581 241.012C150.596 240.325 150.616 239.638 150.637 238.951Z" fill="#18313C"/>
<path d="M150.313 243.692C150.863 244.551 150.485 245.485 150.54 246.384H150.121C150.121 246.02 150.121 245.652 150.121 245.288C150.328 244.783 150.04 244.218 150.313 243.718V243.692Z" fill="#163E5E"/>
<path d="M151.682 232.118L151.177 232.073C151.204 231.398 151.353 230.735 151.616 230.113C151.677 230.447 151.591 230.83 151.96 231.048C152.011 231.427 151.911 231.812 151.682 232.118Z" fill="#1C3E6C"/>
<path d="M150.667 241.036H151.071C151.071 241.395 151.071 241.753 151.071 242.112C150.924 242.066 150.783 242.723 150.652 242.142C150.61 241.774 150.615 241.403 150.667 241.036Z" fill="#193B55"/>
<path d="M171.801 212.453C172.685 212.786 172.175 213.534 172.281 214.094C171.927 213.624 171.756 213.04 171.801 212.453Z" fill="#C9ACC9"/>
<path d="M150.328 261.721V263.605C149.94 262.822 150.101 261.994 150.126 261.181C150.182 261.357 150.258 261.539 150.328 261.721Z" fill="#1E406B"/>
<path d="M150.318 243.698C150.318 244.228 150.485 244.784 150.126 245.269C150.111 244.733 149.944 244.183 150.318 243.698Z" fill="#0A3967"/>
<path d="M185.017 215.661C184.512 215.605 184.451 215.257 184.487 214.848C184.638 214.925 184.767 215.041 184.86 215.184C184.953 215.326 185.007 215.491 185.017 215.661Z" fill="#B4ADCD"/>
<path d="M183.977 214.059C183.426 214.029 183.401 213.655 183.426 213.241C183.577 213.324 183.705 213.441 183.801 213.583C183.897 213.726 183.957 213.889 183.977 214.059Z" fill="#BFB2CA"/>
<path d="M172.847 215.635C173.352 215.695 173.382 216.044 173.352 216.443C173.195 216.375 173.063 216.262 172.973 216.117C172.883 215.973 172.839 215.805 172.847 215.635Z" fill="#B9AFD3"/>
<path d="M179.189 206.661C178.684 206.605 178.634 206.247 178.684 205.838C178.835 205.917 178.961 206.035 179.05 206.18C179.139 206.325 179.187 206.491 179.189 206.661Z" fill="#BBAECD"/>
<path d="M260.651 246.354C260.833 251.803 260.762 257.257 260.696 262.706C260.704 262.997 260.643 263.287 260.517 263.55C260.392 263.813 260.206 264.043 259.974 264.221C260.338 258.55 260.151 253.151 260.161 247.753C260.046 247.243 260.013 246.718 260.065 246.197C260.065 246.016 260.141 245.814 260.343 245.844C260.545 245.874 260.58 246.162 260.651 246.354Z" fill="#1A354C"/>
<path d="M260.651 246.354C260.499 246.38 260.343 245.723 260.216 246.324C260.157 246.795 260.139 247.269 260.161 247.743C259.769 246.525 259.613 245.243 259.701 243.966C259.745 243.961 259.789 243.961 259.833 243.966C260.12 244.006 259.939 244.385 260.181 244.471C259.954 244.284 260.06 244.107 260.211 243.94C260.558 244.695 260.709 245.526 260.651 246.354Z" fill="#1D4571"/>
<path d="M258.52 228.871C257.974 229.472 258.08 230.21 258.106 230.932C258.197 231.129 258.252 231.366 258.055 231.492C257.858 231.619 257.681 231.492 257.591 231.265C257.556 230.668 257.48 230.074 257.363 229.488C257.197 228.831 257.616 228.887 257.995 228.841C258.071 228.782 258.166 228.752 258.263 228.757C258.359 228.763 258.451 228.804 258.52 228.871Z" fill="#1D3650"/>
<path d="M259.616 237.895L259.676 239.41C259.747 239.83 260.116 240.335 259.363 240.532C258.974 239.784 259.176 238.976 259.106 238.198C259.01 237.911 258.848 237.537 259.197 237.39C259.545 237.244 259.469 237.729 259.616 237.895Z" fill="#19324A"/>
<path d="M260.211 243.915L260.11 244.521L259.701 243.965C259.701 243.283 259.671 242.602 259.661 241.915C259.544 241.758 259.545 241.607 259.772 241.597C260.115 241.597 260.004 241.965 260.166 242.102L260.211 243.915Z" fill="#1D2E3C"/>
<path d="M260.166 242.117C259.954 242.153 259.999 241.552 259.661 241.915C259.406 241.508 259.301 241.024 259.363 240.547C259.782 240.259 259.555 239.794 259.676 239.426C260.077 240.263 260.246 241.193 260.166 242.117Z" fill="#1C4070"/>
<path d="M260.171 226.745C259.802 227.376 259.514 228.103 258.595 228.098C258.595 227.174 259.317 226.876 259.994 226.553C260.176 226.497 260.317 226.487 260.171 226.745Z" fill="#163F5D"/>
<path d="M258.671 236.79L258.58 235.032C258.509 234.557 258.721 234.527 259.085 234.734C259.12 235.239 259.156 235.744 259.186 236.224C259.272 236.653 259.342 237.047 258.671 236.79Z" fill="#1A3447"/>
<path d="M258.671 236.789C259.085 236.82 259.1 236.501 259.176 236.224C259.371 236.451 259.513 236.719 259.592 237.008C259.67 237.297 259.684 237.6 259.631 237.895L259.237 237.607C259.196 237.809 259.156 238.011 259.121 238.213C258.803 237.809 258.643 237.303 258.671 236.789Z" fill="#1E4879"/>
<path d="M259.065 234.734C258.959 234.716 258.85 234.736 258.758 234.791C258.665 234.845 258.595 234.931 258.56 235.032C258.258 234.634 258.095 234.148 258.095 233.648C258.16 233.581 258.247 233.54 258.339 233.532C258.432 233.524 258.525 233.549 258.6 233.603C258.763 233.74 258.89 233.915 258.97 234.112C259.051 234.309 259.084 234.522 259.065 234.734Z" fill="#1A436C"/>
<path d="M257.59 231.29C258.004 231.553 258.065 231.29 258.095 230.957C258.247 231.107 258.364 231.288 258.437 231.488C258.51 231.688 258.538 231.901 258.52 232.113C258.368 232.3 258.292 232.558 258.045 232.664C257.766 232.258 257.609 231.782 257.59 231.29Z" fill="#1E426C"/>
<path d="M258.055 232.639C258.116 232.371 258.146 232.078 258.53 232.088L258.636 233.603L258.131 233.649L258.055 232.639Z" fill="#1B3343"/>
<path d="M260.171 226.745L259.994 226.553C259.945 226.41 259.95 226.253 260.009 226.113C260.067 225.974 260.175 225.86 260.312 225.795C260.37 225.787 260.429 225.794 260.483 225.814C260.538 225.834 260.587 225.868 260.625 225.911C260.716 226.305 260.449 226.538 260.171 226.745Z" fill="#17446C"/>
<path d="M258.52 228.871L258.015 228.841C258.037 228.674 258.104 228.516 258.21 228.385C258.317 228.254 258.457 228.155 258.616 228.099C258.659 228.226 258.673 228.362 258.657 228.496C258.64 228.63 258.593 228.758 258.52 228.871Z" fill="#1B3141"/>
<path d="M276.568 99.2978C276.568 101.545 276.528 103.388 276.568 105.226C276.604 106.211 276.386 106.62 275.275 106.6C272.574 106.539 272.574 106.6 272.574 103.868C272.574 100.525 272.604 97.1717 272.574 93.8286C272.574 92.8792 272.786 92.5358 273.811 92.5055C275.185 92.4651 276.2 92.758 277.068 93.9296C278.502 95.8638 280.098 97.6717 281.911 99.8684C281.911 97.6212 281.977 95.7577 281.911 93.9044C281.856 92.7732 282.255 92.4904 283.33 92.5207C285.901 92.5813 285.901 92.5207 285.901 95.1063C285.901 98.4999 285.875 101.888 285.901 105.282C285.901 106.211 285.729 106.58 284.684 106.61C283.265 106.656 282.224 106.383 281.33 105.131C279.952 103.206 278.346 101.449 276.568 99.2978Z" fill="#FDFDFD"/>
<path d="M295.627 92.2783C300.107 92.2783 303.329 95.3437 303.329 99.5705C303.329 103.797 300.016 106.898 295.567 106.817C291.118 106.736 287.941 104.146 287.83 99.5201C287.734 95.3589 291.188 92.2682 295.627 92.2783Z" fill="#FCFCFC"/>
<path d="M97.8084 119.579C101.091 119.579 101.101 119.579 100.884 122.836C100.611 126.876 100.298 130.916 100.066 134.956C100.015 135.795 99.7022 135.966 98.9447 135.966C95.5561 136.002 95.5612 136.022 95.3289 132.684C95.0612 128.78 94.8239 124.876 94.4855 120.978C94.3946 119.867 94.7077 119.463 95.8288 119.594C96.4884 119.63 97.1495 119.625 97.8084 119.579Z" fill="#FCFDFC"/>
<path d="M94.4351 141.612C94.4351 139.678 95.7683 138.385 97.7832 138.375C99.7982 138.365 101.283 139.739 101.318 141.531C101.294 142.442 100.912 143.306 100.255 143.937C99.5983 144.567 98.7191 144.913 97.8085 144.9C97.3699 144.91 96.9338 144.832 96.5256 144.672C96.1174 144.511 95.7453 144.271 95.4311 143.965C95.117 143.658 94.8671 143.293 94.6961 142.889C94.525 142.485 94.4363 142.051 94.4351 141.612Z" fill="#FBFBFB"/>
<path d="M156.651 152.202C156.777 146.723 157.878 141.506 160.782 136.764C163.033 133.181 165.996 130.099 169.488 127.71C172.826 125.419 176.319 123.362 179.941 121.554C188.001 117.433 195.616 112.495 202.666 106.818C206.789 103.463 210.718 99.8772 214.433 96.0765C214.64 95.8644 214.741 95.2937 215.211 95.6977C215.68 96.1017 215.241 96.329 215.009 96.5714C212.524 99.1519 210.039 101.727 207.333 104.091C205.117 106.023 202.858 107.895 200.556 109.706C196.766 112.704 192.751 115.405 188.547 117.786C183.305 120.731 177.942 123.447 172.791 126.553C166.852 130.149 161.928 134.815 159.494 141.552C158.506 144.368 157.906 147.305 157.711 150.283C157.287 155.838 158.277 161.176 159.979 166.418C160.115 166.827 160.363 167.428 159.873 167.574C159.383 167.721 159.226 167.069 159.11 166.696C158.032 163.356 157.292 159.917 156.903 156.429C156.777 155.035 156.711 153.616 156.651 152.202Z" fill="#080B0D"/>
<path d="M154.53 135.34C153.869 135.087 154.167 134.653 154.363 134.279C155.454 132.32 156.814 130.523 158.403 128.942C161.853 125.407 165.978 122.846 170.311 120.553C176.286 117.377 182.285 114.226 187.941 110.509C192.574 107.493 197.012 104.187 201.227 100.611C204.667 97.677 208.04 94.6773 211.297 91.5513C211.524 91.3342 211.752 90.8292 212.13 91.1473C212.509 91.4655 212.05 91.7584 211.893 92.0513C211.464 92.8643 210.666 93.2936 210.06 93.9147C206.171 97.8739 201.879 101.358 197.521 104.772C192.341 108.768 186.898 112.41 181.229 115.675C176.846 118.256 172.261 120.498 167.827 122.998C162.681 125.896 158.121 129.472 155.166 134.754C155.035 135.032 154.909 135.34 154.53 135.34Z" fill="#080B0E"/>
<path d="M210.125 179.073C209.424 180.083 209.661 181.275 209.62 182.401C209.62 183.133 209.484 183.381 208.61 183.189C205.611 182.517 203.091 180.962 200.743 179.099C199.662 178.245 198.48 177.452 197.531 175.856C201.507 177.284 205.715 177.956 209.939 177.836C209.867 178.042 209.847 178.262 209.88 178.478C209.912 178.693 209.997 178.898 210.125 179.073Z" fill="#DD9893"/>
<path d="M241.92 126.361V130.456C241.92 130.901 241.86 131.547 241.415 131.537C240.774 131.537 241.092 130.901 241.102 130.502C241.217 125.762 240.982 121.021 240.4 116.316C239.978 112.615 238.913 109.016 237.254 105.681C235.815 102.964 233.821 100.579 231.401 98.6816C230.896 98.2877 229.942 97.813 230.3 97.3383C230.805 96.6919 231.477 97.5656 231.926 97.914C235.54 100.745 238.217 104.599 239.608 108.974C241.516 114.635 241.895 120.467 241.92 126.361Z" fill="#080C0F"/>
<path d="M210.499 124.003C210.685 124.121 210.843 124.279 210.961 124.465C211.08 124.651 211.157 124.86 211.186 125.079C211.278 125.34 211.271 125.627 211.165 125.883C211.06 126.14 210.864 126.349 210.614 126.47C210.365 126.592 210.08 126.618 209.813 126.543C209.546 126.467 209.316 126.297 209.166 126.063C208.631 125.369 208.059 124.703 207.454 124.069C208.777 124.134 209.095 125.518 210.085 126.033C210.944 125.513 210.035 124.619 210.499 124.003Z" fill="#2C3434"/>
<path d="M208.323 121.892C209.229 122.375 209.981 123.105 210.489 123.997C210.005 123.811 209.563 123.528 209.19 123.166C208.818 122.804 208.523 122.371 208.323 121.892Z" fill="#2C3434"/>
<path d="M211.251 116.655C210.92 116.977 210.476 117.158 210.014 117.16L210.943 116.079C210.935 116.194 210.96 116.31 211.014 116.412C211.069 116.513 211.151 116.598 211.251 116.655Z" fill="#43393A"/>
<path d="M220.483 146.824C218.337 147.541 216.332 146.824 214.322 146.207C213.923 146.086 213.893 145.733 213.949 145.334C214.292 142.91 214.605 140.481 214.959 138.052C215.327 135.38 215.706 132.709 216.251 130.002C217.615 134.648 219.034 139.249 221.034 143.637C221.145 144.018 221.315 144.379 221.539 144.708V145.495C221.373 146.058 220.994 146.535 220.483 146.824Z" fill="#F4807C"/>
<path d="M208.06 126.957C207.217 127.689 205.752 127.744 205.287 128.472C204.909 129.057 205.702 130.396 205.616 131.461C205.552 132.697 205.117 133.885 204.368 134.87C203.303 136.223 201.702 136.143 200.747 134.724C199.51 132.89 199.899 129.103 201.46 127.573C201.947 127.12 202.582 126.86 203.247 126.841C204.383 126.75 205.53 126.719 206.666 126.664C207.161 126.659 207.742 126.219 208.06 126.957Z" fill="#1D2F37"/>
<path d="M230.896 128.068C230.336 128.411 229.805 128.946 229.204 129.078C227.821 129.315 227.987 130.002 228.225 131.067C228.468 131.965 228.469 132.911 228.227 133.809C227.985 134.707 227.508 135.525 226.846 136.178C225.836 137.188 224.528 137.041 223.67 135.89C222.291 134.042 222.523 130.562 224.124 128.886C224.475 128.482 224.962 128.223 225.493 128.159C227.27 128.012 229.053 127.911 230.83 127.795L230.896 128.068Z" fill="#1C2F37"/>
<path d="M229.906 116.918C230.618 116.918 231.371 117.115 231.421 118.054C231.497 119.095 230.644 118.988 229.937 119.064C227.487 119.291 225.301 120.074 223.776 122.16C223.245 122.882 222.619 122.963 221.973 122.428C221.326 121.892 221.468 121.311 221.937 120.69C223.952 118.125 226.715 117.196 229.906 116.918Z" fill="#203036"/>
<path d="M207.792 150.46C210.019 150.46 212.13 151.071 214.241 151.687C214.746 151.839 215.337 152.051 215.11 152.743C214.882 153.434 214.388 153.116 213.908 152.97C211.609 152.223 209.218 151.802 206.803 151.718C206.298 151.718 205.601 151.94 205.585 151.127C205.585 150.203 206.353 150.516 206.868 150.465C207.176 150.435 207.484 150.46 207.792 150.46Z" fill="#263036"/>
<path d="M182.204 144.865C181.962 143.647 182.174 142.461 181.745 141.33C180.628 138.35 178.669 136.391 175.508 135.729C175.195 135.663 174.659 135.795 174.775 135.254C174.892 134.714 175.321 135.047 175.634 135.113C177.704 135.498 179.561 136.631 180.85 138.296C182.14 139.961 182.773 142.041 182.628 144.142C182.618 144.365 182.719 144.663 182.204 144.865Z" fill="#DF9B95"/>
<path d="M214.034 125.992C214.201 127.729 212.706 129.951 211.428 130.259C211.371 130.276 211.31 130.282 211.25 130.275C211.19 130.268 211.132 130.249 211.08 130.219C211.045 130.192 211.017 130.157 210.998 130.117C210.979 130.077 210.969 130.033 210.969 129.989C210.969 129.945 210.979 129.901 210.998 129.862C211.017 129.822 211.045 129.787 211.08 129.759C211.63 129.209 212.459 128.992 212.837 128.244C213.171 127.548 213.549 126.896 214.034 125.992Z" fill="#E09C96"/>
<path d="M220.483 146.823L221.538 145.495C221.566 145.653 221.559 145.815 221.52 145.97C221.48 146.125 221.408 146.27 221.308 146.396C221.209 146.521 221.084 146.624 220.941 146.698C220.799 146.771 220.643 146.814 220.483 146.823Z" fill="#F39392"/>
<path d="M208.06 126.957C207.666 126.513 207.105 126.871 206.666 126.659C207.095 126.433 207.591 126.365 208.065 126.467C208.615 126.543 208.434 126.796 208.06 126.957Z" fill="#8A5D5A"/>
<path d="M221.528 144.707C221.333 144.615 221.176 144.458 221.083 144.263C220.991 144.067 220.97 143.846 221.023 143.637C221.18 143.768 221.306 143.932 221.393 144.117C221.48 144.302 221.526 144.503 221.528 144.707Z" fill="#F39392"/>
<path d="M251.212 101.273C250.877 99.9538 250.796 98.5825 250.975 97.233C251.016 96.9654 250.975 96.5311 251.425 96.5917C251.768 96.6422 251.677 96.9906 251.622 97.2381C251.451 98.2769 251.474 99.3382 251.687 100.369C251.743 100.738 252.01 101.318 251.207 101.263L251.212 101.273Z" fill="#4B7DBD"/>
<path d="M189.148 228.205C188.087 226.902 187.153 225.862 186.335 224.741C181.748 218.515 177.671 211.928 174.144 205.046C174.084 204.924 174.013 204.813 173.962 204.692C173.846 204.419 173.584 204.091 173.962 203.884C174.341 203.677 174.467 204.127 174.578 204.364C175.684 206.384 176.74 208.404 177.871 210.373C180.957 215.848 184.453 221.081 188.33 226.028C188.749 226.554 189.375 227.023 189.148 228.205Z" fill="#F28785"/>
<path d="M295.703 95.6821C296.198 95.6904 296.687 95.798 297.14 95.9985C297.593 96.1991 298.001 96.4886 298.34 96.8498C298.679 97.211 298.942 97.6366 299.114 98.1014C299.285 98.5661 299.362 99.0606 299.339 99.5555C299.355 100.063 299.269 100.568 299.084 101.04C298.9 101.513 298.622 101.944 298.266 102.306C297.911 102.668 297.485 102.954 297.016 103.147C296.547 103.34 296.044 103.436 295.536 103.429C293.304 103.429 291.905 101.868 291.931 99.4595C291.956 97.0507 293.405 95.6518 295.703 95.6821Z" fill="#739FD4"/>
</svg>
