<svg width="264" height="185" viewBox="0 0 264 185" fill="none" xmlns="http://www.w3.org/2000/svg">
<path d="M112.483 18.8372C112.483 18.8372 85.7504 -2.64988 59.0264 0.273342C32.3025 3.19656 5.30176 40.6345 5.30176 40.6345L13.9531 47.7592C13.9531 47.7592 58.7928 7.3417 83.0771 37.2225C107.361 67.1032 112.483 18.8372 112.483 18.8372Z" fill="#0A3967"/>
<path opacity="0.2" d="M112.483 18.8372C112.483 18.8372 85.7504 -2.64988 59.0264 0.273342C32.3025 3.19656 5.30176 40.6345 5.30176 40.6345L13.9531 47.7592C13.9531 47.7592 58.7928 7.3417 83.0771 37.2225C107.361 67.1032 112.483 18.8372 112.483 18.8372Z" fill="white"/>
<path d="M0.5 15.8389H92.2905V80.2719H0.5V15.8389Z" fill="#FFB831"/>
<path opacity="0.45" d="M240.851 153.428C239.16 153.056 237.566 152.281 236.185 151.158C234.803 150.034 233.67 148.591 232.866 146.933V146.839L191.902 62.084L169.356 79.4259L185.301 133.886C185.721 135.318 185.816 136.839 185.578 138.32C185.34 139.8 184.776 141.196 183.933 142.388C183.091 143.58 181.996 144.534 180.741 145.166C179.486 145.799 178.109 146.092 176.727 146.021C164.615 145.419 151.734 145.081 138.35 145.081C69.2086 145.081 13.1567 153.832 13.1567 164.632C13.1567 175.432 69.2086 184.192 138.35 184.192C207.491 184.192 263.5 175.441 263.5 164.66C263.5 160.468 255.117 156.605 240.851 153.428Z" fill="#E6E6E6"/>
<path d="M110.579 158.25C110.579 158.25 111.86 162.949 115.658 163.504C119.456 164.058 120.252 168.204 116.765 169.049C113.279 169.895 104.653 164.585 104.653 164.585L105.198 158.616L110.579 158.25Z" fill="#0A3967"/>
<path d="M36.6368 157.451C36.6368 157.451 32.2419 158.485 31.446 162.555C30.6501 166.625 26.7916 167.17 26.2552 163.325C25.7188 159.481 31.2816 150.561 31.2816 150.561L36.7146 151.623L36.6368 157.451Z" fill="#0A3967"/>
<path d="M37.2248 87.2744C37.2248 87.2744 33.176 107.803 47.7535 116.601C62.331 125.398 108.313 109.56 101.21 159.424H111.47C111.47 159.424 124.733 118.067 90.3266 103.366L79.8845 90.4984L37.2248 87.2744Z" fill="#24285B"/>
<path d="M175.291 68.8335L178.781 72.4571L156.953 97.2741L153.463 93.6506L175.291 68.8335Z" fill="#FFB831"/>
<path opacity="0.08" d="M175.291 68.8335L178.781 72.4571L156.953 97.2741L153.463 93.6506L175.291 68.8335Z" fill="#0066AE"/>
<path d="M173.591 67.0562L177.081 70.6797L155.253 95.4968L151.763 91.8732L173.591 67.0562Z" fill="#FFB831"/>
<path d="M186.574 75.2466C192.186 68.8665 193.56 60.3973 189.643 56.3303C185.725 52.2632 178.001 54.1383 172.389 60.5185C166.777 66.8987 165.404 75.3678 169.321 79.4349C173.238 83.5019 180.963 81.6268 186.574 75.2466Z" fill="#FFB831"/>
<path opacity="0.08" d="M186.574 75.2466C192.186 68.8665 193.56 60.3973 189.643 56.3303C185.725 52.2632 178.001 54.1383 172.389 60.5185C166.777 66.8987 165.404 75.3678 169.321 79.4349C173.238 83.5019 180.963 81.6268 186.574 75.2466Z" fill="#0066AE"/>
<path d="M184.87 73.4844C190.482 67.1043 191.855 58.6351 187.938 54.5681C184.021 50.501 176.296 52.3761 170.684 58.7563C165.073 65.1365 163.699 73.6056 167.616 77.6727C171.533 81.7397 179.258 79.8646 184.87 73.4844Z" fill="#FFB831"/>
<path opacity="0.57" d="M182.462 70.9842C186.169 66.7696 187.077 61.1752 184.49 58.489C181.902 55.8027 176.8 57.0417 173.093 61.2564C169.386 65.471 168.478 71.0653 171.065 73.7516C173.652 76.4379 178.755 75.1989 182.462 70.9842Z" fill="white"/>
<path d="M148.654 21.1588C148.654 21.1588 144.752 27.3155 140.963 30.3421C140.595 30.6329 140.179 30.8423 139.737 30.9581C139.295 31.074 138.836 31.0941 138.387 31.0172C137.938 30.9404 137.507 30.7682 137.119 30.5104C136.732 30.2527 136.394 29.9144 136.127 29.5149C134.751 27.4189 133.454 24.1479 135.175 20.5761L137.407 14.1187C137.986 12.8845 138.902 11.875 140.029 11.2288C141.157 10.5826 142.441 10.3312 143.705 10.5093C148.438 10.8101 151.197 17.5401 148.654 21.1588Z" fill="#F4A28C"/>
<path d="M138.773 15.4443L121.168 23.1519L123.331 36.7622L136.022 25.5111L138.773 15.4443Z" fill="#F4A28C"/>
<path d="M147.157 20.2185C145.464 18.8174 143.925 17.2089 142.572 15.4248C142.449 16.6331 142.005 17.7764 141.294 18.7146C140.582 19.6529 139.634 20.3453 138.566 20.7073C137.537 21.0756 136.421 21.0435 135.411 20.6165C134.401 20.1895 133.559 19.3942 133.029 18.3668L138.739 11.0353C139.519 9.95034 140.556 9.11528 141.738 8.61879C142.92 8.1223 144.203 7.98292 145.453 8.21545C146.532 8.4174 147.598 8.69368 148.645 9.0426C151.24 9.98255 153.048 13.9491 155.903 14.0807C156.19 14.0959 156.469 14.1919 156.712 14.3591C156.955 14.5263 157.153 14.7592 157.288 15.0348C157.424 15.3105 157.49 15.6195 157.483 15.9317C157.475 16.2439 157.393 16.5486 157.244 16.8159C155.843 19.3444 152.78 22.559 149.034 21.2712C148.359 21.0349 147.725 20.6792 147.157 20.2185Z" fill="#24285B"/>
<path d="M139.267 21.0468C139.267 21.0468 140.911 18.7909 139.267 17.5784C137.623 16.3659 135.209 19.6181 137.069 21.7894L139.267 21.0468Z" fill="#F4A28C"/>
<path d="M146.015 24.8999L145.807 28.4435C145.79 28.6418 145.727 28.8323 145.625 28.9979C145.523 29.1635 145.385 29.299 145.223 29.3922C145.061 29.4853 144.88 29.5333 144.696 29.5318C144.513 29.5303 144.333 29.4793 144.172 29.3834L141.828 27.9735L146.015 24.8999Z" fill="#F4A28C"/>
<path opacity="0.31" d="M134.596 26.7612C134.596 26.7612 135.123 22.4845 136.542 20.8584C136.542 20.8584 130.131 23.2083 129.984 30.8688L134.596 26.7612Z" fill="#CE8172"/>
<path opacity="0.08" d="M18.3736 78.6082C18.3736 78.6082 18.0967 34.2711 67.1151 24.8999L38.3149 80.2719H18.4168L18.3736 78.6082Z" fill="#0066AE"/>
<path d="M125.668 41.4707L124.215 32.2875C123.646 28.5423 122.212 25.0151 120.047 22.0363C117.882 19.0574 115.056 16.7244 111.835 15.2557C109.03 14.0378 106.098 13.2011 103.105 12.7649C99.2642 12.1821 93.8831 12.7649 87.8617 14.485C61.9251 21.8823 42.8922 45.7568 38.9558 74.5379L37.2256 87.2741L79.8852 90.4981C79.8852 90.4981 77.7224 77.3389 92.8622 77.3389C108.002 77.3389 127.173 77.5081 125.668 41.4707Z" fill="#0A3967"/>
<path opacity="0.08" d="M83.8648 27.231C83.8648 27.231 63.1622 31.1881 40.4093 66.8119L37.2256 87.2744L69.5988 89.8875L83.8648 27.231Z" fill="#0066AE"/>
<path d="M107.604 43.614C111.644 28.9697 95.9766 17.1265 84.8078 26.4319C75.4644 34.2052 64.9098 48.201 64.4945 71.8217C63.7764 114.448 101.358 106.825 152.219 90.4984L150.601 78.0817C150.601 78.0817 89.6958 90.5923 97.9664 69.0865C101.427 60.0912 105.458 51.4062 107.604 43.614Z" fill="#0A3967"/>
<path opacity="0.2" d="M107.604 43.614C111.644 28.9697 95.9766 17.1265 84.8078 26.4319C75.4644 34.2052 64.9098 48.201 64.4945 71.8217C63.7764 114.448 101.358 106.825 152.219 90.4984L150.601 78.0817C150.601 78.0817 89.6958 90.5923 97.9664 69.0865C101.427 60.0912 105.458 51.4062 107.604 43.614Z" fill="white"/>
<path d="M86.2258 103.47C86.2258 103.47 87.4803 150.608 36.7143 159.424L34.7505 149.433C34.7505 149.433 75.4117 138.483 49.1463 109.147L86.2258 103.47Z" fill="#24285B"/>
<path opacity="0.08" d="M166.19 166.859C169.239 166.859 171.71 165.866 171.71 164.641C171.71 163.416 169.239 162.423 166.19 162.423C163.142 162.423 160.671 163.416 160.671 164.641C160.671 165.866 163.142 166.859 166.19 166.859Z" fill="#0066AE"/>
<path opacity="0.08" d="M187.3 161.116C190.348 161.116 192.819 160.123 192.819 158.898C192.819 157.673 190.348 156.68 187.3 156.68C184.251 156.68 181.78 157.673 181.78 158.898C181.78 160.123 184.251 161.116 187.3 161.116Z" fill="#0066AE"/>
<path opacity="0.08" d="M208.555 165.553C211.604 165.553 214.075 164.56 214.075 163.334C214.075 162.109 211.604 161.116 208.555 161.116C205.507 161.116 203.036 162.109 203.036 163.334C203.036 164.56 205.507 165.553 208.555 165.553Z" fill="#0066AE"/>
<path opacity="0.08" d="M241.102 167.781C244.15 167.781 246.622 166.788 246.622 165.563C246.622 164.337 244.15 163.344 241.102 163.344C238.054 163.344 235.583 164.337 235.583 165.563C235.583 166.788 238.054 167.781 241.102 167.781Z" fill="#0066AE"/>
<path opacity="0.08" d="M145.263 160.618C148.378 160.618 150.904 159.6 150.904 158.344C150.904 157.087 148.378 156.069 145.263 156.069C142.148 156.069 139.623 157.087 139.623 158.344C139.623 159.6 142.148 160.618 145.263 160.618Z" fill="#0066AE"/>
<path d="M150.912 80.4697C150.912 80.4697 164.909 78.8624 166.138 84.8028C167.366 90.7432 164.685 93.892 152.088 89.5025L150.912 80.4697Z" fill="#F4A28C"/>
<path d="M11.4609 80.2721C11.4609 80.2721 13.4767 89.1451 21.5484 87.2746C29.6201 85.4042 23.8583 74.5196 11.4609 80.2721Z" fill="#F4A28C"/>
</svg>
