<svg width="500" height="330" viewBox="0 0 500 330" fill="none" xmlns="http://www.w3.org/2000/svg">
<g clip-path="url(#clip0_1_56509)">
<path d="M146.589 80.9477L71.7881 130.334L145.466 239.044L220.267 189.658L146.589 80.9477Z" fill="#F5F5F5"/>
<path d="M181.613 184.516L180.767 189.701L143.58 184.411L144.427 179.226L181.613 184.516Z" fill="#E0E0E0"/>
<path d="M162.887 166.02L168.22 166.776L162.307 202.914L156.967 202.15L162.887 166.02Z" fill="#E0E0E0"/>
<path d="M128.667 120.092C128.72 120.164 121.227 125.211 111.927 131.344C102.627 137.476 95.0468 142.398 94.9934 142.319C94.9401 142.24 102.433 137.2 111.733 131.061C121.033 124.921 128.58 120.013 128.667 120.092Z" fill="#E0E0E0"/>
<path d="M156.147 113.275C156.2 113.354 143.733 121.671 128.307 131.857C112.88 142.043 100.307 150.235 100.267 150.162C100.227 150.09 112.667 141.76 128.113 131.574C143.56 121.388 156.093 113.196 156.147 113.275Z" fill="#E0E0E0"/>
<path d="M161.66 121.408C161.714 121.487 149.247 129.81 133.82 139.996C118.394 150.182 105.82 158.374 105.78 158.295C105.74 158.216 118.194 149.899 133.627 139.707C149.06 129.514 161.607 121.329 161.66 121.408Z" fill="#E0E0E0"/>
<path d="M167.173 129.547C167.226 129.626 154.76 137.95 139.333 148.129C123.906 158.309 111.333 166.514 111.333 166.435C111.333 166.356 123.74 158.032 139.173 147.846C154.606 137.661 167.12 129.468 167.173 129.547Z" fill="#E0E0E0"/>
<path d="M172.666 137.686C172.72 137.765 160.253 146.082 144.826 156.268C129.4 166.454 116.826 174.646 116.793 174.567C116.76 174.488 129.22 166.171 144.666 155.985C160.113 145.799 172.666 137.607 172.666 137.686Z" fill="#E0E0E0"/>
<path d="M396.713 153.791L333.893 195.268L395.769 286.564L458.589 245.088L396.713 153.791Z" fill="#F5F5F5"/>
<path d="M426.133 240.788L425.42 245.144L394.187 240.703L394.906 236.347L426.133 240.788Z" fill="#E0E0E0"/>
<path d="M410.407 225.253L414.887 225.891L409.92 256.238L405.434 255.6L410.407 225.253Z" fill="#E0E0E0"/>
<path d="M381.64 186.714C381.693 186.793 375.406 191.037 367.593 196.189C359.78 201.341 353.406 205.461 353.353 205.401C353.3 205.342 359.593 201.085 367.4 195.926C375.206 190.767 381.586 186.602 381.64 186.714Z" fill="#E0E0E0"/>
<path d="M404.74 180.957C404.794 181.036 394.334 188.037 381.407 196.584C368.48 205.132 357.9 212.014 357.847 211.935C357.794 211.856 368.254 204.855 381.18 196.301C394.107 187.747 404.667 180.878 404.74 180.957Z" fill="#E0E0E0"/>
<path d="M409.373 187.787C409.426 187.866 398.966 194.867 386.04 203.421C373.113 211.975 362.533 218.844 362.48 218.765C362.426 218.686 372.853 211.718 385.813 203.164C398.773 194.61 409.333 187.714 409.373 187.787Z" fill="#E0E0E0"/>
<path d="M414 194.61C414.053 194.689 403.587 201.69 390.667 210.244C377.747 218.798 367.16 225.667 367.107 225.588C367.053 225.51 377.513 218.515 390.44 209.954C403.367 201.394 413.953 194.544 414 194.61Z" fill="#E0E0E0"/>
<path d="M418.667 201.46C418.72 201.539 408.26 208.533 395.334 217.087C382.407 225.641 371.827 232.511 371.774 232.438C371.72 232.366 382.18 225.358 395.107 216.804C408.034 208.25 418.58 201.381 418.667 201.46Z" fill="#E0E0E0"/>
<path d="M297.327 84.9473L228.782 48.7627L174.8 148.381L243.345 184.566L297.327 84.9473Z" fill="#F5F5F5"/>
<path d="M231.613 153.4L227.267 154.867L216.227 124.75L220.58 123.276L231.613 153.4Z" fill="#E0E0E0"/>
<path d="M238.28 131.791L239.867 136.114L209.56 146.359L207.974 142.036L238.28 131.791Z" fill="#E0E0E0"/>
<path d="M259.813 87.3559C259.76 87.4546 252.813 83.8882 244.287 79.3941C235.76 74.8999 228.9 71.1691 228.953 71.0704C229.007 70.9717 235.96 74.538 244.487 79.0322C253.013 83.5263 259.867 87.2506 259.813 87.3559Z" fill="#E0E0E0"/>
<path d="M276.267 105.273C276.213 105.372 264.707 99.3971 250.567 91.9354C236.427 84.4737 225.013 78.3411 225.067 78.2424C225.12 78.1437 236.62 84.1118 250.76 91.5801C264.9 99.0484 276.32 105.174 276.267 105.273Z" fill="#E0E0E0"/>
<path d="M272.227 112.728C272.173 112.827 260.667 106.859 246.527 99.3905C232.387 91.9222 220.973 85.7962 221.027 85.6975C221.08 85.5988 232.58 91.5734 246.72 99.0352C260.86 106.497 272.28 112.629 272.227 112.728Z" fill="#E0E0E0"/>
<path d="M268.187 120.184C268.133 120.283 256.627 114.315 242.487 106.853C228.347 99.3912 216.933 93.2784 216.987 93.1599C217.04 93.0415 228.54 99.0293 242.68 106.491C256.82 113.953 268.24 120.085 268.187 120.184Z" fill="#E0E0E0"/>
<path d="M264.147 127.639C264.093 127.737 252.587 121.769 238.447 114.307C224.307 106.846 212.887 100.713 212.947 100.614C213.007 100.516 224.5 106.484 238.64 113.946C252.78 121.407 264.2 127.54 264.147 127.639Z" fill="#E0E0E0"/>
<path opacity="0.2" d="M264.5 0.5H262.78V29.4388H264.5V0.5Z" fill="black"/>
<path d="M223.486 64.4512H303.793C303.793 64.4512 296.38 29.4521 263.033 29.4521C233.373 29.4521 223.486 64.4512 223.486 64.4512Z" fill="#0066AE"/>
<path d="M264.499 0.5H262.779V29.4388H264.499V0.5Z" fill="#0066AE"/>
<path d="M442.447 289.908C442.447 290 356.28 290.079 250.007 290.079C143.734 290.079 57.5537 290.02 57.5537 289.908C57.5537 289.797 143.707 289.737 250.007 289.737C356.307 289.737 442.447 289.81 442.447 289.908Z" fill="#263238"/>
<path d="M78.8599 248.698C79.9871 248.778 81.0863 249.082 82.0919 249.591C83.0976 250.099 83.9891 250.803 84.7133 251.659C86.1532 253.382 87.1727 255.408 87.6933 257.581C88.8199 261.74 88.1266 266.655 86.9266 270.794C82.3666 269.182 79.5466 264.378 78.2599 261.851C76.2599 257.864 75.0666 249.442 78.8399 248.691" fill="#0066AE"/>
<path d="M93.4931 275.841C92.8084 274.793 92.4168 273.584 92.3583 272.339C92.2997 271.093 92.5763 269.854 93.1598 268.748C93.7616 267.652 94.5785 266.685 95.5629 265.905C96.5473 265.124 97.6794 264.545 98.8931 264.201C100.006 263.859 101.3 263.721 102.266 264.359C102.702 264.684 103.042 265.119 103.249 265.618C103.457 266.116 103.525 266.661 103.446 267.195C103.271 268.264 102.811 269.268 102.113 270.103C99.8931 273.071 97.1998 275.538 93.4465 275.841" fill="#0066AE"/>
<path d="M94 289.744C93.9011 289.465 93.8318 289.176 93.7934 288.882C93.6734 288.264 93.5134 287.468 93.32 286.514C92.7216 283.901 92.555 281.21 92.8267 278.545C93.141 275.867 94.1744 273.321 95.82 271.169C96.3228 270.526 96.9026 269.945 97.5467 269.439C97.7217 269.302 97.9042 269.174 98.0934 269.057C98.1535 269.008 98.221 268.968 98.2934 268.938C97.4501 269.65 96.6797 270.441 95.9934 271.301C94.4345 273.455 93.453 275.963 93.14 278.591C92.7134 281.658 93.24 284.467 93.5467 286.487C93.7067 287.494 93.84 288.31 93.9134 288.876C93.9659 289.163 93.9949 289.453 94 289.744Z" fill="#263238"/>
<path d="M80.3262 255.034C80.4023 255.138 80.465 255.251 80.5128 255.37C80.6328 255.633 80.7928 255.962 80.9795 256.377C81.3862 257.252 81.9528 258.522 82.6395 260.094C84.0128 263.246 85.8528 267.628 87.7728 272.511C89.6928 277.393 91.3262 281.848 92.4395 285.092C93.0128 286.71 93.4595 288.026 93.7728 288.941C93.9128 289.375 94.0195 289.724 94.1062 289.994C94.1537 290.115 94.1873 290.24 94.2062 290.369C94.1386 290.257 94.0849 290.138 94.0462 290.013C93.9462 289.75 93.8195 289.408 93.6528 288.98L92.2462 285.164C91.0528 281.946 89.3862 277.498 87.4728 272.623C85.5595 267.747 83.7462 263.351 82.4262 260.18C81.7595 258.62 81.2462 257.35 80.8662 256.423C80.6928 256.001 80.5528 255.666 80.4462 255.396C80.3961 255.279 80.356 255.158 80.3262 255.034Z" fill="#263238"/>
<path d="M88.5796 280.545C87.2078 278.291 85.3122 276.391 83.0493 275.003C80.7865 273.615 78.2214 272.779 75.5663 272.563C74.2329 272.471 72.5929 272.695 71.9929 273.879C71.3929 275.064 72.1929 276.511 73.1129 277.472C75.0676 279.49 77.584 280.892 80.3447 281.501C83.1055 282.11 85.9871 281.899 88.6263 280.894" fill="#0066AE"/>
<path d="M77.6192 276.13C77.9018 276.116 78.1852 276.127 78.4658 276.163C78.7945 276.18 79.1218 276.218 79.4458 276.275C79.8258 276.347 80.2725 276.386 80.7392 276.518C81.2608 276.627 81.7751 276.768 82.2792 276.939C82.8631 277.124 83.4353 277.344 83.9925 277.597C85.2741 278.164 86.4864 278.872 87.6058 279.709C88.7124 280.566 89.7146 281.546 90.5925 282.631C90.9716 283.103 91.3211 283.597 91.6392 284.111C91.9266 284.555 92.1892 285.014 92.4258 285.487C92.6261 285.871 92.8042 286.267 92.9592 286.671C93.0928 286.97 93.2064 287.278 93.2992 287.592C93.3979 287.855 93.4716 288.126 93.5192 288.402C93.4458 288.402 93.1258 287.27 92.2258 285.585C91.9808 285.133 91.7115 284.694 91.4192 284.269C91.0943 283.771 90.7427 283.29 90.3658 282.828C88.6221 280.701 86.3984 279.007 83.8725 277.88C83.2925 277.63 82.7392 277.393 82.1992 277.222C81.7034 277.044 81.1982 276.892 80.6858 276.768C78.8192 276.261 77.6125 276.202 77.6192 276.13Z" fill="#263238"/>
<path d="M380.241 69.9058C378.281 70.3466 377.327 72.5772 377.141 74.5512C376.954 76.5252 377.207 78.6177 376.367 80.4206C375.421 82.4472 373.161 83.9475 373.087 86.1781C373.041 87.5402 373.861 88.8101 373.821 90.1853C373.754 92.4225 371.447 94.1333 371.321 96.3442C371.234 97.9563 372.321 99.496 372.061 101.088C371.861 102.325 370.881 103.299 370.467 104.484C369.647 106.852 371.294 109.452 373.434 110.781C374.633 111.525 375.982 112.001 377.387 112.177C378.792 112.353 380.219 112.224 381.568 111.799C382.917 111.374 384.156 110.664 385.198 109.717C386.24 108.771 387.06 107.611 387.601 106.319C388.787 103.477 388.527 100.272 388.267 97.2127C387.467 87.6674 386.872 78.1088 386.481 68.5371" fill="#263238"/>
<path d="M374.547 103.583C374.95 103.335 375.265 102.969 375.447 102.536C375.639 102.021 375.717 101.471 375.674 100.924C375.601 100.199 375.437 99.4849 375.187 98.7989C374.868 97.9366 374.75 97.0146 374.84 96.1011C375.007 95.0746 375.754 94.2323 376.427 93.4033C376.789 92.9975 377.092 92.5434 377.327 92.0544C377.562 91.5598 377.6 90.9961 377.434 90.4752C377.087 89.4026 376.02 88.613 375.534 87.3694C375.305 86.7538 375.268 86.0847 375.427 85.448C375.578 84.8511 375.802 84.2745 376.094 83.7307C376.656 82.7512 377.104 81.7114 377.427 80.6315C377.894 78.5456 377.674 76.5519 377.994 74.9135C378.171 73.6012 378.761 72.377 379.68 71.4129C379.94 71.1532 380.237 70.9316 380.56 70.7549C380.672 70.6975 380.791 70.6555 380.914 70.6299C380.496 70.8569 380.112 71.1404 379.774 71.4721C378.922 72.4458 378.386 73.6491 378.234 74.9266C378.117 75.7993 378.054 76.6783 378.047 77.5586C378.045 78.5946 377.942 79.628 377.74 80.6446C377.422 81.7494 376.975 82.8137 376.407 83.8162C375.907 84.8493 375.447 86.06 375.887 87.1917C376.327 88.3235 377.387 89.1065 377.794 90.3172C377.977 90.9154 377.932 91.5592 377.667 92.1267C377.407 92.665 377.07 93.1636 376.667 93.6072C376 94.4363 375.274 95.2259 375.114 96.1471C375.02 97.0209 375.125 97.9042 375.42 98.7331C375.658 99.4404 375.806 100.174 375.86 100.918C375.893 101.49 375.79 102.062 375.56 102.589C375.417 102.919 375.187 103.205 374.894 103.418C374.789 103.493 374.672 103.549 374.547 103.583Z" fill="#455A64"/>
<path d="M369.334 119.184L363.334 136.292L338.24 137.608L334.054 146.82L360.254 149.452C361.492 149.953 362.82 150.202 364.158 150.183C365.495 150.163 366.816 149.877 368.038 149.34C369.261 148.803 370.36 148.027 371.27 147.059C372.181 146.091 372.883 144.951 373.334 143.707L380.327 124.441L369.334 119.184Z" fill="#B78876"/>
<path d="M421.207 280.611C421.207 280.611 402.82 222.957 402.427 221.088C402.073 219.39 409.093 177.903 409.987 167.132L385.14 168.046V168.29L374.58 168.869L384.033 286.73H395.467L394.333 247.612C401.387 266.292 411.493 285.335 411.493 285.335L421.207 280.611Z" fill="#B78876"/>
<path d="M394.801 261.647C394.801 261.292 394.661 248.54 394.661 248.54C394.521 249.303 390.281 237.472 390.381 236.755C390.434 236.38 394.801 261.647 394.801 261.647Z" fill="#A36957"/>
<path d="M389.901 231.148C389.842 231.383 389.817 231.624 389.827 231.866C389.791 232.523 389.791 233.182 389.827 233.84C389.827 234.254 389.887 234.702 389.941 235.189C389.994 235.675 390.067 236.189 390.181 236.722C390.418 237.886 390.732 239.033 391.121 240.156C391.947 242.545 392.867 244.631 393.514 246.144C393.821 246.802 394.087 247.427 394.314 247.927C394.396 248.16 394.508 248.381 394.647 248.585C394.612 248.358 394.545 248.137 394.447 247.927C394.294 247.493 394.061 246.868 393.781 246.098C393.194 244.558 392.314 242.453 391.494 240.091C391.106 238.984 390.788 237.854 390.541 236.709C390.421 236.182 390.341 235.675 390.267 235.202C390.194 234.728 390.141 234.281 390.107 233.886C390.027 233.07 389.994 232.412 389.974 231.951C389.987 231.682 389.962 231.412 389.901 231.148Z" fill="#A36957"/>
<path d="M383.82 287.329V286.269L395.533 285.763L395.567 290.138L394.847 290.184C391.627 290.369 378.48 290.908 376.333 290.27C373.927 289.559 383.82 287.329 383.82 287.329Z" fill="#455A64"/>
<path d="M395.721 289.875C395.654 289.879 395.587 289.879 395.521 289.875L394.947 289.914L392.827 290.007C391.041 290.079 388.567 290.145 385.841 290.158C383.114 290.171 380.634 290.125 378.841 290.072L376.727 289.987H376.147H375.947C376.014 289.982 376.081 289.982 376.147 289.987H376.727L378.847 290.026C380.634 290.026 383.107 290.079 385.834 290.066C388.561 290.053 391.041 290.007 392.827 289.961L394.947 289.908H395.721V289.875Z" fill="#263238"/>
<path d="M380.001 290.244C379.903 289.9 379.769 289.567 379.601 289.25C379.39 288.959 379.146 288.692 378.874 288.454C379.238 288.582 379.54 288.841 379.721 289.178C379.941 289.488 380.041 289.867 380.001 290.244Z" fill="#263238"/>
<path d="M383.453 288.513C383.453 288.513 383.26 288.335 383.087 288.072C382.913 287.809 382.807 287.579 382.84 287.559C382.873 287.539 383.033 287.73 383.207 287.993C383.38 288.257 383.487 288.493 383.453 288.513Z" fill="#263238"/>
<path d="M384.401 288.046C384.401 288.079 384.187 287.954 383.987 287.776C383.787 287.599 383.641 287.434 383.667 287.408C383.694 287.382 383.881 287.5 384.081 287.678C384.281 287.855 384.427 287.987 384.401 288.046Z" fill="#263238"/>
<path d="M384.993 286.928C384.797 286.999 384.588 287.026 384.38 287.007C384.176 287.034 383.968 287.013 383.773 286.947C383.967 286.877 384.174 286.85 384.38 286.869C384.586 286.841 384.796 286.861 384.993 286.928Z" fill="#263238"/>
<path d="M385.194 286.165C384.995 286.292 384.764 286.36 384.527 286.362C384.3 286.391 384.07 286.36 383.86 286.27C384.081 286.233 384.304 286.216 384.527 286.217C384.747 286.178 384.97 286.161 385.194 286.165Z" fill="#263238"/>
<path d="M383.061 287.507C382.812 287.553 382.556 287.553 382.307 287.507C382.038 287.475 381.772 287.417 381.514 287.336C381.354 287.292 381.2 287.23 381.054 287.152C380.965 287.1 380.899 287.018 380.867 286.921C380.855 286.866 380.859 286.809 380.879 286.757C380.899 286.704 380.935 286.658 380.981 286.625C381.165 286.537 381.367 286.49 381.573 286.488C381.778 286.487 381.981 286.53 382.167 286.615C382.353 286.7 382.518 286.824 382.649 286.98C382.781 287.135 382.876 287.317 382.927 287.513C382.941 287.579 382.941 287.646 382.927 287.711C382.852 287.473 382.734 287.25 382.581 287.053C382.403 286.856 382.172 286.714 381.914 286.645C381.619 286.551 381.298 286.574 381.021 286.711C380.907 286.796 380.954 286.934 381.081 287.013C381.217 287.086 381.36 287.145 381.507 287.191C381.758 287.272 382.014 287.336 382.274 287.382C382.774 287.487 383.061 287.487 383.061 287.507Z" fill="#263238"/>
<path d="M382.867 287.546C382.77 287.393 382.736 287.209 382.774 287.033C382.798 286.839 382.869 286.654 382.98 286.493C383.043 286.383 383.132 286.29 383.241 286.224C383.349 286.157 383.473 286.118 383.6 286.111C383.676 286.129 383.742 286.174 383.785 286.237C383.829 286.301 383.846 286.378 383.834 286.453C383.817 286.571 383.774 286.684 383.707 286.782C383.606 286.946 383.487 287.098 383.354 287.237C383.238 287.368 383.091 287.469 382.927 287.533C382.927 287.533 383.074 287.401 383.28 287.164C383.4 287.028 383.505 286.881 383.594 286.723C383.694 286.565 383.767 286.282 383.594 286.25C383.42 286.217 383.22 286.421 383.107 286.565C383.001 286.708 382.928 286.872 382.894 287.046C382.867 287.211 382.858 287.379 382.867 287.546Z" fill="#263238"/>
<path d="M395.474 286.73C395.474 286.73 395.14 286.73 394.614 286.763C393.928 286.844 393.279 287.114 392.74 287.54C392.202 287.967 391.795 288.535 391.567 289.178C391.394 289.672 391.38 290.007 391.354 290.001C391.327 289.994 391.354 289.915 391.354 289.77C391.371 289.558 391.411 289.349 391.474 289.145C391.686 288.472 392.094 287.874 392.647 287.428C393.207 286.989 393.887 286.726 394.6 286.671C394.822 286.645 395.046 286.645 395.267 286.671C395.338 286.682 395.408 286.702 395.474 286.73Z" fill="#263238"/>
<path d="M389.867 288.954C389.308 289.083 388.734 289.138 388.16 289.119C387.589 289.147 387.017 289.098 386.46 288.974C386.46 288.934 387.22 288.974 388.16 288.974C389.1 288.974 389.86 288.915 389.867 288.954Z" fill="#263238"/>
<path d="M392.147 288.935C392.147 288.935 392.087 289.093 392.007 289.264C391.927 289.435 391.887 289.593 391.847 289.586C391.807 289.58 391.787 289.409 391.88 289.205C391.974 289.001 392.12 288.902 392.147 288.935Z" fill="#263238"/>
<path d="M393.007 287.875C393.007 287.875 392.961 288.02 392.841 288.138C392.721 288.257 392.601 288.336 392.567 288.309C392.534 288.283 392.614 288.165 392.734 288.04C392.854 287.915 392.974 287.842 393.007 287.875Z" fill="#263238"/>
<path d="M394.234 287.389C394.234 287.428 394.074 287.428 393.9 287.487C393.727 287.546 393.607 287.639 393.574 287.612C393.54 287.586 393.64 287.428 393.854 287.356C394.067 287.283 394.247 287.349 394.234 287.389Z" fill="#263238"/>
<path d="M395.107 287.152C395.107 287.191 395.06 287.25 394.96 287.283C394.86 287.316 394.774 287.323 394.76 287.283C394.747 287.244 394.814 287.185 394.907 287.152C395 287.119 395.094 287.119 395.107 287.152Z" fill="#263238"/>
<path d="M411.26 286.309L410.82 285.342L421.294 280.15L423.14 284.098L422.474 284.434C419.614 285.901 407.847 291.705 405.62 291.994C403.16 292.343 411.26 286.309 411.26 286.309Z" fill="#455A64"/>
<path d="M423.181 283.815L423.007 283.921L422.494 284.184L420.601 285.131C419.001 285.914 416.774 286.974 414.287 288.092C411.8 289.211 409.52 290.165 407.867 290.843L405.9 291.626L405.367 291.83C405.306 291.858 405.241 291.878 405.174 291.889L405.354 291.804L405.88 291.573L407.827 290.751C409.474 290.053 411.741 289.079 414.227 287.961C416.714 286.842 418.947 285.803 420.561 285.039L422.467 284.138L422.994 283.894L423.181 283.815Z" fill="#263238"/>
<path d="M409.014 290.507C408.783 290.229 408.521 289.977 408.234 289.757C407.921 289.574 407.587 289.428 407.24 289.322C407.623 289.317 407.998 289.428 408.315 289.64C408.632 289.852 408.876 290.154 409.014 290.507Z" fill="#263238"/>
<path d="M411.42 287.532C411.42 287.532 411.167 287.454 410.9 287.282C410.634 287.111 410.44 286.947 410.46 286.914C410.48 286.881 410.714 286.993 410.98 287.164C411.247 287.335 411.44 287.5 411.42 287.532Z" fill="#263238"/>
<path d="M412.074 286.73C412.074 286.763 411.847 286.73 411.587 286.651C411.327 286.572 411.134 286.473 411.141 286.434C411.309 286.418 411.479 286.446 411.634 286.513C411.887 286.572 412.087 286.664 412.074 286.73Z" fill="#263238"/>
<path d="M412.167 285.467C412.167 285.506 411.947 285.644 411.641 285.789C411.464 285.894 411.266 285.959 411.061 285.98C411.061 285.941 411.281 285.802 411.581 285.658C411.76 285.553 411.96 285.488 412.167 285.467Z" fill="#263238"/>
<path d="M412.034 284.69C412.034 284.69 411.84 284.954 411.494 285.144C411.297 285.276 411.065 285.345 410.827 285.342C411.018 285.215 411.221 285.107 411.434 285.019C411.761 284.842 412 284.657 412.034 284.69Z" fill="#263238"/>
<path d="M410.667 286.782C410.464 286.92 410.238 287.023 410 287.085C409.738 287.161 409.471 287.216 409.2 287.25C409.036 287.27 408.871 287.27 408.707 287.25C408.604 287.242 408.508 287.195 408.44 287.118C408.409 287.071 408.393 287.016 408.393 286.96C408.393 286.904 408.409 286.849 408.44 286.802C408.643 286.56 408.924 286.395 409.237 286.335C409.549 286.275 409.873 286.324 410.153 286.473C410.319 286.559 410.464 286.678 410.58 286.822C410.66 286.927 410.693 286.993 410.687 287C410.523 286.819 410.326 286.669 410.107 286.559C409.872 286.45 409.61 286.411 409.353 286.447C409.201 286.463 409.053 286.508 408.918 286.58C408.783 286.652 408.663 286.75 408.567 286.868C408.493 286.993 408.567 287.098 408.747 287.118C408.9 287.131 409.054 287.131 409.207 287.118C409.472 287.092 409.735 287.046 409.993 286.98C410.373 286.875 410.667 286.763 410.667 286.782Z" fill="#263238"/>
<path d="M410.48 286.894C410.332 286.79 410.227 286.635 410.187 286.46C410.128 286.275 410.115 286.079 410.147 285.888C410.158 285.761 410.202 285.64 410.275 285.535C410.347 285.43 410.445 285.345 410.56 285.289C410.727 285.236 411.114 285.572 411.14 285.697C411.167 285.822 410.947 285.756 410.934 285.861C410.912 286.048 410.867 286.231 410.8 286.407C410.752 286.577 410.66 286.731 410.534 286.855C410.534 286.855 410.614 286.677 410.707 286.381C410.755 286.206 410.788 286.028 410.807 285.848C410.807 285.664 410.807 285.381 410.594 285.427C410.38 285.473 410.32 285.73 410.274 285.914C410.233 286.085 410.233 286.263 410.274 286.434C410.329 286.593 410.398 286.747 410.48 286.894Z" fill="#263238"/>
<path d="M421.647 281.045C421.647 281.045 421.327 281.157 420.874 281.427C420.281 281.776 419.798 282.282 419.48 282.887C419.172 283.498 419.04 284.181 419.1 284.861C419.14 285.388 419.267 285.69 419.24 285.704C419.197 285.638 419.163 285.567 419.14 285.493C419.074 285.292 419.027 285.085 419 284.874C418.905 284.174 419.028 283.461 419.353 282.831C419.678 282.201 420.19 281.683 420.82 281.348C421.009 281.245 421.208 281.161 421.414 281.098C421.488 281.069 421.567 281.051 421.647 281.045Z" fill="#263238"/>
<path d="M417.453 285.349C416.514 285.994 415.463 286.466 414.354 286.743C414.354 286.704 415.053 286.441 415.907 286.085C416.76 285.73 417.433 285.316 417.453 285.349Z" fill="#263238"/>
<path d="M419.527 284.407C419.56 284.407 419.527 284.571 419.527 284.762C419.527 284.953 419.527 285.111 419.527 285.124C419.527 285.137 419.394 284.979 419.394 284.762C419.394 284.545 419.494 284.387 419.527 284.407Z" fill="#263238"/>
<path d="M419.867 283.092C419.9 283.092 419.867 283.243 419.827 283.401C419.787 283.559 419.687 283.677 419.653 283.664C419.62 283.651 419.653 283.513 419.693 283.355C419.733 283.197 419.827 283.079 419.867 283.092Z" fill="#263238"/>
<path d="M420.787 282.124C420.787 282.164 420.654 282.223 420.52 282.348C420.387 282.473 420.314 282.604 420.28 282.591C420.247 282.578 420.28 282.394 420.427 282.243C420.574 282.091 420.78 282.124 420.787 282.124Z" fill="#263238"/>
<path d="M421.487 281.584C421.487 281.584 421.487 281.69 421.407 281.762C421.327 281.834 421.253 281.874 421.227 281.848C421.2 281.821 421.227 281.742 421.307 281.67C421.387 281.598 421.46 281.558 421.487 281.584Z" fill="#263238"/>
<path d="M408.374 147.655L406.427 124.165L416.427 124.342C416.427 124.342 416.887 120.875 415.414 113.281C414.507 108.623 411.367 105.767 407.84 104.069V104.004L407.534 103.925C404.631 102.638 401.53 101.84 398.36 101.562L386.06 101.701C386.06 101.701 376.667 100.516 371.487 107.155C369.487 109.702 363.28 127.132 363.28 127.132L378.047 134.147L376.667 124.481C376.667 124.481 376.947 131.488 377.854 133.693C378.354 134.93 379.854 138.772 379.854 138.772L379.66 150.366L408.374 147.655Z" fill="#0066AE"/>
<path d="M401.593 120.756L399.767 128.428H416.987L415.853 115.558L401.593 120.756Z" fill="#0066AE"/>
<path d="M416.987 128.429C416.234 128.292 415.472 128.217 414.707 128.205C413.293 128.126 411.373 128.054 409.187 128.067C407 128.08 405.073 128.172 403.66 128.278C402.896 128.304 402.135 128.396 401.387 128.554C402.15 128.614 402.917 128.614 403.68 128.554C405.087 128.508 407.013 128.455 409.187 128.449C411.36 128.442 413.287 128.449 414.7 128.482C415.462 128.524 416.227 128.506 416.987 128.429Z" fill="#263238"/>
<path d="M400.847 115.499C400.765 116.154 400.747 116.815 400.794 117.473C400.794 118.677 400.847 120.335 400.921 122.171C400.994 124.007 401.081 125.672 401.161 126.869C401.164 127.533 401.235 128.194 401.374 128.843C401.456 128.188 401.474 127.527 401.427 126.869C401.427 125.665 401.374 124 401.301 122.165C401.227 120.329 401.141 118.671 401.061 117.466C401.058 116.805 400.986 116.146 400.847 115.499Z" fill="#263238"/>
<g opacity="0.3">
<path d="M385.181 122.145C385.181 122.145 389.007 150.156 399.767 149.412C399.767 149.412 404.614 149.359 406.167 146.181V144.931L385.181 122.145Z" fill="black"/>
</g>
<g opacity="0.3">
<path d="M400.847 117.15L398.787 130.883L400.12 133.291L402.32 128.58L401.387 128.554L400.847 117.15Z" fill="black"/>
</g>
<path d="M379.794 138.785C379.666 138.58 379.567 138.359 379.501 138.127C379.334 137.7 379.114 137.074 378.834 136.291C378.166 134.251 377.616 132.175 377.187 130.073C376.759 127.97 376.487 125.839 376.374 123.697C376.334 122.875 376.321 122.21 376.334 121.723C376.317 121.485 376.332 121.246 376.381 121.013C376.434 121.013 376.474 122.026 376.614 123.645C376.802 125.767 377.106 127.878 377.527 129.968C378.021 132.416 378.614 134.607 379.067 136.18C379.281 136.91 379.461 137.535 379.607 138.048C379.699 138.286 379.761 138.533 379.794 138.785Z" fill="#263238"/>
<path d="M384.14 146.833C384.047 146.833 383.78 146.26 383.547 145.517C383.346 145.061 383.257 144.565 383.287 144.069C383.581 144.471 383.783 144.932 383.88 145.418C384.072 145.865 384.16 146.348 384.14 146.833Z" fill="#263238"/>
<path d="M385.627 146.727C385.123 145.407 385.101 143.955 385.567 142.621C385.619 143.304 385.619 143.991 385.567 144.674C385.639 145.356 385.659 146.042 385.627 146.727Z" fill="#263238"/>
<path d="M378.347 134.469C378.3 134.548 374.867 132.942 370.674 130.876C366.48 128.81 363.114 127.059 363.154 126.974C363.194 126.888 366.634 128.501 370.827 130.567C375.02 132.633 378.387 134.383 378.347 134.469Z" fill="#263238"/>
<path d="M384.4 103.971C384.473 100.641 384.493 97.1405 384.493 97.1405C384.493 97.1405 380.167 96.318 379.413 90.6987C378.693 85.3425 380.707 72.7682 380.707 72.7682C387.027 70.4125 393.593 72.551 397.92 77.6045L396.847 104.629C396.72 107.767 393.887 110.162 390.487 110.004C387.047 109.84 384.327 107.142 384.4 103.971Z" fill="#B78876"/>
<path d="M380.373 82.8161C380.368 83.0006 380.433 83.1803 380.557 83.3185C380.681 83.4567 380.854 83.5429 381.04 83.5596C381.135 83.5687 381.23 83.5586 381.321 83.53C381.411 83.5014 381.495 83.4549 381.567 83.3933C381.638 83.3317 381.697 83.2564 381.738 83.1718C381.779 83.0873 381.803 82.9954 381.807 82.9016C381.813 82.7179 381.747 82.5389 381.622 82.4018C381.498 82.2646 381.326 82.1798 381.14 82.1647C381.045 82.1504 380.948 82.1567 380.856 82.1829C380.763 82.2091 380.678 82.2547 380.605 82.3166C380.532 82.3784 380.474 82.4551 380.434 82.5413C380.394 82.6275 380.373 82.7213 380.373 82.8161Z" fill="#263238"/>
<path d="M380.107 81.8748C380.194 81.9669 380.774 81.5787 381.54 81.605C382.307 81.6314 382.874 82.0262 382.967 81.934C383.06 81.8419 382.927 81.7235 382.68 81.5327C382.346 81.294 381.946 81.163 381.534 81.1576C381.127 81.1423 380.727 81.2578 380.394 81.4866C380.147 81.6643 380.06 81.8288 380.107 81.8748Z" fill="#263238"/>
<path d="M388.314 83.3024C388.307 83.4873 388.372 83.6679 388.496 83.8065C388.62 83.945 388.794 84.0308 388.981 84.046C389.076 84.0603 389.174 84.0539 389.267 84.0273C389.359 84.0007 389.445 83.9545 389.518 83.8919C389.591 83.8294 389.649 83.7519 389.689 83.6648C389.729 83.5778 389.749 83.4833 389.747 83.388C389.755 83.2038 389.689 83.0239 389.565 82.8864C389.441 82.7489 389.267 82.6645 389.081 82.651C388.986 82.6368 388.889 82.643 388.796 82.6692C388.704 82.6954 388.619 82.741 388.546 82.8029C388.473 82.8648 388.415 82.9414 388.375 83.0276C388.335 83.1139 388.314 83.2076 388.314 83.3024Z" fill="#263238"/>
<path d="M388.26 82.3616C388.347 82.4603 388.927 82.0721 389.694 82.0919C390.46 82.1116 391.027 82.513 391.127 82.4209C391.227 82.3287 391.08 82.2103 390.834 82.0261C390.505 81.7811 390.105 81.6473 389.694 81.6444C389.286 81.6324 388.885 81.7475 388.547 81.9734C388.307 82.1511 388.22 82.3156 388.26 82.3616Z" fill="#263238"/>
<path d="M385.274 88.0139C384.865 87.875 384.439 87.7888 384.007 87.7573C383.807 87.7573 383.621 87.6849 383.594 87.5533C383.578 87.3476 383.629 87.1423 383.741 86.9677L384.367 85.4872C384.95 84.2289 385.43 82.9262 385.801 81.5918C385.118 82.8008 384.534 84.0616 384.054 85.3621C383.847 85.882 383.641 86.382 383.447 86.8558C383.318 87.0909 383.275 87.3631 383.327 87.6257C383.353 87.697 383.396 87.7614 383.451 87.8139C383.507 87.8664 383.574 87.9056 383.647 87.9283C383.758 87.96 383.872 87.9776 383.987 87.981C384.413 88.0457 384.845 88.0567 385.274 88.0139Z" fill="#263238"/>
<path d="M384.494 97.1406C387.161 97.2459 389.806 96.6196 392.134 95.3311C392.134 95.3311 390.194 99.1277 384.534 98.4631L384.494 97.1406Z" fill="#A36957"/>
<path d="M390.767 80.1179C390.607 80.3613 390.007 80.2561 389.341 80.1179C388.674 79.9797 388.087 79.8678 388.007 79.5849C387.927 79.302 388.627 78.9269 389.521 79.1046C390.414 79.2822 390.927 79.9073 390.767 80.1179Z" fill="#263238"/>
<path d="M382.987 78.9998C382.927 79.2828 382.287 79.3881 381.554 79.421C380.821 79.4539 380.174 79.421 380.087 79.1314C380.001 78.8419 380.621 78.434 381.507 78.3945C382.394 78.355 383.047 78.7301 382.987 78.9998Z" fill="#263238"/>
<path d="M385.287 89.8629C385.203 89.8432 385.114 89.852 385.036 89.8878C384.957 89.9235 384.893 89.9843 384.854 90.0603C384.816 90.1274 384.796 90.2031 384.797 90.28C384.798 90.3568 384.819 90.4321 384.858 90.4984C384.898 90.5647 384.954 90.6196 385.022 90.6578C385.089 90.696 385.166 90.7161 385.244 90.7161C385.321 90.7161 385.398 90.696 385.465 90.6578C385.533 90.6196 385.589 90.5647 385.629 90.4984C385.668 90.4321 385.689 90.3568 385.69 90.28C385.691 90.2031 385.671 90.1274 385.634 90.0603C385.586 89.9719 385.509 89.9023 385.415 89.8628C385.322 89.8233 385.218 89.8164 385.12 89.8432" fill="#A36957"/>
<path d="M385.467 89.942C385.467 89.9091 385.34 89.7183 385 89.7907C384.899 89.8168 384.806 89.8689 384.731 89.9417C384.656 90.0144 384.602 90.1053 384.574 90.2052C384.538 90.3312 384.541 90.4648 384.582 90.5891C384.624 90.7133 384.702 90.8225 384.807 90.9027C384.918 90.9777 385.049 91.0178 385.184 91.0178C385.318 91.0178 385.449 90.9777 385.56 90.9027C385.649 90.8438 385.719 90.761 385.761 90.6642C385.804 90.5675 385.817 90.4607 385.8 90.3566C385.734 90.0078 385.474 89.9552 385.46 90.0012C385.447 90.0473 385.554 90.1657 385.534 90.3697C385.529 90.4201 385.512 90.4687 385.484 90.5111C385.456 90.5536 385.418 90.5886 385.374 90.6132C385.322 90.6426 385.263 90.6581 385.204 90.6581C385.144 90.6581 385.085 90.6426 385.034 90.6132C384.987 90.5742 384.952 90.5241 384.931 90.4676C384.91 90.4111 384.904 90.3502 384.914 90.2908C384.921 90.2388 384.942 90.1894 384.973 90.147C385.004 90.1046 385.046 90.0703 385.094 90.0473C385.28 89.9354 385.447 89.9881 385.467 89.942Z" fill="#263238"/>
<path d="M395.333 84.2046C394.667 85.7443 393.013 86.9353 393.24 88.6C393.387 89.6726 394.087 90.6727 393.953 91.7519C393.78 93.0679 392.36 94.0417 392.153 95.3906C391.907 97.0422 393.54 98.3253 394.187 99.865C395.14 102.115 393.927 104.642 393.893 107.103C393.933 108.971 394.657 110.762 395.932 112.144C397.207 113.526 398.946 114.404 400.827 114.617C402.347 114.742 404.06 114.288 404.827 112.999C405.493 111.933 405.347 110.577 405.733 109.399C406.32 107.636 408.02 106.346 408.4 104.53C409.067 101.24 405 98.4766 405.267 95.1077C405.38 93.6666 406.28 92.4164 406.66 91.0215C406.902 90.1047 406.921 89.1444 406.714 88.2192C406.508 87.294 406.083 86.4301 405.473 85.6983C404.467 84.5204 403.013 83.7243 402.14 82.4609C401.173 81.0067 401.14 79.1709 400.807 77.4535C400.359 75.3661 399.383 73.4247 397.968 71.8109C396.554 70.1971 394.749 68.9635 392.72 68.2254C390.692 67.4873 388.507 67.2689 386.37 67.5904C384.233 67.912 382.213 68.7631 380.5 70.0642C380.5 70.0642 379.533 74.4004 384.047 75.1308C388.56 75.8612 390.647 75.0189 391.153 76.8021C391.034 77.5367 391.093 78.2887 391.324 78.9967C391.556 79.7046 391.954 80.3483 392.487 80.8751C394.327 82.836 396.08 82.4148 395.333 84.2046Z" fill="#263238"/>
<path d="M402.501 114.282C402.362 114.287 402.223 114.273 402.087 114.242C401.696 114.174 401.313 114.071 400.941 113.933C399.564 113.412 398.357 112.532 397.447 111.387C396.81 110.596 396.31 109.707 395.967 108.755C395.578 107.67 395.373 106.53 395.361 105.379C395.347 104.111 395.508 102.847 395.841 101.622C396.022 100.975 396.245 100.34 396.507 99.7204C396.783 99.1038 397.025 98.4735 397.234 97.832C397.417 97.1998 397.417 96.5296 397.234 95.8975C397.039 95.2751 396.787 94.6717 396.481 94.0945C396.172 93.5222 395.911 92.9258 395.701 92.3114C395.495 91.7032 395.447 91.0541 395.561 90.4229C395.827 89.1859 396.587 88.2647 397.041 87.3237C397.472 86.4527 397.679 85.4896 397.641 84.5206C397.58 83.1026 397.059 81.7415 396.154 80.6384C395.804 80.252 395.427 79.8893 395.027 79.5527C395.495 79.812 395.912 80.1505 396.261 80.5529C397.232 81.6543 397.804 83.0432 397.887 84.5009C397.942 85.5121 397.741 86.5208 397.301 87.4356C396.841 88.4094 396.101 89.3372 395.874 90.469C395.647 91.6007 396.187 92.7917 396.781 93.9366C397.104 94.5303 397.368 95.154 397.567 95.7988C397.764 96.4872 397.764 97.2159 397.567 97.9044C397.345 98.5682 397.09 99.2204 396.801 99.8586C396.539 100.465 396.316 101.087 396.134 101.721C395.803 102.915 395.639 104.148 395.647 105.386C395.627 107.494 396.316 109.549 397.607 111.229C398.471 112.36 399.62 113.247 400.941 113.802C401.934 114.183 402.507 114.242 402.501 114.282Z" fill="#455A64"/>
<path d="M401.834 81.079C401.509 81.162 401.176 81.2105 400.84 81.2237C399.926 81.3203 399.002 81.296 398.094 81.1513C397.405 81.0507 396.744 80.8156 396.149 80.4597C395.554 80.1038 395.036 79.6343 394.627 79.0786C394.246 78.3757 393.942 77.6345 393.72 76.8678C393.436 76.1019 392.901 75.4513 392.2 75.0188C390.74 74.1042 389.027 73.9923 387.534 73.8146C386.156 73.7469 384.819 73.3348 383.647 72.6171C382.862 72.1038 382.295 71.3242 382.054 70.4259C381.996 70.1825 381.98 69.9311 382.007 69.6824C382.007 69.5113 382.047 69.4258 382.06 69.4258C382.068 69.7517 382.111 70.0759 382.187 70.393C382.463 71.2329 383.029 71.9503 383.787 72.4197C384.937 73.0821 386.236 73.4529 387.567 73.4988C389.06 73.6699 390.834 73.7554 392.394 74.7293C393.157 75.2024 393.739 75.9132 394.047 76.7493C394.256 77.4966 394.544 78.22 394.907 78.9076C395.684 79.9589 396.847 80.6677 398.147 80.8816C399.026 81.0428 399.921 81.1024 400.814 81.0592C401.154 81.0404 401.495 81.047 401.834 81.079Z" fill="#455A64"/>
<path d="M400.18 75.7224C399.929 75.8053 399.665 75.8431 399.4 75.8342C398.157 75.8425 396.961 75.3701 396.067 74.5182C395.659 74.1146 395.311 73.656 395.033 73.1562C394.433 72.156 393.853 70.9255 392.607 70.4123C391.406 70.0146 390.126 69.9041 388.873 70.0899C387.816 70.2364 386.744 70.2364 385.687 70.0899C384.951 69.9892 384.259 69.6884 383.687 69.2213C383.539 69.0941 383.409 68.9481 383.3 68.787C383.22 68.673 383.187 68.6138 383.2 68.6094C383.2 68.6094 383.387 68.8199 383.773 69.116C384.343 69.5162 385.006 69.7695 385.7 69.853C386.738 69.9685 387.787 69.9508 388.82 69.8004C390.128 69.5896 391.468 69.7026 392.72 70.1294C393.364 70.4149 393.915 70.8703 394.313 71.4454C394.665 71.9583 394.988 72.4899 395.28 73.0377C395.543 73.516 395.868 73.9583 396.247 74.3537C396.581 74.688 396.966 74.9699 397.387 75.1894C398.007 75.5089 398.689 75.6951 399.387 75.7355C399.9 75.7289 400.173 75.6895 400.18 75.7224Z" fill="#455A64"/>
<path d="M404.487 112.861C404.454 112.861 404.667 112.426 404.914 111.61C405.248 110.465 405.396 109.275 405.354 108.084C405.305 106.32 404.818 104.596 403.934 103.063C403.447 102.201 402.707 101.431 402.1 100.484C401.779 100.001 401.553 99.463 401.434 98.8978C401.328 98.303 401.379 97.6915 401.58 97.1212C401.954 95.9829 402.62 95.0288 402.767 93.9826C402.914 92.9364 402.407 92.0086 401.9 91.1334C401.639 90.7076 401.401 90.2683 401.187 89.8174C400.992 89.3802 400.864 88.9167 400.807 88.4422C400.744 87.6061 400.771 86.7658 400.887 85.9352C401.1 84.7612 400.99 83.5521 400.567 82.4347C400.378 82.0432 400.111 81.694 399.78 81.4082C399.78 81.4082 399.814 81.4082 399.86 81.4477C399.939 81.4864 400.011 81.5375 400.074 81.599C400.334 81.8134 400.546 82.0804 400.694 82.382C401.176 83.5091 401.326 84.7475 401.127 85.955C401.035 86.7701 401.024 87.5921 401.094 88.4093C401.258 89.3287 401.627 90.2006 402.174 90.9624C402.458 91.407 402.701 91.8761 402.9 92.3639C403.11 92.8905 403.179 93.4616 403.1 94.0221C402.94 95.1736 402.254 96.1474 401.907 97.2199C401.725 97.7374 401.677 98.2916 401.767 98.832C401.883 99.3548 402.096 99.8521 402.394 100.299C402.96 101.214 403.727 101.997 404.214 102.898C405.107 104.483 405.584 106.264 405.6 108.077C405.621 109.291 405.432 110.499 405.04 111.65C404.934 111.961 404.804 112.265 404.654 112.558C404.613 112.666 404.557 112.768 404.487 112.861Z" fill="#455A64"/>
<path d="M377.333 235.465C377.333 235.465 372.84 193.458 372.58 177.936C372.32 162.414 379.653 147.096 379.653 147.096L408.373 145.918C408.373 145.918 414.053 161.664 414.153 168.29C414.353 181.147 410.693 193.84 411.113 204.039L412.073 235.492" fill="#263238"/>
<path d="M413.04 183.819C412.89 183.948 412.732 184.066 412.567 184.175L412.307 184.352L412.027 184.622C411.78 184.833 411.556 185.069 411.36 185.326C410.433 186.445 409.76 188.452 409.113 190.945C408.783 192.329 408.295 193.671 407.66 194.946C407.467 195.295 407.244 195.628 406.993 195.94C406.873 196.098 406.76 196.269 406.62 196.42L406.18 196.854C405.55 197.436 404.818 197.899 404.02 198.223C402.413 198.92 400.593 199.249 398.94 200.072C397.246 200.971 395.937 202.443 395.253 204.217C394.44 206.001 393.92 207.869 393.253 209.62C392.587 211.37 391.687 213.041 390.253 214.107C388.883 215.047 387.255 215.554 385.587 215.561C384.04 215.653 382.607 215.607 381.32 215.798C380.162 215.917 379.055 216.329 378.107 216.996C377.414 217.53 376.895 218.253 376.613 219.075C376.434 219.594 376.395 220.149 376.5 220.687C376.58 221.056 376.68 221.233 376.66 221.24C376.553 221.075 376.476 220.892 376.433 220.7C376.293 220.151 376.311 219.574 376.487 219.035C376.752 218.173 377.274 217.409 377.987 216.844C378.959 216.12 380.11 215.666 381.32 215.528C382.653 215.318 384.073 215.344 385.6 215.245C387.22 215.235 388.798 214.739 390.127 213.824C391.474 212.662 392.468 211.154 393 209.468C393.667 207.738 394.153 205.862 395 204.046C395.717 202.199 397.085 200.669 398.853 199.736C400.573 198.894 402.393 198.572 403.96 197.901C404.727 197.587 405.431 197.142 406.04 196.585L406.46 196.17C406.593 196.025 406.707 195.861 406.827 195.709C407.062 195.41 407.269 195.091 407.447 194.755C408.085 193.498 408.579 192.173 408.92 190.807C409.587 188.32 410.313 186.287 411.293 185.162C411.488 184.905 411.712 184.671 411.96 184.464C412.067 184.372 412.16 184.28 412.253 184.208L412.527 184.036C412.693 183.954 412.865 183.881 413.04 183.819Z" fill="#FAFAFA"/>
<path d="M413.214 164.382C413.244 164.567 413.258 164.754 413.254 164.941C413.252 165.484 413.185 166.026 413.054 166.553C412.48 168.478 411.352 170.197 409.807 171.501C408.788 172.427 407.67 173.241 406.474 173.929C405.187 174.68 403.767 175.397 402.307 176.213C400.774 177.024 399.345 178.016 398.054 179.167C396.729 180.465 395.638 181.976 394.827 183.635C394.01 185.317 393.076 186.941 392.034 188.498C391.504 189.223 390.891 189.885 390.207 190.472C389.533 191.038 388.792 191.521 388 191.913C386.568 192.607 385.075 193.173 383.54 193.604C382.114 194.038 380.78 194.426 379.62 194.92C378.568 195.333 377.566 195.863 376.634 196.499C375.933 196.979 375.302 197.552 374.76 198.203C374.307 198.767 373.928 199.386 373.634 200.045C373.681 199.863 373.744 199.685 373.82 199.512C374.039 199.015 374.319 198.547 374.654 198.117C375.186 197.439 375.814 196.841 376.52 196.341C377.457 195.682 378.465 195.13 379.527 194.696C380.811 194.179 382.122 193.729 383.454 193.347C384.967 192.906 386.439 192.338 387.854 191.649C388.604 191.263 389.309 190.795 389.954 190.254C390.612 189.676 391.202 189.027 391.714 188.32C392.742 186.771 393.666 185.158 394.48 183.49C395.317 181.794 396.445 180.253 397.814 178.937C399.128 177.769 400.584 176.765 402.147 175.949C403.614 175.14 405.034 174.436 406.32 173.693C407.513 173.027 408.631 172.237 409.654 171.337C411.185 170.072 412.323 168.404 412.934 166.527C413.105 165.824 413.199 165.105 413.214 164.382Z" fill="#FAFAFA"/>
<path d="M372.727 180.134C372.701 180.094 372.68 180.049 372.667 180.003C372.617 179.876 372.575 179.746 372.54 179.614C372.426 179.091 372.449 178.547 372.607 178.035C372.98 176.719 374.454 175.028 376.827 174.193C378.014 173.791 379.354 173.535 380.754 173.192C381.916 173.002 383.016 172.54 383.961 171.846C384.906 171.151 385.669 170.243 386.187 169.198C386.566 168.431 386.898 167.643 387.18 166.836C387.702 165.085 388.41 163.393 389.294 161.789C390.306 160.213 391.843 159.034 393.64 158.453C395.275 157.93 396.943 157.512 398.634 157.203C400.142 156.917 401.603 156.425 402.974 155.742C404.135 155.087 405.136 154.189 405.907 153.11C407.045 151.553 407.694 149.699 407.774 147.78C407.777 147.076 407.73 146.373 407.634 145.675C407.835 146.358 407.927 147.069 407.907 147.78C407.881 149.741 407.253 151.647 406.107 153.248C405.326 154.363 404.304 155.291 403.114 155.966C401.725 156.675 400.241 157.186 398.707 157.486C397.032 157.8 395.38 158.219 393.76 158.743C392.035 159.301 390.559 160.433 389.587 161.947C388.717 163.529 388.018 165.196 387.5 166.922C387.212 167.743 386.872 168.545 386.48 169.323C386.085 170.071 385.582 170.758 384.987 171.363C383.816 172.417 382.375 173.134 380.82 173.436C379.407 173.791 378.074 174.015 376.907 174.396C374.594 175.173 373.127 176.772 372.734 178.048C372.572 178.541 372.529 179.063 372.607 179.575C372.663 179.758 372.704 179.945 372.727 180.134Z" fill="#FAFAFA"/>
<path d="M410.747 215.666C410.775 215.803 410.79 215.941 410.794 216.081C410.807 216.479 410.764 216.878 410.667 217.265C410.249 218.692 409.362 219.941 408.147 220.818C407.336 221.456 406.439 221.979 405.481 222.371C404.461 222.799 403.334 223.141 402.147 223.503C400.916 223.858 399.711 224.298 398.541 224.819C397.326 225.392 396.236 226.194 395.334 227.181C394.361 228.181 393.521 229.28 392.587 230.254C391.695 231.197 390.658 231.996 389.514 232.623C387.568 233.671 385.391 234.231 383.174 234.255C381.689 234.27 380.213 234.028 378.814 233.537C378.434 233.408 378.064 233.252 377.707 233.07C377.577 233.017 377.454 232.948 377.341 232.866C377.475 232.903 377.607 232.949 377.734 233.004C378.1 233.159 378.474 233.295 378.854 233.412C380.251 233.845 381.711 234.047 383.174 234.011C385.342 233.956 387.464 233.385 389.361 232.346C390.469 231.727 391.474 230.944 392.341 230.024C393.254 229.063 394.087 227.971 395.081 226.944C396.036 225.92 397.187 225.093 398.467 224.51C399.655 223.986 400.878 223.547 402.127 223.194C403.301 222.838 404.421 222.536 405.461 222.101C406.391 221.725 407.266 221.227 408.061 220.621C409.255 219.788 410.146 218.597 410.601 217.225C410.699 216.711 410.748 216.189 410.747 215.666Z" fill="#FAFAFA"/>
<path d="M407.474 128.455L401.914 128.587C401.7 129.693 401.274 130.75 400.66 131.699C395.993 123.737 392.414 113.078 391.52 108.794C391.654 108.367 391.807 107.893 392 107.366C392.139 106.567 392.114 105.748 391.927 104.958C391.767 104.004 391.5 102.721 391.42 102.129C391.174 100.313 390.873 100.03 390.233 100.234C389.367 100.517 390.594 105.32 389.88 105.425C389.494 105.478 389.027 103.833 388.894 102.484C388.76 101.135 388.134 96.9766 387.687 96.7002C387.02 96.2922 386.44 96.9371 386.613 98.2794C386.787 99.6217 386.993 103.701 386.273 103.761C385.553 103.82 384.94 96.9239 384.94 96.9239C384.94 96.9239 385.054 95.4237 384.214 95.4566C382.707 95.5224 383.887 102.787 384.014 103.478C384.107 103.951 383.347 104.043 383.254 103.524C383.16 103.004 382.814 96.6344 381.254 96.687C380.067 96.687 382.167 102.668 381.5 104.05C380.834 105.432 380.38 99.3651 379.254 99.4441C378.834 99.477 378.52 99.5559 379.294 102.984C380.034 105.708 380.924 108.39 381.96 111.018C383.747 120.526 391.587 150.946 403.874 145.379C410.754 142.26 413.54 128.455 413.54 128.455H407.474Z" fill="#B78876"/>
<path d="M383.773 103.938C383.826 103.951 383.881 103.951 383.933 103.938C384.014 103.914 384.083 103.862 384.128 103.792C384.173 103.722 384.192 103.638 384.18 103.556C384.18 103.148 384.1 102.556 384.007 101.786C383.85 100.858 383.748 99.9224 383.7 98.9831C383.7 98.4303 383.7 97.8381 383.733 97.213C383.743 96.8952 383.777 96.5785 383.833 96.2655C383.887 95.9694 384.087 95.6075 384.32 95.6667H384.36C384.593 95.6667 384.78 95.8378 384.853 96.1142C384.936 96.4006 384.967 96.6989 384.947 96.9959C385.084 98.8387 385.322 100.673 385.66 102.49C385.713 102.734 385.767 102.984 385.847 103.234C385.882 103.362 385.927 103.487 385.98 103.609C386.014 103.677 386.052 103.742 386.093 103.806C386.123 103.854 386.164 103.895 386.213 103.925C386.261 103.954 386.316 103.972 386.373 103.977C386.47 103.967 386.562 103.928 386.637 103.866C386.712 103.804 386.766 103.721 386.793 103.629C386.851 103.5 386.893 103.365 386.92 103.227C386.972 102.962 387.007 102.694 387.027 102.424C387.087 101.328 387.072 100.229 386.98 99.1344C386.896 98.588 386.873 98.0341 386.913 97.4828C386.938 97.2447 387.055 97.0252 387.24 96.8709C387.283 96.8458 387.33 96.8299 387.38 96.8242C387.429 96.8186 387.479 96.8232 387.527 96.838C387.583 96.8514 387.637 96.8736 387.687 96.9038C387.72 96.9288 387.746 96.9631 387.76 97.0025C387.97 97.5361 388.124 98.0895 388.22 98.6541C388.34 99.2331 388.44 99.8319 388.533 100.431C388.627 101.029 388.713 101.635 388.787 102.247C388.844 102.878 388.946 103.505 389.093 104.122C389.172 104.438 389.272 104.748 389.393 105.05C389.461 105.219 389.556 105.377 389.673 105.517C389.718 105.575 389.779 105.62 389.849 105.645C389.918 105.671 389.994 105.677 390.067 105.662C390.134 105.64 390.195 105.601 390.243 105.549C390.291 105.497 390.324 105.434 390.34 105.366C390.419 105.029 390.444 104.683 390.413 104.339C390.413 104.01 390.373 103.681 390.34 103.365C390.293 102.813 390.24 102.266 390.22 101.727C390.203 101.462 390.203 101.196 390.22 100.931C390.233 100.813 390.262 100.698 390.307 100.589C390.32 100.552 390.341 100.519 390.367 100.49H390.453C390.893 100.312 391.04 100.918 391.16 101.404C391.28 101.891 391.327 102.444 391.433 102.964C391.607 103.997 391.833 105.03 391.947 106.017C392.024 106.49 392.006 106.973 391.893 107.438C391.733 107.912 391.573 108.379 391.42 108.846V108.893V108.932C392.201 112.165 393.196 115.343 394.4 118.447C395.453 121.256 396.513 123.711 397.44 125.685C398.367 127.659 399.207 129.205 399.78 130.245L400.447 131.422C400.519 131.563 400.606 131.695 400.707 131.817C400.651 131.671 400.581 131.53 400.5 131.396L399.833 130.192C399.287 129.133 398.5 127.56 397.593 125.586C396.687 123.612 395.66 121.158 394.633 118.348C393.459 115.249 392.483 112.08 391.713 108.86V108.952C391.867 108.491 392.02 108.024 392.18 107.557C392.319 107.044 392.346 106.508 392.26 105.984C392.14 104.951 391.92 103.951 391.747 102.911C391.647 102.398 391.58 101.872 391.473 101.332C391.466 101.055 391.419 100.78 391.333 100.516C391.257 100.356 391.128 100.226 390.967 100.148C390.796 100.092 390.611 100.092 390.44 100.148H390.333C390.277 100.166 390.225 100.195 390.18 100.233C390.106 100.295 390.049 100.374 390.013 100.464C389.952 100.606 389.914 100.757 389.9 100.911C389.88 101.196 389.88 101.482 389.9 101.766C389.9 102.319 389.98 102.872 390.027 103.425C390.027 103.747 390.08 104.083 390.093 104.379C390.12 104.675 390.104 104.974 390.047 105.267C390.047 105.333 389.993 105.32 390.047 105.352L390.007 105.313C389.922 105.206 389.854 105.086 389.807 104.958C389.69 104.673 389.594 104.381 389.52 104.083C389.374 103.483 389.273 102.874 389.22 102.26C389.149 101.641 389.062 101.029 388.96 100.424C388.867 99.8187 388.76 99.2265 388.64 98.6343C388.539 98.0315 388.369 97.4421 388.133 96.8775C388.088 96.7831 388.016 96.7033 387.927 96.6472C387.849 96.6027 387.766 96.5674 387.68 96.5419C387.585 96.5172 387.486 96.5115 387.389 96.5251C387.291 96.5387 387.198 96.5712 387.113 96.6208C386.976 96.7222 386.861 96.8505 386.776 96.9977C386.691 97.1449 386.638 97.3078 386.62 97.4762C386.577 97.7752 386.577 98.0787 386.62 98.3777C386.62 98.6606 386.687 98.937 386.707 99.2134C386.799 100.29 386.819 101.371 386.767 102.451C386.751 102.707 386.718 102.962 386.667 103.214C386.647 103.332 386.614 103.447 386.567 103.556C386.549 103.6 386.525 103.64 386.493 103.675C386.493 103.734 386.447 103.675 386.453 103.754C386.453 103.688 386.453 103.754 386.453 103.668C386.424 103.624 386.397 103.577 386.373 103.53C386.327 103.425 386.287 103.306 386.247 103.194C386.173 102.957 386.12 102.714 386.067 102.477C385.719 100.675 385.467 98.8567 385.313 97.0288C385.333 96.698 385.295 96.3662 385.2 96.0484C385.156 95.8826 385.066 95.7322 384.94 95.6141C384.875 95.5519 384.797 95.5034 384.713 95.4718C384.628 95.4401 384.537 95.4258 384.447 95.4299H384.487C384.374 95.4136 384.259 95.4305 384.155 95.4785C384.052 95.5264 383.966 95.6034 383.907 95.6996C383.807 95.8566 383.74 96.0308 383.707 96.2129C383.651 96.5391 383.619 96.869 383.613 97.1999C383.613 97.8579 383.613 98.4303 383.613 98.9896C383.677 99.9349 383.799 100.875 383.98 101.806C384.093 102.569 384.18 103.161 384.22 103.563C384.233 103.633 384.22 103.706 384.185 103.768C384.15 103.83 384.094 103.879 384.027 103.905C383.827 103.925 383.767 103.931 383.773 103.938Z" fill="#A36957"/>
<path d="M340.354 137.516C339.053 137.488 337.754 137.637 336.494 137.957C333.047 138.852 327.107 142.405 326.86 146.794H331.18C331.18 146.794 328.76 151.873 329.467 151.4C331.314 150.176 334.98 146.498 334.98 146.498L340.354 137.516Z" fill="#B78876"/>
<path d="M399.24 61.0361C399.14 61.0361 398.754 57.5224 398.367 53.1401C397.98 48.7579 397.74 45.2441 397.834 45.2441C397.927 45.2441 398.32 48.7579 398.707 53.1401C399.094 57.5224 399.334 61.0361 399.24 61.0361Z" fill="#263238"/>
<path d="M418.18 45.5142C418.254 45.5668 415.34 49.7451 411.667 54.8446C407.994 59.9441 404.947 64.0566 404.867 63.9777C404.787 63.8987 407.707 59.7467 411.38 54.6472C415.054 49.5477 418.1 45.4615 418.18 45.5142Z" fill="#263238"/>
<path d="M426.047 64.4515C426.047 64.5436 422.66 65.3135 418.447 66.1689C414.234 67.0243 410.794 67.6428 410.774 67.5507C410.754 67.4585 414.154 66.6887 418.374 65.8333C422.594 64.9779 426 64.3594 426.047 64.4515Z" fill="#263238"/>
<path d="M199.333 154.827L175.733 274.451L172.666 290.112L329.999 289.362C337.066 289.329 343.333 283.137 345.593 273.938L373.499 161.006C375.226 154.024 371.439 146.76 366.079 146.767L206.799 146.931C203.333 146.925 200.226 150.162 199.333 154.827Z" fill="#0066AE"/>
<g opacity="0.5">
<path d="M199.333 154.827L175.733 274.451L172.666 290.112L329.999 289.362C337.066 289.329 343.333 283.137 345.593 273.938L373.499 161.006C375.226 154.024 371.439 146.76 366.079 146.767L206.799 146.931C203.333 146.925 200.226 150.162 199.333 154.827Z" fill="black"/>
</g>
<path d="M314.926 266.332L298.26 133.804C297.593 128.375 293.2 124.322 288.02 124.342L251.486 124.454C250.129 124.469 248.788 124.757 247.547 125.3C246.306 125.843 245.189 126.629 244.266 127.612L226.933 145.819L125.333 146.359C119.126 146.391 114.353 152.195 115.173 158.709L130.646 281.196C131.313 286.618 135.706 290.665 140.873 290.658L317.973 290.309C337.693 290.711 339.58 284.966 339.58 284.966C316.94 289.908 314.926 266.365 314.926 266.332Z" fill="#0066AE"/>
<g opacity="0.5">
<path d="M238.559 239.827L232.586 246.157L186.586 205.308L192.559 198.979L238.559 239.827Z" fill="white"/>
<path d="M230.086 197.577L236.686 203.44L195.066 247.559L188.459 241.696L230.086 197.577Z" fill="white"/>
</g>
<path d="M340.213 68.788C339.997 68.6983 339.812 68.5497 339.679 68.3598C339.545 68.1699 339.469 67.9464 339.46 67.7155L339.193 61.6092C339.184 61.4195 339.219 61.2302 339.297 61.0563C339.374 60.8825 339.492 60.7288 339.64 60.6075C339.788 60.4862 339.963 60.4006 340.15 60.3575C340.338 60.3144 340.533 60.3149 340.72 60.359C341.236 60.469 341.77 60.4737 342.288 60.373C342.806 60.2723 343.298 60.0683 343.733 59.7734C344.134 59.5229 344.479 59.194 344.746 58.807C345.013 58.4199 345.197 57.983 345.287 57.5231C345.347 57.0574 345.312 56.5844 345.184 56.1323C345.055 55.6802 344.837 55.2581 344.54 54.8911C344.227 54.4734 343.835 54.1207 343.384 53.8531C342.933 53.5855 342.433 53.4083 341.913 53.3316C340.864 53.274 339.826 53.5675 338.967 54.1646C338.108 54.7617 337.478 55.6274 337.18 56.6216C337.08 56.9228 336.867 57.1746 336.584 57.3243C336.301 57.4741 335.97 57.5103 335.661 57.4255C335.352 57.3407 335.087 57.1414 334.923 56.869C334.759 56.5967 334.708 56.2724 334.78 55.9636C335.233 54.3998 336.219 53.0379 337.57 52.1068C338.921 51.1757 340.556 50.7322 342.2 50.8509C343.055 50.9634 343.879 51.2445 344.622 51.6774C345.366 52.1103 346.013 52.6863 346.527 53.3711C347.026 54.0057 347.391 54.7328 347.601 55.5093C347.81 56.2857 347.86 57.0958 347.747 57.8915C347.595 58.6861 347.28 59.4416 346.822 60.1116C346.363 60.7815 345.77 61.3517 345.08 61.7869C344.08 62.4515 342.911 62.8275 341.707 62.8726L341.913 67.5839C341.921 67.7909 341.876 67.9964 341.781 68.1815C341.687 68.3666 341.547 68.5253 341.374 68.6427C341.202 68.7602 341.001 68.8327 340.793 68.8535C340.584 68.8743 340.373 68.8427 340.18 68.7617L340.213 68.788Z" fill="#0066AE"/>
<path d="M342.04 71.2877C342.054 71.4864 342.009 71.6848 341.908 71.8577C341.808 72.0306 341.658 72.1703 341.478 72.259C341.297 72.3478 341.094 72.3817 340.893 72.3564C340.693 72.3311 340.505 72.2477 340.353 72.1169C340.201 71.986 340.091 71.8136 340.038 71.6213C339.986 71.4291 339.992 71.2257 340.056 71.0369C340.12 70.8481 340.24 70.6824 340.4 70.5607C340.56 70.439 340.752 70.3669 340.954 70.3534C341.087 70.3435 341.222 70.36 341.349 70.4017C341.476 70.4435 341.594 70.5097 341.695 70.5966C341.796 70.6835 341.878 70.7893 341.938 70.908C341.997 71.0266 342.032 71.1557 342.04 71.2877Z" fill="#0066AE"/>
<path d="M318.794 60.1744C318.822 60.0442 318.842 59.9123 318.854 59.7796C318.854 59.49 318.927 59.1216 318.98 58.6017C319.046 57.9635 319.155 57.3304 319.307 56.7067C319.394 56.3382 319.44 55.9303 319.574 55.5157C319.707 55.1012 319.84 54.6537 319.987 54.1997C320.759 51.9502 321.883 49.8342 323.32 47.929C325.203 45.4619 327.59 43.4129 330.327 41.9149C331.884 41.048 333.543 40.3719 335.267 39.9014C337.127 39.4148 339.043 39.1671 340.967 39.1644C341.98 39.1484 342.994 39.2011 344 39.3223C344.514 39.375 345.02 39.5066 345.534 39.5921C346.053 39.6799 346.565 39.803 347.067 39.9606C349.168 40.5402 351.167 41.4345 352.994 42.6123C357.055 45.2123 360.149 49.0463 361.807 53.5351C362.7 55.9396 363.151 58.482 363.14 61.0429C363.168 63.6811 362.695 66.3011 361.747 68.7678L361.447 69.518L361.407 69.6167L361.447 69.7154C363.12 73.512 364.78 77.2429 366.347 80.8553L366.627 80.5395L356.627 76.756L356.507 76.7099L356.407 76.802C353.761 79.3319 350.523 81.1764 346.98 82.1713C343.953 82.9939 340.783 83.1735 337.681 82.6982C334.578 82.223 331.612 81.1037 328.98 79.4143C326.824 78.0188 324.924 76.2722 323.36 74.249C321.094 71.2958 319.626 67.8224 319.094 64.1553C319.014 63.4973 318.947 62.9445 318.887 62.4445C318.827 61.9444 318.887 61.5364 318.854 61.1877C318.82 60.8389 318.854 60.6086 318.854 60.4178C318.887 60.4128 318.917 60.3957 318.938 60.3697C318.959 60.3437 318.969 60.3109 318.966 60.2778C318.964 60.2447 318.949 60.2138 318.924 60.1912C318.9 60.1687 318.867 60.1561 318.834 60.1561C318.8 60.1561 318.768 60.1687 318.743 60.1912C318.718 60.2138 318.703 60.2447 318.701 60.2778C318.698 60.3109 318.708 60.3437 318.729 60.3697C318.75 60.3957 318.78 60.4128 318.814 60.4178C318.814 60.6086 318.814 60.8653 318.814 61.1877C318.814 61.5101 318.814 61.9576 318.814 62.4576C318.814 62.9577 318.927 63.5302 318.994 64.1816C319.213 65.7642 319.595 67.3208 320.134 68.8271C320.897 70.8163 321.923 72.697 323.187 74.4201C324.757 76.4794 326.671 78.2595 328.847 79.6841C331.512 81.4157 334.519 82.5682 337.669 83.0651C340.82 83.562 344.041 83.3919 347.12 82.5661C350.706 81.561 353.985 79.6987 356.667 77.1442L356.447 77.1903L366.447 80.9935L366.947 81.1843L366.727 80.6776C365.14 77.0652 363.5 73.3409 361.834 69.5377V69.7285L362.14 68.9587C363.113 66.4382 363.597 63.7597 363.567 61.0627C363.588 58.4474 363.136 55.8493 362.234 53.3904C360.539 48.8121 357.377 44.9052 353.227 42.2636C351.354 41.0583 349.303 40.1481 347.147 39.5658C346.637 39.4065 346.115 39.2855 345.587 39.2039C345.067 39.1118 344.554 38.9802 344.034 38.9341C343.014 38.8092 341.987 38.7521 340.96 38.763C339.005 38.7712 337.06 39.0323 335.174 39.5395C333.427 40.029 331.746 40.7226 330.167 41.6056C327.403 43.1404 325.001 45.2375 323.12 47.7579C321.688 49.6947 320.578 51.8449 319.834 54.1273C319.694 54.6011 319.56 55.0551 319.44 55.4433C319.334 55.84 319.25 56.242 319.187 56.6475C319.044 57.2755 318.95 57.9135 318.907 58.5557C318.867 59.0623 318.84 59.4506 318.82 59.7401C318.792 59.8831 318.783 60.0291 318.794 60.1744Z" fill="#263238"/>
</g>
<defs>
<clipPath id="clip0_1_56509">
<rect width="500" height="329" fill="white" transform="translate(0 0.5)"/>
</clipPath>
</defs>
</svg>
