<svg width="102" height="102" viewBox="0 0 102 102" fill="none" xmlns="http://www.w3.org/2000/svg">
<path d="M50.9999 90.2875C72.8447 90.2875 90.5534 89.2536 90.5534 87.9782C90.5534 86.7028 72.8447 85.6689 50.9999 85.6689C29.155 85.6689 11.4463 86.7028 11.4463 87.9782C11.4463 89.2536 29.155 90.2875 50.9999 90.2875Z" fill="#F5F5F5"/>
<path d="M48.6333 69.6717H9.24297C8.9342 69.6711 8.63823 69.5482 8.41989 69.3299C8.20156 69.1116 8.07866 68.8156 8.07812 68.5068V13.1351C8.08134 12.8281 8.20543 12.5348 8.42347 12.3186C8.64151 12.1025 8.93595 11.981 9.24297 11.9805H48.6333C48.9419 11.981 49.2377 12.104 49.4557 12.3224C49.6737 12.5408 49.7961 12.8367 49.7961 13.1453V68.5068C49.7961 68.8154 49.6737 69.1114 49.4557 69.3298C49.2377 69.5482 48.9419 69.6711 48.6333 69.6717ZM9.24297 12.0213C8.94772 12.0218 8.66473 12.1393 8.45596 12.3481C8.24719 12.5569 8.12966 12.8399 8.12912 13.1351V68.5068C8.12966 68.8021 8.24719 69.0851 8.45596 69.2938C8.66473 69.5026 8.94772 69.6201 9.24297 69.6207H48.6333C48.9284 69.6201 49.2112 69.5025 49.4196 69.2937C49.6281 69.0849 49.7451 68.8019 49.7451 68.5068V13.1351C49.7451 12.8401 49.6281 12.5571 49.4196 12.3482C49.2112 12.1394 48.9284 12.0218 48.6333 12.0213H9.24297Z" fill="#E6E6E6"/>
<path d="M92.7583 69.6717H53.3659C53.0573 69.6711 52.7616 69.5482 52.5436 69.3298C52.3256 69.1114 52.2031 68.8154 52.2031 68.5068V13.1351C52.2058 12.8283 52.3294 12.5349 52.5472 12.3187C52.7649 12.1026 53.0591 11.981 53.3659 11.9805H92.7583C93.0652 11.981 93.3594 12.1026 93.5771 12.3187C93.7948 12.5349 93.9184 12.8283 93.9211 13.1351V68.5068C93.9211 68.8154 93.7987 69.1114 93.5807 69.3298C93.3627 69.5482 93.0669 69.6711 92.7583 69.6717ZM53.3659 12.0213C53.0709 12.0218 52.7881 12.1394 52.5796 12.3482C52.3712 12.5571 52.2541 12.8401 52.2541 13.1351V68.5068C52.2541 68.8019 52.3712 69.0849 52.5796 69.2937C52.7881 69.5025 53.0709 69.6201 53.3659 69.6207H92.7583C93.0538 69.6201 93.337 69.5027 93.5461 69.294C93.7552 69.0853 93.8731 68.8023 93.8742 68.5068V13.1351C93.8731 12.8397 93.7552 12.5567 93.5461 12.348C93.337 12.1393 93.0538 12.0218 92.7583 12.0213H53.3659Z" fill="#E6E6E6"/>
<path d="M17.5318 80.0107H9.125V80.0617H17.5318V80.0107Z" fill="#E0E0E0"/>
<path d="M34.6676 79.6025H26.2363V79.6535H34.6676V79.6025Z" fill="#E0E0E0"/>
<path d="M45.6386 79.6025H43.5986V79.6535H45.6386V79.6025Z" fill="#E0E0E0"/>
<path d="M25.2495 81.3447H15.8145V81.3957H25.2495V81.3447Z" fill="#E0E0E0"/>
<path d="M57.883 79.9834H53.4766V80.0344H57.883V79.9834Z" fill="#E0E0E0"/>
<path d="M65.396 79.9834H59.6982V80.0344H65.396V79.9834Z" fill="#E0E0E0"/>
<path d="M92.8755 80.8467H80.1377V80.8977H92.8755V80.8467Z" fill="#E0E0E0"/>
<path d="M102 78.0088H0V78.0598H102V78.0088Z" fill="#EBEBEB"/>
<path opacity="0.8" d="M68.3055 16.2135L67.7976 23.2066C67.7803 23.4436 67.6799 23.6669 67.514 23.837C67.4195 23.9378 67.3055 24.0184 67.1789 24.0738C67.0523 24.1292 66.9157 24.1583 66.7776 24.1593H61.1696C61.0471 24.1606 60.9257 24.1363 60.8131 24.088C60.7005 24.0397 60.5992 23.9684 60.5157 23.8788C60.4322 23.7891 60.3683 23.6831 60.3281 23.5673C60.2879 23.4516 60.2723 23.3288 60.2822 23.2066L60.7922 16.2135C60.813 15.9562 60.9291 15.7159 61.1178 15.5397C61.3064 15.3635 61.5541 15.2641 61.8122 15.2608H67.4202C67.5428 15.2589 67.6644 15.2828 67.7772 15.3309C67.89 15.379 67.9914 15.4503 68.0749 15.5401C68.1584 15.63 68.222 15.7363 68.2617 15.8523C68.3015 15.9683 68.3164 16.0914 68.3055 16.2135Z" fill="#E0E0E0"/>
<path d="M65.8333 19.6915C66.046 18.6747 65.5507 17.7108 64.727 17.5384C63.9032 17.366 63.0629 18.0505 62.8501 19.0672C62.6373 20.084 63.1326 21.048 63.9564 21.2204C64.7802 21.3927 65.6205 20.7083 65.8333 19.6915Z" fill="white"/>
<path d="M66.5813 23.6774H61.4487C61.1223 23.6774 60.8979 23.5203 60.8897 23.302C60.8775 22.9838 62.5421 21.6068 64.1211 21.7272H64.1578C65.1278 21.7615 66.0582 22.1207 66.7996 22.7472C67.5626 23.3469 66.8424 23.6774 66.5813 23.6774Z" fill="white"/>
<path d="M39.3718 23.9041C38.8354 23.902 38.319 23.7007 37.9228 23.3391C37.5266 22.9776 37.2788 22.4817 37.2277 21.9478C37.204 21.6942 37.2332 21.4385 37.3136 21.1968C37.394 20.9551 37.5238 20.7329 37.6948 20.5441C37.8657 20.3553 38.0741 20.2041 38.3066 20.1002C38.5391 19.9963 38.7907 19.9419 39.0454 19.9404C39.5817 19.9425 40.0982 20.1439 40.4944 20.5055C40.8906 20.867 41.1383 21.3629 41.1894 21.8968C41.2132 22.1504 41.184 22.4061 41.1036 22.6478C41.0232 22.8894 40.8934 23.1117 40.7224 23.3005C40.5515 23.4893 40.3431 23.6405 40.1106 23.7444C39.8781 23.8483 39.6265 23.9027 39.3718 23.9041ZM39.1331 20.9931C39.0135 20.9931 38.8953 21.0181 38.786 21.0665C38.6766 21.115 38.5787 21.1858 38.4984 21.2743C38.418 21.3629 38.3572 21.4673 38.3196 21.5809C38.2821 21.6944 38.2687 21.8145 38.2804 21.9335C38.3055 22.1835 38.422 22.4155 38.6076 22.5849C38.7932 22.7543 39.0348 22.8492 39.2861 22.8515C39.4055 22.8512 39.5235 22.826 39.6326 22.7774C39.7417 22.7289 39.8394 22.658 39.9195 22.5695C39.9996 22.4809 40.0603 22.3766 40.0977 22.2632C40.1351 22.1499 40.1484 22.0299 40.1368 21.9111C40.1118 21.6621 39.9961 21.431 39.8118 21.2617C39.6275 21.0924 39.3874 20.9968 39.1372 20.9931H39.1331Z" fill="#E0E0E0"/>
<path d="M39.4738 20.8398L38.7231 20.85L38.3232 16.0111L39.076 16.0029L39.4738 20.8398Z" fill="#E0E0E0"/>
<path d="M39.7883 16.2196L38.3766 16.2379L38.3154 15.4852L39.7271 15.4668L39.7883 16.2196Z" fill="#E0E0E0"/>
<path d="M39.8697 17.1864L38.5417 17.2027L38.4805 16.4499L39.8065 16.4336L39.8697 17.1864Z" fill="#E0E0E0"/>
<path d="M39.9837 18.5495L38.825 18.5638L38.7617 17.8131L39.9204 17.7988L39.9837 18.5495Z" fill="#E0E0E0"/>
<path d="M16.1792 65.0288C16.1835 65.0897 16.191 65.1503 16.2016 65.2104C16.2719 65.6017 16.4673 65.9597 16.7585 66.2304C17.0893 66.5443 17.5266 66.7214 17.9825 66.7261H35.2185C35.6269 66.7327 36.0215 66.5778 36.3163 66.2952C36.6112 66.0125 36.7827 65.6249 36.7934 65.2165C36.798 64.9745 36.7547 64.7341 36.666 64.5089C36.5773 64.2837 36.445 64.0783 36.2766 63.9044C36.1083 63.7306 35.9072 63.5917 35.685 63.4959C35.4628 63.4 35.2238 63.349 34.9818 63.3458H17.7479C17.5313 63.3431 17.3165 63.3857 17.1173 63.4708C16.9181 63.556 16.7389 63.6818 16.5912 63.8403C16.4435 63.9987 16.3305 64.1863 16.2596 64.391C16.1886 64.5957 16.1612 64.8129 16.1792 65.0288Z" fill="#F0F0F0"/>
<path d="M36.7995 65.2099C36.7982 65.2646 36.7927 65.3192 36.7831 65.3731C36.7334 64.9279 36.5226 64.5162 36.1905 64.2156C35.8583 63.9151 35.4277 63.7463 34.9798 63.7411L16.6504 63.7696C16.9465 63.4859 17.3419 63.3292 17.752 63.3331H34.9879C35.2314 63.3312 35.4727 63.3788 35.6972 63.4729C35.9217 63.567 36.1248 63.7057 36.2942 63.8806C36.4635 64.0555 36.5956 64.263 36.6825 64.4904C36.7693 64.7178 36.8091 64.9605 36.7995 65.2038V65.2099Z" fill="#E0E0E0"/>
<path d="M33.85 64.1533L33.9071 64.9693L34.6803 64.6817L34.8557 65.0897L34.0683 65.359L34.6191 66.0505L34.2723 66.3116L33.7358 65.5936L33.3074 66.3116L32.9259 66.0505L33.3726 65.359L32.5566 65.0999L32.6729 64.6919L33.4889 64.9693L33.4318 64.1533H33.85Z" fill="white"/>
<path d="M29.1356 64.1538L29.1948 64.9698L29.9659 64.6821L30.1413 65.0901L29.3518 65.3492L29.9047 66.0408L29.5477 66.3019L29.0112 65.5838L28.5828 66.3019L28.2013 66.0408L28.648 65.3492L27.832 65.0901L27.9504 64.6821L28.7664 64.9596L28.7092 64.1436L29.1356 64.1538Z" fill="white"/>
<path d="M24.4228 64.1538L24.4799 64.9698L25.2531 64.6821L25.4285 65.0901L24.639 65.3492L25.1898 66.0408L24.8328 66.3019L24.2963 65.5838L23.8679 66.3019L23.4864 66.0408L23.9332 65.3492L23.1172 65.0901L23.2355 64.6821L24.0515 64.9596L23.9944 64.1436L24.4228 64.1538Z" fill="white"/>
<path d="M19.708 64.1533L19.7652 64.9693L20.5383 64.6817L20.7138 65.0897L19.9243 65.3488L20.4751 66.0403L20.1201 66.3014L19.5836 65.5936L19.1532 66.3116L18.7676 66.0505L19.2164 65.359L18.4004 65.0999L18.5187 64.6919L19.3347 64.9693L19.2776 64.1533H19.708Z" fill="white"/>
<path d="M31.1592 62.744H30.3555L30.3575 62.54H31.1613L31.1592 62.744Z" fill="#E0E0E0"/>
<path d="M34.6126 62.744H31.9912L31.9953 62.54H34.6167L34.6126 62.744Z" fill="#E0E0E0"/>
<g opacity="0.8">
<path d="M54.9531 61.7154L58.2049 66.7195L68.9271 55.9973C68.9376 55.9881 68.9461 55.9769 68.9522 55.9643C68.9583 55.9518 68.9619 55.9382 68.9628 55.9242C68.9636 55.9103 68.9617 55.8964 68.9572 55.8832C68.9526 55.87 68.9455 55.8578 68.9363 55.8474C68.9271 55.8369 68.9158 55.8284 68.9033 55.8223C68.8908 55.8162 68.8772 55.8126 68.8632 55.8117C68.8493 55.8109 68.8354 55.8128 68.8222 55.8173C68.809 55.8219 68.7968 55.8289 68.7864 55.8382L58.568 63.8513L56.6382 60.7403L54.9531 61.7154Z" fill="#E0E0E0"/>
</g>
<path opacity="0.1" d="M53.0115 26.1016L45.3125 54.8982H47.9013L55.5145 26.1016H53.0115Z" fill="white"/>
<path opacity="0.1" d="M57.0076 26.1016L49.3086 54.8982H54.4453L62.0586 26.1016H57.0076Z" fill="white"/>
<path d="M84.723 52.0834L86.355 28.9702C86.3702 28.7926 86.3479 28.6138 86.2896 28.4453C86.2313 28.2769 86.1382 28.1226 86.0165 27.9924C85.8948 27.8622 85.7471 27.7591 85.5829 27.6896C85.4188 27.6201 85.2419 27.5859 85.0637 27.5891L44.7247 27.6238C44.3495 27.6289 43.9896 27.7733 43.7148 28.0289C43.44 28.2845 43.2699 28.633 43.2376 29.0069L41.6158 52.1221C41.6009 52.2998 41.6235 52.4786 41.682 52.6471C41.7406 52.8155 41.8338 52.9698 41.9557 53.0999C42.0776 53.2301 42.2254 53.3332 42.3896 53.4027C42.5539 53.4721 42.7308 53.5064 42.9091 53.5032L83.2318 53.4685C83.6082 53.4648 83.9696 53.3207 84.2454 53.0645C84.5212 52.8083 84.6915 52.4585 84.723 52.0834Z" fill="#263238"/>
<path d="M84.205 51.5795L85.837 28.4663C85.8525 28.2886 85.8304 28.1097 85.7722 27.9411C85.714 27.7726 85.621 27.6181 85.4992 27.4879C85.3774 27.3576 85.2296 27.2544 85.0653 27.1851C84.901 27.1157 84.724 27.0817 84.5457 27.0852L44.2067 27.1199C43.8315 27.1247 43.4716 27.269 43.197 27.5247C42.9225 27.7804 42.753 28.1291 42.7216 28.503L41.0896 51.6182C41.0744 51.7958 41.0967 51.9746 41.155 52.1431C41.2133 52.3115 41.3064 52.4658 41.4281 52.596C41.5498 52.7262 41.6975 52.8293 41.8617 52.8988C42.0258 52.9683 42.2027 53.0025 42.3809 52.9993L82.7178 52.9647C83.0935 52.9599 83.454 52.8154 83.7289 52.5593C84.0039 52.3032 84.1736 51.9539 84.205 51.5795Z" fill="#407BFF"/>
<path opacity="0.6" d="M83.1365 51.9217C83.0536 51.9978 82.9451 52.0401 82.8325 52.04L42.4935 52.0747C42.4288 52.0739 42.3649 52.0601 42.3057 52.034C42.2464 52.0079 42.1931 51.9701 42.1488 51.9228C42.1046 51.8755 42.0704 51.8198 42.0483 51.7589C42.0262 51.6981 42.0167 51.6334 42.0203 51.5687L43.6523 28.4555C43.6586 28.3433 43.7083 28.238 43.791 28.1618C43.8733 28.0847 43.9822 28.0424 44.0949 28.0435L84.4339 28.0088C84.4986 28.0095 84.5626 28.0233 84.6218 28.0494C84.681 28.0755 84.7344 28.1134 84.7786 28.1607C84.8228 28.2079 84.857 28.2637 84.8791 28.3245C84.9012 28.3854 84.9108 28.4501 84.9072 28.5147L83.2752 51.6279C83.2678 51.7399 83.2183 51.8449 83.1365 51.9217Z" fill="white"/>
<path d="M69.7187 39.2149H55.5591C55.4343 39.2169 55.3145 39.2642 55.2218 39.3478C55.1292 39.4315 55.07 39.5458 55.0552 39.6698L54.8369 41.7404C54.83 41.7979 54.8354 41.8563 54.8527 41.9116C54.8701 41.9669 54.899 42.0178 54.9376 42.0611C54.9762 42.1043 55.0236 42.1388 55.0766 42.1623C55.1296 42.1858 55.187 42.1978 55.2449 42.1973H69.4046C69.5298 42.1948 69.6499 42.1472 69.7428 42.0633C69.8358 41.9793 69.8953 41.8647 69.9105 41.7404L70.1267 39.6698C70.1334 39.6124 70.1278 39.5542 70.1103 39.4992C70.0928 39.4441 70.0637 39.3934 70.0252 39.3504C69.9866 39.3074 69.9393 39.2731 69.8865 39.2497C69.8337 39.2264 69.7765 39.2145 69.7187 39.2149Z" fill="white"/>
<path d="M57.2447 47.6709H55.0354C54.9102 47.6734 54.7901 47.721 54.6972 47.805C54.6042 47.8889 54.5447 48.0036 54.5295 48.1279L54.3133 50.1985C54.3066 50.2559 54.3122 50.314 54.3297 50.369C54.3472 50.4241 54.3762 50.4748 54.4148 50.5178C54.4534 50.5608 54.5006 50.5951 54.5535 50.6185C54.6063 50.6419 54.6635 50.6538 54.7213 50.6534H56.9306C57.0555 50.6509 57.1753 50.6036 57.2682 50.5201C57.3611 50.4366 57.4208 50.3224 57.4365 50.1985L57.6527 48.1279C57.6597 48.0703 57.6543 48.012 57.6369 47.9567C57.6196 47.9014 57.5906 47.8504 57.552 47.8072C57.5134 47.7639 57.4661 47.7294 57.4131 47.7059C57.3601 47.6824 57.3027 47.6705 57.2447 47.6709Z" fill="white"/>
<path d="M61.0592 47.6709H58.8499C58.7247 47.6734 58.6046 47.721 58.5116 47.805C58.4187 47.8889 58.3591 48.0036 58.3439 48.1279L58.1277 50.1985C58.1211 50.2559 58.1267 50.314 58.1442 50.369C58.1617 50.4241 58.1907 50.4748 58.2293 50.5178C58.2678 50.5608 58.3151 50.5951 58.3679 50.6185C58.4208 50.6419 58.4779 50.6538 58.5357 50.6534H60.745C60.8699 50.6509 60.9898 50.6036 61.0827 50.5201C61.1756 50.4366 61.2353 50.3224 61.2509 50.1985L61.4672 48.1279C61.4741 48.0703 61.4688 48.012 61.4514 47.9567C61.434 47.9014 61.4051 47.8504 61.3665 47.8072C61.3279 47.7639 61.2805 47.7294 61.2275 47.7059C61.1745 47.6824 61.1171 47.6705 61.0592 47.6709Z" fill="white"/>
<path d="M64.8716 47.6709H62.6643C62.5391 47.6734 62.419 47.721 62.3261 47.805C62.2331 47.8889 62.1736 48.0036 62.1584 48.1279L61.9422 50.1985C61.9355 50.2559 61.9411 50.314 61.9586 50.369C61.9761 50.4241 62.0051 50.4748 62.0437 50.5178C62.0823 50.5608 62.1295 50.5951 62.1824 50.6185C62.2352 50.6419 62.2924 50.6538 62.3502 50.6534H64.5595C64.6844 50.6509 64.8042 50.6036 64.8971 50.5201C64.99 50.4366 65.0497 50.3224 65.0654 50.1985L65.2796 48.1279C65.2866 48.0703 65.2812 48.012 65.2638 47.9567C65.2464 47.9014 65.2175 47.8504 65.1789 47.8072C65.1403 47.7639 65.0929 47.7294 65.0399 47.7059C64.9869 47.6824 64.9296 47.6705 64.8716 47.6709Z" fill="white"/>
<path d="M68.6891 47.6709H66.4798C66.3545 47.6734 66.2344 47.721 66.1415 47.805C66.0486 47.8889 65.989 48.0036 65.9738 48.1279L65.7576 50.1985C65.7509 50.2559 65.7566 50.314 65.7741 50.369C65.7916 50.4241 65.8206 50.4748 65.8591 50.5178C65.8977 50.5608 65.945 50.5951 65.9978 50.6185C66.0506 50.6419 66.1078 50.6538 66.1656 50.6534H68.3749C68.4998 50.6509 68.6197 50.6036 68.7126 50.5201C68.8054 50.4366 68.8652 50.3224 68.8808 50.1985L69.0971 48.1279C69.104 48.0703 69.0986 48.012 69.0813 47.9567C69.0639 47.9014 69.035 47.8504 68.9964 47.8072C68.9578 47.7639 68.9104 47.7294 68.8574 47.7059C68.8044 47.6824 68.747 47.6705 68.6891 47.6709Z" fill="white"/>
<path d="M66.192 46.3625H57.3363C57.2229 46.3652 57.1103 46.3433 57.0061 46.2984C56.9019 46.2535 56.8087 46.1867 56.7327 46.1024C56.6568 46.0181 56.6 45.9184 56.5661 45.8102C56.5323 45.7019 56.5222 45.5876 56.5367 45.4751L56.6428 44.4551C56.6721 44.2189 56.7857 44.0013 56.9625 43.842C57.1394 43.6828 57.3677 43.5926 57.6056 43.5881H66.4613C66.5748 43.5857 66.6875 43.6078 66.7916 43.6529C66.8958 43.6981 66.989 43.7651 67.0649 43.8495C67.1408 43.934 67.1976 44.0338 67.2315 44.1421C67.2653 44.2505 67.2753 44.3649 67.2609 44.4775L67.1549 45.4975C67.125 45.7333 67.0113 45.9505 66.8345 46.1093C66.6577 46.2681 66.4296 46.358 66.192 46.3625ZM57.6056 43.7941C57.4178 43.7984 57.2377 43.87 57.0981 43.9957C56.9585 44.1215 56.8686 44.2932 56.8447 44.4795L56.7386 45.4995C56.7273 45.5837 56.7345 45.6693 56.7596 45.7505C56.7847 45.8316 56.8272 45.9063 56.8841 45.9694C56.9409 46.0324 57.0108 46.0824 57.0889 46.1157C57.167 46.1491 57.2515 46.1651 57.3363 46.1625H66.192C66.3797 46.1587 66.5597 46.0876 66.6994 45.9622C66.839 45.8367 66.929 45.6653 66.9529 45.4791L67.059 44.4591C67.0703 44.375 67.0631 44.2894 67.038 44.2082C67.0129 44.1271 66.9704 44.0524 66.9135 43.9893C66.8567 43.9263 66.7868 43.8763 66.7087 43.8429C66.6306 43.8096 66.5462 43.7936 66.4613 43.7961L57.6056 43.7941Z" fill="#407BFF"/>
<path d="M70.2292 34.9023H56.0696C55.9447 34.9053 55.8251 34.9532 55.7326 35.0371C55.6401 35.121 55.5809 35.2353 55.5657 35.3593L55.3474 37.4299C55.3408 37.4873 55.3464 37.5454 55.3639 37.6005C55.3814 37.6555 55.4104 37.7062 55.449 37.7492C55.4876 37.7923 55.5348 37.8266 55.5876 37.8499C55.6405 37.8733 55.6977 37.8852 55.7554 37.8848H69.913C70.0379 37.8824 70.1578 37.8351 70.2507 37.7515C70.3436 37.668 70.4033 37.5538 70.419 37.4299L70.6352 35.3593C70.6421 35.3019 70.6368 35.2437 70.6196 35.1886C70.6023 35.1334 70.5735 35.0826 70.5352 35.0394C70.4968 34.9962 70.4497 34.9616 70.3969 34.938C70.3442 34.9144 70.287 34.9022 70.2292 34.9023Z" fill="white"/>
<path d="M57.281 40.7062C57.2895 40.6423 57.2841 40.5772 57.2651 40.5156C57.2462 40.4539 57.2141 40.3971 57.171 40.349C57.128 40.3009 57.075 40.2627 57.0158 40.2371C56.9566 40.2114 56.8926 40.1989 56.8281 40.2003C56.6895 40.2036 56.5567 40.2564 56.4538 40.3493C56.3509 40.4421 56.2846 40.5687 56.2671 40.7062C56.2592 40.7701 56.2651 40.835 56.2845 40.8964C56.3038 40.9578 56.3362 41.0144 56.3793 41.0622C56.4225 41.11 56.4754 41.1479 56.5346 41.1734C56.5937 41.199 56.6576 41.2115 56.722 41.2101C56.8601 41.2073 56.9927 41.1548 57.0953 41.0622C57.1979 40.9697 57.2638 40.8433 57.281 40.7062Z" fill="#263238"/>
<path d="M58.8398 40.7062C58.8481 40.6422 58.8424 40.5771 58.8231 40.5154C58.8039 40.4537 58.7716 40.3969 58.7284 40.3489C58.6852 40.3009 58.6322 40.2627 58.5729 40.2371C58.5136 40.2114 58.4495 40.1989 58.3849 40.2003C58.2464 40.2032 58.1137 40.256 58.011 40.3489C57.9083 40.4419 57.8426 40.5687 57.8259 40.7062C57.8177 40.77 57.8233 40.8348 57.8425 40.8963C57.8616 40.9577 57.8938 41.0143 57.9368 41.0621C57.9798 41.1099 58.0326 41.1479 58.0916 41.1735C58.1507 41.199 58.2145 41.2115 58.2788 41.2101C58.4172 41.2073 58.55 41.1549 58.653 41.0624C58.7559 40.9699 58.8222 40.8435 58.8398 40.7062Z" fill="#263238"/>
<path d="M60.3962 40.7062C60.4044 40.6422 60.3987 40.5771 60.3795 40.5154C60.3603 40.4537 60.328 40.3969 60.2848 40.3489C60.2416 40.3009 60.1885 40.2627 60.1293 40.2371C60.07 40.2114 60.0058 40.1989 59.9413 40.2003C59.8028 40.2032 59.67 40.256 59.5674 40.3489C59.4647 40.4419 59.399 40.5687 59.3823 40.7062C59.3744 40.7701 59.3803 40.835 59.3997 40.8964C59.4191 40.9578 59.4514 41.0144 59.4946 41.0622C59.5377 41.11 59.5907 41.1479 59.6498 41.1734C59.7089 41.199 59.7728 41.2115 59.8372 41.2101C59.9754 41.2072 60.1079 41.1548 60.2105 41.0622C60.3132 40.9697 60.3791 40.8433 60.3962 40.7062Z" fill="#263238"/>
<path d="M61.9531 40.7062C61.9617 40.6423 61.9563 40.5772 61.9373 40.5156C61.9183 40.4539 61.8862 40.3971 61.8432 40.349C61.8001 40.3009 61.7472 40.2627 61.688 40.2371C61.6288 40.2114 61.5647 40.1989 61.5002 40.2003C61.3618 40.2032 61.229 40.256 61.1263 40.3489C61.0236 40.4419 60.9579 40.5687 60.9413 40.7062C60.9328 40.7708 60.9386 40.8365 60.9584 40.8985C60.9781 40.9606 61.0112 41.0176 61.0554 41.0655C61.0996 41.1134 61.1537 41.1509 61.214 41.1756C61.2743 41.2002 61.3393 41.2113 61.4043 41.2081C61.5404 41.2029 61.6702 41.1496 61.7707 41.0577C61.8712 40.9658 61.9358 40.8413 61.9531 40.7062Z" fill="#263238"/>
<path d="M63.542 40.7062C63.5502 40.6422 63.5445 40.5771 63.5253 40.5154C63.5061 40.4537 63.4738 40.3969 63.4306 40.3489C63.3874 40.3009 63.3343 40.2627 63.275 40.2371C63.2158 40.2114 63.1516 40.1989 63.0871 40.2003C62.9486 40.2032 62.8158 40.256 62.7132 40.3489C62.6105 40.4419 62.5448 40.5687 62.5281 40.7062C62.5199 40.77 62.5255 40.8348 62.5446 40.8963C62.5637 40.9577 62.5959 41.0143 62.6389 41.0621C62.6819 41.1099 62.7347 41.1479 62.7938 41.1735C62.8528 41.199 62.9167 41.2115 62.981 41.2101C63.1194 41.2073 63.2521 41.1549 63.3551 41.0624C63.4581 40.9699 63.5244 40.8435 63.542 40.7062Z" fill="#263238"/>
<path d="M57.7912 36.3937C57.7998 36.3298 57.7944 36.2649 57.7754 36.2033C57.7564 36.1417 57.7243 36.085 57.6812 36.0371C57.6381 35.9892 57.5852 35.9512 57.526 35.9257C57.4668 35.9003 57.4027 35.8881 57.3383 35.8898C57.2002 35.8927 57.0677 35.9452 56.965 36.0377C56.8624 36.1302 56.7965 36.2566 56.7794 36.3937C56.7708 36.4576 56.7762 36.5225 56.7951 36.5841C56.8141 36.6457 56.8463 36.7024 56.8894 36.7503C56.9324 36.7982 56.9854 36.8362 57.0446 36.8616C57.1038 36.8871 57.1678 36.8993 57.2322 36.8976C57.3705 36.8951 57.5033 36.8428 57.606 36.7502C57.7087 36.6576 57.7745 36.531 57.7912 36.3937Z" fill="#263238"/>
<path d="M59.3492 36.3936C59.3572 36.3297 59.3512 36.2649 59.3319 36.2034C59.3125 36.142 59.2801 36.0855 59.237 36.0377C59.1938 35.9899 59.1409 35.9519 59.0818 35.9264C59.0226 35.9009 58.9587 35.8884 58.8943 35.8897C58.7576 35.8945 58.627 35.9479 58.5261 36.0402C58.4252 36.1326 58.3604 36.2579 58.3435 36.3936C58.3353 36.4574 58.3409 36.5223 58.36 36.5837C58.3792 36.6451 58.4113 36.7017 58.4543 36.7495C58.4973 36.7973 58.5502 36.8353 58.6092 36.8609C58.6682 36.8864 58.7321 36.8989 58.7964 36.8975C58.9335 36.8932 59.0645 36.8401 59.1659 36.7477C59.2673 36.6553 59.3323 36.5297 59.3492 36.3936Z" fill="#263238"/>
<path d="M60.9062 36.3936C60.9145 36.3298 60.9088 36.265 60.8897 36.2036C60.8706 36.1422 60.8384 36.0856 60.7954 36.0378C60.7524 35.9899 60.6996 35.9519 60.6406 35.9264C60.5815 35.9008 60.5177 35.8883 60.4534 35.8898C60.315 35.8925 60.1822 35.945 60.0792 36.0375C59.9763 36.1299 59.9099 36.2563 59.8924 36.3936C59.8841 36.4576 59.8898 36.5226 59.909 36.5842C59.9283 36.6458 59.9606 36.7024 60.0038 36.7503C60.0471 36.7982 60.1001 36.8361 60.1594 36.8615C60.2187 36.887 60.2828 36.8992 60.3473 36.8975C60.4856 36.8951 60.6183 36.8427 60.721 36.7501C60.8237 36.6575 60.8895 36.5309 60.9062 36.3936Z" fill="#263238"/>
<path d="M62.4631 36.3937C62.4717 36.3298 62.4663 36.2649 62.4473 36.2033C62.4283 36.1417 62.3962 36.085 62.3531 36.0371C62.31 35.9892 62.257 35.9512 62.1978 35.9257C62.1386 35.9003 62.0746 35.8881 62.0102 35.8898C61.872 35.8927 61.7395 35.9452 61.6369 36.0377C61.5343 36.1302 61.4684 36.2566 61.4512 36.3937C61.4426 36.4576 61.448 36.5225 61.467 36.5841C61.486 36.6457 61.5182 36.7024 61.5612 36.7503C61.6043 36.7982 61.6573 36.8362 61.7165 36.8616C61.7757 36.8871 61.8397 36.8993 61.9041 36.8976C62.0424 36.8951 62.1751 36.8428 62.2779 36.7502C62.3806 36.6576 62.4464 36.531 62.4631 36.3937Z" fill="#263238"/>
<path d="M64.0215 36.3936C64.0294 36.3297 64.0235 36.2649 64.0041 36.2034C63.9847 36.142 63.9524 36.0855 63.9092 36.0377C63.866 35.9899 63.8131 35.9519 63.754 35.9264C63.6949 35.9009 63.6309 35.8884 63.5666 35.8897C63.4284 35.8926 63.2959 35.9451 63.1933 36.0376C63.0906 36.1301 63.0247 36.2565 63.0076 36.3936C62.9993 36.4576 63.005 36.5226 63.0242 36.5842C63.0435 36.6457 63.0758 36.7024 63.1191 36.7503C63.1623 36.7982 63.2154 36.8361 63.2747 36.8615C63.3339 36.8869 63.398 36.8992 63.4625 36.8975C63.6008 36.8951 63.7335 36.8427 63.8363 36.7501C63.939 36.6575 64.0048 36.5309 64.0215 36.3936Z" fill="#263238"/>
<path d="M65.5781 36.3936C65.5864 36.3298 65.5807 36.265 65.5616 36.2036C65.5425 36.1422 65.5103 36.0856 65.4673 36.0378C65.4243 35.9899 65.3715 35.9519 65.3124 35.9264C65.2534 35.9008 65.1895 35.8883 65.1252 35.8898C64.9869 35.8925 64.8541 35.945 64.7511 36.0375C64.6481 36.1299 64.5818 36.2563 64.5642 36.3936C64.556 36.4576 64.5616 36.5226 64.5809 36.5842C64.6001 36.6458 64.6325 36.7024 64.6757 36.7503C64.7189 36.7982 64.772 36.8361 64.8313 36.8615C64.8906 36.887 64.9547 36.8992 65.0192 36.8975C65.1574 36.8951 65.2902 36.8427 65.3929 36.7501C65.4956 36.6575 65.5614 36.5309 65.5781 36.3936Z" fill="#263238"/>
<path d="M64.2599 30.3367L64.1498 31.3833C64.142 31.4288 64.119 31.4703 64.0845 31.5011C64.0501 31.5319 64.0062 31.55 63.9601 31.5526C63.9383 31.5534 63.9167 31.5494 63.8966 31.541C63.8766 31.5325 63.8586 31.5197 63.8441 31.5036C63.8295 31.4875 63.8186 31.4683 63.8122 31.4475C63.8058 31.4267 63.8041 31.4048 63.8071 31.3833L63.9172 30.3367C63.9269 30.2593 63.9198 30.1806 63.8964 30.1061C63.873 30.0316 63.8338 29.963 63.7816 29.9049C63.7293 29.8469 63.6652 29.8008 63.5936 29.7697C63.522 29.7386 63.4445 29.7233 63.3664 29.7247H62.989C62.8213 29.7287 62.6606 29.7927 62.536 29.9049C62.4114 30.0172 62.3311 30.1704 62.3097 30.3367L62.2138 31.3078H61.8711L61.967 30.3367C61.9993 30.0771 62.1242 29.8379 62.3187 29.6629C62.5131 29.4879 62.7642 29.3889 63.0257 29.3841H63.4011C63.5229 29.381 63.6439 29.4043 63.7559 29.4524C63.8678 29.5006 63.9681 29.5723 64.0496 29.6629C64.1312 29.7534 64.1923 29.8604 64.2286 29.9768C64.2649 30.0931 64.2756 30.2159 64.2599 30.3367Z" fill="#407BFF"/>
<path d="M64.2603 31.3442L64.0461 33.3842C64.0378 33.4475 64.0072 33.5058 63.9596 33.5484C63.9121 33.5911 63.8509 33.6153 63.787 33.6167H61.747C61.7177 33.617 61.6886 33.611 61.6618 33.599C61.6349 33.587 61.611 33.5693 61.5917 33.5473C61.5723 33.5252 61.5579 33.4992 61.5495 33.471C61.5411 33.4429 61.5389 33.4132 61.543 33.3842L61.7572 31.3442C61.7612 31.3022 61.7752 31.2619 61.7979 31.2264C61.8206 31.1909 61.8514 31.1614 61.8878 31.1402C61.9268 31.1173 61.9711 31.1054 62.0163 31.1055H64.0563C64.098 31.105 64.139 31.1164 64.1746 31.1381C64.2074 31.1604 64.2329 31.1918 64.2481 31.2284C64.2634 31.265 64.2676 31.3052 64.2603 31.3442Z" fill="#407BFF"/>
<path d="M75.2495 27.0812C75.2224 27.0812 75.1965 27.0704 75.1773 27.0513C75.1582 27.0322 75.1475 27.0062 75.1475 26.9792C75.1475 26.9521 75.1582 26.9262 75.1773 26.9071C75.1965 26.8879 75.2224 26.8772 75.2495 26.8772L80.2352 26.8486C80.2623 26.8486 80.2882 26.8594 80.3073 26.8785C80.3265 26.8976 80.3372 26.9236 80.3372 26.9506C80.3372 26.9777 80.3265 27.0036 80.3073 27.0228C80.2882 27.0419 80.2623 27.0526 80.2352 27.0526L75.2515 27.0812H75.2495Z" fill="#263238"/>
<path d="M81.1918 27.0458C81.1648 27.0458 81.1388 27.035 81.1197 27.0159C81.1006 26.9968 81.0898 26.9708 81.0898 26.9438C81.0898 26.9167 81.1006 26.8908 81.1197 26.8717C81.1388 26.8525 81.1648 26.8418 81.1918 26.8418H82.9544C82.9815 26.8418 83.0074 26.8525 83.0265 26.8717C83.0457 26.8908 83.0564 26.9167 83.0564 26.9438C83.0564 26.9708 83.0457 26.9968 83.0265 27.0159C83.0074 27.035 82.9815 27.0458 82.9544 27.0458H81.1918Z" fill="#263238"/>
<g opacity="0.3">
<path d="M47.9605 28.0371H53.6725L47.8647 52.0744H43.2604C43.1275 52.0718 42.997 52.0392 42.8786 51.979C42.7601 51.9188 42.6568 51.8326 42.5763 51.7269C42.4959 51.6211 42.4404 51.4985 42.414 51.3683C42.3876 51.2381 42.3911 51.1036 42.424 50.9749L47.9605 28.0371Z" fill="white"/>
<path d="M56.2022 28.0371H58.6236L52.8219 52.0744H50.4004L56.2022 28.0371Z" fill="white"/>
</g>
<path d="M17.677 20.5354H18.8357C18.5643 20.5316 18.295 20.5847 18.0454 20.6913C17.7957 20.7979 17.5712 20.9557 17.3862 21.1545C17.2013 21.3532 17.0601 21.5886 16.9718 21.8453C16.8834 22.102 16.8498 22.3743 16.8733 22.6448L19.3315 57.794C19.3781 58.3632 19.635 58.8945 20.0521 59.2845C20.4693 59.6745 21.0167 59.8951 21.5877 59.9034H20.431C19.8598 59.8952 19.3121 59.6746 18.8946 59.2847C18.4772 58.8947 18.2198 58.3633 18.1727 57.794L15.7084 22.6448C15.6849 22.3738 15.7187 22.1009 15.8074 21.8438C15.8961 21.5867 16.0379 21.351 16.2234 21.1522C16.409 20.9533 16.6343 20.7957 16.8847 20.6894C17.1351 20.5832 17.405 20.5307 17.677 20.5354Z" fill="#407BFF"/>
<path d="M17.677 20.5354H18.8358C18.5643 20.5315 18.2951 20.5846 18.0454 20.6912C17.7957 20.7978 17.5712 20.9556 17.3863 21.1544C17.2013 21.3531 17.0601 21.5885 16.9718 21.8452C16.8834 22.1019 16.8499 22.3742 16.8733 22.6447L19.3315 57.7939C19.3781 58.3631 19.635 58.8944 20.0521 59.2844C20.4693 59.6744 21.0167 59.895 21.5877 59.9033H20.431C19.2662 59.9033 18.0912 58.9587 18.0096 57.7939L15.5514 22.6447C15.4698 21.4799 16.5122 20.5354 17.677 20.5354Z" fill="#263238"/>
<path d="M20.7756 59.9054H34.9536C35.2257 59.9104 35.4958 59.8582 35.7465 59.7521C35.9971 59.646 36.2227 59.4883 36.4085 59.2895C36.5943 59.0906 36.7362 58.8548 36.8251 58.5976C36.9139 58.3403 36.9477 58.0672 36.9242 57.796L34.4578 22.6448C34.4117 22.0749 34.1547 21.5428 33.7371 21.1523C33.3195 20.7619 32.7712 20.5412 32.1996 20.5334H18.0236C17.752 20.5295 17.4825 20.5827 17.2327 20.6894C16.9829 20.7961 16.7582 20.9541 16.5733 21.1531C16.3883 21.3521 16.2472 21.5877 16.159 21.8446C16.0707 22.1016 16.0374 22.3742 16.0611 22.6448L18.5091 57.794C18.5559 58.3651 18.8142 58.8981 19.2334 59.2887C19.6526 59.6792 20.2026 59.8992 20.7756 59.9054Z" fill="#407BFF"/>
<g opacity="0.6">
<path d="M32.1632 21.2169C32.5604 21.2232 32.941 21.377 33.231 21.6486C33.521 21.9201 33.6996 22.2898 33.732 22.6857L36.1902 57.8349C36.2069 58.0143 36.1855 58.1952 36.1274 58.3657C36.0694 58.5362 35.9759 58.6926 35.8533 58.8245C35.7306 58.9564 35.5814 59.061 35.4155 59.1312C35.2497 59.2015 35.0708 59.2359 34.8907 59.2323H20.7147C20.3173 59.2261 19.9364 59.0723 19.6461 58.8008C19.3558 58.5293 19.1768 58.1596 19.1439 57.7635L16.6959 22.6143C16.6793 22.4358 16.7004 22.2558 16.7579 22.086C16.8153 21.9161 16.9079 21.7603 17.0294 21.6285C17.151 21.4968 17.2989 21.392 17.4636 21.3211C17.6282 21.2502 17.8059 21.2147 17.9852 21.2169H32.1632Z" fill="white"/>
</g>
<g opacity="0.3">
<path d="M28.1527 59.2271H22.5039L27.1673 21.2158H31.7186C31.9151 21.2151 32.1097 21.2549 32.2901 21.3329C32.4705 21.4108 32.6329 21.5251 32.7671 21.6687L28.1527 59.2271Z" fill="white"/>
<path d="M21.4898 59.2273H20.2168L24.8802 21.2119H26.1532L21.4898 59.2273Z" fill="white"/>
</g>
<path d="M31.3186 37.9237H21.0493C21.0222 37.9237 20.9963 37.913 20.9771 37.8939C20.958 37.8747 20.9473 37.8488 20.9473 37.8217C20.9473 37.7947 20.958 37.7687 20.9771 37.7496C20.9963 37.7305 21.0222 37.7197 21.0493 37.7197H31.3186C31.3455 37.7202 31.3712 37.7312 31.3902 37.7502C31.4092 37.7692 31.4201 37.7948 31.4206 37.8217C31.4206 37.8488 31.4099 37.8747 31.3907 37.8939C31.3716 37.913 31.3457 37.9237 31.3186 37.9237Z" fill="white"/>
<path d="M30.4172 39.4442H22.3735C22.3464 39.4442 22.3205 39.4335 22.3014 39.4144C22.2822 39.3952 22.2715 39.3693 22.2715 39.3422C22.2715 39.3152 22.2822 39.2892 22.3014 39.2701C22.3205 39.251 22.3464 39.2402 22.3735 39.2402H30.4172C30.4443 39.2402 30.4702 39.251 30.4893 39.2701C30.5085 39.2892 30.5192 39.3152 30.5192 39.3422C30.5192 39.3693 30.5085 39.3952 30.4893 39.4144C30.4702 39.4335 30.4443 39.4442 30.4172 39.4442Z" fill="white"/>
<path d="M21.3553 30.8202L21.3696 31.2282H21.1064L21.0922 30.8202L20.625 30.0879H20.9045L21.2268 30.5938L21.5124 30.0879H21.7715L21.3553 30.8202Z" fill="#407BFF"/>
<path d="M21.7818 30.653C21.7783 30.5728 21.792 30.4928 21.8218 30.4183C21.8517 30.3438 21.8971 30.2765 21.955 30.2209C22.0129 30.1653 22.082 30.1227 22.1576 30.0959C22.2333 30.0691 22.3138 30.0587 22.3938 30.0655C22.4747 30.0614 22.5556 30.0733 22.6318 30.1007C22.708 30.1281 22.778 30.1704 22.8378 30.225C22.8976 30.2797 22.9459 30.3456 22.98 30.4191C23.0141 30.4926 23.0332 30.5721 23.0364 30.653C23.0401 30.7333 23.0267 30.8136 22.997 30.8883C22.9673 30.9631 22.9219 31.0306 22.864 31.0864C22.806 31.1422 22.7368 31.185 22.661 31.212C22.5852 31.2389 22.5045 31.2493 22.4244 31.2426C22.3433 31.2467 22.2623 31.2346 22.1859 31.2071C22.1096 31.1796 22.0395 31.1372 21.9797 31.0823C21.9199 31.0274 21.8716 30.9612 21.8376 30.8875C21.8036 30.8138 21.7847 30.7341 21.7818 30.653ZM22.761 30.653C22.7613 30.6047 22.7519 30.5569 22.7333 30.5123C22.7148 30.4677 22.6875 30.4273 22.6531 30.3934C22.6187 30.3596 22.5778 30.3329 22.5329 30.3152C22.488 30.2974 22.44 30.2888 22.3917 30.2899C22.3444 30.2879 22.2973 30.2961 22.2534 30.3139C22.2095 30.3317 22.17 30.3588 22.1375 30.3932C22.105 30.4277 22.0803 30.4687 22.065 30.5135C22.0498 30.5583 22.0443 30.6059 22.049 30.653C22.0485 30.7014 22.0577 30.7495 22.0761 30.7943C22.0945 30.8392 22.1217 30.8798 22.1562 30.9139C22.1906 30.948 22.2316 30.9748 22.2766 30.9927C22.3216 31.0106 22.3698 31.0193 22.4183 31.0182C22.4656 31.0195 22.5126 31.0108 22.5563 30.9926C22.6 30.9744 22.6394 30.9472 22.6718 30.9127C22.7042 30.8782 22.7289 30.8372 22.7442 30.7924C22.7596 30.7476 22.7653 30.7001 22.761 30.653Z" fill="#407BFF"/>
<path d="M23.2177 30.7225L23.1973 30.084H23.4604L23.4808 30.7123C23.4808 30.9285 23.5869 31.0183 23.746 31.0183C23.9051 31.0183 23.9949 30.9285 23.9888 30.7123L23.9663 30.084H24.2254L24.2479 30.7225C24.2586 30.7911 24.2534 30.8613 24.2326 30.9276C24.2119 30.9939 24.1762 31.0545 24.1283 31.1048C24.0803 31.1551 24.0215 31.1937 23.9563 31.2176C23.8911 31.2415 23.8212 31.2501 23.7521 31.2427C23.6816 31.249 23.6105 31.24 23.5438 31.2163C23.477 31.1926 23.4162 31.1547 23.3655 31.1053C23.3147 31.0559 23.2752 30.9962 23.2497 30.9301C23.2242 30.864 23.2133 30.7932 23.2177 30.7225Z" fill="#407BFF"/>
<path d="M25.2513 31.2243L25.0208 30.9061H24.778L24.7903 31.2243H24.5271L24.4863 30.084H24.98C25.284 30.084 25.4798 30.2431 25.488 30.492C25.4946 30.5678 25.4765 30.6437 25.4364 30.7084C25.3963 30.7731 25.3364 30.8232 25.2656 30.851L25.5349 31.2182L25.2513 31.2243ZM24.9718 30.3002H24.7678L24.7821 30.696H24.9861C25.1473 30.696 25.2248 30.6225 25.2207 30.492C25.2166 30.3614 25.133 30.3002 24.9718 30.3002Z" fill="#407BFF"/>
<path d="M26.0916 30.6532C26.0874 30.5743 26.1 30.4953 26.1285 30.4216C26.1571 30.3478 26.201 30.281 26.2573 30.2255C26.3136 30.1699 26.381 30.127 26.4551 30.0994C26.5293 30.0719 26.6084 30.0604 26.6873 30.0657C26.7766 30.063 26.8655 30.0798 26.9476 30.115C27.0297 30.1503 27.1031 30.2031 27.1626 30.2697L26.9994 30.4248C26.9633 30.3828 26.9185 30.3492 26.8682 30.3263C26.8178 30.3034 26.763 30.2918 26.7077 30.2922C26.6599 30.2896 26.6121 30.2974 26.5676 30.3149C26.523 30.3325 26.4828 30.3594 26.4495 30.3938C26.4163 30.4282 26.3908 30.4693 26.3748 30.5145C26.3588 30.5596 26.3527 30.6076 26.3568 30.6553C26.3565 30.7044 26.3661 30.753 26.3852 30.7982C26.4042 30.8435 26.4322 30.8844 26.4674 30.9186C26.5027 30.9527 26.5445 30.9793 26.5904 30.9968C26.6362 31.0143 26.6852 31.0224 26.7342 31.0204C26.7884 31.0215 26.8421 31.0099 26.891 30.9866C26.9399 30.9632 26.9826 30.9287 27.0157 30.8858L27.1891 31.0408C27.1336 31.1086 27.063 31.1623 26.9829 31.1978C26.9028 31.2332 26.8156 31.2493 26.7281 31.2448C26.6474 31.2481 26.5668 31.2354 26.491 31.2074C26.4153 31.1793 26.3458 31.1366 26.2866 31.0816C26.2275 31.0266 26.1798 30.9604 26.1463 30.8869C26.1128 30.8134 26.0942 30.734 26.0916 30.6532Z" fill="#407BFF"/>
<path d="M27.2593 30.6532C27.256 30.5739 27.2694 30.4949 27.2986 30.4211C27.3279 30.3474 27.3724 30.2806 27.4291 30.2252C27.4859 30.1698 27.5537 30.1269 27.6281 30.0994C27.7025 30.072 27.7819 30.0605 27.8611 30.0657C27.942 30.0616 28.0229 30.0736 28.0991 30.1009C28.1753 30.1283 28.2453 30.1706 28.3051 30.2252C28.3649 30.2799 28.4132 30.3458 28.4473 30.4193C28.4814 30.4928 28.5006 30.5723 28.5037 30.6532C28.5073 30.7326 28.4941 30.8119 28.465 30.8859C28.4359 30.9599 28.3914 31.0269 28.3346 31.0826C28.2778 31.1382 28.2099 31.1812 28.1354 31.2089C28.0608 31.2365 27.9812 31.248 27.9019 31.2428C27.8208 31.2469 27.7398 31.2348 27.6634 31.2073C27.5871 31.1798 27.517 31.1374 27.4572 31.0825C27.3974 31.0276 27.3491 30.9614 27.3151 30.8877C27.2811 30.814 27.2622 30.7343 27.2593 30.6532ZM28.2364 30.6532C28.237 30.605 28.2279 30.5572 28.2096 30.5126C28.1912 30.4681 28.1642 30.4276 28.1299 30.3937C28.0956 30.3598 28.0549 30.3332 28.0101 30.3154C27.9653 30.2976 27.9174 30.289 27.8692 30.2901C27.8219 30.2881 27.7748 30.2963 27.7309 30.3141C27.687 30.3319 27.6475 30.359 27.615 30.3934C27.5825 30.4279 27.5578 30.4689 27.5425 30.5137C27.5273 30.5585 27.5218 30.6061 27.5265 30.6532C27.5257 30.7016 27.5346 30.7496 27.5528 30.7944C27.571 30.8392 27.598 30.8799 27.6323 30.914C27.6666 30.9481 27.7075 30.9749 27.7524 30.9929C27.7973 31.0108 27.8454 31.0195 27.8937 31.0184C27.9411 31.02 27.9883 31.0116 28.0322 30.9935C28.0761 30.9754 28.1156 30.9482 28.148 30.9136C28.1805 30.879 28.2052 30.8379 28.2204 30.793C28.2357 30.7481 28.2411 30.7004 28.2364 30.6532Z" fill="#407BFF"/>
<path d="M28.6826 30.0839H29.1987C29.2791 30.076 29.3603 30.0847 29.4372 30.1095C29.514 30.1343 29.585 30.1747 29.6456 30.2281C29.7063 30.2814 29.7553 30.3467 29.7897 30.4198C29.824 30.4929 29.843 30.5723 29.8454 30.653C29.8499 30.7328 29.8369 30.8125 29.8071 30.8867C29.7773 30.9608 29.7317 31.0275 29.6733 31.082C29.6149 31.1365 29.5452 31.1775 29.4692 31.2021C29.3932 31.2267 29.3127 31.2342 29.2334 31.2242H28.7153L28.6826 30.0839ZM29.2191 31.008C29.2673 31.013 29.3159 31.0073 29.3615 30.9913C29.4072 30.9753 29.4487 30.9494 29.4832 30.9155C29.5177 30.8816 29.5443 30.8405 29.5611 30.7951C29.5778 30.7497 29.5844 30.7012 29.5802 30.653C29.5801 30.6039 29.5698 30.5553 29.55 30.5104C29.5301 30.4654 29.5012 30.4251 29.4649 30.3919C29.4287 30.3587 29.3859 30.3334 29.3394 30.3176C29.2929 30.3018 29.2436 30.2959 29.1947 30.3001H28.9539L28.9784 31.008H29.2191Z" fill="#407BFF"/>
<path d="M30.9387 31.0086V31.2126H30.0574L30.0166 30.0723H30.8775V30.2763H30.294V30.5231H30.8224V30.7271H30.294V30.9903L30.9387 31.0086Z" fill="#407BFF"/>
<path d="M23.3338 35.4576V35.9145H21.1938V35.5535L22.3322 34.4539C22.6096 34.1826 22.6565 34.0133 22.6545 33.8419C22.6545 33.5767 22.4627 33.4217 22.1057 33.4217C21.9768 33.4152 21.8482 33.4393 21.7305 33.4922C21.6128 33.545 21.5093 33.625 21.4284 33.7256L21.0449 33.4339C21.1768 33.2726 21.345 33.1449 21.5358 33.0612C21.7266 32.9775 21.9345 32.9402 22.1424 32.9525C22.7748 32.9525 23.189 33.2727 23.1971 33.7889C23.1971 34.0704 23.1278 34.3295 22.732 34.7089L21.967 35.4494L23.3338 35.4576Z" fill="#263238"/>
<path d="M25.7047 35.0419C25.7047 35.5315 25.3497 35.9558 24.5684 35.9558C24.1749 35.9628 23.7892 35.845 23.4668 35.6192L23.6932 35.1989C23.939 35.3886 24.2416 35.49 24.5521 35.4866C24.9376 35.4866 25.1641 35.3152 25.1641 35.0459C25.1641 34.7767 24.9601 34.6114 24.5235 34.6114H24.2583V34.2422L24.8887 33.4568H23.5647V33.0039H25.5517V33.367L24.8581 34.2075C25.415 34.2728 25.7047 34.6033 25.7047 35.0419Z" fill="#263238"/>
<path d="M28.4262 35.0885C28.4262 35.6291 27.9713 35.9657 27.2471 35.9657C26.5229 35.9657 26.0537 35.6291 26.0455 35.0885C26.0394 34.9399 26.0797 34.793 26.1609 34.6683C26.242 34.5437 26.36 34.4474 26.4984 34.3928C26.3855 34.3356 26.2907 34.248 26.2248 34.1399C26.1588 34.0318 26.1243 33.9075 26.1251 33.7808C26.1251 33.281 26.5494 32.9648 27.194 32.9648C27.8387 32.9648 28.2895 33.277 28.2977 33.7808C28.304 33.9067 28.2734 34.0318 28.2096 34.1405C28.1458 34.2492 28.0516 34.3369 27.9386 34.3928C28.0805 34.4462 28.2029 34.5412 28.2899 34.6653C28.3769 34.7894 28.4244 34.9369 28.4262 35.0885ZM27.8795 35.0722C27.8795 34.7845 27.6224 34.605 27.2226 34.605C26.8228 34.605 26.5841 34.7845 26.5902 35.0722C26.5963 35.3598 26.8391 35.5414 27.2389 35.5414C27.6388 35.5414 27.8856 35.3578 27.8795 35.062V35.0722ZM26.6555 33.8074C26.6555 34.0562 26.8595 34.2154 27.2124 34.2154C27.5653 34.2154 27.7673 34.0562 27.7612 33.8074C27.755 33.5585 27.5306 33.3994 27.1961 33.3994C26.8615 33.3994 26.6555 33.534 26.6596 33.7972L26.6555 33.8074Z" fill="#263238"/>
<path d="M31.1388 35.0885C31.1388 35.6291 30.6839 35.9657 29.9597 35.9657C29.2355 35.9657 28.7642 35.6189 28.7642 35.0885C28.7584 34.9399 28.7988 34.7932 28.88 34.6686C28.9611 34.544 29.0789 34.4476 29.2171 34.3928C29.1041 34.3359 29.0093 34.2483 28.9437 34.1401C28.878 34.0319 28.8441 33.9074 28.8458 33.7808C28.8356 33.281 29.2681 32.9648 29.9127 32.9648C30.5574 32.9648 31.0082 33.277 31.0164 33.7808C31.0227 33.9067 30.9921 34.0318 30.9283 34.1405C30.8645 34.2492 30.7703 34.3369 30.6573 34.3928C30.7981 34.4472 30.9192 34.5426 31.005 34.6666C31.0909 34.7907 31.1375 34.9376 31.1388 35.0885ZM30.5921 35.0722C30.5921 34.7845 30.335 34.605 29.9352 34.605C29.5353 34.605 29.2967 34.7845 29.3028 35.0722C29.3089 35.3598 29.5517 35.5414 29.9515 35.5414C30.3513 35.5414 30.6002 35.3578 30.6002 35.062L30.5921 35.0722ZM29.3681 33.8074C29.3681 34.0562 29.5823 34.2154 29.925 34.2154C30.2677 34.2154 30.4799 34.0562 30.4758 33.8074C30.4717 33.5585 30.2432 33.3994 29.9107 33.3994C29.5782 33.3994 29.3762 33.534 29.3762 33.7972L29.3681 33.8074Z" fill="#263238"/>
<path d="M16.0121 30.6632C15.9861 30.6633 15.961 30.6534 15.9421 30.6355C15.9231 30.6177 15.9117 30.5933 15.9101 30.5673L15.549 25.6366C15.5473 25.6099 15.5562 25.5836 15.5738 25.5634C15.5914 25.5431 15.6162 25.5306 15.6429 25.5285C15.6698 25.5268 15.6964 25.5357 15.7169 25.5532C15.7375 25.5707 15.7504 25.5955 15.753 25.6224L16.1162 30.5531C16.1173 30.5665 16.1157 30.5799 16.1116 30.5927C16.1075 30.6056 16.1009 30.6174 16.0921 30.6277C16.0834 30.6379 16.0728 30.6463 16.0608 30.6524C16.0488 30.6585 16.0357 30.6622 16.0223 30.6632H16.0121Z" fill="#407BFF"/>
<path d="M15.5819 24.786C15.5562 24.7861 15.5314 24.7765 15.5125 24.7591C15.4936 24.7417 15.482 24.7178 15.4799 24.6922L15.384 23.3906C15.3831 23.3772 15.3848 23.3638 15.3891 23.3511C15.3933 23.3383 15.4001 23.3266 15.4089 23.3164C15.4267 23.296 15.4518 23.2834 15.4789 23.2815C15.506 23.2796 15.5326 23.2885 15.5531 23.3063C15.5736 23.3241 15.5861 23.3493 15.588 23.3764L15.6839 24.6779C15.6856 24.7046 15.6767 24.7309 15.6592 24.7512C15.6416 24.7714 15.6168 24.7839 15.5901 24.786H15.5819Z" fill="#407BFF"/>
<path d="M25.1674 18.5828C25.1404 18.5828 25.1144 18.572 25.0953 18.5529C25.0762 18.5338 25.0654 18.5078 25.0654 18.4808V15.4799C25.0654 15.4529 25.0762 15.4269 25.0953 15.4078C25.1144 15.3887 25.1404 15.3779 25.1674 15.3779C25.1945 15.3779 25.2204 15.3887 25.2396 15.4078C25.2587 15.4269 25.2694 15.4529 25.2694 15.4799V18.4808C25.2694 18.5078 25.2587 18.5338 25.2396 18.5529C25.2204 18.572 25.1945 18.5828 25.1674 18.5828Z" fill="#407BFF"/>
<path d="M22.7912 19.2193C22.7734 19.2192 22.756 19.2145 22.7406 19.2055C22.7252 19.1966 22.7124 19.1837 22.7035 19.1683L21.2021 16.5694C21.1886 16.5458 21.1849 16.5179 21.192 16.4917C21.1991 16.4655 21.2163 16.4432 21.2398 16.4296C21.2634 16.4161 21.2913 16.4125 21.3175 16.4196C21.3437 16.4266 21.366 16.4438 21.3796 16.4674L22.879 19.0663C22.8859 19.0778 22.8904 19.0905 22.8923 19.1038C22.8942 19.117 22.8934 19.1305 22.89 19.1435C22.8865 19.1564 22.8805 19.1685 22.8724 19.1791C22.8642 19.1897 22.8539 19.1985 22.8422 19.205C22.8266 19.2138 22.8091 19.2187 22.7912 19.2193Z" fill="#407BFF"/>
<path d="M27.5409 19.2193C27.5231 19.2194 27.5056 19.2152 27.4899 19.2071C27.4666 19.1931 27.4497 19.1705 27.4428 19.1442C27.436 19.1179 27.4397 19.0899 27.4532 19.0663L28.9526 16.4674C28.9661 16.4438 28.9884 16.4266 29.0146 16.4196C29.0408 16.4125 29.0688 16.4161 29.0923 16.4296C29.1158 16.4432 29.133 16.4655 29.1401 16.4917C29.1472 16.5179 29.1436 16.5458 29.13 16.5694L27.6327 19.1765C27.6224 19.191 27.6086 19.2026 27.5925 19.2101C27.5764 19.2176 27.5586 19.2208 27.5409 19.2193Z" fill="#407BFF"/>
<path d="M62.695 84.4303C62.4811 80.1606 62.899 75.8828 63.9354 71.7354L64.1394 71.7843C63.1083 75.9125 62.6917 80.1703 62.9031 84.4201L62.695 84.4303Z" fill="#FFB831"/>
<path d="M63.0803 71.584C63.0803 71.9635 63.4312 73.3119 63.8127 73.3017C64.1941 73.2915 64.4695 71.9308 64.4593 71.5494C64.4571 71.4588 64.437 71.3696 64.4002 71.2868C64.3635 71.204 64.3108 71.1293 64.2451 71.0669C64.1795 71.0044 64.1022 70.9556 64.0177 70.923C63.9331 70.8905 63.843 70.8749 63.7525 70.8772C63.6619 70.8794 63.5727 70.8995 63.4899 70.9363C63.4071 70.9731 63.3324 71.0257 63.27 71.0914C63.2076 71.157 63.1587 71.2343 63.1261 71.3188C63.0936 71.4034 63.078 71.4935 63.0803 71.584Z" fill="#FFB831"/>
<path d="M64.5638 75.8662C64.5638 75.4848 64.2129 74.1384 63.8335 74.1465C63.454 74.1547 63.1766 75.5174 63.1847 75.8989C63.1869 75.9894 63.2068 76.0787 63.2435 76.1615C63.2801 76.2443 63.3327 76.3192 63.3982 76.3817C63.4638 76.4442 63.541 76.4932 63.6255 76.5258C63.71 76.5585 63.8 76.5742 63.8906 76.5721C63.9811 76.5699 64.0704 76.55 64.1532 76.5134C64.236 76.4767 64.3109 76.4241 64.3734 76.3586C64.4359 76.293 64.4849 76.2158 64.5175 76.1314C64.5502 76.0469 64.5659 75.9568 64.5638 75.8662Z" fill="#FFB831"/>
<path d="M61.6816 74.4604C62.0631 74.4604 63.4095 74.1095 63.3993 73.728C63.3891 73.3465 62.0305 73.0711 61.649 73.0813C61.5584 73.0835 61.4692 73.1034 61.3864 73.1401C61.3035 73.1767 61.2287 73.2293 61.1662 73.2948C61.1037 73.3604 61.0547 73.4376 61.022 73.5221C60.9894 73.6065 60.9736 73.6966 60.9758 73.7872C60.9779 73.8777 60.9979 73.967 61.0345 74.0498C61.0711 74.1326 61.1237 74.2074 61.1893 74.27C61.2548 74.3325 61.332 74.3815 61.4165 74.4141C61.501 74.4468 61.5911 74.4625 61.6816 74.4604Z" fill="#FFB831"/>
<path d="M65.9629 72.9836C65.5834 72.9836 64.235 73.3345 64.2452 73.7139C64.2554 74.0934 65.6161 74.3708 65.9975 74.3627C66.0881 74.3604 66.1773 74.3403 66.2601 74.3035C66.3429 74.2668 66.4176 74.2141 66.48 74.1484C66.5424 74.0828 66.5913 74.0055 66.6239 73.921C66.6564 73.8365 66.672 73.7463 66.6697 73.6558C66.6674 73.5652 66.6473 73.476 66.6106 73.3932C66.5738 73.3105 66.5211 73.2357 66.4555 73.1733C66.3899 73.1109 66.3126 73.062 66.228 73.0295C66.1435 72.9969 66.0534 72.9813 65.9629 72.9836Z" fill="#FFB831"/>
<path d="M61.7837 72.7344C62.0611 72.9975 63.2545 73.7095 63.5177 73.4321C63.7808 73.1546 63.0117 72.0041 62.7363 71.7368C62.6041 71.6105 62.427 71.5419 62.2441 71.5461C62.0613 71.5503 61.8876 71.627 61.7612 71.7593C61.6349 71.8915 61.5663 72.0686 61.5705 72.2515C61.5747 72.4343 61.6514 72.608 61.7837 72.7344Z" fill="#FFB831"/>
<path d="M65.8613 74.7132C65.5859 74.45 64.3925 73.7401 64.1293 74.0155C63.8662 74.2909 64.6332 75.4435 64.9086 75.7128C64.9743 75.7754 65.0516 75.8244 65.1361 75.857C65.2207 75.8897 65.3109 75.9054 65.4016 75.9032C65.4922 75.9011 65.5815 75.881 65.6644 75.8443C65.7473 75.8076 65.8222 75.755 65.8848 75.6893C65.9473 75.6237 65.9963 75.5464 66.029 75.4618C66.0617 75.3772 66.0774 75.2871 66.0752 75.1964C66.073 75.1058 66.053 75.0164 66.0163 74.9335C65.9796 74.8506 65.9269 74.7758 65.8613 74.7132Z" fill="#FFB831"/>
<path d="M62.8318 75.7636C63.095 75.4862 63.8049 74.2928 63.5295 74.0296C63.2541 73.7665 62.1015 74.5355 61.8322 74.8109C61.7059 74.9435 61.6374 75.1208 61.6418 75.3039C61.6462 75.4869 61.7231 75.6607 61.8557 75.7871C61.9882 75.9134 62.1656 75.9819 62.3486 75.9775C62.5317 75.9731 62.7055 75.8962 62.8318 75.7636Z" fill="#FFB831"/>
<path d="M64.8125 71.686C64.5494 71.9614 63.8374 73.1548 64.1148 73.418C64.3923 73.6811 65.5428 72.9141 65.8101 72.6387C65.8726 72.5732 65.9217 72.496 65.9544 72.4116C65.9871 72.3271 66.0029 72.237 66.0008 72.1465C65.9987 72.0559 65.9788 71.9667 65.9423 71.8838C65.9057 71.801 65.8531 71.7261 65.7876 71.6636C65.7221 71.601 65.645 71.552 65.5605 71.5193C65.476 71.4865 65.386 71.4708 65.2954 71.4728C65.2049 71.4749 65.1156 71.4948 65.0328 71.5314C64.9499 71.568 64.8751 71.6205 64.8125 71.686Z" fill="#FFB831"/>
<path d="M63.0051 73.7448C63.0092 73.906 63.061 74.0624 63.1539 74.1943C63.2468 74.3261 63.3767 74.4275 63.5272 74.4855C63.6776 74.5436 63.8419 74.5557 63.9993 74.5205C64.1567 74.4852 64.3001 74.4041 64.4114 74.2874C64.5227 74.1706 64.5969 74.0236 64.6247 73.8647C64.6525 73.7058 64.6325 73.5423 64.5674 73.3947C64.5023 73.2472 64.3949 73.1222 64.2588 73.0357C64.1227 72.9491 63.964 72.9048 63.8028 72.9084C63.6954 72.9108 63.5896 72.9343 63.4914 72.9777C63.3932 73.021 63.3045 73.0833 63.2304 73.161C63.1563 73.2387 63.0982 73.3303 63.0596 73.4305C63.0209 73.5307 63.0024 73.6375 63.0051 73.7448Z" fill="white"/>
<path d="M62.8887 79.8155C62.8887 79.8155 63.0294 77.7326 64.1739 77.4042C65.3183 77.0758 65.7365 76.627 65.7365 76.627C65.7365 76.627 65.6202 79.8563 62.8887 79.8155Z" fill="#FFB831"/>
<path opacity="0.5" d="M62.8887 79.8155C62.8887 79.8155 63.0294 77.7326 64.1739 77.4042C65.3183 77.0758 65.7365 76.627 65.7365 76.627C65.7365 76.627 65.6202 79.8563 62.8887 79.8155Z" fill="white"/>
<path d="M62.7385 81.4112C62.7385 81.4112 62.5977 79.3283 61.4533 78.9979C60.3088 78.6674 59.8906 78.2227 59.8906 78.2227C59.8906 78.2227 60.0069 81.452 62.7385 81.4112Z" fill="#FFB831"/>
<path opacity="0.5" d="M62.7385 81.4112C62.7385 81.4112 62.5977 79.3283 61.4533 78.9979C60.3088 78.6674 59.8906 78.2227 59.8906 78.2227C59.8906 78.2227 60.0069 81.452 62.7385 81.4112Z" fill="white"/>
<path d="M67.0547 85.7496C67.0547 87.3816 65.1187 88.6913 62.7319 88.6913C60.3451 88.6913 58.4092 87.3755 58.4092 85.7496C58.4092 84.9336 58.9049 84.1829 59.7066 83.6505C60.2118 83.3209 60.7733 83.0872 61.3631 82.9609H64.1008C64.7058 83.0911 65.2809 83.334 65.796 83.677C66.5753 84.2094 67.0547 84.9397 67.0547 85.7496Z" fill="#FFB831"/>
<path opacity="0.8" d="M64.1008 82.9609C64.7058 83.0911 65.2809 83.334 65.796 83.677C66.5753 84.2094 67.0547 84.9397 67.0547 85.7496C67.0547 87.3816 65.1187 88.6913 62.7319 88.6913C60.3451 88.6913 58.4092 87.3755 58.4092 85.7496C58.4092 84.9336 58.9049 84.1829 59.7066 83.6505C60.2118 83.3209 60.7733 83.0872 61.3631 82.9609H64.1008Z" fill="white"/>
<path d="M62.8466 83.2266H62.6426V84.6811H62.8466V83.2266Z" fill="#FFB831"/>
<path d="M65.9861 82.916L65.7576 83.63L65.7536 83.6382H59.709L59.6968 83.5994L59.4785 82.916H65.9861Z" fill="#FFB831"/>
<path d="M66.5444 86.3409C66.1113 86.9413 65.5423 87.4306 64.8839 87.7689C63.8455 88.3197 59.4779 88.4605 58.9781 85.9839C58.9781 85.9492 58.9597 85.9146 58.9536 85.8799C58.9317 85.7265 58.945 85.5702 58.9926 85.4228C59.0401 85.2753 59.1207 85.1407 59.228 85.029C59.3354 84.9173 59.4667 84.8315 59.6122 84.7782C59.7576 84.7249 59.9133 84.7054 60.0674 84.7212C60.4815 84.749 60.8974 84.7257 61.3057 84.6518C62.8738 84.4143 64.474 84.4997 66.0079 84.9027C66.1532 84.9412 66.2872 85.014 66.3986 85.115C66.51 85.216 66.5955 85.3422 66.6481 85.4831C66.7006 85.6239 66.7187 85.7754 66.7006 85.9246C66.6826 86.0739 66.629 86.2166 66.5444 86.3409Z" fill="#263238"/>
<path d="M35.1914 85.5167C35.2296 85.5018 35.2635 85.4776 35.2898 85.4462C35.3162 85.4149 35.3343 85.3774 35.3424 85.3372C35.3502 85.313 35.3513 85.2871 35.3455 85.2623C35.3398 85.2375 35.3274 85.2148 35.3098 85.1965C35.1527 85.0333 34.5142 85.1495 34.4428 85.1638C34.4345 85.1645 34.4266 85.1679 34.4204 85.1734C34.4141 85.1789 34.4098 85.1863 34.4081 85.1944C34.4065 85.2024 34.4071 85.2106 34.41 85.2182C34.4129 85.2258 34.4179 85.2324 34.4244 85.2373C34.5517 85.3302 34.6885 85.4096 34.8324 85.4739C34.9434 85.5298 35.0704 85.545 35.1914 85.5167ZM35.2486 85.2536C35.2561 85.2621 35.2612 85.2724 35.2633 85.2835C35.2655 85.2946 35.2646 85.3061 35.2608 85.3168C35.2561 85.3436 35.2446 85.3687 35.2275 85.3897C35.2104 85.4108 35.1881 85.4271 35.1629 85.4372C35.0466 85.48 34.8242 85.4005 34.5509 85.2332C34.8161 85.1883 35.1649 85.1659 35.2486 85.2536Z" fill="#407BFF"/>
<path d="M34.4556 85.2451C34.6596 85.2207 35.1002 84.9901 35.139 84.7902C35.1458 84.7576 35.1409 84.7236 35.1253 84.6942C35.1096 84.6647 35.0841 84.6417 35.0533 84.6291C35.0246 84.6132 34.9927 84.6037 34.96 84.6012C34.9273 84.5988 34.8944 84.6034 34.8636 84.6148C34.6188 84.6984 34.4189 85.1676 34.4107 85.188C34.4078 85.1944 34.4062 85.2014 34.4062 85.2084C34.4062 85.2155 34.4078 85.2224 34.4107 85.2288C34.4155 85.2351 34.4218 85.24 34.4291 85.2431L34.4556 85.2451ZM35.0105 84.7025C35.0594 84.729 35.0615 84.7555 35.0574 84.7739C35.0329 84.8963 34.733 85.086 34.5229 85.1452C34.5984 84.9922 34.7453 84.7372 34.8921 84.6923C34.9248 84.6789 34.9615 84.6789 34.9941 84.6923L35.0105 84.7025Z" fill="#407BFF"/>
<path d="M32.5195 84.4232L34.1801 85.0943L35.6305 81.2571L33.9679 80.5859L32.5195 84.4232Z" fill="#FFB573"/>
<path d="M34.3899 84.9581L32.5253 84.2053C32.4936 84.1914 32.4579 84.1896 32.4248 84.2001C32.3918 84.2106 32.3637 84.2328 32.3458 84.2624L31.5298 85.6292C31.5105 85.6644 31.499 85.7032 31.4959 85.7432C31.4929 85.7832 31.4984 85.8233 31.5121 85.861C31.5258 85.8986 31.5474 85.9329 31.5754 85.9616C31.6035 85.9902 31.6373 86.0125 31.6747 86.027C32.3315 86.28 32.66 86.3677 33.4801 86.7002C33.986 86.9042 34.7041 87.2531 35.3977 87.5366C36.0913 87.8202 36.4177 87.1552 36.1504 86.9756C34.9652 86.1739 34.9264 85.7108 34.6306 85.1723C34.5779 85.0749 34.4927 84.9991 34.3899 84.9581Z" fill="#263238"/>
<path d="M35.6082 83.1396L32.7236 81.9727L32.9888 80.916L36.0835 82.0482L35.6082 83.1396Z" fill="#407BFF"/>
<path d="M38.4961 38.7252C37.9107 40.4205 36.1787 44.4107 34.8425 42.7481C34.602 42.4544 34.4054 42.1273 34.259 41.7771C33.694 40.3797 33.5532 38.1153 33.4818 37.6196L33.0269 36.0671C33.0189 36.0407 33.0147 36.0132 33.0146 35.9855V35.0981C33.0146 34.7391 33.3043 34.5249 33.696 34.5575C33.696 34.5575 34.3284 34.4841 34.3284 34.8615L34.4508 36.1936C34.5141 36.6567 34.3305 37.3013 34.4386 37.7256C34.8466 39.323 35.4076 39.3964 35.7605 41.0447C36.2521 39.8554 37.1314 37.797 37.1314 37.797C37.7148 37.8705 38.6879 38.1683 38.4961 38.7252Z" fill="#FFB573"/>
<path d="M36.4036 43.3556C36.3118 43.4987 36.1867 43.6174 36.0389 43.7015C35.8911 43.7856 35.7251 43.8326 35.5552 43.8384C35.3853 43.8442 35.2165 43.8087 35.0633 43.7349C34.9101 43.6611 34.7771 43.5513 34.6757 43.4147C34.4339 43.0934 34.2439 42.7362 34.1127 42.356C33.5823 40.6159 33.2539 39.5387 33.209 37.7211C33.397 37.5312 33.6344 37.3978 33.8945 37.3361C34.1545 37.2744 34.4266 37.287 34.6798 37.3723L35.5489 40.316C35.5489 40.316 37.3175 35.9198 38.0336 35.7627C38.8761 35.5771 39.227 36.3298 39.584 37.256C39.841 37.921 37.5562 41.5787 36.4036 43.3556Z" fill="#407BFF"/>
<path d="M43.5493 31.3623C43.3453 32.3823 42.9006 34.61 43.6146 35.2913C43.6146 35.2913 43.3351 36.3256 41.44 36.3256C39.353 36.3256 40.4424 35.2913 40.4424 35.2913C41.5807 35.02 41.5501 34.1755 41.3522 33.3819L43.5493 31.3623Z" fill="#FFB573"/>
<path d="M40.3606 28.968C40.3727 28.9699 40.3851 28.9699 40.3973 28.968C40.4161 28.9576 40.4302 28.9403 40.4367 28.9198C40.4432 28.8993 40.4415 28.8771 40.432 28.8578C40.3775 28.7406 40.2953 28.6384 40.1927 28.5598C40.09 28.4813 39.9698 28.4289 39.8424 28.407C39.8318 28.4055 39.821 28.4063 39.8107 28.4091C39.8004 28.412 39.7907 28.4169 39.7823 28.4235C39.774 28.4302 39.767 28.4385 39.7619 28.4479C39.7568 28.4573 39.7537 28.4677 39.7527 28.4784C39.7512 28.489 39.752 28.4998 39.7548 28.5101C39.7577 28.5204 39.7626 28.53 39.7692 28.5384C39.7759 28.5468 39.7842 28.5538 39.7936 28.5589C39.803 28.564 39.8134 28.5671 39.8241 28.5681C39.9245 28.5877 40.0188 28.6308 40.0993 28.6939C40.1798 28.7571 40.2442 28.8384 40.2871 28.9312C40.295 28.9433 40.306 28.9531 40.3189 28.9595C40.3318 28.966 40.3462 28.9689 40.3606 28.968Z" fill="#263238"/>
<path d="M39.7384 29.8486C39.577 30.1469 39.3752 30.4215 39.1387 30.6646C39.2027 30.7233 39.2788 30.7674 39.3615 30.7938C39.4443 30.8203 39.5319 30.8284 39.6181 30.8176L39.7384 29.8486Z" fill="#ED893E"/>
<path d="M39.9019 29.5517C39.9325 29.6863 39.8835 29.8128 39.7958 29.8312C39.7081 29.8495 39.6101 29.7557 39.5816 29.6272C39.553 29.4987 39.5999 29.3661 39.6897 29.3457C39.7795 29.3253 39.8733 29.415 39.9019 29.5517Z" fill="#263238"/>
<path d="M39.7306 29.3389L39.3838 29.3145C39.3838 29.3145 39.6061 29.5327 39.7306 29.3389Z" fill="#263238"/>
<path opacity="0.2" d="M38.4226 37.8562C38.7837 37.5237 39.0346 37.6237 39.1937 37.8868C39.359 38.6498 38.3777 40.2491 37.9922 40.855L38.4226 37.8562Z" fill="black"/>
<path d="M46.7769 38.862C46.73 39.7025 46.6505 40.7613 46.5219 42.0934C46.3873 43.4989 46.1955 45.2064 45.9324 47.2811C43.16 47.2811 40.2571 47.2383 38.9087 47.2383C39.0229 44.4822 39.0637 41.6895 37.8275 36.2059C37.812 36.138 37.8103 36.0676 37.8225 35.9989C37.8348 35.9303 37.8607 35.8648 37.8988 35.8064C37.9368 35.7479 37.9863 35.6978 38.0441 35.6588C38.1019 35.6199 38.167 35.593 38.2355 35.5797C39.0414 35.4336 39.8555 35.3375 40.6733 35.292C41.7293 35.2165 42.7894 35.2165 43.8455 35.292C45.2061 35.4165 46.7525 35.7327 46.7525 35.7327C46.7525 35.7327 46.9197 36.2386 46.7769 38.862Z" fill="#407BFF"/>
<path opacity="0.2" d="M46.7766 38.8614C46.7297 39.7019 46.6501 40.7606 46.5216 42.0928C45.775 41.2278 45.0691 38.2494 45.2976 37.2314C45.8542 37.6431 46.3435 38.1386 46.748 38.7002C46.7605 38.7534 46.77 38.8072 46.7766 38.8614Z" fill="black"/>
<path d="M53.9758 42.5946L55.4038 41.7949L55.669 43.2494C55.669 43.2494 54.4654 43.7125 53.833 43.3882L53.9758 42.5946Z" fill="#FFB573"/>
<path d="M56.3481 41.9601L56.4481 42.4354C56.4627 42.5083 56.4557 42.5839 56.4277 42.6528C56.3998 42.7217 56.3523 42.7809 56.291 42.823L55.6627 43.2473L55.3975 41.7928L55.8891 41.6704C55.9383 41.6581 55.9895 41.6559 56.0396 41.6639C56.0897 41.6719 56.1376 41.69 56.1805 41.7171C56.2234 41.7442 56.2604 41.7797 56.2892 41.8214C56.318 41.8632 56.338 41.9104 56.3481 41.9601Z" fill="#FFB573"/>
<path d="M45.4102 37.418C45.8651 38.3441 47.5338 41.8427 48.2662 42.6506L48.411 42.8015L48.4824 42.877C48.5069 42.9015 48.5273 42.9239 48.566 42.9586C48.6977 43.0836 48.8427 43.1938 48.9985 43.287C49.2767 43.4477 49.5761 43.5686 49.888 43.6461C50.4347 43.7729 50.9959 43.8257 51.5567 43.8032C52.6016 43.7614 53.6368 43.5859 54.6371 43.2809L54.4678 42.4323C53.9965 42.4731 53.5028 42.5016 53.0255 42.5098C52.5524 42.5237 52.0789 42.5087 51.6077 42.4649C51.1707 42.4335 50.7392 42.3493 50.3225 42.214C50.1541 42.1574 49.9948 42.077 49.8492 41.9753C49.7934 41.9362 49.7421 41.891 49.6962 41.8407C49.6801 41.824 49.6651 41.8063 49.6513 41.7876L49.5983 41.7244L49.4902 41.5979C48.9271 40.8921 47.44 37.4894 46.9932 36.6387L45.4102 37.418Z" fill="#FFB573"/>
<path d="M53.9532 44.0436C52.7775 44.6685 51.4021 44.802 50.1282 44.4149C48.913 44.0241 47.8878 43.1932 47.2539 42.0852C46.5174 41.002 44.557 37.9379 44.8059 37.1464C45.0976 36.1998 45.7177 35.6123 46.7541 35.8673C47.4823 36.0427 48.8716 39.5801 49.5448 40.9938C49.8079 41.3875 50.3139 42.0138 50.8789 42.2056C51.8765 42.5503 52.6109 42.4096 53.6554 42.2525C53.8471 42.3667 53.8329 42.5442 53.9287 42.7421C54.0317 42.9428 54.0874 43.1645 54.0916 43.39C54.0959 43.6156 54.0485 43.8391 53.9532 44.0436Z" fill="#407BFF"/>
<path d="M44.5774 29.7292C44.2653 31.406 44.1694 32.1221 43.2066 32.885C41.7622 34.0315 39.7691 33.2808 39.5753 31.5427C39.3999 29.978 39.9405 27.4974 41.6786 27.0302C42.0613 26.9252 42.4645 26.9198 42.85 27.0145C43.2354 27.1092 43.5902 27.3009 43.8806 27.5713C44.1711 27.8418 44.3876 28.182 44.5096 28.5597C44.6315 28.9373 44.6549 29.3399 44.5774 29.7292Z" fill="#FFB573"/>
<path d="M50.5304 39.0128C50.2101 39.3779 50.1101 39.5901 49.6634 39.788C49.2166 39.9858 48.2496 39.8124 47.9416 39.435C48.0416 39.7288 48.625 40.251 48.931 40.298C48.5856 40.4873 48.186 40.5534 47.7981 40.4851C47.4102 40.4169 47.0571 40.2185 46.7972 39.9226C46.8398 40.1066 46.929 40.2765 47.0562 40.4162C47.1833 40.5558 47.3442 40.6605 47.5234 40.7202C43.6148 40.8222 45.261 38.9822 42.813 36.3648C40.1039 33.468 40.6914 31.0731 40.6914 31.0731C40.6979 30.4766 40.5111 29.894 40.159 29.4125C39.7673 28.9107 39.8816 28.2334 40.006 27.854C40.1876 27.297 40.7404 27.1012 41.2708 27.0686C41.3646 26.5198 42.4948 26.6198 42.6315 26.7116C42.7682 26.8034 42.7845 26.785 42.9089 26.7116C43.1843 26.5341 43.8779 26.3505 44.6205 26.9502C45.0734 27.3174 45.5589 27.9702 45.5752 29.3738C45.5915 30.8283 44.8959 32.5562 47.3031 34.7655C48.7209 36.0629 48.0416 38.8598 50.5304 39.0128Z" fill="#263238"/>
<path d="M40.3689 29.8551C40.1793 30.124 40.1004 30.4557 40.1486 30.7812C40.218 31.2117 40.6362 31.2402 40.9401 30.9648C41.2441 30.6894 41.5093 30.1917 41.2849 29.8347C41.0605 29.4777 40.6056 29.5287 40.3689 29.8551Z" fill="#FFB573"/>
<path d="M44.1558 47.2791C44.1558 47.2791 43.3215 58.9907 42.3831 66.7142C42.1009 69.0321 41.3941 71.2782 40.2982 73.3401L35.7 82.0223L33.3418 81.0941C33.3418 81.0941 34.9738 72.8423 38.1542 68.3421C38.1542 68.3421 35.7755 54.8924 38.8886 47.2383L44.1558 47.2791Z" fill="#263238"/>
<path opacity="0.2" d="M40.9488 50.1162C40.9488 50.1162 41.6506 55.4202 42.0341 58.5761C40.5959 56.6789 39.48 54.031 40.9488 50.1162Z" fill="black"/>
<path d="M50.1105 86.6161C50.138 86.5856 50.1569 86.5485 50.1655 86.5084C50.1741 86.4683 50.172 86.4267 50.1595 86.3876C50.1548 86.3626 50.1434 86.3394 50.1265 86.3203C50.1096 86.3013 50.0879 86.2872 50.0636 86.2795C49.8453 86.2061 49.3374 86.6039 49.2803 86.6488C49.274 86.6542 49.2693 86.6613 49.2668 86.6692C49.2642 86.6771 49.264 86.6856 49.266 86.6936C49.2686 86.7012 49.2732 86.7078 49.2793 86.7128C49.2854 86.7179 49.2928 86.7211 49.3007 86.7222C49.4593 86.7463 49.6201 86.7525 49.7801 86.7406C49.9013 86.7386 50.0181 86.6946 50.1105 86.6161ZM50.0351 86.3591C50.046 86.3623 50.0557 86.3686 50.0629 86.3774C50.0702 86.3861 50.0747 86.3968 50.0759 86.408C50.0848 86.4335 50.0869 86.4609 50.0819 86.4874C50.0769 86.5139 50.0649 86.5386 50.0473 86.559C49.9657 86.6508 49.7331 86.6834 49.4149 86.6508C49.623 86.4958 49.9208 86.3183 50.0351 86.3591Z" fill="#407BFF"/>
<path d="M49.3313 86.7161C49.4924 86.6039 49.78 86.1939 49.7188 86.0001C49.7091 85.9678 49.6886 85.9399 49.6608 85.9209C49.6329 85.902 49.5994 85.8932 49.5658 85.896C49.5334 85.8951 49.5011 85.9012 49.4712 85.9139C49.4412 85.9265 49.4144 85.9455 49.3924 85.9695C49.215 86.1572 49.2619 86.6631 49.2639 86.6855C49.2651 86.6928 49.268 86.6996 49.2722 86.7056C49.2765 86.7116 49.282 86.7166 49.2884 86.7202C49.2958 86.7221 49.3035 86.7221 49.3108 86.7202C49.3179 86.7209 49.325 86.7195 49.3313 86.7161ZM49.5638 85.9797C49.6189 85.9797 49.6332 86.0041 49.6393 86.0225C49.674 86.1429 49.5006 86.4468 49.3435 86.5957C49.3198 86.3992 49.3583 86.2001 49.4536 86.0266C49.4768 86.0008 49.5089 85.9847 49.5434 85.9817L49.5638 85.9797Z" fill="#407BFF"/>
<path d="M47.2293 86.8814L49.0164 86.71L48.4697 82.6504L46.6826 82.8238L47.2293 86.8814Z" fill="#FFB573"/>
<path d="M49.1371 86.4957L47.1298 86.6895C47.0953 86.692 47.0629 86.7071 47.0388 86.7319C47.0147 86.7567 47.0006 86.7896 46.9992 86.8241L46.9258 88.4092C46.9258 88.4495 46.9343 88.4892 46.9508 88.526C46.9673 88.5627 46.9913 88.5955 47.0214 88.6223C47.0514 88.649 47.0868 88.6692 47.1252 88.6813C47.1635 88.6935 47.204 88.6974 47.244 88.6928C47.9417 88.6152 48.264 88.5418 49.1575 88.4561C49.7002 88.4031 50.4999 88.3827 51.2506 88.3113C52.0013 88.2399 51.9666 87.5055 51.6586 87.4688C50.2306 87.3076 49.9674 86.92 49.4574 86.5753C49.3632 86.5123 49.2499 86.4842 49.1371 86.4957Z" fill="#263238"/>
<path d="M45.9223 47.2765C45.9223 47.2765 48.2091 61.2526 48.6477 69.5309L48.7314 84.3617L46.8811 84.7228C46.8811 84.7228 44.2026 75.2612 43.8925 69.792C43.0765 55.2835 38.3498 55.259 41.1936 47.25L45.9223 47.2765Z" fill="#263238"/>
<path d="M49.3449 84.4234L46.2828 84.8416L45.9707 83.6666L49.2449 83.2402L49.3449 84.4234Z" fill="#407BFF"/>
<path d="M32.8439 32.2832H32.9602C32.9325 32.2832 32.9051 32.2888 32.8797 32.2996C32.8542 32.3105 32.8313 32.3265 32.8122 32.3465C32.7931 32.3666 32.7783 32.3903 32.7687 32.4162C32.7591 32.4421 32.7548 32.4698 32.7562 32.4974L32.9439 36.049C32.9494 36.1048 32.9754 36.1565 33.0169 36.1942C33.0583 36.2318 33.1123 36.2528 33.1683 36.253H33.0479C32.992 36.2524 32.9383 36.2312 32.897 36.1936C32.8556 36.156 32.8295 36.1046 32.8235 36.049L32.6399 32.4974C32.6385 32.4698 32.6428 32.4421 32.6524 32.4162C32.662 32.3903 32.6768 32.3666 32.6959 32.3465C32.715 32.3265 32.738 32.3105 32.7634 32.2996C32.7888 32.2888 32.8162 32.2832 32.8439 32.2832Z" fill="#407BFF"/>
<path opacity="0.1" d="M32.8439 32.2832H32.9602C32.9325 32.2832 32.9051 32.2888 32.8797 32.2996C32.8542 32.3105 32.8313 32.3265 32.8122 32.3465C32.7931 32.3666 32.7783 32.3903 32.7687 32.4162C32.7591 32.4421 32.7548 32.4698 32.7562 32.4974L32.9439 36.049C32.9494 36.1048 32.9754 36.1565 33.0169 36.1942C33.0583 36.2318 33.1123 36.2528 33.1683 36.253H33.0479C32.992 36.2524 32.9383 36.2312 32.897 36.1936C32.8556 36.156 32.8295 36.1046 32.8235 36.049L32.6399 32.4974C32.6385 32.4698 32.6428 32.4421 32.6524 32.4162C32.662 32.3903 32.6768 32.3666 32.6959 32.3465C32.715 32.3265 32.738 32.3105 32.7634 32.2996C32.7888 32.2888 32.8162 32.2832 32.8439 32.2832Z" fill="white"/>
<path d="M33.0783 36.2628H34.5063C34.5604 36.2628 34.6123 36.2413 34.6505 36.2031C34.6888 36.1648 34.7103 36.1129 34.7103 36.0588L34.5246 32.5072C34.521 32.4498 34.4959 32.3958 34.4543 32.3561C34.4128 32.3164 34.3577 32.2939 34.3002 32.293H32.8722C32.8446 32.2929 32.8172 32.2985 32.7917 32.3094C32.7663 32.3203 32.7433 32.3362 32.7242 32.3563C32.7052 32.3763 32.6904 32.4 32.6807 32.426C32.6711 32.4519 32.6668 32.4795 32.6682 32.5072L32.8539 36.0588C32.8598 36.1144 32.886 36.1658 32.9273 36.2034C32.9687 36.241 33.0224 36.2621 33.0783 36.2628Z" fill="#407BFF"/>
<path opacity="0.4" d="M33.0783 36.2628H34.5063C34.5604 36.2628 34.6123 36.2413 34.6505 36.2031C34.6888 36.1648 34.7103 36.1129 34.7103 36.0588L34.5246 32.5072C34.521 32.4498 34.4959 32.3958 34.4543 32.3561C34.4128 32.3164 34.3577 32.2939 34.3002 32.293H32.8722C32.8446 32.2929 32.8172 32.2985 32.7917 32.3094C32.7663 32.3203 32.7433 32.3362 32.7242 32.3563C32.7052 32.3763 32.6904 32.4 32.6807 32.426C32.6711 32.4519 32.6668 32.4795 32.6682 32.5072L32.8539 36.0588C32.8598 36.1144 32.886 36.1658 32.9273 36.2034C32.9687 36.241 33.0224 36.2621 33.0783 36.2628Z" fill="white"/>
<path d="M34.6242 35.9752C34.6253 35.993 34.6228 36.0109 34.6168 36.0277C34.6108 36.0445 34.6015 36.06 34.5895 36.0731C34.5638 36.0981 34.5294 36.112 34.4936 36.1119H33.1044C33.0655 36.1114 33.0283 36.0962 33.0003 36.0693C32.9722 36.0424 32.9555 36.0058 32.9534 35.967L32.7718 32.5215C32.7705 32.5039 32.7729 32.4863 32.7789 32.4698C32.7849 32.4533 32.7943 32.4382 32.8065 32.4256C32.8188 32.4125 32.8336 32.4021 32.8501 32.395C32.8667 32.388 32.8844 32.3845 32.9024 32.3848H34.2916C34.3305 32.3852 34.3677 32.4005 34.3957 32.4274C34.4238 32.4543 34.4405 32.4908 34.4426 32.5296L34.4548 32.7765L34.6242 35.9752Z" fill="#263238"/>
<g opacity="0.1">
<path d="M34.4553 32.7766L33.9942 36.1079H33.4414L33.9636 32.3809H34.2921C34.3309 32.3813 34.3682 32.3965 34.3962 32.4234C34.4242 32.4503 34.441 32.4869 34.443 32.5257L34.4553 32.7766Z" fill="white"/>
<path d="M33.2416 36.1118H33.1172L33.6394 32.3848H33.7639L33.2416 36.1118Z" fill="white"/>
</g>
<path d="M38.4572 47.6747C37.4185 49.7218 36.8604 51.9788 36.8252 54.2741C40.2932 56.9649 43.5225 53.8131 47.4924 54.3455C47.3536 52.5524 46.7437 49.2455 46.0215 47.589C43.392 47.7012 40.9358 47.4381 38.4572 47.6747Z" fill="#407BFF"/>
<path d="M38.8185 46.9464C38.8185 46.9464 38.539 47.6665 38.6145 47.6665H45.8993C45.9626 47.6665 46.0136 47.6359 46.0177 47.5951L46.0809 46.9831C46.0809 46.9402 46.0299 46.9035 45.9626 46.9035H38.9327C38.9116 46.9006 38.8902 46.903 38.8702 46.9105C38.8503 46.918 38.8325 46.9303 38.8185 46.9464Z" fill="white"/>
<path d="M39.8449 47.7357H39.6572C39.6184 47.7357 39.5899 47.7153 39.5919 47.6909L39.6817 46.8749C39.6817 46.8504 39.7163 46.832 39.7531 46.832H39.9428C39.9795 46.832 40.0081 46.8504 40.006 46.8749L39.9183 47.6909C39.9126 47.7053 39.9024 47.7175 39.8891 47.7256C39.8758 47.7337 39.8603 47.7373 39.8449 47.7357Z" fill="#407BFF"/>
<path d="M44.4063 47.7357H44.2186C44.1819 47.7357 44.1533 47.7153 44.1554 47.6909L44.2431 46.8749C44.2431 46.8504 44.2778 46.832 44.3165 46.832H44.5042C44.5409 46.832 44.5695 46.8504 44.5675 46.8749L44.4797 47.6909C44.4716 47.7072 44.4451 47.7357 44.4063 47.7357Z" fill="#407BFF"/>
</svg>
