<svg width="500" height="500" viewBox="0 0 500 500" fill="none" xmlns="http://www.w3.org/2000/svg">
<g clip-path="url(#clip0_1_2)">
<path d="M302.039 307.938C360.831 249.146 360.831 153.826 302.039 95.0335C243.247 36.2414 147.926 36.2414 89.1337 95.0335C30.3416 153.826 30.3416 249.146 89.1337 307.938C147.926 366.731 243.247 366.731 302.039 307.938Z" fill="#C9EAF7"/>
<path d="M365.93 339.242C420.81 339.242 465.299 294.753 465.299 239.873C465.299 184.993 420.81 140.504 365.93 140.504C311.05 140.504 266.561 184.993 266.561 239.873C266.561 294.753 311.05 339.242 365.93 339.242Z" fill="#C9EAF7"/>
<path d="M146.043 450.105C180.97 450.105 209.284 442.584 209.284 433.307C209.284 424.03 180.97 416.509 146.043 416.509C111.116 416.509 82.802 424.03 82.802 433.307C82.802 442.584 111.116 450.105 146.043 450.105Z" fill="#C9EAF7"/>
<path d="M373.316 450.105C408.243 450.105 436.557 442.584 436.557 433.307C436.557 424.03 408.243 416.509 373.316 416.509C338.389 416.509 310.075 424.03 310.075 433.307C310.075 442.584 338.389 450.105 373.316 450.105Z" fill="#C9EAF7"/>
<path d="M316.636 97.282H201.606C203.23 87.626 217.457 81.023 226.529 84.705C226.665 79.16 228.502 74.335 233.106 71.242C237.71 68.149 243.832 67.446 249.018 69.416C250.662 58.062 262.997 48.958 274.424 49.972C285.851 50.986 295.496 61.882 295.114 73.348C301.239 71.764 308.725 74.734 313.343 79.058C317.963 83.382 317.815 91.066 316.636 97.282Z" fill="#EEF8FD"/>
<path d="M367.126 117.467H448.926C447.771 110.601 437.654 105.905 431.202 108.523C431.105 104.58 429.799 101.149 426.525 98.949C423.251 96.749 418.897 96.249 415.21 97.65C414.041 89.576 405.269 83.102 397.143 83.823C389.017 84.544 382.159 92.292 382.43 100.446C378.074 99.319 372.751 101.432 369.467 104.507C366.182 107.582 366.288 113.047 367.126 117.467Z" fill="#EEF8FD"/>
<path d="M18.321 202.112H100.121C98.966 195.246 88.849 190.55 82.397 193.168C82.3 189.225 80.994 185.794 77.72 183.594C74.446 181.394 70.092 180.894 66.405 182.295C65.236 174.221 56.464 167.747 48.338 168.468C40.212 169.189 33.354 176.937 33.625 185.091C29.269 183.964 23.946 186.076 20.662 189.152C17.377 192.227 17.483 197.692 18.321 202.112Z" fill="#EEF8FD"/>
<path d="M414.876 299.561H482.176C481.226 293.912 472.902 290.048 467.594 292.203C467.515 288.959 466.439 286.136 463.746 284.326C461.052 282.516 457.47 282.105 454.437 283.257C453.475 276.614 446.259 271.288 439.573 271.881C432.887 272.474 427.245 278.849 427.468 285.557C423.884 284.63 419.504 286.368 416.803 288.898C414.1 291.428 414.187 295.924 414.876 299.561Z" fill="#EEF8FD"/>
<path d="M209.326 325.097C199.579 304.383 177.679 287.513 155.084 291.195C136.542 294.217 120.884 309.471 115.571 327.491C111.796 325.798 107.327 326.147 103.502 327.723C99.677 329.299 96.417 331.999 93.513 334.945C90.651 337.848 88.022 341.112 86.664 344.955C85.306 348.798 83.495 355.615 85.761 359.004C78.11 361.091 71.407 366.443 67.678 373.442C63.949 380.442 63.247 388.99 65.783 396.504L220.481 396.542C220.275 373.651 219.073 345.811 209.326 325.097Z" fill="#F7B15E"/>
<path d="M314.624 325.097C324.371 304.383 346.271 287.513 368.866 291.195C387.408 294.217 403.066 309.471 408.379 327.491C412.154 325.798 416.623 326.147 420.448 327.723C424.273 329.299 427.533 331.999 430.437 334.945C433.299 337.848 435.928 341.112 437.286 344.955C438.644 348.798 440.455 355.615 438.189 359.004C445.841 361.091 452.543 366.443 456.272 373.442C460.001 380.442 460.703 388.99 458.167 396.504L303.718 395.402C303.924 372.51 304.877 345.811 314.624 325.097Z" fill="#F7B15E"/>
<path d="M80.135 377.984C81.825 382.651 84.702 389.707 88.024 396.504H105.694C104.129 387.542 101.239 380.045 99.12 374.096C93.947 359.485 86.083 344.052 79.114 332.584C72.157 321.096 66.188 313.515 65.209 313.963C64.055 314.489 65.371 323.423 68.12 335.737C70.9 348.054 75.036 363.752 80.135 377.984Z" fill="#0F6868"/>
<path d="M75.027 339.493C77.085 344.497 79.076 349.528 81.037 354.571C84.969 364.652 88.685 374.817 92.217 385.045C93.528 388.857 94.804 392.68 96.073 396.505H97.239C94.512 388.046 91.59 379.648 88.535 371.302C84.827 361.12 80.881 351.026 76.743 341.013C74.404 335.378 72.08 329.719 69.407 324.236C69.212 323.839 68.687 324.068 68.848 324.481C70.799 329.526 72.983 334.484 75.027 339.493Z" fill="#30A9A0"/>
<path d="M111.185 396.504C112.82 386.522 113.102 377.578 113.54 370.436C115.828 333.156 111.905 287.172 109.721 287.038C107.226 286.885 96.879 328.651 94.591 365.932C94.137 373.323 93.972 385.526 94.846 396.504H111.185Z" fill="#0F6868"/>
<path d="M102.898 396.504C103.65 385.127 104.315 373.743 105.006 362.363C105.807 349.178 106.603 335.994 107.378 322.808C107.815 315.382 108.346 307.946 108.546 300.513C108.561 299.973 107.989 299.937 107.937 300.476C107.306 307.046 106.951 313.651 106.53 320.24C106.109 326.831 105.676 333.421 105.268 340.013C104.451 353.197 103.63 366.38 102.824 379.564C102.479 385.211 102.133 390.857 101.807 396.505H102.898V396.504Z" fill="#30A9A0"/>
<path d="M127.393 372.735C129.158 378.713 132.597 388.085 136.745 396.505H150.965L153.582 395.623C151.722 385.444 148.695 376.905 146.644 370.101C141.815 354.191 135.45 336.769 130.235 323.209C125.002 309.667 120.812 300.042 119.721 300.266C118.518 300.512 117.852 310.383 118.843 324.364C119.799 338.335 122.511 356.419 127.393 372.735Z" fill="#0F6868"/>
<path d="M125.213 329.812C126.606 335.601 128.056 341.377 129.592 347.13C132.652 358.639 135.966 370.081 139.525 381.446C141.109 386.48 142.724 391.506 144.417 396.505H145.576C142.279 386.446 139.057 376.36 136.082 366.201C132.719 354.793 129.626 343.306 126.723 331.772C125.1 325.273 123.644 318.721 121.938 312.244C121.816 311.774 121.257 311.896 121.343 312.376C122.421 318.227 123.805 324.029 125.213 329.812Z" fill="#30A9A0"/>
<path d="M161.801 396.504C164.969 387.673 166.731 379.589 168.4 373.182C172.701 356.573 176.354 337.79 178.881 323.043C181.39 308.301 182.68 297.586 181.628 297.234C180.459 296.842 174.857 305.308 168.496 318.207C162.115 331.087 155.04 348.44 150.613 365.333C148.704 372.534 146.264 384.967 145.606 395.818L148.533 396.505H161.801V396.504Z" fill="#0F6868"/>
<path d="M153.319 396.504C155.937 385.7 158.593 374.903 161.457 364.162C164.594 352.335 167.943 340.564 171.435 328.836C173.41 322.233 175.54 315.664 177.4 309.03C177.536 308.549 176.991 308.372 176.819 308.843C174.738 314.598 172.94 320.463 171.152 326.318C169.351 332.171 167.593 338.038 165.905 343.925C162.521 355.696 159.333 367.524 156.343 379.402C154.917 385.091 153.52 390.788 152.205 396.504H153.319Z" fill="#30A9A0"/>
<path d="M380.758 396.504C384.808 389.941 388.012 383.915 390.93 379.111C395.234 372.003 399.779 364.491 404.345 357.266C408.902 350.037 413.48 343.099 417.59 337.038C421.673 330.954 425.369 325.833 427.853 322.027C430.399 318.285 431.749 315.876 431.374 315.472C430.583 314.6 421.485 319.155 410.189 328.302C404.54 332.855 398.354 338.537 392.438 345.047C386.517 351.547 380.873 358.869 376.169 366.44C375.183 368.067 374.063 369.999 372.874 372.142C371.731 374.311 370.514 376.689 369.34 379.203C368.212 381.742 367.016 384.359 366.031 387.066C365.524 388.412 365.034 389.762 364.568 391.102C364.12 392.452 363.716 393.802 363.333 395.124L366.227 396.505H380.758V396.504Z" fill="#0F6868"/>
<path d="M371.177 396.504C375.921 386.92 381.104 377.55 386.893 368.555C393.416 358.296 400.7 348.532 408.494 339.204C412.914 333.972 417.605 328.968 422.208 323.897C422.546 323.533 422.14 323.13 421.773 323.469C417.365 327.676 413.21 332.166 409.246 336.801C407.216 339.079 405.315 341.466 403.354 343.804L400.516 347.394L399.101 349.192L397.73 351.024C394.024 355.873 390.578 360.914 387.199 365.994C383.881 371.115 380.688 376.319 377.703 381.642C374.982 386.52 372.38 391.467 369.963 396.503H371.177V396.504Z" fill="#30A9A0"/>
<path d="M416.376 373.347C417.312 379.047 419.135 388.073 421.481 396.505H438.176C438.182 387.409 436.765 379.473 435.772 373.165C433.274 357.053 428.095 339.588 423.036 326.442C417.997 313.273 413.214 304.369 412.18 304.648C410.95 304.978 410.911 314.418 411.649 327.602C412.425 340.795 413.879 357.717 416.376 373.347Z" fill="#0F6868"/>
<path d="M417.873 332.779C419.095 338.323 420.228 343.887 421.313 349.459C423.496 360.601 425.382 371.801 427.011 383.037C427.654 387.521 428.243 392.011 428.818 396.504H429.928C428.8 387.023 427.417 377.572 425.831 368.158C423.966 356.939 421.774 345.776 419.324 334.671C417.932 328.421 416.536 322.153 414.75 316.006C414.618 315.56 414.062 315.698 414.158 316.153C415.296 321.715 416.671 327.231 417.873 332.779Z" fill="#30A9A0"/>
<path d="M451.067 396.504C453.653 390.141 455.067 384.219 456.394 379.464C463.866 352.688 466.5 318.201 464.386 317.634C461.972 316.986 446.034 345.193 438.588 371.876C436.998 377.574 434.949 387.42 434.412 396.134L435.708 396.503H451.067V396.504Z" fill="#0F6868"/>
<path d="M442.266 396.504C444.635 388.227 446.917 379.922 449.224 371.627L457.085 343.251C458.552 337.922 460.113 332.606 461.351 327.22C461.441 326.829 460.889 326.677 460.763 327.059C459.227 331.72 457.954 336.466 456.619 341.186L452.615 355.352L444.686 383.705C443.497 387.969 442.307 392.234 441.141 396.504H442.266Z" fill="#30A9A0"/>
<path d="M327.909 96.193H200.444C191.896 96.193 184.966 103.122 184.966 111.671V398.261C184.966 406.809 191.896 413.739 200.444 413.739H327.91C336.458 413.739 343.388 406.809 343.388 398.261V111.67C343.387 103.122 336.457 96.193 327.909 96.193Z" fill="#264456"/>
<path d="M324.546 401.401H206.498C199.898 401.401 194.498 396.001 194.498 389.401V118.924C194.498 112.324 199.898 106.924 206.498 106.924H324.546C331.146 106.924 336.546 112.324 336.546 118.924V389.401C336.546 396.001 331.146 401.401 324.546 401.401Z" fill="#83B4E0"/>
<path d="M277.449 101.791H249.102C248.584 101.791 248.161 101.367 248.161 100.85V100.573C248.161 100.055 248.585 99.632 249.102 99.632H277.449C277.967 99.632 278.39 100.056 278.39 100.573V100.85C278.39 101.368 277.966 101.791 277.449 101.791Z" fill="#83B4E0"/>
<path d="M244.321 101.071C244.321 102.263 243.354 103.23 242.162 103.23C240.969 103.23 240.003 102.263 240.003 101.071C240.003 99.878 240.97 98.912 242.162 98.912C243.355 98.912 244.321 99.879 244.321 101.071Z" fill="#83B4E0"/>
<path d="M285.587 103.23C286.779 103.23 287.746 102.263 287.746 101.071C287.746 99.8786 286.779 98.912 285.587 98.912C284.395 98.912 283.428 99.8786 283.428 101.071C283.428 102.263 284.395 103.23 285.587 103.23Z" fill="#83B4E0"/>
<path d="M313.059 383.273H219.426C212.826 383.273 207.426 377.873 207.426 371.273V141.915C207.426 135.315 212.826 129.915 219.426 129.915H313.059C319.659 129.915 325.059 135.315 325.059 141.915V371.273C325.059 377.873 319.658 383.273 313.059 383.273Z" fill="#4186C6"/>
<path d="M297.952 199.472H230.952V266.472H297.952V199.472Z" fill="#EEF8FD"/>
<path d="M306.717 275.237H284.451V270.344H301.824V255.127H306.717V275.237Z" fill="#EEF8FD"/>
<path d="M306.717 214.009H301.824V195.599H281.624V190.706H306.717V214.009Z" fill="#EEF8FD"/>
<path d="M227.079 213.495H222.186V190.706H246.931V195.599H227.079V213.495Z" fill="#EEF8FD"/>
<path d="M248.473 275.237H222.186V254.87H227.079V270.344H248.473V275.237Z" fill="#EEF8FD"/>
<path d="M301.642 299.586H233.336C232.186 299.586 231.254 300.144 231.254 300.833V314.787C231.254 315.475 232.186 316.034 233.336 316.034H301.642C302.792 316.034 303.724 315.476 303.724 314.787V300.833C303.724 300.144 302.792 299.586 301.642 299.586Z" fill="#EEF8FD"/>
<path d="M241.663 306.539C241.621 306.187 241.452 305.913 241.155 305.719C240.859 305.524 240.495 305.427 240.064 305.427C239.749 305.427 239.473 305.478 239.237 305.58C239.003 305.682 238.82 305.822 238.688 306C238.558 306.179 238.493 306.381 238.493 306.608C238.493 306.798 238.538 306.962 238.629 307.098C238.721 307.233 238.84 307.345 238.983 307.435C239.127 307.523 239.277 307.596 239.435 307.654C239.593 307.71 239.737 307.755 239.869 307.79L240.592 307.985C240.778 308.033 240.984 308.1 241.211 308.186C241.44 308.272 241.659 308.389 241.868 308.537C242.079 308.683 242.252 308.871 242.389 309.1C242.526 309.329 242.594 309.611 242.594 309.945C242.594 310.329 242.493 310.677 242.292 310.987C242.092 311.298 241.8 311.544 241.416 311.727C241.034 311.91 240.569 312.002 240.022 312.002C239.513 312.002 239.071 311.92 238.698 311.755C238.328 311.591 238.036 311.361 237.822 311.067C237.612 310.773 237.492 310.431 237.465 310.042H238.354C238.377 310.311 238.468 310.533 238.625 310.709C238.785 310.883 238.987 311.013 239.23 311.098C239.476 311.182 239.74 311.223 240.022 311.223C240.351 311.223 240.647 311.17 240.909 311.064C241.17 310.955 241.378 310.804 241.531 310.612C241.683 310.417 241.76 310.19 241.76 309.931C241.76 309.694 241.694 309.502 241.562 309.354C241.43 309.205 241.256 309.085 241.041 308.992C240.825 308.9 240.592 308.819 240.342 308.749L239.466 308.499C238.91 308.339 238.47 308.111 238.146 307.814C237.821 307.518 237.659 307.13 237.659 306.65C237.659 306.252 237.767 305.904 237.982 305.607C238.2 305.309 238.492 305.077 238.858 304.912C239.226 304.746 239.638 304.662 240.092 304.662C240.551 304.662 240.958 304.744 241.315 304.909C241.672 305.071 241.955 305.294 242.163 305.576C242.374 305.859 242.485 306.18 242.497 306.539H241.663ZM249.738 306.984H248.876C248.825 306.736 248.736 306.518 248.609 306.33C248.484 306.143 248.331 305.985 248.15 305.858C247.972 305.728 247.774 305.631 247.556 305.566C247.338 305.501 247.111 305.468 246.875 305.468C246.444 305.468 246.053 305.577 245.703 305.795C245.356 306.013 245.079 306.334 244.873 306.758C244.669 307.182 244.567 307.702 244.567 308.318C244.567 308.934 244.669 309.455 244.873 309.879C245.079 310.303 245.356 310.623 245.703 310.841C246.053 311.059 246.444 311.168 246.875 311.168C247.111 311.168 247.338 311.135 247.556 311.071C247.774 311.006 247.972 310.91 248.15 310.782C248.331 310.652 248.484 310.494 248.609 310.306C248.736 310.116 248.825 309.898 248.876 309.653H249.738C249.673 310.016 249.555 310.342 249.384 310.629C249.212 310.916 248.999 311.161 248.744 311.362C248.489 311.562 248.203 311.713 247.886 311.818C247.571 311.922 247.234 311.974 246.875 311.974C246.268 311.974 245.728 311.826 245.255 311.529C244.783 311.233 244.411 310.811 244.14 310.264C243.869 309.718 243.733 309.069 243.733 308.318C243.733 307.567 243.869 306.919 244.14 306.372C244.411 305.825 244.783 305.404 245.255 305.107C245.728 304.81 246.268 304.662 246.875 304.662C247.234 304.662 247.571 304.714 247.886 304.819C248.203 304.923 248.489 305.076 248.744 305.277C248.999 305.477 249.212 305.72 249.384 306.007C249.555 306.292 249.673 306.618 249.738 306.984ZM251.423 311.877H250.519L253.133 304.759H254.022L256.636 311.877H255.732L253.605 305.885H253.55L251.423 311.877ZM251.756 309.097H255.399V309.861H251.756V309.097ZM263.388 304.759V311.877H262.554L258.676 306.289H258.606V311.877H257.744V304.759H258.578L262.471 310.362H262.54V304.759H263.388ZM270.757 304.759V311.877H269.922L266.044 306.289H265.975V311.877H265.113V304.759H265.947L269.839 310.362H269.909V304.759H270.757ZM273.343 304.759V311.877H272.481V304.759H273.343ZM280.715 304.759V311.877H279.881L276.002 306.289H275.933V311.877H275.071V304.759H275.905L279.797 310.362H279.867V304.759H280.715ZM287.305 306.984C287.228 306.75 287.128 306.54 287.002 306.355C286.88 306.167 286.733 306.007 286.561 305.875C286.392 305.743 286.2 305.642 285.984 305.573C285.769 305.503 285.532 305.468 285.275 305.468C284.854 305.468 284.47 305.577 284.125 305.795C283.78 306.013 283.505 306.334 283.301 306.758C283.097 307.182 282.996 307.702 282.996 308.318C282.996 308.934 283.099 309.455 283.305 309.879C283.511 310.303 283.79 310.623 284.142 310.841C284.494 311.059 284.891 311.168 285.331 311.168C285.739 311.168 286.098 311.081 286.408 310.907C286.721 310.731 286.964 310.483 287.138 310.164C287.314 309.841 287.402 309.463 287.402 309.027L287.666 309.083H285.525V308.318H288.236V309.083C288.236 309.669 288.111 310.179 287.861 310.612C287.613 311.045 287.27 311.381 286.832 311.62C286.397 311.856 285.896 311.974 285.331 311.974C284.701 311.974 284.147 311.826 283.67 311.529C283.195 311.233 282.824 310.811 282.558 310.264C282.293 309.718 282.161 309.069 282.161 308.318C282.161 307.755 282.237 307.249 282.387 306.799C282.54 306.348 282.756 305.963 283.034 305.646C283.312 305.328 283.641 305.085 284.021 304.916C284.401 304.747 284.819 304.662 285.275 304.662C285.651 304.662 286 304.719 286.325 304.832C286.651 304.944 286.942 305.102 287.197 305.309C287.454 305.512 287.669 305.757 287.84 306.042C288.011 306.325 288.13 306.638 288.194 306.984H287.305Z" fill="#4186C6"/>
<path d="M223.009 104.809V107.826C223.009 111.225 225.765 113.981 229.164 113.981H299.189C302.588 113.981 305.344 111.225 305.344 107.826V104.809H223.009Z" fill="#264456"/>
<g opacity="0.33">
<path d="M203.214 269.324C202.592 269.324 201.964 269.147 201.408 268.776C199.909 267.777 199.504 265.751 200.503 264.252L295.027 122.466C296.027 120.967 298.053 120.562 299.551 121.561C301.05 122.56 301.455 124.586 300.456 126.085L205.932 267.871C205.303 268.814 204.269 269.324 203.214 269.324Z" fill="#EEF8FD"/>
</g>
<g opacity="0.33">
<path d="M199.739 357.593C199.112 357.593 198.479 357.413 197.92 357.036C196.425 356.029 196.03 354.002 197.037 352.508L281.055 227.774C282.061 226.28 284.089 225.884 285.583 226.891C287.078 227.897 287.473 229.924 286.466 231.419L202.448 356.152C201.817 357.089 200.787 357.593 199.739 357.593Z" fill="#EEF8FD"/>
</g>
<g opacity="0.33">
<path d="M258.843 356.868C258.22 356.868 257.59 356.69 257.034 356.319C255.536 355.318 255.134 353.292 256.134 351.794L325.529 247.941C326.53 246.443 328.556 246.04 330.054 247.041C331.552 248.042 331.954 250.068 330.954 251.565L261.559 355.418C260.93 356.359 259.896 356.868 258.843 356.868Z" fill="#EEF8FD"/>
</g>
<path d="M339.573 392.622C339.573 392.622 336.626 416.062 333.816 420.277C331.47 423.796 328.772 426.143 331.118 429.427C332.537 431.414 345.574 435.077 349.655 436.137C350.489 436.353 351.345 435.887 351.614 435.068C351.977 433.963 352.108 432.411 350.726 431.202C348.315 429.092 342.967 422.741 342.967 422.741L354.343 390.362L339.573 392.622Z" fill="#F49B91"/>
<path d="M342.966 422.74L342.972 422.724C340.673 425.037 337.26 426.083 334.214 425.182C333.213 424.886 332.194 424.288 331.604 423.411C330.252 425.421 329.535 427.211 331.118 429.428C332.537 431.415 345.574 435.078 349.655 436.138C350.489 436.354 351.345 435.888 351.614 435.069C351.977 433.964 352.108 432.412 350.726 431.203C348.314 429.092 342.966 422.74 342.966 422.74Z" fill="#666DB2"/>
<path d="M350.789 400.476L354.342 390.362L339.573 392.622C339.573 392.622 339.235 395.31 338.679 399.024C342.547 400.374 346.711 400.866 350.789 400.476Z" fill="#DE706B"/>
<path d="M369.545 394.137C369.545 394.137 373.73 417.388 372.307 422.25C371.119 426.309 369.244 429.354 372.464 431.788C374.412 433.261 387.947 432.865 392.159 432.657C393.02 432.615 393.697 431.914 393.71 431.052C393.727 429.889 393.388 428.369 391.708 427.627C388.777 426.333 381.777 421.868 381.777 421.868L382.967 387.569L369.545 394.137Z" fill="#F49B91"/>
<path d="M381.775 421.869L381.776 421.852C380.272 424.746 377.327 426.763 374.151 426.812C373.107 426.828 371.956 426.562 371.131 425.901C370.441 428.223 370.291 430.146 372.464 431.788C374.412 433.261 387.947 432.864 392.159 432.657C393.02 432.615 393.697 431.914 393.71 431.052C393.727 429.889 393.388 428.369 391.708 427.627C388.775 426.334 381.775 421.869 381.775 421.869Z" fill="#666DB2"/>
<path d="M382.532 400.049L382.965 387.57L369.545 394.137C369.545 394.137 370.025 396.805 370.604 400.519C374.575 400.966 378.609 400.806 382.532 400.049Z" fill="#DE706B"/>
<path d="M393.598 271.519L353.386 274.141C347.336 281.498 344.842 291.217 344.275 300.725C343.708 310.233 344.894 319.747 345.353 329.261C346.416 351.315 343.531 373.554 336.877 394.608C354.272 397.161 372.25 396.532 389.675 394.196C394.298 375.521 396.437 356.153 398.424 337.018C400.743 314.676 400.614 290.813 393.598 271.519Z" fill="#666DB2"/>
<path d="M354.417 280.145C346.38 295.045 351.895 312.509 353.298 328.274C354.544 342.272 353.898 356.595 351.564 370.446C350.89 374.449 350.049 378.428 349.022 382.356C348.036 386.127 346.8 389.802 345.729 393.544C345.693 393.67 345.879 393.752 345.943 393.634C347.497 390.763 348.518 387.574 349.498 384.47C350.571 381.073 351.327 377.558 351.998 374.062C353.376 366.883 354.211 359.598 354.624 352.302C355.011 345.472 355.034 338.611 354.598 331.783C354.104 324.048 352.653 316.44 351.791 308.747C350.722 299.211 350.842 289.314 354.917 280.437C355.068 280.105 354.596 279.812 354.417 280.145Z" fill="#747DBB"/>
<path d="M354.747 284.497C357.527 283.868 360.312 282.835 363.143 283.168C366.603 283.576 369.51 285.954 372.866 286.893C377.356 288.148 382.1 286.724 386.596 285.491C390.019 284.553 393.712 283.747 397.143 284.286C396.234 279.868 395.077 275.588 393.598 271.519L353.386 274.141C350.921 277.139 349.055 280.532 347.66 284.14C349.753 285.192 352.398 285.028 354.747 284.497Z" fill="#5964AA"/>
<path d="M399.323 236.619L400.172 256.335L395.361 256.524C395.361 256.524 388.591 242.198 390.833 238.034C392.333 235.249 399.323 236.619 399.323 236.619Z" fill="#F49089"/>
<path d="M399.323 236.619C399.323 236.619 392.333 235.248 390.833 238.034C390.164 239.277 390.301 241.427 390.817 243.829C393.488 242.271 396.446 241.214 399.499 240.727L399.323 236.619Z" fill="#DE706B"/>
<path d="M395.246 180.7C394.238 177.538 390.916 175.57 387.623 175.159C386.017 174.959 384.401 174.923 382.792 175.1C381.148 175.281 379.387 175.724 377.691 175.685C375.882 175.643 374.191 175.333 372.402 175.828C370.358 176.393 368.489 177.752 367.564 179.66C366.282 182.303 366.854 185.72 365.017 188.013C363.956 189.337 362.297 190.001 360.908 190.977C358.589 192.605 356.968 195.29 356.896 198.122C356.824 200.954 358.43 203.834 361.004 205.018C363.985 206.39 367.487 205.404 370.739 205.843C373.825 206.26 376.702 207.969 379.816 207.902C382.228 207.85 384.535 206.725 386.947 206.774C388.338 206.803 389.894 207.18 391.004 206.341C391.972 205.609 392.167 204.21 391.939 203.018C391.71 201.827 391.148 200.722 390.891 199.536C390.19 196.31 391.803 193.086 393.297 190.143C394.791 187.2 396.249 183.845 395.246 180.7Z" fill="#5683C2"/>
<path d="M344.316 234.75C344.316 234.75 345.964 239.029 352.486 240.72L354.868 235.704L344.316 234.75Z" fill="#E98E31"/>
<path d="M365.827 205.553C361.404 204.126 356.38 205.764 352.952 208.902C349.524 212.04 347.515 216.466 346.386 220.973C345.256 225.481 344.923 230.142 344.316 234.75C348.025 235.385 351.968 235.29 355.557 235.701C358.452 249.601 355.609 264.604 346.868 275.794C348.122 278.241 351.526 279.327 354.258 279.019C356.99 278.712 359.691 277.738 362.42 278.074C366.714 278.602 370.373 282.295 374.683 281.916C377.142 281.699 379.292 280.167 381.704 279.643C383.769 279.195 385.916 279.506 387.995 279.884C390.074 280.261 392.176 280.706 394.28 280.517C396.384 280.328 398.54 279.394 399.644 277.592C399.278 269.595 397.495 261.832 394.722 254.322C393.704 251.565 392.528 248.858 391.773 246.018C391.018 243.178 390.698 240.153 391.418 237.304C394.714 236.925 397.887 236.758 401.183 236.38C400.73 230.091 398.83 224.402 395.634 218.967C393.794 215.837 391.508 212.897 388.529 210.822C385.304 208.576 381.437 207.453 377.591 206.641C373.595 205.794 369.715 206.807 365.827 205.553Z" fill="#FAAD58"/>
<path d="M385.467 200.944C387.084 200.36 388.323 199.147 389.145 197.658C390.253 195.651 389.424 193.553 389.924 191.425C390.281 189.906 391.276 188.562 391.428 187.009C391.613 185.112 390.421 183.245 388.763 182.306C387.105 181.367 384.874 181.408 383.01 181.805C383.466 182.316 383.573 183.857 383.237 184.453C382.9 185.049 382.373 185.512 381.965 186.062C381.285 186.98 380.963 188.107 380.654 189.206C379.628 192.853 378.721 196.705 377.702 200.363C380.329 200.643 382.86 201.886 385.467 200.944Z" fill="#3D6EA2"/>
<path d="M387.524 186.131C388.594 187.756 389.023 190.321 388.876 192.261C388.729 194.201 388.126 195.955 387.298 197.715C386.549 199.309 385.334 200.889 383.839 201.82C382.344 202.751 379.901 202.918 378.641 201.687C378.329 203.45 377.983 205.378 377.671 207.14C378.407 207.298 379.295 207.677 380.031 207.834C381.252 213.512 380.71 220.934 378.807 226.421C375.187 219.348 370.858 211.422 365.456 205.596C368.282 205.601 371.894 205.144 373.692 202.61C375.489 200.076 376.273 195.72 373.935 193.674C373.311 193.127 372.638 192.484 372.606 191.655C372.581 191 373.007 190.369 373.596 190.08C374.185 189.792 375.08 189.913 375.674 190.191C377.647 189.841 379.491 188.802 380.813 187.296C382.135 185.79 382.926 183.827 383.018 181.825C385.721 183.651 386.268 184.224 387.524 186.131Z" fill="#F49B91"/>
<path d="M376.124 197.042C376.124 197.042 375.002 204.812 377.673 207.14C377.985 205.377 378.331 203.449 378.643 201.687C378.643 201.687 376.944 200.28 376.124 197.042Z" fill="#DE706B"/>
<path d="M387.733 219.466C388.707 222.187 389.553 225.103 389.818 227.986C389.947 229.395 390.048 230.802 390.086 232.216C390.126 233.686 389.998 235.157 390.053 236.625C390.087 237.53 391.529 237.826 391.71 236.849C392.248 233.95 391.89 230.648 391.226 227.795C390.531 224.81 389.673 221.973 388.311 219.222C388.154 218.904 387.611 219.126 387.733 219.466Z" fill="#E98E31"/>
<path d="M364.233 225.954C364.286 228.12 364.504 230.317 365.001 232.429C365.485 234.488 366.115 236.741 367.287 238.525C367.797 239.301 368.879 238.632 368.511 237.809C367.663 235.913 366.868 234.078 366.34 232.06C365.813 230.048 365.387 228.018 365.124 225.954C365.054 225.404 364.219 225.364 364.233 225.954Z" fill="#E98E31"/>
<path d="M350.275 236.014C353.308 236.73 356.484 236.656 359.571 236.96C361.143 237.115 362.722 237.267 364.259 237.649C365.039 237.843 365.803 238.087 366.521 238.453C366.72 238.554 367.219 238.715 367.16 238.989C367.132 239.119 366.49 239.379 366.369 239.469C365.824 239.87 365.905 241.011 366.762 240.921C368.22 240.768 369.637 239.125 368.369 237.82C367.79 237.224 366.876 236.943 366.111 236.68C365.092 236.33 364.044 236.099 362.979 235.941C358.835 235.323 354.524 235.248 350.346 235.485C350.056 235.501 349.965 235.941 350.275 236.014Z" fill="#E98E31"/>
<path d="M365.667 206.283C370.322 210.395 373.025 215.104 375.213 220.872C375.735 222.249 376.305 223.612 377.104 224.854C377.993 226.235 379.087 227.473 380.073 228.783C381.983 231.319 383.649 234.037 385.108 236.855C385.906 238.396 386.683 239.951 387.456 241.505C388.28 243.162 388.891 244.917 389.706 246.572C389.82 246.804 390.159 246.636 390.108 246.403C389.763 244.847 389.136 243.299 388.602 241.798C388.082 240.337 387.537 238.891 386.863 237.493C385.459 234.584 383.796 231.781 381.919 229.153C380.968 227.821 379.913 226.572 378.936 225.259C377.922 223.896 377.194 222.434 376.555 220.865C375.424 218.089 374.176 215.419 372.518 212.911C370.665 210.107 368.402 207.55 365.752 205.477C365.422 205.219 364.769 205.157 365.098 205.448L365.667 206.283Z" fill="#E98E31"/>
<path d="M380.038 208.104C380.199 211.193 380.462 213.797 380.008 216.87C379.589 219.708 378.791 222.509 378.172 225.309C378.022 225.986 379.065 226.275 379.213 225.596C379.835 222.747 380.54 219.888 380.893 216.99C381.276 213.85 380.651 211.155 380.304 208.028C380.27 207.718 379.946 207.437 379.963 207.763L380.038 208.104Z" fill="#E98E31"/>
<path d="M365.598 237.362C365.849 238.365 365.953 239.364 366.204 240.368C366.692 240.303 367.356 240.143 367.721 239.812C368.086 239.481 368.269 238.909 368.03 238.478C367.816 238.093 367.354 237.931 366.924 237.835C366.496 237.739 365.922 237.659 365.598 237.362Z" fill="#E98E31"/>
<path d="M380.413 188.589C380.428 188.738 382.867 188.562 383.888 189.203C384.097 189.334 384.306 189.486 384.55 189.523C385.128 189.611 385.28 188.905 384.803 188.654C384.45 188.469 384.142 188.353 383.808 188.265C382.628 187.957 380.578 187.915 380.413 188.589Z" fill="#675161"/>
<path d="M388.854 189.219C388.826 189.366 388.783 188.793 387.71 189.342C387.49 189.455 387.237 189.601 386.991 189.617C386.407 189.654 386.317 188.937 386.816 188.729C387.183 188.576 387.474 188.506 387.819 188.519C388.511 188.544 388.819 188.918 388.854 189.219Z" fill="#675161"/>
<path d="M383.942 191.324C383.859 191.911 383.432 192.337 382.987 192.274C382.543 192.211 382.249 191.685 382.332 191.097C382.415 190.51 382.842 190.084 383.287 190.147C383.732 190.209 384.025 190.736 383.942 191.324Z" fill="#675161"/>
<path d="M388.716 191.527C388.633 192.114 388.206 192.54 387.761 192.477C387.317 192.414 387.023 191.887 387.106 191.3C387.189 190.713 387.616 190.287 388.061 190.35C388.505 190.412 388.799 190.939 388.716 191.527Z" fill="#675161"/>
<path d="M386.546 194.544C386.662 194.954 386.795 195.386 386.684 195.797C386.578 196.19 386.236 196.508 385.837 196.588C385.438 196.667 385.001 196.504 384.752 196.182C385.118 196.283 385.521 196.073 385.729 195.755C385.937 195.437 385.979 195.036 385.945 194.657C385.91 194.279 385.805 193.91 385.741 193.536C385.638 192.933 385.498 191.709 385.945 191.238C386.171 192.335 386.235 193.451 386.546 194.544Z" fill="#DE706B"/>
<path opacity="0.21" d="M385.402 209.928C393.369 215.416 398.693 224.574 399.521 234.213C397.975 234.55 396.168 234.827 394.622 235.164C393.962 226.174 390.455 217.393 385.402 209.928Z" fill="#FFF9F4"/>
<path d="M386.152 198.789C384.732 199.155 383.262 199.038 382.112 198.468C381.965 199.13 381.87 199.781 382.161 200.331C382.451 200.881 383.076 201.269 383.8 201.205C384.418 201.15 385.029 200.775 385.452 200.299C385.874 199.823 385.986 199.352 386.152 198.789Z" fill="#EE8780"/>
<path opacity="0.58" d="M387.918 242.082C377.758 241.582 367.157 239.215 356.319 235.429C357.25 241.196 356.855 249.68 355.827 255.386C367.684 256.13 380.096 251.023 387.918 242.082Z" fill="#E98E31"/>
<path d="M382.031 199.961C382.061 200.088 382.098 200.213 382.161 200.331C382.451 200.881 383.076 201.269 383.8 201.205C384.324 201.158 384.837 200.876 385.24 200.502C384.839 200.143 384.348 199.882 383.82 199.774C383.223 199.652 382.593 199.725 382.031 199.961Z" fill="#DE706B"/>
<path d="M386.152 198.789C384.732 199.155 383.262 199.038 382.112 198.468C381.997 198.988 381.921 199.498 382.031 199.961C382.593 199.725 383.223 199.652 383.82 199.774C384.348 199.882 384.838 200.143 385.24 200.502C385.312 200.435 385.388 200.371 385.452 200.299C385.874 199.823 385.986 199.352 386.152 198.789Z" fill="#675161"/>
<path d="M435.037 227.004H399.797C398.823 227.004 397.987 227.699 397.81 228.657L393.245 253.351H377.57C377.049 253.351 376.627 253.773 376.627 254.294V256.136C376.627 256.657 377.049 257.079 377.57 257.079H412.806L428.345 257.229C429.276 257.238 430.092 256.61 430.322 255.708L436.994 229.523C437.32 228.246 436.355 227.004 435.037 227.004Z" fill="#A5DDEC"/>
<path d="M365.887 236.781C367.056 242.097 368.569 249.045 370.624 254.085C384.244 254.753 397.363 255.422 410.696 256.542C407.69 259.912 403.128 261.802 398.616 261.605C397.901 261.984 396.684 262.536 395.942 262.858C388.387 266.143 380.611 267.651 372.394 267.052C369.38 266.832 366.306 266.317 363.695 264.794C360.424 262.886 358.207 259.59 356.49 256.214C353.261 249.865 350.306 242.488 349.979 235.372C355.116 235.124 361.028 235.316 365.887 236.781Z" fill="#F49B91"/>
<path d="M401.574 255.816L405.054 256.109C405.054 256.109 402.343 258.087 401.354 257.977C400.365 257.867 402.123 257.098 402.233 256.695C402.343 256.293 402.343 255.89 401.574 255.816Z" fill="#E2756D"/>
<path d="M417.55 235.14C414.232 235.14 411.09 237.842 410.532 241.175C409.974 244.508 412.212 247.21 415.53 247.21C418.848 247.21 421.99 244.508 422.548 241.175C423.106 237.842 420.868 235.14 417.55 235.14Z" fill="#F5FBFD"/>
<path d="M411.284 242.035C411.842 238.702 414.984 236 418.302 236C419.692 236 420.888 236.479 421.772 237.275C420.888 235.97 419.386 235.14 417.549 235.14C414.231 235.14 411.089 237.842 410.531 241.175C410.207 243.112 410.831 244.831 412.058 245.935C411.346 244.882 411.035 243.523 411.284 242.035Z" fill="#7ACFE6"/>
<path d="M363.523 254.531C365.755 253.911 368.111 253.766 370.401 254.121C370.783 254.18 370.859 253.647 370.472 253.595C368.106 253.277 365.709 253.487 363.431 254.199C363.221 254.265 363.308 254.59 363.523 254.531Z" fill="#DE706B"/>
<path d="M367.257 242.834C366.753 240.718 366.297 238.647 365.887 236.781C361.028 235.316 355.116 235.124 349.979 235.373C350.043 236.759 350.209 238.155 350.455 239.552C356.205 239.422 361.977 240.558 367.257 242.834Z" fill="#DE706B"/>
<path d="M401.574 255.816L405.054 256.109C405.054 256.109 402.343 258.087 401.354 257.977C400.365 257.867 402.123 257.098 402.233 256.695C402.343 256.293 402.343 255.89 401.574 255.816Z" fill="#E2756D"/>
<path opacity="0.61" d="M371.547 177.596C370.594 177.947 369.8 178.644 369.234 179.487C368.405 180.721 368.047 182.107 367.855 183.529C367.756 184.26 368.669 184.68 369.171 184.14C369.961 183.29 370.599 181.691 371.032 181.967L371.368 182.763C371.276 183.296 371.753 183.743 372.282 183.629C372.933 183.49 373.636 183.58 374.211 183.918C374.608 184.151 374.947 184.487 375.376 184.655C376.455 185.076 377.593 184.312 378.563 183.678C379.532 183.044 380.915 182.539 381.754 183.337C381.943 182.714 381.373 182.076 380.742 181.916C380.111 181.756 379.451 181.922 378.808 182.026C378.166 182.13 377.449 182.155 376.926 181.767C376.187 181.22 376.169 180.144 375.819 179.294C375.113 177.582 373.4 176.914 371.547 177.596Z" fill="#6297D0"/>
<path opacity="0.61" d="M358.662 199.115C358.687 199.318 358.724 199.53 358.851 199.691C359.201 200.133 359.932 199.891 360.33 199.491C360.727 199.091 361.038 198.549 361.576 198.381C362.345 198.142 363.09 198.798 363.573 199.443C364.056 200.088 364.579 200.849 365.38 200.934C366.642 201.068 367.413 199.468 368.64 199.143C369.717 198.858 370.837 199.628 371.935 199.443C373.032 199.258 373.799 197.977 373.444 196.923C373.34 197.635 372.335 197.814 371.685 197.507C371.035 197.199 370.542 196.61 369.872 196.347C369.002 196.006 368.03 196.279 367.112 196.449C366.193 196.619 365.108 196.627 364.485 195.931C363.96 195.345 363.957 194.475 363.738 193.719C363.018 191.236 360.928 192.757 359.987 194.075C358.956 195.518 358.447 197.347 358.662 199.115Z" fill="#6297D0"/>
<path opacity="0.21" d="M370.659 234.5C370.661 235.232 370.61 236.013 370.984 236.642C371.58 237.643 373.001 237.806 374.118 237.473C375.235 237.14 376.216 236.445 377.33 236.106C380.44 235.158 384.158 237.069 386.906 235.331C388.11 234.569 388.85 233.216 389.133 231.82C389.416 230.424 389.287 228.978 389.067 227.57C388.953 226.843 388.762 226.036 388.141 225.641C387.353 225.139 386.282 225.575 385.614 226.229C384.946 226.883 384.484 227.738 383.748 228.315C382.201 229.527 379.988 229.167 378.067 228.747C376.027 228.3 373.987 227.853 371.946 227.406C370.397 227.067 368.722 226.956 369.35 228.965C369.943 230.857 370.653 232.459 370.659 234.5Z" fill="#FFF9F4"/>
<path opacity="0.21" d="M354.962 233.541C352.235 233.708 349.589 233.331 346.913 232.782C346.774 227.281 347.33 221.647 349.62 216.644C351.91 211.641 356.137 207.325 361.457 205.918C356.175 213.965 353.829 223.983 354.962 233.541Z" fill="#FFF9F4"/>
<path opacity="0.21" d="M342.692 390.568C346.359 375.538 350.048 360.328 349.995 344.858C349.929 325.23 343.876 305.203 349.142 286.294C348.646 302.797 358.008 317.233 361.14 333.444C365.122 354.057 357.533 375.72 342.692 390.568Z" fill="#E0E2F2"/>
<path d="M398.755 228.784L394.887 255.021L379.521 253.976H393.842L398.755 228.784Z" fill="#F5FBFD"/>
<path opacity="0.54" d="M339.549 426.334L349.304 431.347C349.581 431.489 349.847 431.14 349.637 430.911L343.031 423.704C343.031 423.704 341.56 426.257 339.549 426.334Z" fill="#8089C3"/>
<path opacity="0.54" d="M379.327 426.149L390.049 428.456C390.353 428.521 390.519 428.115 390.257 427.948L382.005 422.705C382.005 422.705 381.249 425.551 379.327 426.149Z" fill="#8089C3"/>
<path d="M115.325 324.18C110.661 353.817 115.01 384.84 106.099 413.488C107.974 415.027 107.666 418.113 109.358 419.851C110.717 421.247 112.728 421.741 114.628 422.174C114.701 422.082 114.774 421.99 114.847 421.898C114.041 421.609 114.494 421.384 114.685 420.549C116.24 413.724 118.521 407.087 120.364 400.334C122.723 391.693 124.361 382.875 126.087 374.086C129.648 355.945 133.59 337.878 137.908 319.902C134.037 319.949 130.069 319.972 126.254 320.632C122.437 321.293 118.409 321.84 115.325 324.18Z" fill="#F49B91"/>
<path d="M110.366 393.708C109.449 400.394 108.116 407.002 106.098 413.488C107.973 415.027 107.665 418.113 109.357 419.851C110.716 421.247 112.727 421.741 114.627 422.174C114.7 422.082 114.773 421.99 114.846 421.898C114.04 421.609 114.493 421.384 114.684 420.549C116.239 413.724 118.52 407.087 120.363 400.334C120.917 398.303 121.429 396.261 121.915 394.212C118.088 393.714 114.221 393.547 110.366 393.708Z" fill="#E4E7E9"/>
<path d="M103.334 412.403C103.334 412.403 110.445 412.652 110.944 413.775C111.443 414.898 109.447 420.137 110.695 420.636C111.942 421.135 113.259 420.79 114.846 421.898C116.433 423.006 114.562 430.865 114.562 430.865C114.562 430.865 90.86 430.99 84.498 421.758C84.498 421.758 83.25 419.014 87.242 418.39C91.234 417.766 97.97 420.136 100.216 417.891C102.461 415.647 103.334 412.403 103.334 412.403Z" fill="#6482AF"/>
<path d="M126.252 320.633C122.437 321.293 118.409 321.841 115.325 324.181C115.013 326.162 114.744 328.15 114.506 330.142C121.401 328.807 128.574 328.92 135.421 330.49C136.239 326.959 137.059 323.428 137.905 319.904C134.035 319.949 130.067 319.972 126.252 320.633Z" fill="#DE706B"/>
<path d="M155.362 331.853C165.155 360.212 183.556 385.564 189.133 415.043C191.511 415.522 192.687 418.391 194.997 419.132C196.852 419.727 198.86 419.219 200.74 418.71C200.761 418.595 200.783 418.479 200.804 418.364C199.957 418.488 200.251 418.075 200.027 417.249C198.196 410.492 197.095 403.562 195.553 396.734C193.58 387.997 190.888 379.442 188.286 370.871C182.916 353.181 177.916 335.378 173.292 317.478C169.896 319.336 166.403 321.219 163.344 323.592C160.287 325.965 156.987 328.339 155.362 331.853Z" fill="#F49B91"/>
<path d="M183.618 395.574C185.947 401.908 187.871 408.369 189.134 415.043C191.512 415.522 192.688 418.391 194.998 419.132C196.853 419.727 198.861 419.219 200.741 418.71C200.762 418.595 200.784 418.479 200.805 418.364C199.958 418.488 200.252 418.075 200.028 417.249C198.197 410.492 197.097 403.562 195.555 396.734C195.091 394.68 194.585 392.637 194.052 390.6C190.439 391.955 186.946 393.622 183.618 395.574Z" fill="#E4E7E9"/>
<path d="M186.183 415.382C186.183 415.382 192.579 412.265 193.546 413.022C194.514 413.779 195.21 419.342 196.546 419.197C197.882 419.052 198.883 418.13 200.804 418.363C202.725 418.596 204.762 426.414 204.762 426.414C204.762 426.414 183.892 437.649 173.941 432.484C173.941 432.484 171.551 430.646 174.783 428.222C178.015 425.798 185.076 424.729 186.005 421.692C186.935 418.656 186.183 415.382 186.183 415.382Z" fill="#6482AF"/>
<path d="M163.346 323.592C160.287 325.965 154.84 322.996 153.215 326.51C153.87 328.406 156.712 335.63 157.437 337.501C162.899 333.086 169.286 329.818 176.068 327.991C175.132 324.489 174.2 320.987 173.293 317.477C169.897 319.336 166.404 321.218 163.346 323.592Z" fill="#DE706B"/>
<path d="M124.559 267.167C124.559 267.167 122.527 271.969 122.527 275.662C122.527 279.355 121.05 283.234 120.68 287.481C120.311 291.729 113.478 326.632 113.478 326.632H142.287L146.719 306.502L152.629 327.001H183.285L176.267 266.243L124.559 267.167Z" fill="#CDD1E9"/>
<path opacity="0.51" d="M177.455 276.522L176.268 266.243L124.559 267.166C124.559 267.166 122.751 271.442 122.548 275.028C140.576 270.83 159.68 271.364 177.455 276.522Z" fill="#CDD1E9"/>
<path d="M164.176 271.766C166.406 276.05 168.554 281.477 173.448 283.329C173.929 283.511 174.244 282.741 173.797 282.502C172.791 281.965 171.814 281.447 170.939 280.703C170.027 279.928 169.255 279.022 168.591 278.029C167.92 277.025 167.357 275.959 166.754 274.914C166.085 273.754 165.402 272.601 164.725 271.445C164.518 271.089 163.987 271.403 164.176 271.766Z" fill="#ACB7DD"/>
<path d="M167.595 272.549C168.619 274.443 169.812 276.236 171.158 277.915C171.819 278.739 172.523 279.526 173.263 280.28C174 281.03 174.794 281.943 175.709 282.473C176.189 282.751 176.598 282.135 176.273 281.743C175.939 281.341 175.499 281.021 175.115 280.667C174.747 280.329 174.386 279.983 174.032 279.629C173.287 278.883 172.574 278.102 171.892 277.298C170.533 275.696 169.333 273.966 168.288 272.144C168.03 271.695 167.349 272.095 167.595 272.549Z" fill="#ACB7DD"/>
<path d="M129.735 270.433C129.232 272.517 128.322 274.473 127.057 276.204C126.44 277.049 125.733 277.829 124.963 278.537C124.566 278.902 124.142 279.237 123.703 279.549C123.26 279.864 122.756 280.116 122.346 280.471C121.851 280.9 122.483 281.516 122.987 281.302C123.496 281.086 123.961 280.656 124.389 280.309C124.799 279.976 125.188 279.62 125.568 279.254C126.377 278.476 127.107 277.62 127.752 276.701C129.032 274.876 129.94 272.797 130.411 270.619C130.505 270.181 129.841 269.992 129.735 270.433Z" fill="#ACB7DD"/>
<path d="M133.207 271.858C132.345 274.675 130.85 277.266 128.842 279.422C126.804 281.61 124.463 283.134 121.769 284.388C121.064 284.716 121.568 285.943 122.304 285.657C128.053 283.424 132.447 277.955 134.006 272.078C134.143 271.561 133.363 271.349 133.207 271.858Z" fill="#ACB7DD"/>
<path d="M145.895 271.783C145.945 282.317 146.47 292.83 146.525 303.363C146.528 303.864 147.322 303.863 147.302 303.363C146.886 292.837 146.941 282.31 146.519 271.783C146.503 271.383 145.893 271.379 145.895 271.783Z" fill="#ACB7DD"/>
<path d="M142.1 271.98C142.159 273.386 142.218 274.792 142.276 276.198C142.331 277.509 142.365 278.825 142.621 280.116C142.836 281.204 143.224 282.277 143.872 283.185C144.434 283.973 145.3 284.868 146.284 285.078C146.83 285.195 147.156 284.476 146.667 284.17C145.825 283.641 145.117 283.224 144.562 282.356C143.969 281.429 143.67 280.365 143.501 279.285C143.125 276.884 143.079 274.402 142.902 271.98C142.866 271.47 142.079 271.459 142.1 271.98Z" fill="#ACB7DD"/>
<path d="M143.698 288.628C145.117 288.395 146.548 288.247 147.984 288.185C148.682 288.155 149.381 288.145 150.08 288.155C150.799 288.166 151.543 288.251 152.259 288.191C152.788 288.147 152.986 287.328 152.393 287.202C151.646 287.044 150.841 287.065 150.08 287.069C149.353 287.073 148.626 287.098 147.901 287.146C146.406 287.244 144.918 287.434 143.445 287.706C142.836 287.818 143.099 288.726 143.698 288.628Z" fill="#ACB7DD"/>
<path d="M142.276 292.837C144.102 292.697 145.925 292.545 147.748 292.375C149.551 292.207 151.363 292.086 153.154 291.816C153.758 291.725 153.614 290.724 153.01 290.752C151.217 290.836 149.428 291.076 147.643 291.262C145.852 291.449 144.064 291.653 142.276 291.869C141.673 291.941 141.645 292.885 142.276 292.837Z" fill="#ACB7DD"/>
<path d="M118.482 238.669C118.482 238.669 115.922 237.156 115.301 233.704C114.68 230.252 118.831 229.088 118.831 229.088L120.46 229.825C120.46 229.825 121.003 236.807 118.482 238.669Z" fill="#3A6CA0"/>
<path d="M122.281 193.726H113.147C112.453 193.726 111.858 193.23 111.732 192.547L108.094 172.677C107.932 171.794 108.611 170.98 109.509 170.98H118.643C119.337 170.98 119.933 171.476 120.058 172.159L123.696 192.029C123.858 192.912 123.179 193.726 122.281 193.726Z" fill="#EEF7FC"/>
<path d="M113.142 213.419L109.76 216.037L111.724 192.147C111.724 192.147 115.467 188.531 115.61 185.207C115.61 185.207 117.04 184.528 117.397 184.599C117.754 184.671 120.149 185.421 120.578 184.921C121.007 184.421 118.72 182.955 118.505 182.812C118.291 182.669 115.038 183.026 115.038 183.026C115.038 183.026 117.611 180.882 118.076 180.774C118.541 180.667 120.22 180.452 120.542 180.131C120.864 179.809 117.79 179.237 117.254 179.309C116.718 179.381 113.823 180.846 113.823 180.846C113.823 180.846 116.003 176.7 116.611 176.128C117.219 175.556 118.255 174.305 117.719 174.091C117.183 173.877 116.254 174.091 115.61 174.52C115.054 174.891 116.128 173.177 116.428 172.707C116.479 172.626 116.481 172.529 116.428 172.449C116.238 172.166 115.655 171.656 114.288 172.912C112.537 174.52 108.284 178.559 107.855 179.917C107.426 181.275 106.719 184.842 106.719 189.89C106.719 189.89 101.917 196.908 99.331 205.773C96.745 214.638 94.899 230.029 96.13 234.708C97.361 239.387 98.593 239.756 102.04 239.51C105.487 239.264 121.986 231.753 121.986 231.753L119.279 221.377L113.142 213.419Z" fill="#F49B91"/>
<path d="M118.992 221.005L113.142 213.419L109.76 216.037L107.163 225.153L118.992 221.005Z" fill="#DE706B"/>
<path d="M148.19 202.355L147.141 202.148C147.141 202.148 135.148 200.478 133.113 200.921C131.078 201.363 127.096 200.125 112.232 213.751C112.232 213.751 123.181 228.004 118.491 238.621L126.742 231.359L127.858 256.047C127.858 256.047 121.648 261.692 121.987 268.693C121.987 268.693 121.535 269.935 137.794 270.048H177.2V239.337L195.04 237.418C195.04 237.418 194.476 234.37 192.895 232.676C191.314 230.982 191.766 225.901 189.508 224.095C187.25 222.288 186.798 209.417 181.266 206.594C175.734 203.771 165.519 202.274 165.519 202.274L148.19 202.355Z" fill="#5683C2"/>
<path d="M162.844 181.275C163.597 181.439 164.234 182.05 164.431 182.795C164.627 183.54 164.373 184.386 163.799 184.9C164.418 185.223 165.119 185.699 165.503 186.281C165.887 186.864 166.024 187.646 165.708 188.268C165.54 188.599 165.26 188.863 165.089 189.193C164.769 189.809 164.872 190.56 164.663 191.222C164.248 192.534 162.618 193.18 161.287 192.832C159.956 192.484 158.939 191.377 158.304 190.157C157.075 187.797 156.623 184.964 156.746 182.306C156.776 181.649 156.874 180.937 157.343 180.475C157.806 180.019 158.514 179.927 159.163 179.955C160.469 180.013 161.565 180.996 162.844 181.275Z" fill="#675161"/>
<path d="M157.804 181.1C157.844 182.409 157.871 183.729 157.911 185.037C158.335 184.622 158.805 184.236 159.359 184.023C159.913 183.809 160.565 183.788 161.081 184.081C161.899 184.545 162.142 185.642 161.984 186.57C161.727 188.082 160.523 189.605 159.066 190.083C159.759 194.126 160.516 198.105 161.209 202.148H165.214C165.293 202.148 165.438 202.272 165.517 202.272C162.431 204.773 159.029 206.885 155.418 208.54C154.242 209.079 153.022 209.576 151.734 209.696C150.446 209.816 149.067 209.515 148.123 208.63C147.305 207.863 146.896 206.739 146.782 205.623C146.669 204.507 146.985 203.259 147.139 202.148C148.011 202.188 148.934 202.05 149.806 202.09C149.5 200.486 149.272 198.889 148.966 197.285C147.319 197.058 145.774 196.16 144.762 194.841C143.712 193.471 143.259 191.74 142.971 190.038C142.37 186.495 143.072 183.723 144.633 179.995C149.516 180.453 152.924 180.642 157.804 181.1Z" fill="#F49B91"/>
<path d="M152.684 183.191C152.649 183.327 150.421 182.82 149.388 183.268C149.176 183.36 148.962 183.471 148.731 183.47C148.185 183.469 148.144 182.796 148.62 182.632C148.972 182.511 149.273 182.447 149.594 182.413C150.728 182.294 152.627 182.545 152.684 183.191Z" fill="#675161"/>
<path d="M143.232 182.317C143.221 182.474 143.526 181.906 145.17 182.782C145.507 182.962 145.887 183.186 146.309 183.274C147.308 183.485 147.75 182.785 146.968 182.426C146.391 182.161 145.914 182.005 145.31 181.914C144.099 181.734 143.414 182.022 143.232 182.317Z" fill="#675161"/>
<path d="M149.039 185.219C149.032 185.773 149.367 186.227 149.787 186.232C150.206 186.237 150.552 185.792 150.558 185.237C150.564 184.682 150.23 184.229 149.81 184.225C149.39 184.219 149.045 184.665 149.039 185.219Z" fill="#675161"/>
<path d="M144.601 184.734C144.594 185.288 144.929 185.742 145.349 185.747C145.768 185.752 146.114 185.307 146.12 184.752C146.127 184.198 145.792 183.744 145.372 183.74C144.952 183.734 144.607 184.179 144.601 184.734Z" fill="#675161"/>
<path d="M146.179 187.827C146.014 188.189 145.83 188.569 145.875 188.965C145.918 189.343 146.188 189.685 146.546 189.815C146.903 189.945 147.33 189.855 147.606 189.593C147.253 189.635 146.911 189.384 146.764 189.061C146.617 188.738 146.634 188.361 146.72 188.016C146.805 187.671 146.954 187.346 147.066 187.009C147.246 186.467 147.548 185.355 147.202 184.857C146.838 185.839 146.621 186.861 146.179 187.827Z" fill="#DE706B"/>
<path d="M145.481 191.066C147.108 191.761 148.883 191.89 150.359 191.419C150.413 192.235 150.408 193.03 149.962 193.633C149.515 194.236 148.699 194.585 147.848 194.376C147.121 194.198 146.46 193.64 146.043 192.995C145.625 192.35 145.578 191.768 145.481 191.066Z" fill="#EE8780"/>
<path d="M150.184 193.214C150.125 193.36 150.058 193.502 149.962 193.632C149.515 194.235 148.699 194.584 147.848 194.375C147.231 194.224 146.671 193.793 146.258 193.274C146.802 192.919 147.435 192.697 148.084 192.665C148.819 192.629 149.557 192.831 150.184 193.214Z" fill="#DE706B"/>
<path d="M145.481 191.066C147.108 191.761 148.883 191.89 150.359 191.419C150.402 192.06 150.399 192.683 150.184 193.215C149.557 192.832 148.819 192.63 148.084 192.666C147.435 192.698 146.802 192.92 146.258 193.275C146.184 193.182 146.106 193.092 146.042 192.994C145.625 192.349 145.578 191.768 145.481 191.066Z" fill="#675161"/>
<path d="M151.776 170.005C151.776 170.005 159.077 169.421 161.59 172.876C164.513 176.896 163.313 181.541 163.313 181.541L158.197 180.758L151.776 170.005Z" fill="#D8D6EB"/>
<path d="M145.303 177.105C145.303 177.105 138.36 177.105 137.264 178.045C136.168 178.985 147.443 182.691 158.197 180.759L145.303 177.105Z" fill="#6A6EB2"/>
<path d="M145.303 177.105C145.303 177.105 148.174 169.275 152.924 169.953C157.674 170.632 158.196 180.759 158.196 180.759C158.196 180.759 146.504 179.454 145.303 177.105Z" fill="#B5B2D8"/>
<path d="M151.946 202.021C152.77 201.75 153.39 201.077 153.938 200.405C155.913 197.985 157.56 195.105 158.603 192.161C156.418 193.783 154.197 195.425 151.651 196.383C150.561 196.793 149.396 197.053 148.23 197.132C148.473 197.196 148.719 197.251 148.969 197.285C149.268 198.852 149.494 200.413 149.79 201.979C150.509 202.163 151.251 202.251 151.946 202.021Z" fill="#DE706B"/>
<path d="M150.516 211.831C150.179 217.717 149.087 223.523 148.5 229.385C148.22 232.176 148.045 234.975 147.879 237.775C147.652 241.606 147.449 245.439 147.261 249.273C147.069 253.172 146.792 257.088 146.92 260.992C147.015 263.9 147.118 266.814 147.308 269.718C147.332 270.077 147.858 270.083 147.871 269.718C147.96 267.22 148.255 264.733 148.51 262.248C148.902 258.429 149.046 254.61 149.214 250.776C149.516 243.885 149.857 236.993 150.288 230.109C150.67 224.005 151.542 217.963 151.501 211.833C151.496 211.194 150.552 211.202 150.516 211.831Z" fill="#386BA0"/>
<path d="M137.645 257.569C139.253 257.063 140.777 256.274 142.299 255.559C143.085 255.19 143.873 254.826 144.648 254.432C145.449 254.026 146.271 253.659 146.997 253.129C147.525 252.743 147.24 251.742 146.515 251.987C145.662 252.275 144.892 252.718 144.098 253.138C143.332 253.543 142.581 253.971 141.828 254.399C140.354 255.238 138.91 256.203 137.361 256.898C136.982 257.069 137.252 257.693 137.645 257.569Z" fill="#4380B5"/>
<path d="M150.883 251.633C154.059 249.836 157.502 248.521 160.803 246.974C162.419 246.217 163.993 245.382 165.491 244.41C166.854 243.525 168.598 242.428 169.289 240.887C169.431 240.569 169.182 240.02 168.76 240.198C167.22 240.847 165.922 242.133 164.522 243.036C163.026 244.002 161.447 244.842 159.867 245.66C156.666 247.318 153.424 248.826 150.394 250.796C149.874 251.135 150.336 251.942 150.883 251.633Z" fill="#4380B5"/>
<path d="M171.726 246.279C169.991 247.463 168.594 249.008 167.144 250.511C166.417 251.264 165.695 252.021 164.88 252.681C163.898 253.477 162.8 254.113 161.767 254.838C159.863 256.173 158.269 257.863 156.67 259.538C155.097 261.186 153.066 263.004 152.164 265.135C151.984 265.56 152.46 266.019 152.839 265.656C153.682 264.847 154.344 263.857 155.109 262.975C155.881 262.084 156.693 261.227 157.512 260.379C159.172 258.66 160.819 256.942 162.817 255.609C164.577 254.434 166.249 253.29 167.713 251.745C169.194 250.182 170.506 248.466 172.257 247.183C172.787 246.792 172.29 245.894 171.726 246.279Z" fill="#4380B5"/>
<path d="M169.626 222.302C170.825 225.328 171.489 228.502 172.454 231.599C172.911 233.065 173.417 234.515 174.08 235.902C174.422 236.618 174.801 237.317 175.228 237.986C175.647 238.644 176.051 239.356 176.78 239.689C177.21 239.885 177.698 239.563 177.583 239.071C177.416 238.352 176.923 237.833 176.532 237.223C176.103 236.555 175.722 235.858 175.378 235.143C174.687 233.708 174.143 232.218 173.61 230.72C172.571 227.802 171.634 224.805 170.097 222.104C169.957 221.857 169.516 222.024 169.626 222.302Z" fill="#4380B5"/>
<path d="M157.438 214.731C157.438 215.97 156.434 216.974 155.195 216.974C153.956 216.974 152.952 215.97 152.952 214.731C152.952 213.492 153.956 212.488 155.195 212.488C156.434 212.488 157.438 213.492 157.438 214.731Z" fill="#C8DDED"/>
<path d="M156.781 224.689C156.781 225.928 155.777 226.932 154.538 226.932C153.299 226.932 152.295 225.928 152.295 224.689C152.295 223.45 153.299 222.446 154.538 222.446C155.777 222.445 156.781 223.45 156.781 224.689Z" fill="#C8DDED"/>
<path d="M131.394 219.819L143.54 220.257C143.54 220.257 144.197 230.871 137.631 230.652C132.054 230.466 130.957 225.619 131.394 219.819Z" fill="#C8DDED"/>
<path d="M124.903 215.146C124.773 220.598 125.338 225.994 126.579 231.296C126.681 231.731 127.321 231.543 127.242 231.113C126.277 225.857 125.763 220.491 125.7 215.146C125.694 214.633 124.915 214.633 124.903 215.146Z" fill="#386BA0"/>
<path d="M188.077 304.493H182.103C181.02 299.498 179.033 294.487 175.358 290.88C173.186 288.748 170.057 287.741 167.053 288.271C163.34 288.926 160.645 291.782 158.782 294.896C157.027 297.83 155.86 301.127 155.232 304.494H148.607L139.478 360.344H196.133L188.077 304.493ZM158.823 296.997C160.56 294.059 162.867 291.256 166.267 290.276C172.017 288.62 176.593 293.704 178.847 298.364C179.815 300.365 180.604 302.38 181.174 304.493H155.916C156.509 301.867 157.451 299.318 158.823 296.997Z" fill="#E95C80"/>
<path d="M149.604 305.994L141.215 358.702L145.331 355.695L149.921 358.702H151.662L149.604 305.994Z" fill="#D74876"/>
<path d="M120.724 219.966C120.842 220.615 120.972 221.266 121.208 221.884C121.447 222.511 121.718 223.126 122.021 223.725C122.319 224.315 122.671 224.877 123.045 225.421C123.411 225.954 123.801 226.573 124.288 227.003C124.557 227.24 125.006 226.938 124.803 226.605C124.473 226.063 124.027 225.583 123.674 225.053C123.318 224.519 122.998 223.964 122.684 223.404C122.053 222.28 121.518 221.074 121.041 219.877C120.963 219.684 120.686 219.756 120.724 219.966Z" fill="#386BA0"/>
<path d="M177.134 239.137L177.211 243.165L180.453 249.394L167.351 279.645C167.351 279.645 164.232 283.611 163.336 284.982C162.44 286.352 161.544 289.251 161.649 290.252C161.754 291.253 163.652 289.725 163.652 289.725C163.652 289.725 163.863 292.36 163.02 293.203C162.177 294.046 163.073 294.521 163.863 294.152C163.863 294.152 164.337 295.048 165.391 294.099C165.391 294.099 166.024 295.1 167.394 293.941C167.394 293.941 168.184 294.89 169.028 293.783C169.871 292.676 170.715 292.623 170.82 289.461C170.925 286.299 170.82 285.087 170.82 285.087C170.82 285.087 192.655 257.443 194.824 251.868C196.277 248.133 195.12 241.177 194.039 237.558C188.541 237.737 182.584 238.821 177.134 239.137Z" fill="#F49B91"/>
<path d="M195.02 241.905C194.745 240.255 194.388 238.729 194.038 237.557C188.541 237.737 182.584 238.821 177.134 239.137L177.211 243.165L177.32 243.374C182.657 240.426 189.262 239.928 195.02 241.905Z" fill="#DE706B"/>
<path d="M177.951 206.231C179.473 206.65 181.02 207.284 182.009 208.515C182.811 209.514 183.156 210.793 183.481 212.032C184.114 214.444 184.746 216.856 185.379 219.268C185.876 221.163 186.448 223.181 187.938 224.454C188.28 224.746 188.663 224.991 188.974 225.316C190.586 227.003 189.591 229.857 190.447 232.027C191.115 233.721 192.921 235.029 192.826 236.847C191.914 236.813 191.002 236.779 190.091 236.745C189.846 236.736 189.591 236.724 189.375 236.608C189.092 236.456 188.927 236.154 188.783 235.866C188.137 234.569 187.608 233.213 187.204 231.821C186.821 230.502 186.545 229.136 185.923 227.911C185.269 226.621 184.262 225.548 183.453 224.349C181.311 221.175 180.635 217.274 179.466 213.628C178.415 210.351 176.71 208.22 174.588 205.672C175.641 205.543 176.92 205.947 177.951 206.231Z" fill="#5B97CC"/>
<path d="M136.678 201.975C130.509 201.087 123.95 204.297 120.866 209.713C120.468 210.412 120.114 211.218 120.304 212C122.762 211.788 124.689 209.907 126.818 208.66C129.127 207.307 131.844 206.661 134.515 206.829C136.639 206.963 138.751 207.597 140.863 207.333C142.092 207.179 146.17 205.269 144.732 203.475C144.148 202.746 142.012 203.029 141.17 202.888C139.662 202.637 138.193 202.193 136.678 201.975Z" fill="#5B97CC"/>
<path d="M153.957 125.31C153.957 106.538 138.739 91.32 119.967 91.32C101.195 91.32 85.977 106.538 85.977 125.31C85.977 144.082 101.195 159.3 119.967 159.3C124.588 159.3 128.992 158.374 133.008 156.704L143.609 169.015L140.753 152.196C148.783 145.977 153.957 136.251 153.957 125.31Z" fill="#EEF8FD"/>
<path d="M389.756 154.245C389.756 138 402.926 124.83 419.171 124.83C435.417 124.83 448.586 138 448.586 154.245C448.586 170.49 435.416 183.66 419.171 183.66C415.172 183.66 411.361 182.858 407.885 181.413L398.711 192.067L401.183 177.511C394.234 172.13 389.756 163.713 389.756 154.245Z" fill="#EEF8FD"/>
<path d="M428.172 146.61H411.545C410.405 146.61 409.473 147.543 409.473 148.682V163.833C409.473 164.973 410.406 165.905 411.545 165.905H428.172C429.312 165.905 430.244 164.973 430.244 163.833V148.682C430.244 147.543 429.311 146.61 428.172 146.61Z" fill="#EC876B"/>
<path d="M426.318 155.976H413.398V143.723C413.398 141.6 415.125 139.873 417.248 139.873H422.468C424.591 139.873 426.318 141.6 426.318 143.723V155.976ZM415.549 153.825H424.166V143.723C424.166 142.786 423.404 142.024 422.467 142.024H417.247C416.311 142.024 415.548 142.786 415.548 143.723V153.825H415.549Z" fill="#EC876B"/>
<path d="M423.162 153.35C423.162 151.525 421.683 150.046 419.858 150.046C418.033 150.046 416.554 151.525 416.554 153.35C416.554 154.736 417.408 155.92 418.618 156.411V161.79C418.618 162.472 419.176 163.031 419.859 163.031C420.541 163.031 421.1 162.473 421.1 161.79V156.411C422.309 155.92 423.162 154.736 423.162 153.35Z" fill="#BB5B45"/>
<path d="M134.788 119.835V122.732H127.02V129.71H123.597V118.124H126.858V114.569H123.597V111.817H126.858V108.525H124.124V111.277H120.569V108.525H116.487V111.409H112.405V116.544H112.537V118.651H112.405V126.551H109.772V118.651H101.543V123.786H103.978V126.814H101.543V130.237H104.242V134.319H109.772V130.369H112.669V134.319H116.487V137.479H112.669V146.285H117.409V143.009H121.622V146.285H127.81V137.479H120.7L120.691 133.529H117.014V130.237H123.992L124.029 133.792H127.811V130.105H130.708V133.792H135.711V130.632H139.303V119.836L134.788 119.835ZM116.486 129.71H113.458V126.682H116.486V129.71ZM119.778 126.286H117.013V119.044H119.778V126.286ZM120.305 114.568H116.75V111.816H120.305V114.568ZM120.568 115.24H124.123V117.992H120.568V115.24ZM134.656 129.841H131.364V126.549H134.656V129.841Z" fill="#264456"/>
<path d="M110.459 137.449H101.872V146.036H110.459V137.449Z" fill="#264456"/>
<path d="M139.095 137.449H130.508V146.036H139.095V137.449Z" fill="#264456"/>
<path d="M110.459 108.088H101.872V116.675H110.459V108.088Z" fill="#264456"/>
<path d="M139.095 108.088H130.508V116.675H139.095V108.088Z" fill="#264456"/>
</g>
<defs>
<clipPath id="clip0_1_2">
<rect width="500" height="500" fill="white"/>
</clipPath>
</defs>
</svg>
