<svg width="168" height="168" viewBox="0 0 168 168" fill="none" xmlns="http://www.w3.org/2000/svg">
<path d="M84 0C106.278 0 127.644 8.84997 143.397 24.603C159.15 40.3561 168 61.7218 168 84C168 106.278 159.15 127.644 143.397 143.397C127.644 159.15 106.278 168 84 168C61.7218 168 40.3561 159.15 24.603 143.397C8.84997 127.644 0 106.278 0 84C0 61.7218 8.84997 40.3561 24.603 24.603C40.3561 8.84997 61.7218 0 84 0ZM73.536 100.572L54.876 81.9C54.207 81.231 53.4129 80.7004 52.5389 80.3384C51.6648 79.9763 50.728 79.79 49.782 79.79C48.836 79.79 47.8992 79.9763 47.0251 80.3384C46.1511 80.7004 45.357 81.231 44.688 81.9C43.337 83.251 42.578 85.0834 42.578 86.994C42.578 88.9046 43.337 90.737 44.688 92.088L68.448 115.848C69.115 116.52 69.9086 117.054 70.7829 117.418C71.6572 117.782 72.5949 117.97 73.542 117.97C74.4891 117.97 75.4268 117.782 76.3011 117.418C77.1754 117.054 77.969 116.52 78.636 115.848L127.836 66.636C128.514 65.9698 129.053 65.176 129.423 64.3004C129.792 63.4247 129.985 62.4846 129.989 61.5342C129.994 60.5837 129.81 59.6418 129.449 58.7628C129.087 57.8838 128.555 57.085 127.884 56.4125C127.212 55.74 126.414 55.2072 125.535 54.8448C124.656 54.4823 123.715 54.2974 122.764 54.3007C121.814 54.304 120.874 54.4955 119.997 54.864C119.121 55.2325 118.327 55.7709 117.66 56.448L73.536 100.572Z" fill="#5CD25C"/>
</svg>
