<svg width="34" height="28" viewBox="0 0 34 28" fill="none" xmlns="http://www.w3.org/2000/svg">
<path d="M0 23.0785C0 24.2021 0.446354 25.2797 1.24087 26.0742C2.03538 26.8687 3.11298 27.3151 4.23659 27.3151H29.6561C30.7798 27.3151 31.8573 26.8687 32.6519 26.0742C33.4464 25.2797 33.8927 24.2021 33.8927 23.0785V11.4278H0V23.0785ZM4.99313 17.3288C4.99313 16.7269 5.23224 16.1496 5.65788 15.724C6.08351 15.2983 6.66079 15.0592 7.26273 15.0592H10.8941C11.496 15.0592 12.0733 15.2983 12.4989 15.724C12.9246 16.1496 13.1637 16.7269 13.1637 17.3288V18.8419C13.1637 19.4438 12.9246 20.0211 12.4989 20.4467C12.0733 20.8724 11.496 21.1115 10.8941 21.1115H7.26273C6.66079 21.1115 6.08351 20.8724 5.65788 20.4467C5.23224 20.0211 4.99313 19.4438 4.99313 18.8419V17.3288ZM29.6561 0.685059H4.23659C3.11298 0.685059 2.03538 1.13141 1.24087 1.92593C0.446354 2.72044 0 3.79804 0 4.92165V6.88864H33.8927V4.92165C33.8927 3.79804 33.4464 2.72044 32.6519 1.92593C31.8573 1.13141 30.7798 0.685059 29.6561 0.685059Z" fill="#0066AE"/>
</svg>
