<svg width="23" height="25" viewBox="0 0 23 25" fill="none" xmlns="http://www.w3.org/2000/svg">
<path d="M14.8751 3.71875C14.8751 3.05124 14.6771 2.39872 14.3063 1.8437C13.9354 1.28869 13.4083 0.856104 12.7916 0.600658C12.1749 0.345212 11.4963 0.278376 10.8416 0.408601C10.1869 0.538826 9.58558 0.860264 9.11358 1.33227C8.64158 1.80427 8.32014 2.40564 8.18991 3.06032C8.05969 3.71501 8.12653 4.39361 8.38197 5.01031C8.63742 5.62701 9.07 6.15411 9.62502 6.52496C10.18 6.89581 10.8326 7.09375 11.5001 7.09375C12.3952 7.09375 13.2536 6.73817 13.8865 6.10524C14.5195 5.4723 14.8751 4.61386 14.8751 3.71875ZM11.5001 5.40625C11.1663 5.40625 10.84 5.30728 10.5625 5.12186C10.285 4.93643 10.0687 4.67288 9.94102 4.36453C9.8133 4.05618 9.77988 3.71688 9.84499 3.38954C9.9101 3.06219 10.0708 2.76151 10.3068 2.52551C10.5428 2.28951 10.8435 2.12879 11.1709 2.06368C11.4982 1.99856 11.8375 2.03198 12.1458 2.15971C12.4542 2.28743 12.7177 2.50372 12.9032 2.78123C13.0886 3.05873 13.1876 3.385 13.1876 3.71875C13.1876 4.1663 13.0098 4.59553 12.6933 4.91199C12.3768 5.22846 11.9476 5.40625 11.5001 5.40625ZM22.4161 8.75067C22.32 8.27812 22.062 7.85396 21.6865 7.55144C21.311 7.24892 20.8416 7.08704 20.3594 7.09375H2.64069C2.15984 7.09374 1.69342 7.25801 1.3187 7.55936C0.943992 7.8607 0.683484 8.28103 0.580346 8.75069C0.477208 9.22035 0.537631 9.71115 0.751602 10.1418C0.965574 10.5724 1.32025 10.917 1.75686 11.1184H1.77057L7.12311 13.4757L4.90827 21.8836C4.67652 22.3941 4.65706 22.9758 4.85416 23.5006C5.05126 24.0255 5.44877 24.4505 5.95926 24.6822C6.46975 24.914 7.0514 24.9335 7.57624 24.7364C8.10108 24.5393 8.52613 24.1417 8.75788 23.6313L11.5001 18.8989L14.2423 23.6313C14.4859 24.12 14.9097 24.4952 15.4243 24.6778C15.939 24.8605 16.5044 24.8365 17.0017 24.6108C17.499 24.3851 17.8894 23.9753 18.0908 23.4677C18.2921 22.9601 18.2887 22.3941 18.0813 21.8889L15.8665 13.4809L21.219 11.1237H21.2327C21.6763 10.929 22.0377 10.5849 22.2539 10.1514C22.4701 9.7178 22.5275 9.22217 22.4161 8.75067ZM20.5387 9.58387L14.5344 12.2269C14.3506 12.3079 14.2017 12.4518 14.1145 12.6328C14.0273 12.8137 14.0075 13.0199 14.0587 13.2141L16.4708 22.3867C16.4831 22.4358 16.5004 22.4835 16.5225 22.5291C16.5579 22.6048 16.57 22.6893 16.5573 22.7719C16.5446 22.8545 16.5077 22.9314 16.4512 22.993C16.3947 23.0546 16.3212 23.098 16.24 23.1177C16.1588 23.1375 16.0736 23.1327 15.9951 23.1039C15.8903 23.0654 15.8049 22.9869 15.7578 22.8856C15.7472 22.8628 15.7352 22.8406 15.722 22.8191L12.2299 16.7969C12.1557 16.669 12.0493 16.5629 11.9212 16.4891C11.7931 16.4153 11.6479 16.3765 11.5001 16.3765C11.3522 16.3765 11.207 16.4153 11.0789 16.4891C10.9509 16.5629 10.8444 16.669 10.7702 16.7969L7.28132 22.8139C7.26811 22.8353 7.25614 22.8575 7.24546 22.8803C7.19838 22.9816 7.11304 23.0602 7.00815 23.0986C6.9297 23.1274 6.84447 23.1322 6.76328 23.1125C6.68209 23.0927 6.60859 23.0493 6.5521 22.9877C6.49561 22.9262 6.45868 22.8492 6.44599 22.7666C6.43329 22.684 6.44541 22.5995 6.48081 22.5238C6.50287 22.4783 6.52019 22.4306 6.53249 22.3814L8.94139 13.2109C8.99259 13.0167 8.97282 12.8106 8.88563 12.6296C8.79844 12.4487 8.64955 12.3047 8.46573 12.2238L2.46139 9.58387C2.37521 9.54274 2.30552 9.47359 2.26373 9.38772C2.22195 9.30185 2.21053 9.20434 2.23135 9.11114C2.25217 9.01794 2.30399 8.93457 2.37835 8.87464C2.45271 8.81472 2.54519 8.78179 2.64069 8.78125H20.3594C20.4552 8.78108 20.5482 8.81349 20.6231 8.87317C20.698 8.93284 20.7504 9.01622 20.7716 9.10961C20.7928 9.20299 20.7816 9.30082 20.7399 9.38701C20.6982 9.4732 20.6283 9.54262 20.5419 9.58387H20.5387Z" fill="#0A3967"/>
</svg>
