<svg width="42" height="42" viewBox="0 0 42 42" fill="none" xmlns="http://www.w3.org/2000/svg">
<path fill-rule="evenodd" clip-rule="evenodd" d="M31.7912 5.18758C31.7912 2.41675 34.0412 0.166748 36.8121 0.166748C39.5829 0.166748 41.8329 2.41675 41.8329 5.18758C41.8329 7.95842 39.5829 10.2084 36.8121 10.2084C34.0412 10.2084 31.7912 7.95842 31.7912 5.18758ZM23.7702 26.7486L29.791 18.9799L29.7077 19.0215C30.041 18.5632 30.1035 17.9799 29.8743 17.459C29.6473 16.9382 29.1452 16.584 28.6056 16.5424C28.041 16.4799 27.4806 16.7299 27.1452 17.1882L22.1056 23.709L16.3327 19.1674C15.9785 18.8965 15.5618 18.7903 15.1452 18.834C14.7306 18.8965 14.3556 19.1236 14.1035 19.457L7.93893 27.4799L7.81185 27.6674C7.45768 28.332 7.62435 29.1861 8.24935 29.6465C8.54102 29.834 8.85352 29.959 9.20768 29.959C9.68893 29.9799 10.1452 29.7278 10.4368 29.334L15.666 22.6028L21.6035 27.0632L21.791 27.1861C22.4577 27.5403 23.291 27.3757 23.7702 26.7486ZM28.1868 3.87571C28.1035 4.39654 28.0618 4.91737 28.0618 5.43821C28.0618 10.1257 31.8535 13.9153 36.5202 13.9153C37.041 13.9153 37.541 13.8549 38.0618 13.7715V30.582C38.0618 37.6465 33.8952 41.834 26.8118 41.834H11.4181C4.33268 41.834 0.166016 37.6465 0.166016 30.582V15.1674C0.166016 8.08404 4.33268 3.87571 11.4181 3.87571H28.1868Z" fill="white"/>
</svg>
