<svg width="34" height="34" viewBox="0 0 34 34" fill="none" xmlns="http://www.w3.org/2000/svg">
<path d="M16.9997 27.833C17.6941 27.833 18.2841 27.5897 18.7697 27.103C19.2563 26.6175 19.4997 26.0275 19.4997 25.333H14.4997C14.4997 26.0275 14.743 26.6175 15.2297 27.103C15.7152 27.5897 16.3052 27.833 16.9997 27.833ZM8.66634 23.6663H25.333V20.333H23.6663V15.9997C23.6663 14.3052 23.2291 12.7563 22.3547 11.353C21.4791 9.95079 20.2497 9.05523 18.6663 8.66634V6.16634H15.333V8.66634C13.7497 9.05523 12.5208 9.95079 11.6463 11.353C10.7708 12.7563 10.333 14.3052 10.333 15.9997V20.333H8.66634V23.6663ZM16.9997 33.6663C14.6941 33.6663 12.5275 33.2286 10.4997 32.353C8.4719 31.4786 6.70801 30.2913 5.20801 28.7913C3.70801 27.2913 2.52079 25.5275 1.64634 23.4997C0.770786 21.4719 0.333008 19.3052 0.333008 16.9997C0.333008 14.6941 0.770786 12.5275 1.64634 10.4997C2.52079 8.4719 3.70801 6.70801 5.20801 5.20801C6.70801 3.70801 8.4719 2.52023 10.4997 1.64467C12.5275 0.77023 14.6941 0.333008 16.9997 0.333008C19.3052 0.333008 21.4719 0.77023 23.4997 1.64467C25.5275 2.52023 27.2913 3.70801 28.7913 5.20801C30.2913 6.70801 31.4786 8.4719 32.353 10.4997C33.2286 12.5275 33.6663 14.6941 33.6663 16.9997C33.6663 19.3052 33.2286 21.4719 32.353 23.4997C31.4786 25.5275 30.2913 27.2913 28.7913 28.7913C27.2913 30.2913 25.5275 31.4786 23.4997 32.353C21.4719 33.2286 19.3052 33.6663 16.9997 33.6663Z" fill="#0066AE"/>
</svg>
