<svg width="24" height="23" viewBox="0 0 24 23" fill="none" xmlns="http://www.w3.org/2000/svg">
<path d="M14.875 0.1875C13.5433 0.188694 12.2307 0.504831 11.0444 1.1101C9.85818 1.71537 8.8319 2.5926 8.04937 3.67019C7.26684 4.74777 6.75026 5.99515 6.54179 7.31047C6.33333 8.6258 6.4389 9.97178 6.84988 11.2385L0.778047 17.3093C0.699718 17.3877 0.637606 17.4808 0.59526 17.5832C0.552914 17.6856 0.531163 17.7954 0.53125 17.9062V22.125C0.53125 22.3488 0.620145 22.5634 0.778379 22.7216C0.936613 22.8799 1.15122 22.9688 1.375 22.9688H5.59375C5.81753 22.9688 6.03214 22.8799 6.19037 22.7216C6.34861 22.5634 6.4375 22.3488 6.4375 22.125V20.4375H8.125C8.34878 20.4375 8.56339 20.3486 8.72162 20.1904C8.87986 20.0321 8.96875 19.8175 8.96875 19.5938V17.9062H10.6562C10.7671 17.9063 10.8769 17.8846 10.9793 17.8422C11.0817 17.7999 11.1748 17.7378 11.2532 17.6595L12.2615 16.6501C13.4211 17.0266 14.6486 17.1473 15.8594 17.0039C17.0702 16.8605 18.2355 16.4564 19.2751 15.8195C20.3147 15.1825 21.2039 14.3277 21.8815 13.3141C22.5591 12.3005 23.009 11.1521 23.2002 9.94792C23.3913 8.74376 23.3193 7.51247 22.9889 6.33884C22.6585 5.1652 22.0778 4.07711 21.2865 3.14947C20.4953 2.22183 19.5124 1.4767 18.4056 0.965364C17.2987 0.454031 16.0942 0.188652 14.875 0.1875ZM14.875 15.375C14.0209 15.3764 13.1743 15.215 12.3807 14.8993C12.2254 14.832 12.0535 14.8128 11.8872 14.8444C11.721 14.876 11.568 14.9569 11.4483 15.0765L10.3071 16.2188H8.125C7.90122 16.2188 7.68661 16.3076 7.52838 16.4659C7.37014 16.6241 7.28125 16.8387 7.28125 17.0625V18.75H5.59375C5.36997 18.75 5.15536 18.8389 4.99713 18.9971C4.8389 19.1554 4.75 19.37 4.75 19.5938V21.2812H2.21875V18.2554L8.42348 12.0517C8.54311 11.932 8.62398 11.779 8.65558 11.6128C8.68718 11.4465 8.66804 11.2746 8.60066 11.1193C8.06709 9.77761 7.97782 8.30015 8.34598 6.90394C8.71414 5.50774 9.52032 4.26639 10.6461 3.36222C11.7719 2.45805 13.158 1.93871 14.6007 1.88049C16.0435 1.82227 17.4669 2.22823 18.6619 3.03874C19.8568 3.84926 20.7604 5.02161 21.2399 6.38361C21.7194 7.74561 21.7494 9.22546 21.3257 10.6058C20.902 11.9862 20.0468 13.1943 18.8857 14.0527C17.7247 14.9111 16.3189 15.3745 14.875 15.375ZM18.25 6.51562C18.25 6.76594 18.1758 7.01064 18.0367 7.21877C17.8976 7.4269 17.7 7.58912 17.4687 7.68491C17.2374 7.7807 16.983 7.80577 16.7375 7.75693C16.492 7.7081 16.2664 7.58756 16.0894 7.41056C15.9124 7.23356 15.7919 7.00804 15.7431 6.76254C15.6942 6.51703 15.7193 6.26255 15.8151 6.03129C15.9109 5.80003 16.0731 5.60236 16.2812 5.4633C16.4894 5.32423 16.7341 5.25 16.9844 5.25C17.32 5.25 17.642 5.38334 17.8793 5.62069C18.1167 5.85804 18.25 6.17996 18.25 6.51562Z" fill="#0A3967"/>
</svg>
