<svg width="11" height="20" viewBox="0 0 11 20" fill="none" xmlns="http://www.w3.org/2000/svg">
<path d="M10.1594 10.5974L1.72193 19.0349C1.64354 19.1133 1.55048 19.1755 1.44805 19.2179C1.34562 19.2604 1.23585 19.2822 1.12498 19.2822C1.01412 19.2822 0.904337 19.2604 0.801912 19.2179C0.699487 19.1755 0.60642 19.1133 0.528027 19.0349C0.449634 18.9565 0.38745 18.8635 0.345024 18.761C0.302598 18.6586 0.280762 18.5488 0.280762 18.438C0.280762 18.3271 0.302598 18.2173 0.345024 18.1149C0.38745 18.0125 0.449634 17.9194 0.528027 17.841L8.36963 10.0005L0.528027 2.15992C0.369706 2.0016 0.280762 1.78687 0.280762 1.56297C0.280762 1.33907 0.369706 1.12434 0.528027 0.966016C0.686349 0.807694 0.90108 0.71875 1.12498 0.71875C1.34888 0.71875 1.56361 0.807694 1.72193 0.966016L10.1594 9.40352C10.2379 9.48188 10.3001 9.57493 10.3426 9.67736C10.385 9.77979 10.4069 9.88959 10.4069 10.0005C10.4069 10.1114 10.385 10.2211 10.3426 10.3236C10.3001 10.426 10.2379 10.5191 10.1594 10.5974Z" fill="#0A3967"/>
</svg>
