<svg width="28" height="28" viewBox="0 0 21 21" fill="none" xmlns="http://www.w3.org/2000/svg">
<g clip-path="url(#clip0_294_721)">
<path d="M16.5774 4.78809H6.02181C5.8008 4.78809 5.58883 4.87588 5.43255 5.03216C5.27627 5.18844 5.18848 5.40041 5.18848 5.62142V18.9548C5.18848 19.1758 5.27627 19.3877 5.43255 19.544C5.58883 19.7003 5.8008 19.7881 6.02181 19.7881H16.5774C16.7984 19.7881 17.0103 19.7003 17.1666 19.544C17.3229 19.3877 17.4107 19.1758 17.4107 18.9548V5.62142C17.4107 5.40041 17.3229 5.18844 17.1666 5.03216C17.0103 4.87588 16.7984 4.78809 16.5774 4.78809ZM16.2996 18.677H6.29959V5.8992H16.2996V18.677Z" fill="white"/>
<path d="M14.6334 2.84408C14.6334 2.62306 14.5456 2.4111 14.3893 2.25482C14.233 2.09854 14.021 2.01074 13.8 2.01074H3.24447C3.02345 2.01074 2.81149 2.09854 2.65521 2.25482C2.49893 2.4111 2.41113 2.62306 2.41113 2.84408V16.1774C2.41113 16.3984 2.49893 16.6104 2.65521 16.7667C2.81149 16.9229 3.02345 17.0107 3.24447 17.0107H3.52224V3.12185H14.6334V2.84408Z" fill="white"/>
</g>
<defs>
<clipPath id="clip0_294_721">
<rect width="20" height="20" fill="white" transform="translate(0.188477 0.899414)"/>
</clipPath>
</defs>
</svg>
