<svg width="43" height="47" viewBox="0 0 43 47" fill="none" xmlns="http://www.w3.org/2000/svg">
<path fill-rule="evenodd" clip-rule="evenodd" d="M11.8979 0.583252H31.1044C38.1833 0.583252 42.125 4.66242 42.125 11.652V35.3249C42.125 42.4291 38.1833 46.4166 31.1044 46.4166H11.8979C4.93125 46.4166 0.875 42.4291 0.875 35.3249V11.652C0.875 4.66242 4.93125 0.583252 11.8979 0.583252ZM12.5167 11.2624V11.2395H19.3665C20.3542 11.2395 21.1562 12.0416 21.1562 13.0247C21.1562 14.0353 20.3542 14.8374 19.3665 14.8374H12.5167C11.529 14.8374 10.7292 14.0353 10.7292 13.0499C10.7292 12.0645 11.529 11.2624 12.5167 11.2624ZM12.5167 25.1958H30.4833C31.4687 25.1958 32.2708 24.3937 32.2708 23.4083C32.2708 22.4228 31.4687 21.6185 30.4833 21.6185H12.5167C11.529 21.6185 10.7292 22.4228 10.7292 23.4083C10.7292 24.3937 11.529 25.1958 12.5167 25.1958ZM12.5167 35.6687H30.4833C31.3977 35.577 32.0875 34.7955 32.0875 33.8812C32.0875 32.9416 31.3977 32.1624 30.4833 32.0708H12.5167C11.8292 32.002 11.1646 32.3228 10.7979 32.9187C10.4313 33.4916 10.4313 34.2478 10.7979 34.8437C11.1646 35.4166 11.8292 35.7603 12.5167 35.6687Z" fill="white"/>
</svg>
