<svg width="42" height="42" viewBox="0 0 42 42" fill="none" xmlns="http://www.w3.org/2000/svg">
<path fill-rule="evenodd" clip-rule="evenodd" d="M24.0207 6.1671H30.4165C38.104 6.1671 41.854 10.2713 41.8332 18.6879V28.8338C41.8332 36.8754 36.8748 41.8338 28.8123 41.8338H13.1665C5.14567 41.8338 0.166504 36.8754 0.166504 28.8129V13.1671C0.166504 4.5421 3.99984 0.167104 11.5623 0.167104H14.854C16.7936 0.14627 18.604 1.0421 19.7915 2.56294L21.6248 5.00044C22.2082 5.7296 23.0832 6.1671 24.0207 6.1671ZM11.354 27.8546H30.6457C31.4998 27.8546 32.1873 27.1463 32.1873 26.2921C32.1873 25.4171 31.4998 24.7296 30.6457 24.7296H11.354C10.479 24.7296 9.7915 25.4171 9.7915 26.2921C9.7915 27.1463 10.479 27.8546 11.354 27.8546Z" fill="white"/>
</svg>
