<svg width="40" height="40" viewBox="0 0 40 40" fill="none" xmlns="http://www.w3.org/2000/svg">
<rect width="40" height="40" rx="20" fill="#0A3967"/>
<path d="M6.32811 32.9863C6.42816 33.0124 6.53446 32.998 6.62396 32.9462C6.71346 32.8945 6.77895 32.8095 6.80623 32.7098C7.61092 29.7074 10.8812 28.9293 12.8359 28.4637C13.3258 28.3473 13.7125 28.2551 13.964 28.1465C16.1906 27.1801 16.9164 25.6254 17.1336 24.491C17.1465 24.4235 17.1414 24.3538 17.1187 24.2889C17.0961 24.2241 17.0568 24.1663 17.0047 24.1215C15.8453 23.1207 14.8672 21.6184 14.25 19.8902C14.2326 19.8407 14.2052 19.7952 14.1695 19.7566C13.3531 18.8691 12.8844 17.9309 12.8844 17.1832C12.8844 16.7465 13.0492 16.4535 13.4203 16.2324C13.4759 16.1992 13.5223 16.1527 13.5555 16.097C13.5886 16.0414 13.6074 15.9784 13.6101 15.9137C13.7828 11.934 16.6172 8.80117 20.0937 8.78086L20.1773 8.78633C23.6711 8.83477 26.4875 12.0348 26.5883 16.0707C26.5897 16.1259 26.6028 16.1801 26.6268 16.2298C26.6507 16.2795 26.685 16.3235 26.7273 16.359C26.9718 16.566 27.0859 16.8285 27.0859 17.1848C27.0859 17.8105 26.7523 18.5801 26.1476 19.3504C26.1188 19.3875 26.0966 19.4292 26.082 19.4738C25.457 21.4551 24.3351 23.2043 23.0054 24.2746C22.9504 24.3191 22.9083 24.3777 22.8839 24.4441C22.8594 24.5105 22.8533 24.5824 22.8664 24.652C23.0836 25.7855 23.8094 27.3395 26.0359 28.3074C26.2992 28.4215 26.7078 28.5105 27.2258 28.6223C29.1609 29.041 32.3992 29.7434 33.1937 32.7098C33.2071 32.7593 33.23 32.8058 33.2613 32.8464C33.2926 32.8871 33.3316 32.9212 33.3761 32.9468C33.4205 32.9725 33.4696 32.9891 33.5205 32.9957C33.5714 33.0023 33.6231 32.9989 33.6726 32.9855C33.7222 32.9722 33.7686 32.9492 33.8093 32.918C33.85 32.8867 33.8841 32.8477 33.9097 32.8032C33.9353 32.7587 33.9519 32.7097 33.9585 32.6588C33.9652 32.6079 33.9617 32.5562 33.9484 32.5066C33.0304 29.0793 29.3617 28.2848 27.3914 27.8582C26.9343 27.759 26.5398 27.6738 26.3476 27.5895C24.8945 26.9582 23.9992 25.9965 23.6828 24.7262C25.032 23.5676 26.1609 21.7801 26.8062 19.7754C27.4914 18.8848 27.8679 17.9676 27.8679 17.184C27.8679 16.6613 27.6992 16.2254 27.3648 15.8848C27.1789 11.5066 24.0547 8.05898 20.1773 8.00352L20.0609 8.00195C16.2539 8.02227 13.1164 11.3793 12.8422 15.6816C12.3531 16.041 12.1047 16.5449 12.1047 17.1848C12.1047 18.109 12.6273 19.2145 13.5422 20.2285C14.1742 21.9652 15.1539 23.491 16.3203 24.559C16.0054 25.834 15.1094 26.7988 13.6531 27.4309C13.4648 27.5129 13.0898 27.6027 12.6554 27.7059C10.6703 28.1777 6.97654 29.0566 6.05155 32.5082C6.02483 32.6083 6.03896 32.7149 6.09082 32.8045C6.14269 32.8942 6.22804 32.9596 6.32811 32.9863Z" fill="white"/>
</svg>
