<svg width="23" height="22" viewBox="0 0 23 22" fill="none" xmlns="http://www.w3.org/2000/svg">
<path d="M12.7656 16.4844C12.7656 16.7347 12.6914 16.9794 12.5523 17.1875C12.4133 17.3957 12.2156 17.5579 11.9843 17.6537C11.7531 17.7495 11.4986 17.7745 11.2531 17.7257C11.0076 17.6768 10.7821 17.5563 10.6051 17.3793C10.4281 17.2023 10.3075 16.9768 10.2587 16.7313C10.2099 16.4858 10.2349 16.2313 10.3307 16C10.4265 15.7688 10.5887 15.5711 10.7969 15.432C11.005 15.293 11.2497 15.2188 11.5 15.2188C11.8357 15.2188 12.1576 15.3521 12.3949 15.5894C12.6323 15.8268 12.7656 16.1487 12.7656 16.4844ZM11.5 5.09375C9.17336 5.09375 7.28125 6.79707 7.28125 8.89063V9.3125C7.28125 9.53628 7.37015 9.75089 7.52838 9.90912C7.68662 10.0674 7.90123 10.1563 8.125 10.1563C8.34878 10.1563 8.56339 10.0674 8.72163 9.90912C8.87986 9.75089 8.96875 9.53628 8.96875 9.3125V8.89063C8.96875 7.73047 10.1047 6.78125 11.5 6.78125C12.8954 6.78125 14.0313 7.73047 14.0313 8.89063C14.0313 10.0508 12.8954 11 11.5 11C11.2762 11 11.0616 11.0889 10.9034 11.2471C10.7451 11.4054 10.6563 11.62 10.6563 11.8438V12.6875C10.6563 12.9113 10.7451 13.1259 10.9034 13.2841C11.0616 13.4424 11.2762 13.5313 11.5 13.5313C11.7238 13.5313 11.9384 13.4424 12.0966 13.2841C12.2549 13.1259 12.3438 12.9113 12.3438 12.6875V12.6116C14.2675 12.2582 15.7188 10.7237 15.7188 8.89063C15.7188 6.79707 13.8266 5.09375 11.5 5.09375ZM22.4688 11C22.4688 13.1694 21.8254 15.2901 20.6202 17.0939C19.4149 18.8977 17.7018 20.3036 15.6976 21.1338C13.6933 21.964 11.4878 22.1812 9.36011 21.758C7.23238 21.3348 5.27793 20.2901 3.74393 18.7561C2.20992 17.2221 1.16525 15.2676 0.742016 13.1399C0.318785 11.0122 0.536003 8.80672 1.3662 6.80244C2.1964 4.79816 3.60229 3.08508 5.40609 1.87982C7.2099 0.674556 9.33059 0.03125 11.5 0.03125C14.4082 0.0343211 17.1963 1.19094 19.2527 3.24731C21.3091 5.30369 22.4657 8.09185 22.4688 11ZM20.7813 11C20.7813 9.16434 20.2369 7.36991 19.2171 5.84361C18.1972 4.31732 16.7477 3.12772 15.0518 2.42524C13.3559 1.72277 11.4897 1.53897 9.68932 1.89709C7.88894 2.25521 6.23518 3.13916 4.93717 4.43717C3.63916 5.73517 2.75521 7.38893 2.39709 9.18932C2.03897 10.9897 2.22277 12.8559 2.92525 14.5518C3.62772 16.2477 4.81732 17.6972 6.34362 18.7171C7.86991 19.7369 9.66435 20.2813 11.5 20.2813C13.9607 20.2785 16.3198 19.2997 18.0598 17.5598C19.7997 15.8198 20.7785 13.4607 20.7813 11Z" fill="#0A3967"/>
</svg>
