<svg width="26" height="26" viewBox="0 0 26 26" fill="none" xmlns="http://www.w3.org/2000/svg">
<path fill-rule="evenodd" clip-rule="evenodd" d="M24.0234 7.7707L22.1411 6.87695L21.6943 7.81758C20.3016 10.7488 18.1411 12.7967 15.6516 13.653L15.4422 13.7134C14.6536 13.9613 13.837 14.102 12.9995 14.102C9.42448 14.1009 6.17448 11.752 4.30573 7.81758L3.85885 6.87695L1.97656 7.7707L2.42344 8.71133C3.04948 10.028 3.81615 11.1895 4.68698 12.1874L2.38177 14.4947L3.85469 15.9665L6.17344 13.6467C7.1099 14.4217 8.13177 15.029 9.21302 15.4561L8.31615 18.5426L10.3172 19.1238L11.2172 16.0249C11.8005 16.128 12.3943 16.1853 12.9984 16.1853H13.0016C13.5786 16.1853 14.1464 16.1342 14.7036 16.0405L15.5995 19.1238L17.5995 18.5426L16.712 15.4842C17.8036 15.0624 18.837 14.4603 19.7828 13.6853L22.063 15.9665L23.537 14.4947L21.2745 12.2311C22.162 11.2238 22.9411 10.0478 23.5766 8.71133L24.0234 7.7707Z" fill="white"/>
</svg>
