<svg width="20" height="21" viewBox="0 0 20 21" fill="none" xmlns="http://www.w3.org/2000/svg">
<path d="M14.5833 16V14.1666M10 16V13.25M5.41667 16V11.4166M4.5 5.91663C7.43058 8.91229 11.1312 9.65754 14.7126 8.65929M13.3807 7.26596L15.2818 8.19729C15.5073 8.30821 15.5678 8.56396 15.4175 8.76929L14.1497 10.5" stroke="white" stroke-width="1.75" stroke-linecap="round" stroke-linejoin="round"/>
<path d="M1.29175 10.5C1.29175 6.39513 1.29175 4.34179 2.56683 3.06671C3.84191 1.79163 5.89433 1.79163 10.0001 1.79163C14.1049 1.79163 16.1582 1.79163 17.4333 3.06671C18.7084 4.34179 18.7084 6.39421 18.7084 10.5C18.7084 14.6048 18.7084 16.6581 17.4333 17.9332C16.1582 19.2083 14.1058 19.2083 10.0001 19.2083C5.89525 19.2083 3.84191 19.2083 2.56683 17.9332C1.29175 16.6581 1.29175 14.6057 1.29175 10.5Z" stroke="white" stroke-width="1.75" stroke-linecap="round" stroke-linejoin="round"/>
</svg>
