<svg width="89" height="26" viewBox="0 0 89 26" fill="none" xmlns="http://www.w3.org/2000/svg">
<path fill-rule="evenodd" clip-rule="evenodd" d="M13.1186 0.850586H12.7528C9.71328 0.911601 6.71945 2.07089 4.51202 4.06522C1.9242 6.34894 0.439169 9.67689 0.40625 13.031V13.343C0.468431 16.6274 1.9114 19.8786 4.42424 22.138C6.64995 24.1881 9.70048 25.3822 12.7967 25.431H13.1552C17.3396 25.3857 21.3667 23.1526 23.5431 19.7584C25.4048 16.9447 25.9773 13.4058 25.1506 10.179C24.4575 7.39491 22.7091 4.85842 20.2877 3.16394C18.2302 1.69957 15.6845 0.895912 13.1186 0.850586ZM7.43636 10.8379C8.6178 11.1674 9.87788 10.9669 11.0282 10.613C11.6621 10.4138 12.2862 10.1861 12.9102 9.9584C13.9191 9.59024 14.9281 9.22207 15.9789 8.97434C17.3853 8.66055 18.9654 8.91333 20.092 9.80241C20.3149 10.0065 20.3144 10.3013 20.3139 10.5809C20.3138 10.65 20.3137 10.7182 20.317 10.7839C20.3044 11.6838 20.3089 12.5841 20.3133 13.4843C20.3199 14.8108 20.3265 16.1373 20.2786 17.4624C20.1088 17.3936 19.9399 17.3205 19.7708 17.2474C19.0747 16.9461 18.3748 16.6432 17.592 16.6291C15.9594 16.5436 14.4503 17.0601 12.9384 17.5776C11.7081 17.9986 10.4759 18.4203 9.17377 18.5189C7.99233 18.5973 6.75785 18.3306 5.79954 17.6525C5.60322 17.3934 5.61301 17.0692 5.62259 16.7519C5.62649 16.6228 5.63035 16.4948 5.62031 16.3729C5.63851 15.5674 5.63045 14.7604 5.62239 13.9534V13.9534V13.9534V13.9533V13.9533C5.60939 12.6521 5.59639 11.3506 5.69346 10.0552C5.90901 10.1467 6.11642 10.2556 6.32375 10.3645L6.32377 10.3645L6.32379 10.3645L6.32381 10.3645L6.32382 10.3646C6.68115 10.5522 7.03825 10.7397 7.43636 10.8379ZM32.2299 6.97259H32.2298C31.583 6.97648 30.9362 6.98038 30.2897 6.97304C30.2888 9.04233 30.2888 11.1121 30.2888 13.182C30.2888 15.2519 30.2888 17.3221 30.2879 19.3923C31.0069 19.3931 31.7254 19.3931 32.444 19.3931H32.4487C33.1688 19.3931 33.8889 19.3931 34.6094 19.394C35.6574 19.3958 36.7163 19.204 37.6527 18.742C40.1435 17.5775 41.5865 14.7778 41.1092 12.182C40.7141 9.4799 38.2379 7.18398 35.3611 7.00093C34.3178 6.96003 33.2738 6.96631 32.2299 6.97259ZM33.0118 15.7045C33.0171 13.6843 33.0225 11.664 33.0037 9.64377C33.2831 9.65197 33.564 9.6473 33.8452 9.64264H33.8453H33.8453H33.8454H33.8454C34.4606 9.63242 35.0769 9.6222 35.6793 9.74662C37.1808 10.0744 38.3385 11.408 38.4445 12.8654C38.6037 14.3158 37.7203 15.8133 36.3158 16.406C35.5544 16.749 34.7177 16.7323 33.8896 16.7158C33.5937 16.7099 33.299 16.704 33.0092 16.7146L33.0118 15.7045ZM45.9483 11.9955C46.0361 9.30208 48.58 6.88239 51.4404 6.97478C54.244 6.94689 56.7056 9.31428 56.8172 11.9554C56.8463 13.4727 56.8418 14.9907 56.8373 16.5085V16.5098V16.5099V16.5099C56.8345 17.4697 56.8316 18.4294 56.8373 19.3888L56.8355 19.3888C55.9272 19.3905 55.0207 19.3923 54.1142 19.3888C54.1096 18.9442 54.11 18.4996 54.1105 18.0553C54.111 17.611 54.1114 17.1669 54.1068 16.7233C53.0375 16.7284 51.9687 16.7275 50.9002 16.7266H50.9001H50.9H50.8999C50.1521 16.726 49.4045 16.7253 48.6569 16.7268C48.6541 17.0579 48.6555 17.3892 48.6568 17.7205V17.7206V17.7207V17.7217C48.659 18.2816 48.6613 18.8416 48.6441 19.401C48.0405 19.387 47.4378 19.3886 46.8353 19.3901H46.8352H46.8352H46.8351C46.534 19.3909 46.2329 19.3917 45.9319 19.3905C45.9352 18.4942 45.9327 17.5975 45.9302 16.701C45.9259 15.1319 45.9216 13.563 45.9483 11.9955ZM49.3536 10.5346C48.6114 11.2991 48.6331 12.3306 48.6538 13.3191L48.6538 13.3194C48.6591 13.5706 48.6643 13.819 48.6569 14.0595C49.3833 14.0602 50.1099 14.0598 50.8367 14.0594C51.9269 14.0588 53.0172 14.0581 54.1068 14.0613C54.1001 13.8217 54.1059 13.5745 54.1118 13.3246V13.3245V13.3244V13.3242C54.1346 12.358 54.1583 11.3517 53.4594 10.5886C52.4846 9.36833 50.3632 9.34043 49.3536 10.5346ZM61.6015 12.0234C61.6819 9.65248 63.626 7.45244 66.0931 7.05323C67.9293 6.71677 69.8971 7.40537 71.0932 8.76863C72.0186 9.73965 72.4905 11.0541 72.4905 12.3581C72.4941 13.9211 72.4929 15.4834 72.4917 17.0459V17.0461C72.4911 17.8274 72.4905 18.6089 72.4905 19.3905C72.182 19.3923 71.8733 19.3913 71.5646 19.3902H71.5645H71.5645C70.969 19.3882 70.3732 19.3861 69.7783 19.4045C69.7586 18.0767 69.7618 16.7483 69.7649 15.42V15.4187C69.7673 14.3966 69.7698 13.3746 69.7618 12.3528C69.7764 11.4045 69.2442 10.4596 68.3737 9.98894C67.4703 9.47292 66.2468 9.54963 65.4183 10.1702C64.7014 10.681 64.3009 11.5318 64.3137 12.379C64.3095 13.7149 64.3101 15.0503 64.3107 16.3858V16.3858C64.3111 17.3872 64.3116 18.3887 64.31 19.3905C63.9782 19.3893 63.6463 19.3898 63.3144 19.3904C62.7337 19.3914 62.153 19.3924 61.5722 19.3836C61.5916 18.201 61.5881 17.018 61.5845 15.8349C61.5807 14.5643 61.5769 13.2936 61.6015 12.0234ZM78.127 9.38053C79.1786 7.81854 81.1208 6.81091 83.0832 6.98873C85.3016 7.11947 87.2694 8.73028 87.8839 10.7438C88.1108 11.4236 88.1215 12.1337 88.1323 12.8432V12.8434C88.1384 13.2491 88.1446 13.6547 88.1912 14.0543V19.3766C87.4944 19.3949 86.7976 19.3926 86.1008 19.3903C85.8685 19.3895 85.6363 19.3888 85.404 19.3888C85.4028 19.1025 85.4033 18.816 85.4039 18.5295V18.5294C85.405 17.9244 85.4061 17.3191 85.3912 16.7146C84.288 16.7305 83.1842 16.7283 82.0801 16.7261C81.3702 16.7248 80.6603 16.7234 79.9503 16.7268C79.9494 17.1705 79.9494 17.6141 79.9494 18.058C79.9494 18.5019 79.9494 18.946 79.9485 19.3905H77.2235C77.2226 18.2461 77.2226 17.102 77.2226 15.9582C77.2226 14.8144 77.2226 13.6708 77.2217 12.5272C77.2089 11.4254 77.4851 10.3062 78.127 9.38053ZM80.6325 10.552C79.9048 11.3137 79.9265 12.3369 79.9472 13.3179C79.9526 13.5696 79.9578 13.8185 79.9503 14.0595C81.1624 14.0607 82.3745 14.0603 83.586 14.0599H83.5864C84.1918 14.0597 84.7971 14.0595 85.4022 14.0595C85.3941 13.8136 85.3998 13.5598 85.4055 13.3033C85.4271 12.3413 85.4495 11.3417 84.7493 10.5834C83.7653 9.36135 81.6347 9.34566 80.6325 10.552Z" fill="white"/>
</svg>
