<svg width="78" height="25" viewBox="0 0 78 25" fill="none" xmlns="http://www.w3.org/2000/svg">
<path fill-rule="evenodd" clip-rule="evenodd" d="M73.5936 3.27363C71.0631 1.10358 67.5832 0.0894256 64.2361 0.399433C63.3999 0.473505 62.5701 0.617992 61.7649 0.849355C58.8153 1.6733 56.2282 3.63576 54.6837 6.2091C52.6071 9.60271 52.3585 13.9584 53.9614 17.5769C55.1518 20.303 57.4271 22.5654 60.2167 23.7652C63.3848 25.1278 67.134 25.1689 70.3304 23.8694C71.9596 23.2037 73.4373 22.1868 74.622 20.9129C76.7853 18.6185 77.9361 15.4874 77.8627 12.3873C77.8438 8.94886 76.2899 5.52141 73.5936 3.27363ZM59.1016 7.57807C60.2911 5.85611 62.2528 4.6554 64.3765 4.39935C66.0604 4.17713 67.8262 4.50269 69.285 5.35955C70.6863 6.16703 71.7816 7.43358 72.4362 8.87754C73.7292 11.7581 73.4391 15.3282 71.4869 17.8687C70.5611 19.0721 69.2614 20.0104 67.7857 20.4731C65.9323 21.0593 63.8453 20.9331 62.0898 20.1073C60.7054 19.4608 59.548 18.389 58.7804 17.0996C57.0645 14.2044 57.1634 10.3508 59.1016 7.57807ZM19.2071 1.66781C16.9233 0.518315 14.2657 0.134235 11.7248 0.461617C9.2752 0.767967 6.92077 1.79949 5.09373 3.41812C3.2196 5.04588 1.90394 7.25434 1.33511 9.62923C0.648559 12.4486 0.964994 15.502 2.27877 18.1092C3.48518 20.5444 5.58157 22.5535 8.10834 23.6884C10.6106 24.8187 13.4953 25.0894 16.1888 24.5398C18.7768 24.0167 21.167 22.6376 22.8895 20.6916C24.5319 18.8535 25.5547 16.5189 25.8419 14.1056C26.1198 11.8551 25.776 9.53139 24.8314 7.45644C23.7116 4.97913 21.6953 2.88955 19.2071 1.66781ZM9.04823 5.69882C10.0559 4.99193 11.251 4.54749 12.4819 4.39386C13.9558 4.20914 15.49 4.43593 16.8226 5.08246C18.3916 5.82593 19.6507 7.12723 20.3919 8.65623C21.2338 10.3608 21.4627 12.326 21.1453 14.1842C20.8524 15.8797 20.0547 17.5157 18.7796 18.7228C17.6834 19.7973 16.2255 20.5133 14.6876 20.7447C12.804 21.0327 10.8046 20.6368 9.22623 19.587C7.59602 18.5307 6.45177 16.8454 5.95733 15.0155C5.4695 13.2085 5.53071 11.2552 6.16829 9.49023C6.71075 7.98684 7.70715 6.6261 9.04823 5.69882ZM26.9784 1.00756L26.9777 1.00756C26.9771 1.88055 26.9773 2.75394 26.9775 3.62746C26.9776 4.06428 26.9777 4.50113 26.9777 4.93798C27.588 4.93935 28.1977 4.93918 28.8077 4.939C29.0111 4.93895 29.2144 4.93889 29.4178 4.93889C30.9269 8.30971 32.434 11.6814 33.9411 15.053C35.0356 17.5016 36.13 19.9501 37.2251 22.3981C37.7346 23.5338 38.8054 24.42 40.0514 24.7007C40.5047 24.8158 40.9723 24.8112 41.4382 24.8066C41.5831 24.8051 41.7278 24.8037 41.8719 24.8059C43.3018 21.5354 44.7364 18.2668 46.171 14.9983C47.8809 11.1025 49.5907 7.20695 51.2924 3.30838C51.3358 2.834 51.3292 2.35502 51.3225 1.87606C51.3185 1.5859 51.3145 1.29575 51.3216 1.00665H43.4126V1.00756C43.4117 2.31861 43.4107 3.62875 43.4126 4.93889C43.7568 4.93928 44.1011 4.93917 44.4453 4.93906C44.9044 4.93891 45.3635 4.93876 45.8226 4.93981C45.193 6.43741 44.565 7.93565 43.937 9.43388C42.7189 12.3398 41.5009 15.2456 40.2718 18.1467C39.3147 15.946 38.3578 13.7453 37.4009 11.5447C36.4437 9.34306 35.4864 7.14143 34.5289 4.93981C34.9338 4.93843 35.339 4.93866 35.7443 4.93889C36.1496 4.93912 36.5551 4.93935 36.9605 4.93798V1.00756C33.6335 1.00573 30.3064 1.00665 26.9784 1.00756Z" fill="white"/>
</svg>
