<svg width="90" height="20" viewBox="0 0 90 20" fill="none" xmlns="http://www.w3.org/2000/svg">
<path fill-rule="evenodd" clip-rule="evenodd" d="M8.83248 0.958691C9.85407 0.79707 10.9022 0.815809 11.9286 0.915358C12.8803 1.10626 13.8403 1.31941 14.7136 1.74689C16.4806 2.56554 17.9846 3.89247 18.9869 5.52626C19.8179 7.0359 20.3896 8.72941 20.304 10.4592C20.3281 14.0102 18.0111 17.3937 14.7293 18.9034C12.6016 19.886 10.1267 20.0207 7.8531 19.4819C6.31528 19.0228 4.83174 18.2803 3.71124 17.1396C2.64381 16.1781 1.83812 14.953 1.32672 13.6343C0.659727 12.0122 0.599421 10.2086 0.882862 8.49986C1.4015 5.96193 3.01651 3.63482 5.30213 2.28563C6.36594 1.60518 7.58895 1.20112 8.83248 0.958691ZM7.46713 5.51572C6.69762 5.59184 5.85695 5.85419 5.43118 6.52878C4.96081 7.17492 4.91173 7.9831 4.86511 8.75088C4.86128 8.81391 4.85747 8.87667 4.85345 8.93905C4.84385 9.13272 4.82605 9.32614 4.80824 9.5196C4.77231 9.9099 4.73636 10.3004 4.76781 10.6935C4.79125 10.9589 4.8078 11.2252 4.82434 11.4916V11.4916C4.86569 12.1571 4.90706 12.8229 5.05608 13.4762C5.24061 14.2995 6.0041 14.9378 6.84598 15.0877C8.415 15.3624 10.0134 15.3382 11.6022 15.3142C11.7477 15.312 11.8931 15.3098 12.0384 15.3079C12.6885 15.2727 13.3386 15.2083 13.9814 15.1088C14.9439 14.987 15.7943 14.2257 15.9523 13.2888C16.2285 12.1399 16.2779 10.9546 16.1959 9.78229C16.0415 9.0304 15.4939 8.35229 14.7498 8.07707C14.4145 7.91976 14.0426 7.92073 13.6778 7.92167H13.6778C13.6135 7.92184 13.5494 7.92201 13.4857 7.9213C12.7682 7.92215 12.0506 7.92177 11.3332 7.92138C10.0776 7.9207 8.82216 7.92003 7.56724 7.92599C7.42297 7.92855 7.28833 7.88065 7.15489 7.83318L7.15488 7.83318C7.10536 7.81556 7.05601 7.798 7.00639 7.7831C7.00277 7.52076 7.01242 7.12842 7.37547 7.12139C8.32079 7.10067 9.26701 7.10678 10.2132 7.11289H10.2132C11.4593 7.12093 12.7052 7.12897 13.9489 7.07572C13.8138 6.46671 13.4315 5.83076 12.7729 5.66211C12.1783 5.50752 11.5632 5.42905 10.9516 5.37401C10.7772 5.3719 10.6025 5.36866 10.4277 5.36541C9.4371 5.34703 8.44209 5.32857 7.46713 5.51572ZM14.2022 10.6314C13.885 10.5482 13.505 10.67 13.3941 10.9874C13.3244 11.3528 13.436 11.7048 13.5469 12.0545C13.5934 12.2014 13.6399 12.3479 13.6727 12.4947C13.7089 12.5152 13.7632 12.5457 13.8176 12.5762C13.8718 12.6066 13.926 12.637 13.9622 12.6575C14.0864 12.5872 14.213 12.524 14.3445 12.469C14.3587 12.1599 14.4354 11.8626 14.5121 11.5655C14.5461 11.4336 14.5801 11.3018 14.6086 11.169C14.5495 10.95 14.4012 10.7497 14.2022 10.6314Z" fill="#01ACD7"/>
<path fill-rule="evenodd" clip-rule="evenodd" d="M32.6963 3.8772C31.7664 3.52351 30.734 3.56333 29.7594 3.68045C27.6511 3.99666 25.8009 5.55901 25.1761 7.53946C24.8927 8.32414 24.8987 9.1709 24.9735 9.98955C25.2256 12.0836 26.8478 13.9223 28.9067 14.563C30.3661 14.9916 32.0499 15.0057 33.3971 14.2386C33.573 14.144 33.7328 14.0273 33.8927 13.9105C34.0419 13.8015 34.1911 13.6925 34.3536 13.6014L34.356 13.7102C34.376 14.5735 34.3986 15.5497 33.724 16.2014C33.2717 16.7378 32.5878 17.0201 31.8967 17.1231C30.4023 17.389 28.8222 16.8936 27.7114 15.9004C27.4645 16.1447 27.2057 16.378 26.947 16.6113C26.5285 16.9888 26.11 17.3661 25.7418 17.7895C26.9045 18.8577 28.3772 19.6283 29.9741 19.8332C31.5348 20.0241 33.2138 19.9316 34.6044 19.1528C35.784 18.5168 36.7128 17.4312 37.077 16.1651C37.3031 15.5343 37.3 14.8603 37.297 14.201L37.2965 14.0898C37.2953 10.5986 37.2953 7.10847 37.2965 3.61721C36.7314 3.6104 36.1662 3.61071 35.601 3.61102C35.1928 3.61124 34.7847 3.61146 34.3765 3.60901C34.3768 3.70489 34.3773 3.80078 34.3779 3.89667C34.3797 4.20835 34.3814 4.52003 34.3741 4.83171C33.8711 4.43234 33.3151 4.07982 32.6963 3.8772ZM28.9923 6.91991C29.476 6.50297 30.1176 6.34369 30.7436 6.25351C31.9895 6.06964 33.3911 6.6236 34.0291 7.70693C34.2864 8.14587 34.2757 8.64199 34.2651 9.13343C34.2614 9.30549 34.2577 9.47697 34.2655 9.64522C34.3705 10.6782 33.5418 11.5894 32.5926 11.9407C31.4456 12.36 30.0308 12.3881 29.0297 11.614C27.5293 10.5213 27.4991 8.02784 28.9923 6.91991ZM58.3218 3.61135C57.0747 3.60315 55.7745 3.96504 54.8759 4.83873C54.8679 4.72703 54.8605 4.61548 54.853 4.50409L54.853 4.50386L54.853 4.50363L54.8529 4.50339L54.8529 4.50315C54.8401 4.31121 54.8272 4.11974 54.812 3.92873C53.8302 3.91702 52.8484 3.91351 51.8666 3.92873C51.868 6.81569 51.8678 9.70265 51.8676 12.5896V12.6001V12.6187C51.8674 14.7803 51.8673 16.942 51.8678 19.1036C52.5577 19.1468 53.2493 19.143 53.9406 19.1393H53.9406C54.2621 19.1375 54.5836 19.1358 54.9048 19.1387C54.9273 17.7997 54.9223 16.46 54.9173 15.1202V15.1201V15.12V15.1199V15.1196C54.9156 14.6619 54.9139 14.2043 54.9133 13.7467C57.0795 15.4179 60.5278 15.2341 62.4757 13.3168C64.5961 11.2521 64.7179 7.57225 62.6759 5.41729C61.6013 4.21801 59.9513 3.55513 58.3218 3.61135ZM55.0556 7.95874C55.3728 7.03234 56.3425 6.47955 57.2845 6.29802C58.2555 6.10712 59.341 6.34486 60.0912 6.98666C61.3625 8.10865 61.3721 10.2648 60.1732 11.4395C58.9707 12.5696 56.8431 12.5486 55.6478 11.4184C55.1388 10.9815 54.8723 10.2976 54.9169 9.64405C54.9269 9.47178 54.9221 9.29698 54.9174 9.12201V9.12198V9.12196V9.12193V9.1219C54.9066 8.72593 54.8958 8.3291 55.0556 7.95874ZM43.0594 3.7554C44.7733 3.42045 46.6489 3.62189 48.1409 4.54829C49.2758 5.21351 50.1394 6.29216 50.5254 7.52306C51.0549 9.14045 50.8173 10.9909 49.8258 12.3986C48.8404 13.8169 47.1579 14.6859 45.421 14.8487C44.3512 14.919 43.2452 14.8839 42.2332 14.5056C40.5567 13.9586 39.1503 12.6153 38.6558 10.9558C38.1251 9.40045 38.3712 7.62027 39.2806 6.24297C40.1225 4.95468 41.5337 4.07513 43.0594 3.7554ZM43.7771 6.31324C43.3501 6.43153 42.9509 6.63765 42.6011 6.90117C41.3901 7.82756 41.0946 9.65927 41.957 10.8995C42.9424 12.4771 45.485 12.7886 46.8189 11.4676C47.4715 10.8855 47.7814 10.0165 47.6946 9.16504C47.7682 7.27711 45.6116 5.75576 43.7771 6.31324ZM71.775 3.68162C70.0201 3.45792 68.1192 3.69567 66.6634 4.73684C65.8227 5.38567 65.1039 6.2781 64.9616 7.33919C65.3806 7.40887 65.7963 7.49689 66.212 7.58492L66.212 7.58493C66.7535 7.69959 67.295 7.81426 67.8442 7.88846C68.0818 6.96207 68.9092 6.2254 69.8802 6.07315C70.5086 5.96774 71.1623 5.99937 71.7738 6.17973C72.3081 6.34837 72.7146 6.91639 72.4806 7.45747C72.0447 7.84336 71.4518 7.96004 70.887 8.07119C70.8141 8.08553 70.7417 8.09978 70.6702 8.1145C70.5725 8.1281 70.4745 8.14155 70.3761 8.15504C68.9423 8.3517 67.4518 8.55615 66.2316 9.36063C64.7227 10.3854 64.7167 12.7968 66.1122 13.9165C67.2641 14.878 68.8863 14.9881 70.3313 14.8019C71.3311 14.6204 72.3383 14.1999 72.9763 13.4C72.9799 13.5973 72.9799 13.7947 72.9799 13.9922C72.9799 14.1897 72.9799 14.3873 72.9835 14.5852C73.2037 14.5849 73.4239 14.5843 73.6442 14.5836H73.6444C74.3425 14.5814 75.0413 14.5792 75.7408 14.5899C75.7435 13.2668 75.7431 11.944 75.7427 10.6214C75.7424 9.62955 75.7421 8.63779 75.7432 7.64603C75.754 6.84144 75.4513 6.05792 74.9954 5.39504C74.2548 4.38549 72.998 3.87603 71.775 3.68162ZM67.9781 11.6971C67.8189 11.3305 68.1265 10.9686 68.434 10.7883C69.0543 10.4563 69.7525 10.3325 70.4494 10.2089C71.2891 10.0599 72.127 9.9113 72.8243 9.39928C72.8177 9.56012 72.823 9.72848 72.8284 9.89918C72.8465 10.4755 72.8654 11.0785 72.4299 11.5086C71.5881 12.3237 70.3059 12.4736 69.1734 12.4033C68.703 12.3764 68.0842 12.2183 67.9781 11.6971ZM76.9548 3.92056C76.6305 3.92113 76.3063 3.92171 75.982 3.92171C76.8376 5.65765 77.7121 7.38486 78.5868 9.11219C79.4074 10.7329 80.2281 12.3538 81.0333 13.9821C80.6375 14.827 80.2072 15.6564 79.777 16.4858C79.3222 17.3625 78.8674 18.2391 78.4534 19.134C78.8018 19.1326 79.1504 19.1352 79.4992 19.1378C80.2744 19.1436 81.05 19.1494 81.8245 19.1106C84.3658 14.0535 86.9047 8.99639 89.4412 3.93693C88.3014 3.90882 87.1628 3.91351 86.0242 3.93225C84.9315 6.26171 83.8255 8.58648 82.7134 10.9066C82.3855 10.219 82.0541 9.53304 81.7227 8.84708C81.1814 7.72653 80.6401 6.6061 80.1142 5.47936C80.0299 5.29591 79.9371 5.11611 79.8443 4.93634C79.6741 4.60656 79.504 4.27693 79.3869 3.92522C78.5762 3.91769 77.7655 3.91913 76.9548 3.92056Z" fill="#010101"/>
</svg>
