<svg width="89" height="20" viewBox="0 0 89 20" fill="none" xmlns="http://www.w3.org/2000/svg">
<path fill-rule="evenodd" clip-rule="evenodd" d="M2.34401 6.64232C3.14194 7.37152 4.16127 7.72092 5.17961 8.06998C6.20532 8.42157 7.23002 8.77281 8.02645 9.51146C8.75051 10.0964 8.8316 11.1636 8.42033 11.9398C7.88743 12.8075 6.76658 13.1374 5.77317 13.1762C4.131 13.1817 2.70605 12.3002 1.39984 11.4492C1.36384 11.4779 1.32533 11.5078 1.2854 11.5388C0.862762 11.8669 0.280511 12.3189 0.817694 12.8103C2.95512 14.687 6.63046 15.466 9.02565 13.6003C10.7373 12.2836 10.6649 9.61958 9.01117 8.28896C8.21472 7.49337 7.16478 7.14507 6.11398 6.79649C5.2389 6.5062 4.36322 6.21572 3.63284 5.66653C2.42511 4.86816 2.98408 2.85283 4.3598 2.55621C5.75869 2.10713 7.19812 2.60057 8.45509 3.1938C9.2979 3.64566 9.8395 2.21802 9.08068 1.84932C7.4443 0.809779 5.19102 0.488213 3.37797 1.28381C1.31006 2.13208 0.609164 5.1731 2.34401 6.64232ZM11.473 13.0154L11.4745 13.1563V13.1563C11.4787 13.5654 11.4828 13.9793 11.5686 14.3821C11.8871 14.7702 12.6778 14.8173 12.9414 14.3516C13.1609 13.6052 13.1159 12.7945 13.0711 11.9857C13.0023 10.7458 12.9337 9.51059 13.8189 8.51904C14.8037 7.26882 17.335 7.36861 17.8737 8.95704C18.0518 9.89397 18.0251 10.8462 17.9983 11.7989C17.9742 12.6586 17.95 13.5187 18.0764 14.3682C18.5051 14.9448 19.7128 14.6815 19.5767 13.9025C19.5912 12.4056 19.6027 10.9086 19.5912 9.41166C19.6056 7.60701 17.781 6.07126 15.9303 6.13779C14.879 6.04077 13.9348 6.52866 13.0601 7.01655C13.0592 6.44918 13.0658 5.88124 13.0725 5.3131V5.31299V5.31288V5.31278V5.31267V5.31256V5.31245V5.31234V5.31232V5.3123V5.31229V5.31227V5.31225V5.31223V5.31221C13.0868 4.08746 13.1012 2.86176 13.0398 1.63864C13.0601 1.1757 12.6778 0.751564 12.1652 0.873537C11.5512 0.820867 11.4788 1.50558 11.4817 1.93803C11.4766 3.53811 11.4787 5.13819 11.4807 6.73827C11.4834 8.83065 11.4861 10.923 11.473 13.0154ZM60.7497 14.9864C61.0773 14.9822 61.405 14.9787 61.733 14.9753H61.733H61.7331H61.7331H61.7332H61.7332H61.7333C62.0575 14.9718 62.3822 14.9684 62.7075 14.9642C62.8592 14.0336 63.0305 13.1074 63.2018 12.1814L63.202 12.1801C63.3021 11.6391 63.4021 11.0982 63.4982 10.5566C63.7491 10.5526 64.0004 10.5518 64.2517 10.551H64.2521C65.0566 10.5483 65.8621 10.5457 66.6609 10.4401C68.8736 10.1158 70.8112 8.04778 70.4463 5.84949C70.2465 4.48561 68.8852 3.532 67.5037 3.47101C66.6699 3.4409 65.8361 3.44677 65.0022 3.45265C64.301 3.45759 63.5999 3.46253 62.8987 3.44606C62.4863 5.62726 62.0823 7.80935 61.6782 9.99182C61.37 11.6565 61.0617 13.3215 60.7497 14.9864ZM64.2177 6.74161L64.2179 6.74039C64.3132 6.23309 64.4083 5.72615 64.5061 5.22022C64.841 5.23248 65.1802 5.22261 65.5201 5.21272C66.2561 5.19129 66.9953 5.16978 67.7007 5.37269C68.8215 5.84949 68.6622 7.41851 67.8629 8.11709C67.0723 8.8656 65.9838 8.82502 64.9276 8.78565C64.5522 8.77166 64.1808 8.75781 63.8284 8.77962C63.9626 8.10068 64.0902 7.42082 64.2177 6.74161ZM22.0993 13.2206C20.9466 11.9232 20.6425 9.9356 21.5548 8.43865C22.1688 7.38525 23.281 6.66172 24.4771 6.32907C26.7217 5.70257 29.2617 7.15239 29.9249 9.26197C30.2435 10.4568 30.1074 11.8068 29.3544 12.8325C27.831 15.1333 23.8834 15.3357 22.0993 13.2206ZM28.3494 11.3466C29.1864 9.42276 27.0142 7.27713 24.9666 7.82879C22.9392 8.08105 21.8357 10.6536 23.2462 12.1283C24.5495 13.8637 27.6688 13.3647 28.3494 11.3466ZM32.4563 6.28471C31.9176 6.06849 31.3615 6.6839 31.4629 7.18843C31.4419 8.9568 31.4457 10.7252 31.4494 12.4939C31.453 14.1523 31.4565 15.8109 31.4397 17.4702C31.4475 17.5951 31.447 17.7239 31.4464 17.8539C31.4448 18.2549 31.4431 18.6668 31.6859 19.006C32.1377 19.1806 33.0239 19.2471 33.0297 18.5929C33.1088 17.479 33.0894 16.3612 33.07 15.2439V15.2439V15.2438V15.2437V15.2436V15.2435C33.061 14.7233 33.052 14.2031 33.0529 13.6835C35.17 15.2747 38.7469 14.9753 40.1053 12.6079C41.4926 10.5177 40.3978 7.50167 38.0229 6.58965C36.4386 5.79959 34.5155 6.24313 33.1745 7.27713C33.1191 7.1798 33.08 7.05989 33.0401 6.93743C32.9401 6.6309 32.835 6.30848 32.4563 6.28471ZM34.9181 8.00897C36.2938 7.45455 38.0866 7.88977 38.7759 9.22039C39.6969 10.5621 38.7932 12.4444 37.2988 12.9738C35.8014 13.6586 33.8725 12.7937 33.3744 11.3023C32.8125 10.0298 33.664 8.54399 34.9181 8.00897ZM49.6484 13.9773C47.9338 14.9975 45.5531 15.1361 43.824 14.0633C41.4752 12.3834 41.565 8.47469 43.9573 6.8724C45.8485 5.5806 48.962 6.19601 49.8974 8.30559C50.2218 9.06792 50.4333 9.96055 50.1205 10.7589C49.8525 10.9387 49.5247 10.9468 49.2074 10.9547C49.1235 10.9568 49.0403 10.9588 48.9591 10.9641C48.3462 10.9669 47.7329 10.9642 47.1196 10.9614C45.9649 10.9561 44.8099 10.9509 43.656 10.9835C43.705 11.0996 43.7517 11.2204 43.799 11.3427C44.0451 11.9794 44.3075 12.6582 44.9999 12.9489C46.2742 13.5199 47.7397 13.179 48.9851 12.6994C49.7237 12.303 50.3753 13.6253 49.6484 13.9773ZM47.5515 8.00898C46.8361 7.72622 46.0136 7.72067 45.275 7.91749C44.6356 8.08802 44.3067 8.65221 44.0007 9.17717C43.9436 9.2752 43.8872 9.37186 43.8298 9.46434C45.4459 9.48929 47.0649 9.48651 48.6839 9.46434C48.6274 9.36257 48.5738 9.25615 48.5197 9.14872L48.5197 9.14869L48.5197 9.14866L48.5196 9.1486C48.2907 8.69421 48.0527 8.22196 47.5515 8.00898ZM53.2803 13.9053C54.9688 15.161 57.4682 15.0197 59.2552 14.0245C60.0488 13.6336 59.345 12.1866 58.5427 12.7327C57.3669 13.1984 55.994 13.47 54.7747 13.0016C54.0005 12.7124 53.7002 11.9612 53.4233 11.2686L53.4231 11.2681L53.4228 11.2673C53.3839 11.1701 53.3455 11.0741 53.3063 10.9807C54.4931 10.9504 55.6798 10.9563 56.8666 10.9622C57.4176 10.965 57.9686 10.9677 58.5196 10.9668C58.6111 10.9611 58.7057 10.9595 58.8012 10.9579C59.1653 10.9519 59.5442 10.9456 59.8287 10.7062C60.1531 9.5475 59.7215 8.2751 58.9424 7.36861C57.5291 5.98255 55.0151 5.79405 53.4222 7.01378C51.3108 8.65765 51.2152 12.1866 53.2803 13.9053ZM53.5033 9.46988C53.9059 8.52181 54.7342 7.64582 55.9101 7.78443C57.0801 7.63751 58.0359 8.42202 58.3342 9.46711C56.7239 9.48651 55.1136 9.48374 53.5033 9.46988ZM75.5524 8.37489C74.3504 7.61811 72.8676 8.25015 71.8828 9.04297L70.7272 8.06996C71.6917 7.25773 72.8502 6.59242 74.1651 6.5148C75.2917 6.45104 76.6182 6.55916 77.4089 7.43237C77.9997 8.02006 78.0953 8.90991 77.9592 9.68333C77.7407 11.0061 77.4884 12.3227 77.2359 13.64L77.2358 13.6405C77.1502 14.0871 77.0646 14.5338 76.9802 14.9809C76.3546 14.9781 75.7291 14.9753 75.1064 14.9753L75.3265 14.0106C74.1187 15.1721 72.1059 15.7238 70.5882 14.7868C69.1575 13.8665 69.4674 11.7569 70.6548 10.77C72.1174 9.45602 74.3273 9.55582 76.1258 10.0631C76.1054 9.92776 76.0983 9.7811 76.091 9.63164L76.091 9.63137C76.0673 9.1442 76.0421 8.62729 75.5524 8.37489ZM75.8536 11.5323C74.727 11.0999 73.3339 10.806 72.2507 11.4963C71.515 11.9426 71.237 13.1651 72.1551 13.5809C73.7509 14.2462 75.3989 12.9738 75.8536 11.5323ZM79.6631 9.25021C79.4369 8.42648 79.2109 7.60299 78.9815 6.78093H81.0987C81.3205 7.629 81.5319 8.47944 81.7433 9.33007C81.9901 10.3229 82.2369 11.3159 82.5005 12.3058C83.2911 11.1537 84.0088 9.96056 84.7266 8.76734C85.1263 8.10284 85.526 7.43834 85.9383 6.78093C86.6304 6.78093 87.3225 6.78367 88.0175 6.78643L88.0265 6.78647C87.1066 8.20896 86.193 9.63515 85.2793 11.0614C83.693 13.5375 82.1066 16.0137 80.4876 18.471C80.0493 18.4654 79.611 18.4623 79.1727 18.4592C78.9535 18.4577 78.7344 18.4562 78.5152 18.4543C78.813 18.0018 79.1141 17.5512 79.4152 17.1005C79.9958 16.2316 80.5766 15.3626 81.1334 14.4791C80.6218 12.7426 80.1423 10.9959 79.6631 9.25021Z" fill="white"/>
</svg>
