<svg width="31" height="35" viewBox="0 0 31 35" fill="none" xmlns="http://www.w3.org/2000/svg">
<path fill-rule="evenodd" clip-rule="evenodd" d="M7.22181 0.0869141H17.1524C19.9493 0.0869141 23.2665 0.175179 25.4857 2.07548C26.968 3.345 27.7459 5.36763 27.5661 7.53894C26.9572 14.902 22.4215 19.026 16.3392 19.026H11.4413C10.6079 19.026 10.0553 19.5623 9.82026 21.0151L8.45344 29.4572C8.36484 30.0049 8.12031 30.3276 7.67401 30.3667H1.5566C0.877799 30.3667 0.636596 29.8624 0.814042 28.7705L5.21921 1.68886C5.39563 0.603573 6.00709 0.0869141 7.22181 0.0869141Z" fill="#1B3D92"/>
<path fill-rule="evenodd" clip-rule="evenodd" d="M13.6076 8.56494H23.5282C28.8542 8.56494 30.8596 11.1828 30.55 15.0354C30.0394 21.3862 26.0849 24.8979 20.8399 24.8979H18.1915C17.4728 24.8979 16.9891 25.3594 16.7932 26.6135L15.6574 33.8939C15.5836 34.3668 15.3276 34.6445 14.9427 34.6784H8.72212C8.13678 34.6784 7.9286 34.2435 8.08172 33.3017L11.8806 9.94659C12.0326 9.01049 12.5599 8.56494 13.6076 8.56494Z" fill="#00A2D3"/>
<path fill-rule="evenodd" clip-rule="evenodd" d="M9.48828 20.6046L11.2223 9.94642C11.3746 9.01057 11.9021 8.56502 12.9499 8.56502H22.8705C24.5128 8.56502 25.8394 8.8139 26.8793 9.27238C25.8825 15.8256 21.5175 19.4666 15.8018 19.4666H10.9038C10.2593 19.4666 9.77762 19.7866 9.48828 20.6046Z" fill="#1B2E7F"/>
</svg>
