<svg width="21" height="22" viewBox="0 0 21 22" fill="none" xmlns="http://www.w3.org/2000/svg">
<path d="M8.8125 20.2812C8.8125 20.505 8.72361 20.7196 8.56537 20.8779C8.40714 21.0361 8.19253 21.125 7.96875 21.125H2.0625C1.61495 21.125 1.18572 20.9472 0.869257 20.6307C0.55279 20.3143 0.375 19.8851 0.375 19.4375V2.5625C0.375 2.11495 0.55279 1.68572 0.869257 1.36926C1.18572 1.05279 1.61495 0.875 2.0625 0.875H7.96875C8.19253 0.875 8.40714 0.963895 8.56537 1.12213C8.72361 1.28036 8.8125 1.49497 8.8125 1.71875C8.8125 1.94253 8.72361 2.15714 8.56537 2.31537C8.40714 2.47361 8.19253 2.5625 7.96875 2.5625H2.0625V19.4375H7.96875C8.19253 19.4375 8.40714 19.5264 8.56537 19.6846C8.72361 19.8429 8.8125 20.0575 8.8125 20.2812ZM20.3782 10.403L16.1595 6.1843C16.0011 6.02597 15.7864 5.93703 15.5625 5.93703C15.3386 5.93703 15.1239 6.02597 14.9655 6.1843C14.8072 6.34262 14.7183 6.55735 14.7183 6.78125C14.7183 7.00515 14.8072 7.21988 14.9655 7.3782L17.7446 10.1562H7.96875C7.74497 10.1562 7.53036 10.2451 7.37213 10.4034C7.21389 10.5616 7.125 10.7762 7.125 11C7.125 11.2238 7.21389 11.4384 7.37213 11.5966C7.53036 11.7549 7.74497 11.8438 7.96875 11.8438H17.7446L14.9655 14.6218C14.8072 14.7801 14.7183 14.9948 14.7183 15.2188C14.7183 15.4427 14.8072 15.6574 14.9655 15.8157C15.1239 15.974 15.3386 16.063 15.5625 16.063C15.7864 16.063 16.0011 15.974 16.1595 15.8157L20.3782 11.597C20.4567 11.5186 20.5189 11.4255 20.5613 11.3231C20.6038 11.2207 20.6257 11.1109 20.6257 11C20.6257 10.8891 20.6038 10.7793 20.5613 10.6769C20.5189 10.5745 20.4567 10.4814 20.3782 10.403Z" fill="#AA2222"/>
</svg>
