<svg width="21" height="22" viewBox="0 0 21 22" fill="none" xmlns="http://www.w3.org/2000/svg">
<path d="M20.3932 16.0562C19.8079 15.0479 18.9377 12.195 18.9377 8.46875C18.9377 6.23099 18.0488 4.08487 16.4665 2.50254C14.8841 0.920198 12.738 0.03125 10.5002 0.03125C8.26248 0.03125 6.11637 0.920198 4.53403 2.50254C2.95169 4.08487 2.06274 6.23099 2.06274 8.46875C2.06274 12.196 1.19157 15.0479 0.606219 16.0562C0.456739 16.3125 0.377493 16.6037 0.376475 16.9005C0.375456 17.1972 0.4527 17.4889 0.600417 17.7463C0.748134 18.0037 0.9611 18.2175 1.21784 18.3663C1.47458 18.5151 1.76601 18.5935 2.06274 18.5938H6.36692C6.56159 19.5463 7.07928 20.4024 7.83245 21.0172C8.58561 21.632 9.52801 21.9678 10.5002 21.9678C11.4725 21.9678 12.4149 21.632 13.168 21.0172C13.9212 20.4024 14.4389 19.5463 14.6336 18.5938H18.9377C19.2344 18.5933 19.5257 18.5148 19.7823 18.3659C20.0389 18.217 20.2517 18.0032 20.3993 17.7458C20.5469 17.4885 20.624 17.1968 20.623 16.9002C20.6219 16.6036 20.5426 16.3124 20.3932 16.0562ZM10.5002 20.2812C9.97693 20.2811 9.46653 20.1187 9.03929 19.8165C8.61205 19.5143 8.28898 19.0871 8.11454 18.5938H12.8859C12.7115 19.0871 12.3884 19.5143 11.9612 19.8165C11.534 20.1187 11.0236 20.2811 10.5002 20.2812ZM2.06274 16.9062C2.87485 15.5098 3.75024 12.2741 3.75024 8.46875C3.75024 6.67854 4.4614 4.96165 5.72727 3.69578C6.99314 2.42991 8.71003 1.71875 10.5002 1.71875C12.2905 1.71875 14.0073 2.42991 15.2732 3.69578C16.5391 4.96165 17.2502 6.67854 17.2502 8.46875C17.2502 12.2709 18.1235 15.5067 18.9377 16.9062H2.06274Z" fill="#0A3967"/>
</svg>
