<svg width="23" height="22" viewBox="0 0 23 22" fill="none" xmlns="http://www.w3.org/2000/svg">
<path d="M11.5 0.03125C9.33059 0.03125 7.2099 0.674556 5.40609 1.87982C3.60229 3.08508 2.1964 4.79816 1.3662 6.80244C0.536003 8.80672 0.318785 11.0122 0.742016 13.1399C1.16525 15.2676 2.20992 17.2221 3.74393 18.7561C5.27793 20.2901 7.23238 21.3348 9.36011 21.758C11.4878 22.1812 13.6933 21.964 15.6976 21.1338C17.7018 20.3036 19.4149 18.8977 20.6202 17.0939C21.8254 15.2901 22.4688 13.1694 22.4688 11C22.4657 8.09185 21.3091 5.30369 19.2527 3.24731C17.1963 1.19094 14.4082 0.0343211 11.5 0.03125ZM5.81313 18.3301C6.42351 17.3755 7.26438 16.5899 8.25823 16.0457C9.25208 15.5015 10.3669 15.2163 11.5 15.2163C12.6331 15.2163 13.7479 15.5015 14.7418 16.0457C15.7356 16.5899 16.5765 17.3755 17.1869 18.3301C15.5609 19.5946 13.5598 20.2812 11.5 20.2812C9.44018 20.2812 7.4391 19.5946 5.81313 18.3301ZM8.125 10.1563C8.125 9.48874 8.32294 8.83622 8.69379 8.2812C9.06464 7.72619 9.59175 7.2936 10.2084 7.03816C10.8251 6.78271 11.5037 6.71587 12.1584 6.8461C12.8131 6.97632 13.4145 7.29776 13.8865 7.76976C14.3585 8.24177 14.6799 8.84313 14.8102 9.49782C14.9404 10.1525 14.8735 10.8311 14.6181 11.4478C14.3627 12.0645 13.9301 12.5916 13.3751 12.9625C12.82 13.3333 12.1675 13.5313 11.5 13.5313C10.6049 13.5313 9.74645 13.1757 9.11352 12.5427C8.48058 11.9098 8.125 11.0514 8.125 10.1563ZM18.4356 17.1604C17.4946 15.7968 16.1714 14.7418 14.6324 14.1282C15.4591 13.4771 16.0623 12.5845 16.3582 11.5747C16.6541 10.5648 16.628 9.48789 16.2834 8.49358C15.9389 7.49928 15.2931 6.63706 14.4358 6.02682C13.5785 5.41658 12.5523 5.08866 11.5 5.08866C10.4477 5.08866 9.42154 5.41658 8.56424 6.02682C7.70694 6.63706 7.06111 7.49928 6.71656 8.49358C6.37201 9.48789 6.34587 10.5648 6.64177 11.5747C6.93767 12.5845 7.5409 13.4771 8.36758 14.1282C6.8286 14.7418 5.5054 15.7968 4.56438 17.1604C3.37529 15.8233 2.5981 14.1709 2.32638 12.4022C2.05466 10.6336 2.30001 8.82407 3.03289 7.19163C3.76576 5.55919 4.9549 4.17341 6.45713 3.20115C7.95935 2.2289 9.7106 1.71163 11.5 1.71163C13.2894 1.71163 15.0407 2.2289 16.5429 3.20115C18.0451 4.17341 19.2343 5.55919 19.9671 7.19163C20.7 8.82407 20.9453 10.6336 20.6736 12.4022C20.4019 14.1709 19.6247 15.8233 18.4356 17.1604Z" fill="#0A3967"/>
</svg>
