<svg width="62" height="61" viewBox="0 0 62 61" fill="none" xmlns="http://www.w3.org/2000/svg">
<path fill-rule="evenodd" clip-rule="evenodd" d="M42 22.25C42 25.1674 40.8411 27.9653 38.7782 30.0282C36.7153 32.0911 33.9174 33.25 31 33.25C28.0826 33.25 25.2847 32.0911 23.2218 30.0282C21.1589 27.9653 20 25.1674 20 22.25C20 19.3326 21.1589 16.5347 23.2218 14.4718C25.2847 12.4089 28.0826 11.25 31 11.25C33.9174 11.25 36.7153 12.4089 38.7782 14.4718C40.8411 16.5347 42 19.3326 42 22.25ZM36.5 22.25C36.5 23.7087 35.9205 25.1076 34.8891 26.1391C33.8576 27.1705 32.4587 27.75 31 27.75C29.5413 27.75 28.1424 27.1705 27.1109 26.1391C26.0795 25.1076 25.5 23.7087 25.5 22.25C25.5 20.7913 26.0795 19.3924 27.1109 18.3609C28.1424 17.3295 29.5413 16.75 31 16.75C32.4587 16.75 33.8576 17.3295 34.8891 18.3609C35.9205 19.3924 36.5 20.7913 36.5 22.25Z" fill="white"/>
<path fill-rule="evenodd" clip-rule="evenodd" d="M31 0.25C14.2938 0.25 0.75 13.7938 0.75 30.5C0.75 47.2062 14.2938 60.75 31 60.75C47.7062 60.75 61.25 47.2062 61.25 30.5C61.25 13.7938 47.7062 0.25 31 0.25ZM6.25 30.5C6.25 36.2475 8.21075 41.5385 11.497 45.7405C13.8049 42.7097 16.7822 40.2536 20.1964 38.5639C23.6107 36.8742 27.3693 35.9967 31.1787 36C34.9389 35.9964 38.6503 36.8512 42.0301 38.4991C45.4099 40.1471 48.3689 42.5448 50.6817 45.5095C53.0645 42.3844 54.6688 38.7368 55.362 34.8686C56.0551 31.0004 55.8172 27.0227 54.6679 23.2647C53.5185 19.5067 51.4909 16.0764 48.7526 13.2576C46.0143 10.4388 42.6442 8.31261 38.9211 7.0549C35.1979 5.79718 31.2288 5.44412 27.3421 6.02493C23.4554 6.60573 19.7629 8.1037 16.5701 10.3949C13.3773 12.6861 10.776 15.7046 8.98138 19.2008C7.18678 22.6969 6.2505 26.5702 6.25 30.5ZM31 55.25C25.3184 55.2585 19.8082 53.304 15.402 49.717C17.1756 47.178 19.5362 45.105 22.283 43.6744C25.0299 42.2437 28.0817 41.4978 31.1787 41.5C34.2372 41.4976 37.2521 42.2248 39.973 43.6214C42.694 45.018 45.0425 47.0436 46.8235 49.53C42.3831 53.2334 36.7821 55.2581 31 55.25Z" fill="white"/>
</svg>
