<?xml version="1.0" encoding="UTF-8"?>
<svg xmlns="http://www.w3.org/2000/svg" xmlns:xlink="http://www.w3.org/1999/xlink" width="50px" height="50px" viewBox="0 0 50 50" version="1.1">
<g id="surface1">
<path style=" stroke:none;fill-rule:evenodd;fill:rgb(100%,100%,100%);fill-opacity:1;" d="M 17.558594 6.25 C 18.433594 6.25 19.144531 6.945312 19.144531 7.808594 C 19.144531 8.664062 18.433594 9.363281 17.558594 9.363281 L 14.164062 9.363281 C 11.347656 9.367188 9.054688 11.617188 9.054688 14.378906 L 9.054688 18.253906 C 9.054688 19.113281 8.34375 19.8125 7.46875 19.8125 C 6.59375 19.8125 5.882812 19.113281 5.882812 18.253906 L 5.882812 14.378906 C 5.882812 9.902344 9.597656 6.257812 14.160156 6.253906 L 17.554688 6.25 Z M 32.5 6.25 L 35.820312 6.25 C 40.398438 6.25 44.117188 9.898438 44.117188 14.386719 L 44.117188 18.253906 C 44.117188 19.113281 43.410156 19.8125 42.53125 19.8125 C 41.65625 19.8125 40.945312 19.113281 40.945312 18.253906 L 40.945312 14.386719 C 40.945312 11.617188 38.648438 9.359375 35.820312 9.359375 L 32.5 9.359375 C 31.625 9.359375 30.914062 8.664062 30.914062 7.808594 C 30.914062 6.945312 31.625 6.25 32.5 6.25 Z M 30.753906 14.046875 L 19.246094 14.046875 C 16.613281 14.074219 14.496094 16.183594 14.519531 18.769531 L 14.519531 21.363281 C 14.527344 21.664062 14.773438 21.914062 15.082031 21.921875 L 34.914062 21.921875 C 35.226562 21.914062 35.472656 21.667969 35.484375 21.363281 L 35.484375 18.769531 C 35.484375 17.519531 34.996094 16.320312 34.105469 15.429688 C 33.226562 14.542969 32.015625 14.046875 30.753906 14.046875 Z M 3.671875 25.085938 L 46.332031 25.085938 C 47.207031 25.085938 47.917969 25.78125 47.917969 26.640625 C 47.917969 27.5 47.207031 28.195312 46.332031 28.195312 L 44.117188 28.195312 L 44.117188 35.609375 C 44.117188 40.101562 40.394531 43.75 35.820312 43.75 L 32.5 43.75 C 31.625 43.75 30.914062 43.054688 30.914062 42.191406 C 30.914062 41.335938 31.625 40.636719 32.5 40.636719 L 35.820312 40.636719 C 38.648438 40.636719 40.949219 38.386719 40.949219 35.609375 L 40.949219 28.195312 L 35.484375 28.195312 L 35.484375 30.261719 C 35.503906 32.84375 33.390625 34.957031 30.753906 34.980469 L 19.246094 34.980469 C 16.613281 34.957031 14.496094 32.84375 14.519531 30.261719 L 14.519531 28.195312 L 9.054688 28.195312 L 9.054688 35.621094 C 9.054688 38.382812 11.347656 40.632812 14.167969 40.636719 L 17.558594 40.636719 C 18.433594 40.636719 19.144531 41.335938 19.144531 42.191406 C 19.140625 43.054688 18.433594 43.75 17.554688 43.75 L 14.160156 43.746094 C 9.597656 43.742188 5.878906 40.097656 5.878906 35.621094 L 5.878906 28.195312 L 3.671875 28.195312 C 2.796875 28.195312 2.082031 27.5 2.082031 26.640625 C 2.082031 25.78125 2.796875 25.085938 3.671875 25.085938 Z M 3.671875 25.085938 "/>
</g>
</svg>
