<svg width="24" height="25" viewBox="0 0 24 25" fill="none" xmlns="http://www.w3.org/2000/svg">
<path fill-rule="evenodd" clip-rule="evenodd" d="M12.0341 10.8233C10.1664 10.8233 8.64739 12.4526 8.64739 14.4548C8.64739 16.457 10.1664 18.0853 12.0341 18.0853C13.9019 18.0853 15.4218 16.457 15.4218 14.4548C15.4218 12.4526 13.9019 10.8233 12.0341 10.8233Z" fill="white"/>
<path fill-rule="evenodd" clip-rule="evenodd" d="M21.4277 14.0283C19.4536 9.57472 15.9429 6.91507 12.0372 6.91309H12.0335C8.12683 6.91507 4.61612 9.57472 2.64198 14.0283L2.24512 14.9238L3.91675 15.7756L4.31361 14.8791C5.97322 11.1336 8.8595 8.89741 12.0353 8.89642C15.2102 8.89741 18.0965 11.1336 19.7561 14.8791L20.1539 15.7756L21.8246 14.9238L21.4277 14.0283Z" fill="white"/>
</svg>
