<svg width="27" height="22" viewBox="0 0 27 22" fill="none" xmlns="http://www.w3.org/2000/svg">
<path d="M26.7532 11.597L24.2219 14.1282C24.1436 14.2067 24.0505 14.2689 23.9481 14.3114C23.8457 14.3539 23.7359 14.3757 23.625 14.3757C23.5141 14.3757 23.4043 14.3539 23.3019 14.3114C23.1994 14.2689 23.1064 14.2067 23.028 14.1282L20.4968 11.597C20.3385 11.4387 20.2495 11.2239 20.2495 11C20.2495 10.7761 20.3385 10.5614 20.4968 10.4031C20.6551 10.2448 20.8698 10.1558 21.0937 10.1558C21.3176 10.1558 21.5324 10.2448 21.6907 10.4031L22.7812 11.4947V11C22.7822 9.03478 22.1593 7.11992 21.0023 5.53133C19.8453 3.94275 18.2139 2.76243 16.3431 2.16041C14.4723 1.55839 12.4587 1.56575 10.5924 2.18143C8.72601 2.79711 7.10328 3.98933 5.95791 5.58633C5.82728 5.76815 5.62977 5.89063 5.40884 5.92683C5.18791 5.96302 4.96164 5.90997 4.77982 5.77934C4.59801 5.64871 4.47553 5.45121 4.43933 5.23027C4.40314 5.00934 4.45619 4.78308 4.58682 4.60126C5.9405 2.71392 7.85833 1.30498 10.064 0.577432C12.2698 -0.150119 14.6495 -0.158734 16.8604 0.552829C19.0713 1.26439 20.9993 2.6594 22.3666 4.53689C23.7339 6.41438 24.47 8.67744 24.4687 11V11.4947L25.5593 10.4031C25.7176 10.2448 25.9323 10.1558 26.1562 10.1558C26.3801 10.1558 26.5949 10.2448 26.7532 10.4031C26.9115 10.5614 27.0005 10.7761 27.0005 11C27.0005 11.2239 26.9115 11.4387 26.7532 11.597ZM22.41 17.3978C21.0559 19.2837 19.1384 20.6913 16.9333 21.418C14.7283 22.1448 12.3496 22.1531 10.1396 21.4418C7.92953 20.7305 6.00218 19.3363 4.63495 17.46C3.26772 15.5836 2.53114 13.3217 2.53123 11V10.5054L1.44068 11.597C1.28236 11.7553 1.06763 11.8443 0.843731 11.8443C0.61983 11.8443 0.4051 11.7553 0.246778 11.597C0.088456 11.4387 -0.000488281 11.2239 -0.000488281 11C-0.000488281 10.7761 0.088456 10.5614 0.246778 10.4031L2.77803 7.87184C2.85639 7.79339 2.94945 7.73116 3.05187 7.6887C3.1543 7.64624 3.2641 7.62438 3.37498 7.62438C3.48586 7.62438 3.59566 7.64624 3.69809 7.6887C3.80052 7.73116 3.89357 7.79339 3.97193 7.87184L6.50318 10.4031C6.66151 10.5614 6.75045 10.7761 6.75045 11C6.75045 11.2239 6.66151 11.4387 6.50318 11.597C6.34486 11.7553 6.13013 11.8443 5.90623 11.8443C5.68233 11.8443 5.4676 11.7553 5.30928 11.597L4.21873 10.5054V11C4.21673 13.272 5.05177 15.4652 6.56436 17.1605C7.50538 15.7968 8.82858 14.7419 10.3676 14.1282C9.54088 13.4771 8.93764 12.5846 8.64174 11.5747C8.34584 10.5649 8.37199 9.48793 8.71654 8.49363C9.06109 7.49933 9.70692 6.6371 10.5642 6.02687C11.4215 5.41663 12.4477 5.08871 13.5 5.08871C14.5523 5.08871 15.5784 5.41663 16.4357 6.02687C17.293 6.6371 17.9389 7.49933 18.2834 8.49363C18.628 9.48793 18.6541 10.5649 18.3582 11.5747C18.0623 12.5846 17.4591 13.4771 16.6324 14.1282C18.1728 14.742 19.4969 15.7982 20.4377 17.1636C20.651 16.9241 20.852 16.6738 21.0399 16.4138C21.1706 16.2319 21.3681 16.1095 21.589 16.0733C21.8099 16.0371 22.0362 16.0901 22.218 16.2207C22.3998 16.3514 22.5223 16.5489 22.5585 16.7698C22.5947 16.9908 22.5417 17.217 22.411 17.3988L22.41 17.3978ZM13.5 13.5313C14.1675 13.5313 14.82 13.3334 15.375 12.9625C15.93 12.5917 16.3626 12.0646 16.6181 11.4479C16.8735 10.8312 16.9404 10.1526 16.8101 9.49787C16.6799 8.84318 16.3585 8.24181 15.8865 7.76981C15.4145 7.29781 14.8131 6.97637 14.1584 6.84615C13.5037 6.71592 12.8251 6.78276 12.2084 7.0382C11.5917 7.29365 11.0646 7.72623 10.6938 8.28125C10.3229 8.83626 10.125 9.48878 10.125 10.1563C10.125 11.0514 10.4806 11.9098 11.1135 12.5428C11.7464 13.1757 12.6049 13.5313 13.5 13.5313ZM13.5 20.2813C15.5592 20.2786 17.5593 19.5927 19.1869 18.3312C18.5765 17.3766 17.7356 16.591 16.7418 16.0468C15.7479 15.5026 14.6331 15.2174 13.5 15.2174C12.3669 15.2174 11.2521 15.5026 10.2582 16.0468C9.26436 16.591 8.42349 17.3766 7.81311 18.3312C9.4382 19.5973 11.4399 20.2837 13.5 20.2813Z" fill="#0A3967"/>
</svg>
