<svg width="50" height="45" viewBox="0 0 50 45" fill="none" xmlns="http://www.w3.org/2000/svg">
<path fill-rule="evenodd" clip-rule="evenodd" d="M44.4025 22.5025C44.4025 24.5362 46.0725 26.191 48.125 26.191C49.16 26.191 50 27.0233 50 28.0488V34.7396C50 40.3974 45.355 45 39.645 45H10.3575C4.6475 45 0 40.3974 0 34.7396V28.0488C0 27.0233 0.84 26.191 1.875 26.191C3.93 26.191 5.6 24.5362 5.6 22.5025C5.6 20.5208 3.9975 19.0295 1.875 19.0295C1.3775 19.0295 0.9025 18.8338 0.55 18.4845C0.1975 18.1353 0 17.6621 0 17.1716L0.005 10.2629C0.005 4.60503 4.65 0 10.36 0H39.64C45.35 0 49.9975 4.60503 49.9975 10.2629L50 16.9561C50 17.4466 49.8025 17.9222 49.4525 18.269C49.1 18.6183 48.625 18.814 48.125 18.814C46.0725 18.814 44.4025 20.4687 44.4025 22.5025ZM30.6302 24.1201L33.5777 21.2763C34.0902 20.7858 34.2677 20.0625 34.0452 19.3936C33.8252 18.7248 33.2502 18.2492 32.5552 18.1526L28.4827 17.563L26.6602 13.9067C26.3477 13.2775 25.7127 12.8862 25.0052 12.8837H25.0002C24.2952 12.8837 23.6602 13.2751 23.3427 13.9043L21.5202 17.563L17.4552 18.1501C16.7527 18.2492 16.1777 18.7248 15.9552 19.3936C15.7352 20.0625 15.9127 20.7858 16.4227 21.2763L19.3702 24.1201L18.6752 28.1405C18.5552 28.8341 18.8377 29.5227 19.4127 29.9364C19.7377 30.1668 20.1152 30.2857 20.4977 30.2857C20.7902 30.2857 21.0852 30.2139 21.3552 30.0727L25.0002 28.1752L28.6377 30.0677C29.2677 30.4021 30.0152 30.3501 30.5877 29.9339C31.1652 29.5227 31.4477 28.8341 31.3277 28.1405L30.6302 24.1201Z" fill="white"/>
</svg>
