<svg width="42" height="36" viewBox="0 0 42 36" fill="none" xmlns="http://www.w3.org/2000/svg">
<path fill-rule="evenodd" clip-rule="evenodd" d="M21.0066 10.1221C20.1545 8.51164 15.6482 0.469971 10.667 0.469971C5.68573 0.469971 1.1774 8.51164 0.325314 10.1221C-0.212186 11.1387 0.175314 12.3991 1.19198 12.9387C2.20448 13.47 3.46906 13.0887 4.00865 12.0721C5.23781 9.75539 7.03781 7.28664 8.58364 5.85747L8.58364 28.8429C8.58364 29.995 9.51489 30.9262 10.667 30.9262C11.8191 30.9262 12.7503 29.995 12.7503 28.8429L12.7503 5.85747C14.2961 7.28872 16.0961 9.75539 17.3232 12.0721C17.6982 12.7762 18.4211 13.1804 19.167 13.1804C19.4961 13.1804 19.8316 13.1012 20.1399 12.9387C21.1566 12.3991 21.5441 11.1387 21.0066 10.1221Z" fill="white"/>
<path fill-rule="evenodd" clip-rule="evenodd" d="M40.8082 23.0677C39.7999 22.5281 38.5311 22.9156 37.9916 23.9302C36.7666 26.2427 34.9749 28.7052 33.4374 30.1364V7.15726C33.4374 6.00726 32.5061 5.07393 31.3541 5.07393C30.202 5.07393 29.2707 6.00726 29.2707 7.15726L29.2707 30.1448C27.7249 28.7156 25.9249 26.2489 24.6957 23.9302C24.1562 22.9156 22.8853 22.526 21.8791 23.0677C20.8624 23.6052 20.4749 24.8635 21.0124 25.8823C21.8645 27.4927 26.3707 35.5302 31.3541 35.5302C36.3166 35.5302 40.8228 27.4927 41.6749 25.8823C42.2124 24.8635 41.8249 23.6052 40.8082 23.0677Z" fill="white"/>
</svg>
