<svg width="36" height="43" viewBox="0 0 36 43" fill="none" xmlns="http://www.w3.org/2000/svg">
<path fill-rule="evenodd" clip-rule="evenodd" d="M10.1234 21.6349C8.53008 22.5185 0.57855 27.1819 0.67647 32.1622C0.77439 37.1425 8.90312 41.4919 10.53 42.3121C11.557 42.8296 12.8096 42.4174 13.3291 41.3903C13.8403 40.3675 13.4343 39.1107 12.4072 38.5912C10.0668 37.4078 7.56316 35.6567 6.10388 34.1392L29.0849 33.6874C30.2367 33.6648 31.1495 32.7154 31.1268 31.5635C31.1042 30.4117 30.1548 29.4989 29.0029 29.5215L6.02197 29.9734C7.42256 28.3997 9.85337 26.5516 12.1455 25.2792C12.8421 24.8904 13.232 24.1597 13.2173 23.414C13.2109 23.0849 13.1251 22.7511 12.9566 22.446C12.3971 21.4402 11.1293 21.0775 10.1234 21.6349Z" fill="white"/>
<path fill-rule="evenodd" clip-rule="evenodd" d="M22.6773 1.58257C22.1576 2.60131 22.57 3.8622 23.595 4.38173C25.9311 5.56104 28.4284 7.30395 29.8896 8.81302L6.91485 9.26474C5.76508 9.28734 4.85023 10.2368 4.87288 11.3886C4.89553 12.5405 5.84698 13.4532 6.99676 13.4306L29.9798 12.9787C28.5813 14.5523 26.1505 16.4005 23.8564 17.675C22.8526 18.2344 22.4881 19.5127 23.0494 20.5081C23.6068 21.514 24.8725 21.8767 25.8805 21.3192C27.4738 20.4357 35.4212 15.7723 35.3232 10.7899C35.2257 5.82838 27.1012 1.481 25.4743 0.660739C24.4452 0.143371 23.1947 0.555532 22.6773 1.58257Z" fill="white"/>
</svg>
