<svg width="46" height="43" viewBox="0 0 46 43" fill="none" xmlns="http://www.w3.org/2000/svg">
<path fill-rule="evenodd" clip-rule="evenodd" d="M36.2203 13.2083H45.9166C45.9166 5.42303 41.2518 0.875 33.3481 0.875H12.6518C4.74807 0.875 0.083252 5.42303 0.083252 13.109V29.891C0.083252 37.577 4.74807 42.125 12.6518 42.125H33.3481C41.2518 42.125 45.9166 37.577 45.9166 29.891V29.176H36.2203C31.7202 29.176 28.0721 25.6193 28.0721 21.2319C28.0721 16.8445 31.7202 13.2877 36.2203 13.2877V13.2083ZM36.2203 16.6243H44.2055C45.1505 16.6243 45.9166 17.3712 45.9166 18.2925V24.0918C45.9056 25.0087 45.1459 25.7493 44.2055 25.7601H36.4036C34.1255 25.7899 32.1333 24.2692 31.6166 22.1057C31.3578 20.7628 31.7211 19.3769 32.609 18.3197C33.497 17.2624 34.8188 16.6418 36.2203 16.6243ZM36.5666 22.7214H37.3203C38.2878 22.7214 39.0721 21.9567 39.0721 21.0134C39.0721 20.0701 38.2878 19.3054 37.3203 19.3054H36.5666C36.1038 19.3001 35.6582 19.4756 35.3291 19.7928C34.9999 20.11 34.8147 20.5424 34.8147 20.9936C34.8147 21.9401 35.5958 22.7105 36.5666 22.7214ZM10.9407 13.2083H23.8758C24.8434 13.2083 25.6277 12.4436 25.6277 11.5003C25.6277 10.557 24.8434 9.79231 23.8758 9.79231H10.9407C9.98104 9.79225 9.19996 10.5449 9.18881 11.4804C9.18874 12.427 9.96985 13.1974 10.9407 13.2083Z" fill="white"/>
</svg>
